<svg width="19.000000" height="24.000000" viewBox="0 0 19 24" fill="none" xmlns="http://www.w3.org/2000/svg" xmlns:xlink="http://www.w3.org/1999/xlink">
	<desc>
			Created with Pixso.
	</desc>
	<defs>
		<linearGradient id="paint_linear_2150_635_0" x1="1.000000" y1="10.557376" x2="20.880871" y2="12.180327" gradientUnits="userSpaceOnUse">
			<stop offset="0.309726" stop-color="#DFC38E"/>
			<stop offset="0.870713" stop-color="#CEA654"/>
		</linearGradient>
	</defs>
	<path id="Vector" d="M1 9.58226C1 7.30603 1.89554 5.12344 3.48959 3.51391C5.08368 1.90437 7.24579 1 9.50015 1C11.7545 1 13.9164 1.90423 15.5104 3.51377C17.1045 5.12331 18 7.30658 18 9.58282C18 15.5976 12.8462 20.5713 10.5649 22.4783C10.2372 22.7522 10.0732 22.889 9.8291 22.9591C9.63943 23.0136 9.36029 23.0136 9.17062 22.9591C8.92703 22.8891 8.76184 22.751 8.43533 22.4781C6.15402 20.5711 1 15.5971 1 9.58226ZM7.07147 8.4382C7.07147 7.06887 8.15878 5.9588 9.50006 5.9588C10.8413 5.9588 11.9286 7.06887 11.9286 8.4382C11.9286 9.80754 10.8413 10.9176 9.50006 10.9176C8.15878 10.9176 7.07147 9.80754 7.07147 8.4382Z" stroke="url(#paint_linear_2150_635_0)" stroke-opacity="1.000000" stroke-width="2.000000" stroke-linejoin="round"/>
</svg>
