<svg width="35.777344" height="35.617188" viewBox="0 0 24.7773 19.6172" fill="none" xmlns="http://www.w3.org/2000/svg" xmlns:xlink="http://www.w3.org/1999/xlink">
	<desc>
			Created with Pixso.
	</desc>
	<defs>
		<linearGradient id="paint_linear_9_1772_0" x1="12.389162" y1="0.000000" x2="12.389162" y2="19.616171" gradientUnits="userSpaceOnUse">
			<stop offset="0.100000" stop-color="#F7EF8A"/>
			<stop offset="0.745000" stop-color="#E2C283"/>
		</linearGradient>
	</defs>
	<path id="Path-3" d="M1.74609 8.44336C8.39062 5.65039 12.8281 3.84766 15.0312 2.96094C21.3555 0.443359 22.668 0 23.5195 0C23.6992 0 24.125 0.0332031 24.4102 0.238281C24.6211 0.408203 24.6914 0.646484 24.7266 0.816406C24.7617 0.986328 24.8008 1.36133 24.7617 1.66797C24.4102 5.10547 22.9531 13.5156 22.1719 17.3613C21.8516 18.9961 21.2109 19.541 20.6094 19.6094C19.293 19.7109 18.2617 18.7578 16.9844 17.9746C14.9961 16.7148 13.8594 15.9316 11.9062 14.707C9.66797 13.2773 11.125 12.4941 12.4023 11.2344C12.7227 10.8945 18.582 5.82227 18.6914 5.34375C18.6914 5.27734 18.7266 5.07227 18.582 4.9707C18.4414 4.86719 18.2617 4.90234 18.1211 4.93555C17.9102 4.9707 14.7109 7.01367 8.49609 11.0293C7.57422 11.6426 6.75391 11.9141 6.00781 11.9141C5.19141 11.9141 3.62891 11.4727 2.45703 11.0977C1.03516 10.6562 -0.101562 10.418 0.0078125 9.66797C0.113281 9.25977 0.683594 8.85156 1.74609 8.44336Z" fill="url(#paint_linear_9_1772_0)" fill-opacity="1.000000" fill-rule="evenodd"/>
</svg>
