<svg width="35.070312" height="35.681641" viewBox="0 0 34.0703 21.6816" fill="none" xmlns="http://www.w3.org/2000/svg" xmlns:xlink="http://www.w3.org/1999/xlink">
	<desc>
			Created with Pixso.
	</desc>
	<defs>
		<linearGradient id="paint_linear_9_1777_0" x1="17.035097" y1="0.000000" x2="17.035097" y2="21.681032" gradientUnits="userSpaceOnUse">
			<stop offset="0.100000" stop-color="#F7EF8A"/>
			<stop offset="0.745000" stop-color="#E2C283"/>
		</linearGradient>
	</defs>
	<path id="Vector" d="M5.00391 0L1.27734 0C0.214844 0 0 0.537109 0 1.12891C0 2.1875 1.26172 7.43359 5.88281 14.373C8.96484 19.1113 13.3047 21.6816 17.2539 21.6816C19.6211 21.6816 19.9141 21.1113 19.9141 20.127L19.9141 16.5469C19.9141 15.4043 20.1406 15.1777 20.8906 15.1777C21.4414 15.1777 22.3906 15.4727 24.6016 17.7578C27.1289 20.4668 27.543 21.6816 28.9648 21.6816L32.6953 21.6816C33.7578 21.6816 34.293 21.1113 33.9844 19.9844C33.6484 18.8633 32.4414 17.2344 30.8398 15.3047C29.9727 14.2031 28.668 13.0195 28.2734 12.4277C27.7188 11.666 27.8789 11.3262 28.2734 10.6504C28.2734 10.6504 32.8164 3.79492 33.2891 1.46875C33.5234 0.621094 33.2891 0 32.1602 0L28.4336 0C27.4844 0 27.0508 0.537109 26.8125 1.12891C26.8125 1.12891 24.918 6.08008 22.2305 9.29492C21.3633 10.2266 20.9688 10.5234 20.4961 10.5234C20.2578 10.5234 19.9141 10.2266 19.9141 9.38086L19.9141 1.46875C19.9141 0.453125 19.6406 0 18.8477 0L12.9922 0C12.3984 0 12.043 0.470703 12.043 0.917969C12.043 1.88086 13.3867 2.10352 13.5234 4.81055L13.5234 10.6914C13.5234 11.9824 13.3086 12.2148 12.832 12.2148C11.5703 12.2148 8.49609 7.24219 6.67188 1.55273C6.31641 0.447266 5.95703 0 5.00391 0Z" fill="url(#paint_linear_9_1777_0)" fill-opacity="1.000000" fill-rule="evenodd"/>
</svg>
