<svg width="35.136719" height="35.244141" viewBox="0 0 25.1367 25.2441" fill="none" xmlns="http://www.w3.org/2000/svg" xmlns:xlink="http://www.w3.org/1999/xlink">
	<desc>
			Created with Pixso.
	</desc>
	<defs>
		<linearGradient id="paint_linear_9_1768_0" x1="12.568423" y1="0.000000" x2="12.568423" y2="25.245035" gradientUnits="userSpaceOnUse">
			<stop offset="0.100000" stop-color="#F7EF8A"/>
			<stop offset="0.745000" stop-color="#E2C283"/>
		</linearGradient>
	</defs>
	<path id="Vector" d="M21.4688 3.66602C19.1094 1.30469 15.9648 0 12.6172 0C5.71484 0 0.109375 5.61328 0.101562 12.5078C0.101562 14.7148 0.679688 16.8652 1.77344 18.7598L0 25.2441L6.63672 23.5078C8.46484 24.5059 10.5195 25.0293 12.6172 25.0293L12.6211 25.0293C19.5156 25.0293 25.1289 19.4141 25.1367 12.5195C25.1367 9.17188 23.832 6.0293 21.4688 3.66602ZM12.6211 22.9121C10.7539 22.9121 8.91797 22.4082 7.32812 21.4648L6.94922 21.2422L3.01172 22.2754L4.0625 18.4414L3.81641 18.0508C2.77734 16.3965 2.22266 14.4805 2.22266 12.5137C2.22266 6.7793 6.89453 2.11523 12.6289 2.11523C15.4062 2.11523 18.0195 3.19727 19.9805 5.16406C21.9453 7.12891 23.0273 9.74414 23.0195 12.5195C23.0156 18.248 18.3516 22.9121 12.6211 22.9121ZM18.3281 15.1289C18.0156 14.9727 16.4766 14.2148 16.1914 14.1133C15.9062 14.0117 15.6992 13.957 15.4883 14.2695C15.2773 14.582 14.6836 15.2852 14.4961 15.4961C14.3164 15.7051 14.1328 15.7305 13.8203 15.5742C13.5078 15.418 12.4961 15.0859 11.3047 14.0234C10.375 13.1934 9.75 12.1719 9.57031 11.8594C9.39062 11.5469 9.55078 11.3789 9.70703 11.2227C9.84375 11.084 10.0195 10.8555 10.1758 10.6758C10.332 10.4941 10.3867 10.3633 10.4883 10.1523C10.5898 9.94141 10.543 9.76172 10.4648 9.60547C10.3867 9.44922 9.76172 7.91016 9.50391 7.28516C9.25 6.67773 8.99219 6.75586 8.80078 6.75C8.62109 6.73828 8.41016 6.73828 8.19922 6.73828C7.98828 6.73828 7.65234 6.81641 7.36328 7.12891C7.07422 7.44141 6.26953 8.19922 6.26953 9.73828C6.26953 11.2754 7.38672 12.7617 7.54297 12.9707C7.69922 13.1816 9.75 16.3379 12.8867 17.6895C13.6328 18.0137 14.2148 18.207 14.6719 18.3516C15.4219 18.5918 16.1016 18.5547 16.6445 18.4766C17.2461 18.3867 18.4961 17.7188 18.7539 16.9922C19.0117 16.2656 19.0117 15.6348 18.9336 15.5078C18.8438 15.3633 18.6406 15.2852 18.3281 15.1289Z" fill="url(#paint_linear_9_1768_0)" fill-opacity="1.000000" fill-rule="evenodd"/>
</svg>
