<svg width="34.941406" height="34.021484" viewBox="0 0 29.9414 21.0215" fill="none" xmlns="http://www.w3.org/2000/svg" xmlns:xlink="http://www.w3.org/1999/xlink">
	<desc>
			Created with Pixso.
	</desc>
	<defs>
		<linearGradient id="paint_linear_9_1773_0" x1="14.970236" y1="21.021484" x2="14.970236" y2="-0.000551" gradientUnits="userSpaceOnUse">
			<stop offset="0.100000" stop-color="#F7EF8A"/>
			<stop offset="0.745000" stop-color="#E2C283"/>
		</linearGradient>
	</defs>
	<path id="path14" d="M29.3164 3.28125C28.9688 1.99023 27.957 0.972656 26.668 0.626953C24.332 0 14.9688 0 14.9688 0C14.9688 0 5.60938 0 3.27344 0.626953C1.98438 0.972656 0.96875 1.99023 0.625 3.28125C0 5.625 0 10.5098 0 10.5098C0 10.5098 0 15.3965 0.625 17.7383C0.96875 19.0312 1.98438 20.0488 3.27344 20.3945C5.60938 21.0215 14.9688 21.0215 14.9688 21.0215C14.9688 21.0215 24.332 21.0215 26.668 20.3945C27.957 20.0488 28.9688 19.0312 29.3164 17.7383C29.9414 15.3965 29.9414 10.5098 29.9414 10.5098C29.9414 10.5098 29.9414 5.625 29.3164 3.28125Z" fill="url(#paint_linear_9_1773_0)" fill-opacity="1.000000" fill-rule="evenodd"/>
</svg>
