<svg width="84" height="84" viewBox="0 0 84 84" fill="none" xmlns="http://www.w3.org/2000/svg">
<circle cx="42.3273" cy="41.8092" r="41.671" fill="#0069A3"/>
<path d="M52.7957 21.1444C49.6854 19.6522 46.2186 18.8181 42.5743 18.8181C29.7335 18.8181 19.2924 29.1836 19.3361 41.7888C19.3361 54.482 29.7782 64.8 42.6205 64.8C46.7988 64.8 50.7101 63.706 54.0874 61.8156C55.1972 61.2023 56.2191 60.4982 57.1529 59.7954L52.4406 54.5224L47.0225 59.4432L37.8664 49.3851L40.3993 47.1888L33.9998 40.1177L36.5327 37.9243L30.0452 30.8533L40.177 21.8486L43.4216 25.3177L48.9305 20.4864L52.1288 23.7822L54.2606 21.8919C53.7741 21.6276 53.2833 21.3636 52.7957 21.1444Z" fill="white"/>
<path d="M43.8646 35.461L38.308 40.3818L43.2844 45.8712L48.841 40.9533L43.8646 35.461Z" fill="white"/>
<path d="M47.7759 44.9058L42.2626 49.8699L47.239 55.3175L52.7957 50.3967L47.7759 44.9058Z" fill="white"/>
<path d="M39.9086 26.1084L34.3563 31.0264L39.3313 36.5188L44.8879 31.5978L39.9086 26.1084Z" fill="white"/>
<path d="M48.6621 24.703L44.5314 28.3929L48.2609 32.5201L52.3959 28.7869L48.6621 24.703Z" fill="white"/>
<path d="M56.0372 41.6127L51.9065 45.3012L55.6374 49.4313L59.771 45.7399L56.0372 41.6127Z" fill="white"/>
<path d="M59.683 49.9132L55.5494 53.6031L59.2817 57.7303L63.4139 53.9971L59.683 49.9132Z" fill="white"/>
<path d="M59.9947 32.1694L57.238 34.627L59.7277 37.3514L62.4815 34.8925L59.9947 32.1694Z" fill="white"/>
<path d="M56.4399 24.0002L53.6833 26.5024L56.1729 29.2283L58.9296 26.7679L56.4399 24.0002Z" fill="white"/>
<path d="M63.5047 40.2953L60.751 42.7557L63.2363 45.4773L66.0362 43.0183L63.5047 40.2953Z" fill="white"/>
<path d="M52.4853 32.9602L48.3532 36.6486L52.087 40.734L56.2176 37.0441L52.4853 32.9602Z" fill="white"/>
</svg>
