<svg width="84" height="84" viewBox="0 0 84 84" fill="none" xmlns="http://www.w3.org/2000/svg">
<circle cx="41.7335" cy="41.671" r="41.671" fill="#F0F0F0"/>
<path d="M61.2455 42.232C61.2455 40.7983 61.1169 39.4198 60.8779 38.0964H41.8359V45.9172H52.7171C52.2484 48.4445 50.8239 50.5858 48.6826 52.0195V57.0925H55.2168C59.0399 53.5726 61.2455 48.3894 61.2455 42.232Z" fill="#4285F4"/>
<path d="M41.8334 61.9909C47.2924 61.9909 51.8691 60.1804 55.2143 57.0925L48.6801 52.0195C46.8696 53.2326 44.5537 53.9495 41.8334 53.9495C36.5675 53.9495 32.1103 50.3929 30.5204 45.614H23.7656V50.8524C27.0925 57.4601 33.9299 61.9909 41.8334 61.9909Z" fill="#34A853"/>
<path d="M30.5224 45.614C30.1181 44.4009 29.8883 43.1051 29.8883 41.7725C29.8883 40.4399 30.1181 39.1441 30.5224 37.931V32.6926H23.7677C22.3524 35.5101 21.6159 38.6196 21.6172 41.7725C21.6172 45.035 22.3984 48.1229 23.7677 50.8524L30.5224 45.614Z" fill="#FBBC05"/>
<path d="M41.8334 29.5956C44.8019 29.5956 47.467 30.6157 49.5624 32.6191L55.3613 26.8202C51.8599 23.5577 47.2832 21.5542 41.8334 21.5542C33.9299 21.5542 27.0925 26.0849 23.7656 32.6927L30.5204 37.931C32.1103 33.1522 36.5675 29.5956 41.8334 29.5956Z" fill="#EA4335"/>
</svg>
