<svg width="84" height="84" viewBox="0 0 84 84" fill="none" xmlns="http://www.w3.org/2000/svg">
<circle cx="41.7257" cy="41.671" r="41.671" fill="#242424"/>
<path d="M58.5408 30.2853C55.5389 32.1195 53.6847 35.2639 53.6847 38.7576C53.6847 42.688 56.0686 46.2691 59.6887 47.7539C58.9823 50.0248 57.9228 52.1211 56.5984 54.0426C54.6559 56.7502 52.6252 59.5452 49.6232 59.5452C46.6212 59.5452 45.7383 57.7983 42.2066 57.7983C38.7631 57.7983 37.527 59.6325 34.7016 59.6325C31.8762 59.6325 29.9338 57.0996 27.7264 53.9553C24.8127 49.5881 23.1352 44.5222 23.0469 39.1943C23.0469 30.5473 28.6977 25.9182 34.3484 25.9182C37.3504 25.9182 39.8226 27.8397 41.6768 27.8397C43.4427 27.8397 46.268 25.8308 49.6232 25.8308C53.1549 25.7435 56.5101 27.403 58.5408 30.2853ZM48.0339 22.1624C49.5349 20.4156 50.3295 18.232 50.4178 15.9611C50.4178 15.699 50.4178 15.3497 50.3295 15.0876C47.769 15.3497 45.3851 16.5725 43.7075 18.494C42.2066 20.1535 41.3236 22.2498 41.2353 24.5207C41.2353 24.7827 41.2353 25.0447 41.3236 25.3068C41.5002 25.3068 41.7651 25.3941 41.9417 25.3941C44.3256 25.2194 46.5329 23.9966 48.0339 22.1624Z" fill="white"/>
</svg>
