<svg width="84" height="84" viewBox="0 0 84 84" fill="none" xmlns="http://www.w3.org/2000/svg">
<circle cx="42.3195" cy="41.8092" r="41.671" fill="#FF8C00"/>
<path d="M56.7265 49.7294C56.6683 49.2241 56.3752 48.0656 55.6134 47.7681C55.232 47.6194 54.9107 47.7376 54.7651 48.0056C54.5302 48.4222 54.7059 49.2241 55.1455 49.9382C55.5842 50.6514 55.9947 51.008 56.2878 51.008C56.5809 51.008 56.8439 50.6514 56.7265 49.7294Z" fill="white"/>
<path d="M52.627 51.7507C52.1583 51.335 51.6313 51.1272 51.1625 51.1272C50.7529 51.1272 50.4307 51.275 50.225 51.5429C49.6989 52.196 49.9328 53.3859 50.7529 54.0991C51.1042 54.4262 51.6313 54.6045 52.1291 54.6045C52.627 54.6045 53.0657 54.3966 53.3297 54.0696C53.7984 53.4155 53.5345 52.524 52.627 51.7507Z" fill="white"/>
<path d="M20.7656 39.2671C20.7656 50.5618 29.7847 59.7169 40.9137 59.7169C43.8718 59.7169 46.799 59.1525 51.1042 59.122C54.9407 59.122 59.1576 60.4892 63.7842 64.6511C64.2529 65.0668 64.8673 64.5319 64.4577 64.0266C59.9186 58.1714 55.7016 57.072 51.4847 56.1205C46.3312 54.961 43.6953 52.0482 41.8503 48.8084C41.499 48.1543 41.3233 48.2735 41.2933 49.1058C41.2601 50.3306 41.3485 51.5556 41.5572 52.7623H40.9428C33.5921 52.7623 27.6176 46.6983 27.6176 39.2375C27.6176 31.7767 33.5921 25.7126 40.9419 25.7126C48.2927 25.7126 54.2672 31.7767 54.2672 39.2375C54.2672 39.7724 54.2371 40.3073 54.1789 40.8126C53.1831 40.6343 51.2799 40.6048 49.9328 40.7239C49.4349 40.7831 49.4932 41.0205 49.8746 41.0805C54.2672 41.912 57.2836 44.677 57.9862 49.6999C58.0154 49.819 58.1619 49.8486 58.2211 49.7599C60.0069 46.6983 61.0609 43.1009 61.0609 39.2671C61.0609 27.9733 52.0408 18.8181 40.9128 18.8181C29.7857 18.8181 20.7656 27.9723 20.7656 39.2671Z" fill="white"/>
</svg>
