<svg width="84" height="84" viewBox="0 0 84 84" fill="none" xmlns="http://www.w3.org/2000/svg">
<circle cx="41.6945" cy="41.671" r="41.671" fill="#E0E0E0"/>
<path d="M48.496 29.1877H34.8984V53.5908H48.496V29.1877Z" fill="#7774C0"/>
<path d="M35.7597 41.3895C35.7597 36.6468 37.9612 32.1198 41.6736 29.1879C34.9395 23.8848 25.1838 25.0489 19.8743 31.818C14.5648 38.5439 15.7303 48.2879 22.5075 53.591C28.1623 58.0319 36.0619 58.0319 41.7167 53.591C37.9612 50.6592 35.7597 46.1321 35.7597 41.3895Z" fill="#FF4445"/>
<path d="M66.8418 41.3895C66.8418 49.9694 59.892 56.9109 51.3018 56.9109C47.8053 56.9109 44.4383 55.7468 41.7188 53.591C48.4528 48.2879 49.6183 38.5439 44.3088 31.7748C43.5318 30.8263 42.6684 29.9209 41.7188 29.1879C48.4528 23.8848 58.2516 25.0489 63.518 31.818C65.6763 34.5342 66.8418 37.8972 66.8418 41.3895Z" fill="#00A1DF"/>
</svg>
