<svg width="84" height="84" viewBox="0 0 84 84" fill="none" xmlns="http://www.w3.org/2000/svg">
<circle cx="41.6867" cy="41.671" r="41.671" fill="#E0E0E0"/>
<path d="M48.4882 29.1877H34.8906V53.5908H48.4882V29.1877Z" fill="#FF5F00"/>
<path d="M35.7519 41.3895C35.7519 36.6468 37.9534 32.1198 41.6657 29.1879C34.9317 23.8848 25.176 25.0489 19.8665 31.818C14.557 38.5439 15.7225 48.2879 22.4997 53.591C28.1545 58.0319 36.0541 58.0319 41.7089 53.591C37.9534 50.6592 35.7519 46.1321 35.7519 41.3895Z" fill="#EB001B"/>
<path d="M66.834 41.3895C66.834 49.9694 59.8842 56.9109 51.294 56.9109C47.7975 56.9109 44.4304 55.7468 41.7109 53.591C48.445 48.2879 49.6105 38.5439 44.3009 31.7748C43.5239 30.8263 42.6606 29.9209 41.7109 29.1879C48.445 23.8848 58.2438 25.0489 63.5102 31.818C65.6685 34.5342 66.834 37.8972 66.834 41.3895Z" fill="#F79E1B"/>
</svg>
