<svg width="84" height="84" viewBox="0 0 84 84" fill="none" xmlns="http://www.w3.org/2000/svg">
<circle cx="41.671" cy="41.671" r="41.671" fill="#192E67"/>
<path d="M50.7199 29.9014C45.8928 29.9014 41.5587 32.4424 41.5587 37.1054C41.5587 42.4757 49.2147 42.8424 49.2147 45.5144C49.2147 46.6409 47.9171 47.6625 45.7371 47.6625C42.6228 47.6625 40.287 46.2479 40.287 46.2479L39.3009 50.9633C39.3009 50.9633 41.974 52.1683 45.5554 52.1683C50.8497 52.1683 55.0021 49.5225 55.0021 44.7547C55.0021 39.0963 47.3202 38.7296 47.3202 36.2409C47.3202 35.3502 48.3842 34.381 50.5642 34.381C53.0297 34.381 55.054 35.4026 55.054 35.4026L56.0402 30.8444C56.0142 30.8444 53.8083 29.9014 50.7199 29.9014ZM6.49695 30.2419L6.36719 30.923C6.36719 30.923 8.39148 31.2898 10.2341 32.0495C12.5958 32.914 12.7515 33.4117 13.1667 34.9573L17.5008 51.8016H23.3141L32.2158 30.2419H26.4284L20.6929 44.9119L18.3572 32.4686C18.1496 31.054 17.0596 30.2419 15.7101 30.2419H6.49695ZM34.5516 30.2419L30.0099 51.8016H35.5378L40.0535 30.2419H34.5516ZM65.3312 30.2419C64.0076 30.2419 63.3069 30.9492 62.7878 32.2067L54.6907 51.8016H60.4781L61.594 48.527H68.6531L69.3279 51.8016H74.4405L70.0026 30.2419H65.3312ZM66.0838 36.0837L67.7967 44.1784H63.2031L66.0838 36.0837Z" fill="white"/>
</svg>
