<svg width="75.000000" height="39.000000" viewBox="0 0 75 39" fill="none" xmlns="http://www.w3.org/2000/svg" xmlns:xlink="http://www.w3.org/1999/xlink">
	<desc>
			Created with Pixso.
	</desc>
	<defs>
		<linearGradient id="paint_linear_2491_6691_0" x1="37.500000" y1="0.000000" x2="37.500000" y2="39.000000" gradientUnits="userSpaceOnUse">
			<stop offset="0.100000" stop-color="#F7EF8A"/>
			<stop offset="0.745000" stop-color="#E2C283"/>
		</linearGradient>
	</defs>
	<path id="Vector" d="M64.8281 0.69043C65.1523 0.514648 65.7109 0.294434 66.0742 0.191895C66.4414 0.0893555 66.793 0.000976562 66.8828 0.000976562C66.9688 -0.0136719 67.4844 0.118652 68.0547 0.294434C69.0664 0.602539 69.125 0.646484 71.6211 3.125C73.3672 4.84131 74.2891 5.86768 74.5391 6.3667C74.7734 6.82129 74.9492 7.43701 74.9805 7.97998C75.0391 8.6543 74.9805 9.06494 74.7305 9.73975C74.4219 10.5757 74.0117 11.0156 65.0508 19.9624C56.0859 28.9385 55.6914 29.3198 55.1797 29.3198C54.7539 29.3198 54.5625 29.2319 54.3438 28.9092C54.168 28.6895 54.0508 28.3813 54.0508 28.2197C54.0508 28.0293 57.3477 24.6265 63.2031 18.7598C68.2305 13.7144 72.457 9.37305 72.5898 9.12402C72.7188 8.85986 72.8242 8.47852 72.8242 8.27295C72.8242 8.06787 72.75 7.73047 72.6758 7.51025C72.5898 7.27588 71.5469 6.11719 70.3594 4.9292C69.1719 3.72656 68.0273 2.65576 67.793 2.53857C67.5703 2.4209 67.1914 2.33301 66.957 2.33301C66.7227 2.33301 66.3398 2.40625 66.1055 2.47998C65.8867 2.56787 59.6523 8.69873 52.2461 16.0903C44.7773 23.5562 38.6914 29.7451 38.5742 30.0093C38.457 30.2734 38.3555 30.6694 38.3555 30.8892C38.3555 31.124 38.5469 31.5933 38.7656 31.96C39 32.3267 40.0703 33.4854 41.1562 34.5415C42.5938 35.9492 43.2812 36.5068 43.707 36.6533C44.1797 36.7998 44.4141 36.7998 44.8828 36.6533C45.3516 36.5068 46.1133 35.832 48.5469 33.4121C51.1875 30.7866 51.6875 30.3467 52.0703 30.3467C52.332 30.3467 52.6406 30.4932 52.8477 30.6841C53.0508 30.8745 53.168 31.1826 53.168 31.4468C53.168 31.8281 52.6992 32.356 49.9727 35.0693C47.3164 37.7241 46.6406 38.3105 45.9531 38.6187C45.3672 38.8828 44.8359 39 44.2969 39C43.7539 39 43.2227 38.8828 42.6367 38.6187C41.9648 38.3252 41.3477 37.7827 39.3516 35.8027C37.5625 34.0132 36.8164 33.1626 36.5664 32.6201C36.3164 32.0625 36.2266 31.6372 36.2422 30.7866C36.2422 29.936 36.3164 29.54 36.582 29.0264C36.8164 28.5571 40.9219 24.3628 50.5742 14.6826C58.9766 6.26367 64.4609 0.881348 64.8281 0.69043ZM36.9023 3.125C38.7656 1.27734 39.4844 0.661133 40.1133 0.367676C40.6875 0.118652 41.1875 0.000976562 41.8008 0.000976562C42.4766 0.000976562 42.8867 0.0893555 43.5625 0.42627C44.25 0.763672 44.9414 1.35059 46.8047 3.24268C48.1523 4.60645 49.3242 5.91162 49.5156 6.29297C49.7969 6.82129 49.8672 7.17334 49.8672 8.12646C49.8672 9.06494 49.7969 9.43164 49.5156 9.95996C49.2812 10.4146 45.1016 14.6973 35.8164 24.0107C28.4531 31.373 22.1484 37.5918 21.7812 37.8267C21.4141 38.0615 20.6367 38.4282 20.0508 38.6333C19.332 38.8828 18.6719 39 17.9961 39C17.3203 39 16.6758 38.8828 15.9141 38.6333C15.3125 38.4282 14.5195 38.0615 14.1523 37.8267C13.7891 37.5918 10.6172 34.5122 7.09766 30.9771Q0.6875 24.5532 0.351562 23.8931C0.0742188 23.3652 0 22.9985 0 22.0601C0 21.1064 0.0742188 20.7544 0.351562 20.2266C0.542969 19.8452 1.71484 18.54 3.06641 17.1758C4.82422 15.4014 5.63281 14.6826 6.23438 14.3892C6.87891 14.0664 7.24609 13.9932 8.06641 13.9932C8.81641 13.9932 9.28516 14.0957 9.82812 14.3306C10.3828 14.5947 11.4258 15.5332 17.9688 22.0601L24.9766 15.064C31.0781 8.94775 32.0469 8.05322 32.4141 8.05322C32.6641 8.05322 33 8.19971 33.1914 8.39062C33.4102 8.61035 33.5156 8.87451 33.5156 9.22656C33.5156 9.71045 33.0312 10.2236 26.2109 17.0439C22.207 21.0625 18.7461 24.4507 18.5117 24.5679C18.2891 24.6851 17.9961 24.7734 17.8516 24.7734C17.7188 24.7734 15.7539 22.9253 13.4922 20.6665Q9.38672 16.5747 8.82812 16.3545C8.53516 16.2227 8.14062 16.1196 7.94922 16.1196C7.77344 16.1196 7.33203 16.3105 6.96875 16.5308C6.60156 16.7651 5.41406 17.8799 4.3125 18.9946C2.77344 20.564 2.28906 21.1504 2.19922 21.5464C2.14062 21.8252 2.14062 22.2944 2.19922 22.5732C2.27344 22.9985 3.32812 24.1133 8.625 29.4375C14.2109 35.04 15.0781 35.8467 15.9141 36.2573C16.7188 36.6533 17.0156 36.7266 17.9688 36.7266C18.9219 36.7266 19.2148 36.6533 20.0195 36.2573C20.8867 35.832 22.2344 34.5269 34.2773 22.4707C45.5273 11.1919 47.582 9.07959 47.668 8.63965C47.7266 8.36133 47.7266 7.8916 47.668 7.61328C47.582 7.21729 47.0977 6.63037 45.4102 4.9292Q43.2695 2.7583 42.6094 2.45068C42.125 2.23047 41.8164 2.17188 41.4336 2.25977C41.0391 2.33301 40.4219 2.86133 38.5742 4.67969C36.9766 6.26367 36.082 7.02637 35.7891 7.09961C35.4648 7.17334 35.2461 7.12939 34.9805 6.92383C34.7305 6.71826 34.6016 6.45459 34.5547 6.07324C34.5117 5.51562 34.5547 5.47168 36.9023 3.125Z" fill="url(#paint_linear_2491_6691_0)" fill-opacity="1.000000" fill-rule="evenodd"/>
	<path id="Vector" d="M36.9023 3.125C34.5547 5.47168 34.5117 5.51562 34.5547 6.07324C34.6016 6.45459 34.7305 6.71826 34.9805 6.92383C35.2461 7.12939 35.4648 7.17334 35.7891 7.09961C36.082 7.02637 36.9766 6.26367 38.5742 4.67969C40.4219 2.86133 41.0391 2.33301 41.4336 2.25977C41.8164 2.17188 42.125 2.23047 42.6094 2.45068C43.0469 2.65576 43.9805 3.48193 45.4102 4.9292C47.0977 6.63037 47.582 7.21729 47.668 7.61328C47.7266 7.8916 47.7266 8.36133 47.668 8.63965C47.582 9.07959 45.5273 11.1919 34.2773 22.4707C22.2344 34.5269 20.8867 35.832 20.0195 36.2573C19.2148 36.6533 18.9219 36.7266 17.9688 36.7266C17.0156 36.7266 16.7188 36.6533 15.9141 36.2573C15.0781 35.8467 14.2109 35.04 8.625 29.4375C3.32812 24.1133 2.27344 22.9985 2.19922 22.5732C2.14062 22.2944 2.14062 21.8252 2.19922 21.5464C2.28906 21.1504 2.77344 20.564 4.3125 18.9946C5.41406 17.8799 6.60156 16.7651 6.96875 16.5308C7.33203 16.3105 7.77344 16.1196 7.94922 16.1196C8.14062 16.1196 8.53516 16.2227 8.82812 16.3545C9.20312 16.501 10.7578 17.9385 13.4922 20.6665C15.7539 22.9253 17.7188 24.7734 17.8516 24.7734C17.9961 24.7734 18.2891 24.6851 18.5117 24.5679C18.7461 24.4507 22.207 21.0625 26.2109 17.0439C33.0312 10.2236 33.5156 9.71045 33.5156 9.22656C33.5156 8.87451 33.4102 8.61035 33.1914 8.39062C33 8.19971 32.6641 8.05322 32.4141 8.05322C32.0469 8.05322 31.0781 8.94775 24.9766 15.064L17.9688 22.0601C11.4258 15.5332 10.3828 14.5947 9.82812 14.3306C9.28516 14.0957 8.81641 13.9932 8.06641 13.9932C7.24609 13.9932 6.87891 14.0664 6.23438 14.3892C5.63281 14.6826 4.82422 15.4014 3.06641 17.1758C1.71484 18.54 0.542969 19.8452 0.351562 20.2266C0.0742188 20.7544 0 21.1064 0 22.0601C0 22.9985 0.0742188 23.3652 0.351562 23.8931C0.578125 24.333 2.82422 26.6948 7.09766 30.9771C10.6172 34.5122 13.7891 37.5918 14.1523 37.8267C14.5195 38.0615 15.3125 38.4282 15.9141 38.6333C16.6758 38.8828 17.3203 39 17.9961 39C18.6719 39 19.332 38.8828 20.0508 38.6333C20.6367 38.4282 21.4141 38.0615 21.7812 37.8267C22.1484 37.5918 28.4531 31.373 35.8164 24.0107C45.1016 14.6973 49.2812 10.4146 49.5156 9.95996C49.7969 9.43164 49.8672 9.06494 49.8672 8.12646C49.8672 7.17334 49.7969 6.82129 49.5156 6.29297C49.3242 5.91162 48.1523 4.60645 46.8047 3.24268C44.9414 1.35059 44.25 0.763672 43.5625 0.42627C42.8867 0.0893555 42.4766 0.000976562 41.8008 0.000976562C41.1875 0.000976562 40.6875 0.118652 40.1133 0.367676C39.4844 0.661133 38.7656 1.27734 36.9023 3.125ZM64.8281 0.69043C64.4609 0.881348 58.9766 6.26367 50.5742 14.6826C40.9219 24.3628 36.8164 28.5571 36.582 29.0264C36.3164 29.54 36.2422 29.936 36.2422 30.7866C36.2266 31.6372 36.3164 32.0625 36.5664 32.6201C36.8164 33.1626 37.5625 34.0132 39.3516 35.8027C41.3477 37.7827 41.9648 38.3252 42.6367 38.6187C43.2227 38.8828 43.7539 39 44.2969 39C44.8359 39 45.3672 38.8828 45.9531 38.6187C46.6406 38.3105 47.3164 37.7241 49.9727 35.0693C52.6992 32.356 53.168 31.8281 53.168 31.4468C53.168 31.1826 53.0508 30.8745 52.8477 30.6841C52.6406 30.4932 52.332 30.3467 52.0703 30.3467C51.6875 30.3467 51.1875 30.7866 48.5469 33.4121C46.1133 35.832 45.3516 36.5068 44.8828 36.6533C44.4141 36.7998 44.1797 36.7998 43.707 36.6533C43.2812 36.5068 42.5938 35.9492 41.1562 34.5415C40.0703 33.4854 39 32.3267 38.7656 31.96C38.5469 31.5933 38.3555 31.124 38.3555 30.8892C38.3555 30.6694 38.457 30.2734 38.5742 30.0093C38.6914 29.7451 44.7773 23.5562 52.2461 16.0903C59.6523 8.69873 65.8867 2.56787 66.1055 2.47998C66.3398 2.40625 66.7227 2.33301 66.957 2.33301C67.1914 2.33301 67.5703 2.4209 67.793 2.53857C68.0273 2.65576 69.1719 3.72656 70.3594 4.9292C71.5469 6.11719 72.5898 7.27588 72.6758 7.51025C72.75 7.73047 72.8242 8.06787 72.8242 8.27295C72.8242 8.47852 72.7188 8.85986 72.5898 9.12402C72.457 9.37305 68.2305 13.7144 63.2031 18.7598C57.3477 24.6265 54.0508 28.0293 54.0508 28.2197C54.0508 28.3813 54.168 28.6895 54.3438 28.9092C54.5625 29.2319 54.7539 29.3198 55.1797 29.3198C55.6914 29.3198 56.0859 28.9385 65.0508 19.9624C74.0117 11.0156 74.4219 10.5757 74.7305 9.73975C74.9805 9.06494 75.0391 8.6543 74.9805 7.97998C74.9492 7.43701 74.7734 6.82129 74.5391 6.3667C74.2891 5.86768 73.3672 4.84131 71.6211 3.125C69.125 0.646484 69.0664 0.602539 68.0547 0.294434C67.4844 0.118652 66.9688 -0.0136719 66.8828 0.000976562C66.793 0.000976562 66.4414 0.0893555 66.0742 0.191895C65.7109 0.294434 65.1523 0.514648 64.8281 0.69043Z" stroke="#000000" stroke-opacity="0" stroke-width="1.000000"/>
</svg>
