<svg width="103" height="100" viewBox="0 0 103 100" fill="none" xmlns="http://www.w3.org/2000/svg">
<g id="Group 26">
<g id="Rectangle 52">
<rect width="102.542" height="100" rx="21" fill="#3C3C3C"/>
<rect x="0.5" y="0.5" width="101.542" height="99" rx="20.5" stroke="url(#paint0_linear_1879_53)" stroke-opacity="0.5"/>
</g>
<path id="Vector" fill-rule="evenodd" clip-rule="evenodd" d="M51.2432 14.4067C53.5244 14.4067 53.6923 14.4206 54.42 14.7543C54.9519 14.9907 55.3017 15.2688 55.5256 15.6303C55.7216 15.9083 56.0994 16.7008 56.8692 18.6473L58.4506 19.134C59.3043 19.3981 60.8717 20.0238 63.7967 21.4559L65.1962 20.858C66.1618 20.4409 66.7916 20.2463 67.2254 20.2463C67.5893 20.2463 68.1211 20.3714 68.485 20.5521C68.8488 20.7329 69.7865 21.5254 70.6822 22.4291C71.5499 23.2911 72.4035 24.2644 72.5575 24.5981C72.7254 24.9318 72.8654 25.4601 72.8654 25.8077C72.8654 26.2387 72.6834 26.8922 71.6478 29.3531L72.2216 30.3959C72.5435 30.9659 73.0193 31.967 73.2852 32.6205C73.5651 33.2739 73.929 34.3167 74.4328 36.1103L75.7623 36.6247C76.4901 36.9167 77.3018 37.2921 77.5397 37.4589C77.7916 37.6258 78.1415 38.029 78.2954 38.3626C78.4774 38.7241 78.6453 39.4471 78.7433 40.2674C78.8412 41.2129 78.8412 42.0193 78.7153 43.0899C78.6313 43.9102 78.4774 44.7444 78.3654 44.9669C78.2534 45.1754 77.9875 45.5091 77.7636 45.7176C77.5537 45.9262 76.728 46.3572 74.4888 47.2888L73.859 49.1657C73.5091 50.1946 72.8794 51.6962 72.4595 52.5026C72.0397 53.309 71.7038 54.0042 71.7038 54.0737C71.7038 54.1293 71.9697 54.7828 72.2776 55.5197C72.6974 56.5068 72.8654 57.0769 72.8654 57.5774C72.8654 57.9806 72.7534 58.4812 72.6135 58.7592C72.4735 59.0234 71.5778 60.0245 70.6262 60.9838C69.5486 62.0544 68.9188 62.8052 68.9468 62.9303C68.9888 63.0415 70.3463 66.1698 71.9837 69.8821C73.6071 73.5944 74.9926 76.9034 75.0626 77.251C75.1326 77.5986 75.1326 78.1269 75.0626 78.4328C75.0066 78.7387 74.8806 79.1558 74.7967 79.3644C74.7127 79.5868 74.4328 79.99 74.1809 80.2681C73.915 80.5601 73.3972 80.9494 73.0193 81.1301C72.3616 81.4638 72.1796 81.4777 66.0358 81.5889L64.2865 83.2991C63.2369 84.3279 62.2852 85.1205 61.9073 85.3012C61.4875 85.4958 61.007 85.5932 60.4659 85.5932C59.8781 85.5932 59.4722 85.4958 58.9264 85.2317C58.5346 85.0231 58.0028 84.6616 57.7788 84.4114C57.5129 84.1194 56.2674 81.575 54.3501 77.404C52.6987 73.8029 51.3132 70.8554 51.2712 70.8554C51.2292 70.8554 49.8437 73.8029 48.1923 77.404C46.275 81.575 45.0294 84.1194 44.7635 84.4114C44.5256 84.6616 44.0078 85.0231 43.602 85.2317C43.0702 85.4958 42.6643 85.5932 42.0625 85.5932C41.5307 85.5932 41.0549 85.4958 40.635 85.3012C40.2572 85.1205 39.3055 84.3279 36.5065 81.5889L33.3577 81.5333C30.3627 81.4777 30.1808 81.4638 29.523 81.1301C29.1452 80.9494 28.6274 80.5601 28.3615 80.2681C28.1096 79.99 27.8297 79.5868 27.7457 79.3644C27.6617 79.1558 27.5358 78.7248 27.4658 78.3911C27.3818 78.0435 27.3958 77.5569 27.4798 77.1815C27.5498 76.8339 28.9213 73.5944 30.5027 69.9794C32.0841 66.3784 33.4416 63.264 33.5116 63.0693C33.6376 62.7496 33.4976 62.5827 31.9162 60.9838C30.9645 60.0245 30.0689 59.0234 29.9289 58.7592C29.789 58.4951 29.677 57.9945 29.677 57.6469C29.663 57.2159 29.8449 56.5764 30.8806 54.1015L29.9569 52.2245C29.4531 51.1957 28.8373 49.7219 28.5994 48.9572C28.3475 48.1925 28.1375 47.5112 28.1236 47.4278C28.0956 47.3444 27.4238 47.0246 26.6261 46.7048C25.6744 46.3155 25.0167 45.954 24.7368 45.662C24.4849 45.4118 24.219 45.0642 24.135 44.8834C24.051 44.7166 23.9111 43.938 23.8271 43.1455C23.7012 42.1305 23.7012 41.3241 23.7991 40.337C23.8971 39.4332 24.051 38.738 24.247 38.3487C24.4009 38.029 24.7088 37.6397 24.9187 37.5006C25.1426 37.3616 25.9263 37.0001 28.0676 36.1659L28.4174 34.9841C28.5994 34.3306 28.9772 33.2739 29.2571 32.6205C29.523 31.967 29.9989 30.9659 30.8946 29.3531L30.2928 27.8932C29.8916 26.92 29.6863 26.2248 29.677 25.8077C29.677 25.4462 29.8029 24.9318 29.9849 24.5842C30.1388 24.2644 30.9225 23.3468 31.7063 22.5682C32.504 21.7756 33.4556 20.9275 33.8475 20.6773C34.3933 20.3297 34.7012 20.2463 35.247 20.2463C35.7508 20.2463 36.3246 20.4131 38.7457 21.4559L40.635 20.5382C41.6707 20.0238 43.2381 19.3981 45.6732 18.6473L46.261 17.1875C46.5969 16.395 46.9747 15.5885 47.1007 15.4217C47.2406 15.241 47.6885 14.949 48.0803 14.7543C48.7801 14.4345 48.962 14.4206 51.2292 14.4067L51.2432 14.4067ZM48.2063 18.7447L47.4366 20.5938C46.135 20.9831 45.2534 21.2612 44.6376 21.4559C44.0218 21.6505 42.8882 22.0954 42.1185 22.4569C41.3488 22.8184 40.3971 23.3189 40.0193 23.5692C39.6274 23.8056 39.2075 24.0002 39.0676 24.0002C38.9416 24.0002 38.074 23.6804 37.1503 23.305C36.2266 22.9157 35.3869 22.6099 35.275 22.6099C35.177 22.6099 34.4213 23.2633 33.5956 24.0697C32.6999 24.9596 32.1121 25.6408 32.1121 25.8077C32.1121 25.9606 32.392 26.7253 32.7279 27.5039C33.0638 28.2964 33.3857 29.0889 33.4276 29.2836C33.4976 29.52 33.3996 29.8258 33.1617 30.2568C32.9658 30.6044 32.462 31.5638 32.0281 32.4119C31.6083 33.26 31.0765 34.5392 30.8526 35.2621C30.6286 35.9851 30.3767 36.8472 30.3068 37.1669C30.1808 37.6536 30.0549 37.8204 29.621 38.029C29.3411 38.168 28.5014 38.5156 27.7737 38.8076C27.0459 39.0995 26.4022 39.4054 26.3462 39.4888C26.2902 39.5723 26.2342 40.5733 26.2342 41.7273C26.2202 43.2706 26.2622 43.8546 26.4022 43.9658C26.5001 44.0492 27.2699 44.3968 28.1236 44.7305C28.9633 45.0642 29.775 45.4396 29.9149 45.5508C30.0689 45.6759 30.3348 46.3711 30.5867 47.247C30.8106 48.0813 31.2444 49.3326 31.5523 50.0278C31.8602 50.7369 32.392 51.7935 32.7279 52.3636C33.0638 52.9336 33.3717 53.5454 33.4276 53.7122C33.4836 53.9347 33.2877 54.5464 32.8119 55.6587C32.42 56.5625 32.1121 57.4106 32.1121 57.5357C32.1121 57.6747 32.6019 58.3004 33.1897 58.9122C33.7915 59.5378 34.5192 60.2191 34.7991 60.4416L35.3309 60.8448C37.878 59.7603 38.8017 59.4544 39.0396 59.4544C39.2635 59.4544 39.6414 59.5795 39.8793 59.7464C40.1032 59.8993 40.845 60.3025 41.5167 60.6501C42.2025 60.9838 43.1681 61.4148 43.6859 61.6095C44.2177 61.8041 45.1974 62.1239 45.8971 62.3186C46.5829 62.4993 47.2546 62.7496 47.3666 62.8608C47.4786 62.9859 47.8984 63.834 48.2763 64.7795L48.976 66.4757C52.9366 66.5591 53.4964 66.5174 53.6083 66.3784C53.6923 66.2811 54.0282 65.5164 54.3641 64.6683C54.6999 63.8201 55.0638 63.0276 55.1898 62.9025C55.3157 62.7635 55.9735 62.4993 56.6732 62.3186C57.359 62.1378 58.3386 61.8319 58.8424 61.6373C59.3463 61.4565 60.3119 61.0116 61.0117 60.664C61.6974 60.3164 62.4531 59.8993 62.6911 59.7464C62.915 59.5795 63.3208 59.4544 63.5587 59.4544C63.8107 59.4544 64.7483 59.7603 65.63 60.1496L67.2394 60.8448C68.0511 60.2191 68.7789 59.5378 69.3666 58.9122C69.9684 58.3004 70.4582 57.6747 70.4582 57.5357C70.4582 57.4106 70.1504 56.5625 69.7585 55.6587C69.2827 54.5742 69.0867 53.9347 69.1427 53.7122C69.1987 53.5454 69.4366 53.0588 69.6885 52.6416C69.9404 52.2245 70.3323 51.5015 70.5702 51.0427C70.7941 50.5839 71.214 49.555 71.4799 48.7486C71.7598 47.9422 72.0817 46.9273 72.1936 46.4823C72.3336 45.9818 72.5295 45.6203 72.7254 45.4813C72.9074 45.3701 73.7051 45.0225 74.5168 44.7027C75.3285 44.3968 76.0702 44.0631 76.1682 43.9797C76.2941 43.8546 76.3501 43.2706 76.3361 41.7273C76.3361 40.5733 76.2801 39.5723 76.2242 39.4749C76.1682 39.3915 75.3705 39.0161 74.4468 38.6546C73.5231 38.2792 72.6834 37.8899 72.5855 37.7648C72.4875 37.6536 72.1796 36.8054 71.9137 35.8878C71.6198 34.8728 71.074 33.5103 70.5282 32.4119C70.0384 31.4108 69.4926 30.382 69.3387 30.1178C69.1567 29.798 69.0867 29.506 69.1427 29.2836C69.1847 29.0889 69.5066 28.2964 69.8425 27.5039C70.1784 26.7253 70.4582 25.9606 70.4582 25.8077C70.4582 25.6408 69.8705 24.9457 68.9888 24.0697C68.1771 23.2633 67.4074 22.6099 67.2674 22.6099C67.1414 22.6099 66.3857 22.9018 65.588 23.2355C64.8043 23.5831 63.9926 23.9029 63.7687 23.9446C63.4888 24.0141 63.1949 23.9168 62.5511 23.5414C62.0893 23.2772 61.2496 22.8323 60.6898 22.5542C60.144 22.2762 59.0384 21.8452 58.2407 21.581C57.457 21.3168 56.4493 20.997 56.0015 20.8858C55.3017 20.6912 55.1758 20.5938 54.9519 20.135C54.7979 19.857 54.434 19.0088 54.1402 18.2719C53.6083 16.9789 53.5804 16.9233 53.1045 16.8538C52.8386 16.8121 51.9569 16.7843 51.1452 16.7982C50.3335 16.7982 49.5218 16.8399 49.3259 16.8538C49.018 16.9094 48.878 17.1457 48.2063 18.7447ZM36.1846 63.1389C36.1147 63.2084 34.6592 66.4479 32.9658 70.327C31.0345 74.7206 29.8729 77.5569 29.8729 77.835C29.8729 78.0852 29.9709 78.4328 30.0828 78.5997C30.1948 78.7804 30.5307 78.9751 30.8106 79.0585C31.1045 79.128 32.6159 79.1975 34.1694 79.1975C36.4925 79.1975 37.0943 79.2392 37.4582 79.42C37.7101 79.5451 38.7037 80.421 39.6694 81.3665C41.0549 82.729 41.5167 83.1183 41.9086 83.174C42.3144 83.2574 42.4684 83.2018 42.8462 82.8681C43.1961 82.5483 43.9798 80.9633 46.359 75.7216L49.4239 68.9784C48.4302 68.7559 48.0104 68.6169 47.8564 68.5335C47.7025 68.45 47.4086 68.1998 47.1987 67.9773C47.0027 67.7688 46.5829 66.9624 46.275 66.1977C45.9671 65.433 45.6312 64.7656 45.5333 64.71C45.4213 64.6683 44.6796 64.418 43.8679 64.1677C43.0562 63.9175 41.6007 63.3196 40.607 62.833C39.6274 62.3464 38.7877 61.9571 38.7177 61.971C38.6617 61.971 38.1019 62.2073 37.4722 62.4854C36.8424 62.7774 36.2546 63.0554 36.1846 63.1389ZM58.8424 64.126C57.9608 64.4041 57.1631 64.6404 57.0931 64.6683C57.0091 64.6822 56.6732 65.3773 56.3234 66.1977C55.8475 67.3238 55.5676 67.8244 55.1618 68.172C54.8819 68.4222 54.4061 68.6864 54.1122 68.7559C53.8323 68.8254 53.4964 68.9089 53.3704 68.9367C53.1885 68.9645 53.7763 70.3687 56.2534 75.7911C58.5765 80.8381 59.4862 82.6873 59.7801 82.9376C60.088 83.2018 60.2699 83.2435 60.6618 83.174C61.0536 83.1044 61.5155 82.7429 62.901 81.3665C63.8666 80.421 64.8743 79.5312 65.1402 79.3922C65.56 79.1697 66.1058 79.128 68.8908 79.0585L72.1656 78.989C72.5855 78.4467 72.7114 78.0852 72.6974 77.835C72.6974 77.5708 71.4799 74.5954 69.6046 70.327C67.9112 66.4479 66.4417 63.2084 66.3577 63.125C66.2598 63.0276 65.658 62.7357 65.0002 62.4576C64.3425 62.1795 63.7407 61.9571 63.6707 61.971C63.5867 61.9849 62.831 62.3603 61.9913 62.8052C61.1376 63.2501 59.7241 63.834 58.8424 64.126ZM51.775 22.8184C53.4824 22.8601 54.49 22.9435 55.3437 23.1382C56.0015 23.2911 56.9391 23.5553 57.443 23.7222C57.9468 23.9029 58.8564 24.2783 59.4722 24.5564C60.088 24.8483 61.1516 25.4601 61.8514 25.9189C62.5371 26.3777 63.6427 27.2398 64.2865 27.8376C64.9302 28.4494 65.8539 29.4365 66.3297 30.0483C66.8056 30.66 67.4493 31.5916 67.7712 32.1338C68.0931 32.6622 68.5689 33.6076 68.8208 34.2194C69.0867 34.8311 69.4366 35.7627 69.5906 36.3049C69.7585 36.8332 69.9824 37.8343 70.1084 38.5295C70.2343 39.2664 70.3323 40.5733 70.3323 41.7273C70.3323 42.8674 70.2343 44.1743 70.1084 44.8834C69.9964 45.5647 69.7025 46.7187 69.4646 47.4556C69.2267 48.2064 68.7509 49.3743 68.401 50.0695C68.0511 50.7508 67.5053 51.724 67.1694 52.2245C66.8336 52.7251 66.1618 53.601 65.672 54.171C65.1822 54.7411 64.2165 55.6726 63.5168 56.2566C62.803 56.8266 61.7114 57.6052 61.0676 57.9945C60.4239 58.3699 59.2903 58.9261 58.5625 59.218C57.8348 59.5239 56.6312 59.9132 55.9035 60.1079C55.1758 60.2886 53.8183 60.5111 52.8946 60.5945C51.6351 60.7196 50.8094 60.7196 49.6058 60.5945C48.7241 60.5111 47.3946 60.2886 46.6668 60.1079C45.9391 59.9132 44.7355 59.5239 44.0078 59.218C43.2801 58.9261 42.1465 58.3699 41.5027 57.9945C40.8589 57.6052 39.7673 56.8266 39.0536 56.2566C38.3539 55.6726 37.3882 54.7411 36.8984 54.171C36.4086 53.601 35.7368 52.7251 35.4009 52.2245C35.065 51.724 34.5052 50.7508 34.1694 50.0695C33.8195 49.3743 33.3437 48.2064 33.1058 47.4556C32.8678 46.7187 32.5739 45.5647 32.448 44.8834C32.322 44.1883 32.2381 42.8396 32.2241 41.7273C32.2241 40.476 32.308 39.3359 32.448 38.5295C32.5739 37.8343 32.8398 36.7498 33.0358 36.0964C33.2317 35.4429 33.7635 34.1638 34.2114 33.2461C34.6732 32.3285 35.4429 31.0493 35.9327 30.3959C36.4365 29.7424 37.4162 28.6718 38.1159 27.9906C38.8157 27.3232 40.0053 26.3777 40.747 25.8911C41.5027 25.3906 42.5943 24.7788 43.1681 24.5147C43.7419 24.2505 44.8195 23.8473 45.5473 23.6109C46.275 23.3885 47.3526 23.1243 47.9264 23.027C48.5002 22.9435 49.074 22.8462 49.1859 22.8184C49.2979 22.7906 50.4595 22.7906 51.775 22.8184ZM46.247 25.8772C45.5892 26.0858 44.4836 26.5307 43.7979 26.8644C43.0981 27.1981 42.0065 27.8793 41.3488 28.366C40.691 28.8526 39.6554 29.7841 39.0396 30.4376C38.4238 31.0911 37.5841 32.1477 37.1923 32.7873C36.7864 33.413 36.2406 34.4418 35.9607 35.0536C35.6948 35.6653 35.317 36.7915 35.107 37.5562C34.8131 38.6824 34.7292 39.3637 34.6732 41.1017C34.6172 42.6867 34.6592 43.5904 34.8271 44.508C34.9391 45.1893 35.205 46.2599 35.4149 46.8716C35.6248 47.4834 36.0447 48.4845 36.3386 49.0962C36.6465 49.708 37.1923 50.6117 37.5421 51.1122C37.892 51.6128 38.4938 52.3775 38.8857 52.8363C39.2775 53.2812 40.1032 54.0459 40.719 54.5464C41.3348 55.0331 42.3144 55.7143 42.8882 56.048C43.462 56.3817 44.4137 56.8405 44.9875 57.0769C45.5612 57.2993 46.5409 57.6191 47.1567 57.7721C47.7724 57.9389 48.962 58.1336 49.8157 58.217C50.9633 58.3421 51.733 58.3282 52.8246 58.217C53.6363 58.1336 54.7979 57.925 55.4137 57.7721C56.0295 57.6191 57.0371 57.2715 57.6529 57.0213C58.2687 56.771 59.1223 56.3678 59.5422 56.1175C59.962 55.8673 60.7178 55.3807 61.2216 55.0192C61.7254 54.6716 62.5371 53.9764 63.0409 53.4759C63.5448 52.9753 64.2865 52.1272 64.6923 51.5989C65.0982 51.0566 65.728 50.0278 66.1058 49.3048C66.4837 48.5818 66.9735 47.3861 67.2114 46.6631C67.4493 45.9401 67.7152 44.8139 67.7992 44.1604C67.9112 43.4375 67.9532 42.2139 67.9112 40.9626C67.8552 39.3915 67.7572 38.6407 67.4633 37.5562C67.2534 36.7915 66.8616 35.6375 66.5677 34.9841C66.2738 34.3306 65.672 33.2322 65.2101 32.5509C64.7483 31.8558 63.9366 30.8408 63.3908 30.2707C62.859 29.7146 61.8793 28.8526 61.2216 28.366C60.5638 27.8793 59.4582 27.1981 58.7725 26.8644C58.0727 26.5307 56.9951 26.0858 56.3513 25.8911C55.7216 25.6965 54.658 25.4323 53.9722 25.3211C53.3005 25.2098 52.0269 25.1125 51.1452 25.1264C50.2635 25.1264 49.06 25.2237 48.4862 25.3211C47.9124 25.4323 46.9048 25.6826 46.247 25.8772ZM58.4226 33.4547C58.9404 33.4547 59.4302 33.5659 59.8921 33.7745C60.2699 33.9552 60.8017 34.3306 61.0397 34.6087C61.2916 34.9006 61.5995 35.3595 61.7254 35.6375C61.8374 35.9295 61.9353 36.5413 61.9493 37.0001C61.9493 37.6258 61.8654 38.0151 61.5995 38.5295C61.3335 39.0578 59.6682 40.7819 54.8259 45.5647C48.7521 51.5711 48.3742 51.9326 47.6465 52.155C47.1427 52.3219 46.6389 52.3775 46.177 52.3358C45.7852 52.2941 45.2254 52.1272 44.9175 51.9743C44.6096 51.8213 43.588 50.9176 42.6503 49.9722C41.0969 48.401 40.9429 48.1925 40.719 47.4278C40.5511 46.8577 40.5091 46.3989 40.5791 45.9679C40.635 45.6203 40.775 45.1476 40.8869 44.9251C40.9989 44.6888 41.2928 44.2995 41.5447 44.0492C41.7826 43.785 42.2305 43.4514 42.5383 43.2845C42.9582 43.0621 43.35 42.9786 44.1478 42.9786C45.0434 42.9786 45.2953 43.0343 46.5969 43.7711L51.4951 38.9049C55.1618 35.2482 56.5473 33.9552 57.0231 33.7466C57.401 33.5659 57.9608 33.4547 58.4226 33.4547ZM46.9467 46.5241C46.7508 46.6214 46.4429 46.6492 46.247 46.5936C46.0511 46.538 45.6032 46.2182 45.2254 45.8845C44.7495 45.4396 44.4556 45.2727 44.1478 45.2727C43.9098 45.2727 43.56 45.4118 43.3361 45.6064C43.0562 45.8567 42.9582 46.0652 42.9582 46.4406C42.9582 46.8995 43.0981 47.0941 44.5396 48.5123C46.1071 50.0556 46.121 50.0695 46.6389 49.9722C47.0867 49.8748 48.0104 49.0267 53.2165 43.8546C56.5473 40.5455 59.3743 37.6675 59.4862 37.445C59.5982 37.2365 59.6402 36.9306 59.5982 36.7498C59.5422 36.583 59.3743 36.3049 59.2063 36.1242C59.0104 35.9156 58.7585 35.8183 58.4226 35.8183C57.9748 35.8183 57.5549 36.1937 52.6147 41.0877C49.6898 43.9797 47.1427 46.4267 46.9467 46.5241Z" fill="url(#paint1_linear_1879_53)"/>
</g>
<defs>
<linearGradient id="paint0_linear_1879_53" x1="51.2712" y1="0" x2="51.2712" y2="100" gradientUnits="userSpaceOnUse">
<stop stop-color="white"/>
<stop offset="1" stop-opacity="0"/>
</linearGradient>
<linearGradient id="paint1_linear_1879_53" x1="23.7288" y1="45.332" x2="88.1589" y2="45.4638" gradientUnits="userSpaceOnUse">
<stop offset="0.309726" stop-color="#DFC38E"/>
<stop offset="0.870713" stop-color="#CEA654"/>
</linearGradient>
</defs>
</svg>
