<svg width="103" height="100" viewBox="0 0 103 100" fill="none" xmlns="http://www.w3.org/2000/svg">
<g id="Group 26">
<g id="Rectangle 52">
<rect width="102.542" height="100" rx="21" fill="#3C3C3C"/>
<rect x="0.5" y="0.5" width="101.542" height="99" rx="20.5" stroke="url(#paint0_linear_1879_59)" stroke-opacity="0.5"/>
</g>
<path id="Vector" fill-rule="evenodd" clip-rule="evenodd" d="M51.2338 17.0234C52.8334 17.0491 54.6007 17.1523 55.1683 17.2297C55.7359 17.3199 56.9227 17.5262 57.8129 17.7067C58.703 17.8872 60.3026 18.3256 61.3604 18.6866C62.4311 19.0348 63.9662 19.6279 64.7789 20.0018C65.5916 20.3628 66.9848 21.0977 67.8749 21.6264C68.765 22.155 70.1582 23.0963 70.9709 23.7023C71.7836 24.3211 73.0091 25.3397 73.6799 25.9715C74.3507 26.6033 75.3699 27.6735 75.9504 28.344C76.518 29.0144 77.3178 29.9943 77.7048 30.523C78.0918 31.0516 78.7239 31.98 79.098 32.586C79.4721 33.192 80.1429 34.404 80.5944 35.2936C81.033 36.1833 81.6393 37.5242 81.9231 38.2978C82.2198 39.0585 82.6197 40.2963 82.8261 41.0571C83.0454 41.8307 83.3034 42.9137 83.4195 43.4811C83.5356 44.0484 83.7162 45.183 83.8194 45.9953C83.9226 46.8205 84 48.5869 84 49.9923C84 51.3977 83.9226 53.1642 83.8194 53.9894C83.7162 54.8017 83.5098 56.0781 83.355 56.826C83.2002 57.5738 82.8777 58.8374 82.6326 59.6368C82.3875 60.4233 82.0134 61.5321 81.7941 62.0737C81.5748 62.6281 81.0588 63.7756 80.646 64.6266C80.2332 65.4776 79.5237 66.754 79.0722 67.4632C78.6207 68.1723 77.8209 69.3328 77.292 70.0419C76.7631 70.7511 75.4602 72.208 74.3894 73.2782C73.2542 74.4129 71.8481 75.6635 70.9709 76.3082C70.1582 76.9142 68.9585 77.7394 68.3264 78.1262C67.6943 78.513 66.6107 79.119 65.9399 79.4543C65.2691 79.7895 64.1081 80.3181 63.3599 80.6147C62.6117 80.9241 61.4249 81.3496 60.7154 81.5559C60.0059 81.7622 58.8578 82.0588 58.1612 82.2135C57.4775 82.3682 56.11 82.6003 55.1296 82.7421C53.8912 82.9226 52.6786 83 51.0403 83C49.3504 83 48.2281 82.9355 46.9123 82.7292C45.919 82.5874 44.4742 82.3295 43.6873 82.149C42.9004 81.9685 41.4814 81.5688 40.5268 81.2465C39.5721 80.9241 38.0628 80.331 37.1727 79.9184C36.2826 79.5187 34.8636 78.758 34.0122 78.2423C33.1608 77.7265 31.9482 76.9013 31.3032 76.4243C30.6582 75.9472 29.5617 75.0317 28.8651 74.4128C28.1556 73.7811 27.1236 72.7367 26.556 72.1049C25.9884 71.4731 25.0983 70.3643 24.5694 69.6551C24.0405 68.946 23.202 67.6953 22.7247 66.883C22.2344 66.0707 21.5636 64.82 21.2282 64.1109C20.8928 63.4017 20.4026 62.2284 20.1317 61.4934C19.8479 60.7714 19.4222 59.4047 19.1771 58.4763C18.932 57.5351 18.6482 56.2328 18.545 55.6011C18.4289 54.9693 18.2483 53.4607 18.1451 52.2487C17.9516 50.2502 17.9516 49.8505 18.1451 47.736C18.2612 46.4595 18.5192 44.577 18.7256 43.5455C18.932 42.514 19.3448 40.9281 19.6415 39.9998C19.9382 39.0714 20.3252 37.9755 20.5187 37.55C20.7896 36.944 20.9573 36.7377 21.2798 36.6088C21.5507 36.5056 21.7958 36.4927 21.9764 36.5701C22.1441 36.6346 22.3763 36.7893 22.5054 36.9182C22.6731 37.0987 22.7247 37.305 22.686 37.6789C22.6473 37.9626 22.3635 38.9167 22.0409 39.8064C21.7184 40.696 21.3185 42.0241 21.1379 42.7719C20.9573 43.5197 20.7122 44.7317 20.5961 45.4796C20.48 46.2274 20.3639 47.8262 20.3123 49.0253C20.2736 50.3791 20.2994 51.8361 20.3897 52.8289C20.48 53.7186 20.6606 55.0208 20.8025 55.73C20.9444 56.4391 21.2024 57.5738 21.383 58.2443C21.5765 58.9147 21.9248 60.0236 22.1699 60.694C22.4151 61.3645 22.9956 62.6797 23.4471 63.5951C23.8857 64.5106 24.6726 65.9031 25.1886 66.6896C25.6917 67.4761 26.5302 68.6365 27.0333 69.2683C27.5493 69.9001 28.491 70.9574 29.1231 71.5891C29.7552 72.2338 30.7614 73.1751 31.3677 73.6779C31.974 74.1679 33.0189 74.9544 33.6897 75.4186C34.3605 75.8827 35.4957 76.579 36.2052 76.9787C36.9147 77.3655 38.1015 77.9457 38.8497 78.268C39.5979 78.5775 40.8622 79.0546 41.662 79.3124C42.4489 79.5703 43.6099 79.8926 44.2291 80.0216C44.8612 80.1634 46.0351 80.3826 46.8478 80.5115C47.9314 80.6663 49.0924 80.7307 51.1048 80.7307C53.143 80.7307 54.2911 80.6663 55.4263 80.4986C56.2777 80.3697 57.7355 80.0732 58.6514 79.8411C59.5673 79.609 60.9089 79.2093 61.6184 78.9385C62.3279 78.6806 63.6695 78.1004 64.5854 77.6492C65.5013 77.1979 66.7913 76.5016 67.4234 76.1019C68.0555 75.7022 69.1133 74.9802 69.7454 74.4902C70.3775 74.0131 71.5385 73.0203 72.3125 72.2854C73.0865 71.5505 74.2217 70.3385 74.828 69.5906C75.4344 68.8428 76.26 67.7468 76.6599 67.1409C77.0598 66.5349 77.679 65.5163 78.0402 64.8845C78.4014 64.2527 78.9819 63.0536 79.3302 62.2413C79.6785 61.429 80.1558 60.1783 80.388 59.4691C80.6073 58.76 80.9298 57.5738 81.0975 56.826C81.2652 56.0781 81.4974 54.8017 81.6135 53.9894C81.7425 53.0481 81.8199 51.604 81.8199 50.0568C81.8199 48.5354 81.7425 47.0268 81.6135 46.0598C81.4974 45.2088 81.3168 44.1 81.2136 43.61C81.0975 43.12 80.8395 42.1014 80.6202 41.3536C80.4009 40.6058 80.001 39.4196 79.7172 38.7104C79.4334 38.0013 78.8529 36.7248 78.4143 35.8738C77.9757 35.0228 77.1759 33.6561 76.6341 32.8438C76.0794 32.0315 75.1377 30.7808 74.5443 30.0717C73.9508 29.3625 72.9704 28.3182 72.377 27.7637C71.7836 27.1964 70.8548 26.397 70.3259 25.9715C69.797 25.546 68.7263 24.7724 67.9394 24.2567C67.1525 23.7409 65.9141 23.006 65.1659 22.6321C64.4177 22.2453 63.1793 21.6908 62.3924 21.3814C61.6055 21.0848 60.3929 20.6594 59.6834 20.4531C58.9739 20.2468 57.6323 19.9244 56.7163 19.7568C55.8004 19.5892 54.1363 19.3829 53.0398 19.3055C51.5692 19.2024 50.5114 19.2024 49.0408 19.3055C47.9443 19.3958 46.4608 19.5634 45.7513 19.6923C45.0418 19.8213 44.0872 20.0276 43.6228 20.1436C43.1584 20.2597 42.3457 20.4917 41.8168 20.6594C41.2879 20.827 40.4365 21.1106 39.9463 21.304C39.456 21.4974 38.3466 21.9874 37.4952 22.4C36.6438 22.8255 35.457 23.4702 34.8507 23.857C34.2444 24.2309 33.3801 24.8111 32.0772 25.7394L33.5091 25.7781C34.4121 25.8039 35.0055 25.8813 35.1216 25.9715C35.2635 26.1134 35.5086 26.0102 36.3987 25.4816C37.005 25.1205 38.0757 24.5532 38.7852 24.218C39.4947 23.8699 40.5655 23.4057 41.1718 23.1736C41.7781 22.9544 43.0165 22.5676 43.9453 22.3355C44.8741 22.0905 46.3189 21.8069 47.1703 21.678C48.1507 21.549 49.5439 21.4588 50.9758 21.4588C52.3045 21.4588 53.8654 21.549 54.7813 21.6651C55.6327 21.7811 57.1162 22.0777 58.0709 22.3097C59.0255 22.5547 60.509 23.0318 61.3604 23.3541C62.2118 23.6894 63.4631 24.2438 64.1339 24.5919C64.8047 24.94 65.9657 25.6234 66.7139 26.1134C67.4621 26.6033 68.5328 27.364 69.1004 27.8282C69.668 28.2795 70.6484 29.182 71.2934 29.8138C71.9255 30.4585 72.7769 31.3868 73.1897 31.8768C73.5896 32.3797 74.3636 33.4498 74.9054 34.2621C75.4473 35.0744 76.2858 36.5572 76.776 37.55C77.2662 38.5428 77.8596 39.9353 78.1047 40.6445C78.3498 41.3536 78.6981 42.5398 78.8787 43.2877C79.0722 44.0355 79.3044 45.2475 79.4076 45.9953C79.5237 46.7431 79.6398 48.0712 79.6914 48.9608C79.743 49.9021 79.7172 51.2688 79.6269 52.2487C79.5366 53.1642 79.356 54.5309 79.2012 55.2787C79.0593 56.0266 78.8013 57.1225 78.6336 57.7285C78.453 58.3345 78.1047 59.3789 77.8467 60.0494C77.6016 60.7198 77.034 61.9705 76.5954 62.8215C76.1697 63.6725 75.3054 65.1294 74.6861 66.0449C74.0669 66.9603 73.0478 68.3013 72.4286 69.0104C71.8094 69.7067 70.7645 70.7511 70.1324 71.3055C69.5003 71.8599 68.4167 72.7109 67.7459 73.2009C67.0751 73.6779 65.9141 74.4257 65.1659 74.8512C64.4177 75.2767 63.2825 75.8569 62.6504 76.1406C62.0183 76.4243 61.0895 76.7982 60.5864 76.9787C60.0833 77.1592 59.1287 77.4429 58.4579 77.6234C57.7871 77.8039 56.4712 78.0746 55.5553 78.2423C54.1621 78.4872 53.4139 78.5388 51.1693 78.5388C49.2214 78.5388 48.0604 78.4743 47.0413 78.3196C46.2544 78.1907 44.9257 77.9199 44.0743 77.7007C43.2229 77.4815 41.9716 77.1076 41.3008 76.8626C40.63 76.6048 39.3786 76.0632 38.5272 75.6506C37.6758 75.238 36.4503 74.5676 35.8182 74.1679C35.1861 73.7553 34.2186 73.0977 33.6897 72.698C33.1608 72.2983 32.1159 71.3957 31.3806 70.6866C30.6453 69.9774 29.6262 68.9073 29.1231 68.3013C28.6071 67.6953 27.7428 66.5091 27.1752 65.6581C26.6205 64.8071 25.7691 63.2986 25.2918 62.3057C24.8145 61.3129 24.2469 59.972 24.0276 59.3402C23.8212 58.7084 23.4987 57.5996 23.3181 56.8904C23.1375 56.1813 22.8924 55.0208 22.7892 54.3117C22.686 53.6026 22.557 52.1198 22.5054 51.0238C22.4667 49.8247 22.4925 48.4064 22.5828 47.4781C22.6602 46.6271 22.8795 45.2088 23.0601 44.3191C23.2407 43.4295 23.6406 41.9338 23.9631 40.9926C24.2727 40.0643 24.8403 38.6331 25.2144 37.8337C25.6014 37.0471 26.2464 35.8351 26.6592 35.1647C27.072 34.4942 27.8202 33.3854 28.3104 32.7149C28.8135 32.0444 29.9745 30.7293 32.5932 28.1119L30.6324 28.0603C28.7619 28.0087 28.6716 27.9958 28.0008 27.364L28.0137 20.9817L28.3362 20.6594C28.5297 20.4531 28.7877 20.337 29.0457 20.337C29.265 20.337 29.5746 20.466 29.781 20.6465C30.1422 20.9559 30.1422 20.9817 30.2067 24.463L31.071 23.7925C31.5612 23.4186 32.5029 22.761 33.1737 22.3226C33.8445 21.8842 35.1216 21.1364 36.0117 20.6851C36.9018 20.221 38.2047 19.615 38.9142 19.3313C39.6237 19.0477 40.9267 18.6093 41.8168 18.3514C42.7069 18.0935 44.0098 17.7712 44.7193 17.6294C45.4288 17.4875 46.4995 17.3199 47.1058 17.2425C47.7121 17.1652 48.2281 17.0749 48.2668 17.0362C48.3055 16.9976 49.6342 16.9847 51.2338 17.0234ZM46.5898 24.0246C45.919 24.1406 44.8096 24.3856 44.1388 24.5532C43.468 24.7337 42.5392 25.0303 42.0748 25.1979C41.6104 25.3655 40.7074 25.7523 40.0753 26.036C39.4431 26.3325 38.9013 26.5904 38.8755 26.6033C38.8626 26.6291 39.3786 27.5703 40.0108 28.6921C40.6558 29.8009 41.1718 30.8453 41.1718 31.0129C41.1718 31.1677 41.0041 31.4642 40.7977 31.6834C40.5913 31.9026 40.2946 32.0702 40.1527 32.0702C39.9979 32.0702 39.7527 32.0057 39.585 31.9413C39.4173 31.8639 38.8497 31.0387 38.1402 29.8138C37.5081 28.7179 36.9276 27.8153 36.8502 27.8153C36.7728 27.8153 36.0891 28.2924 35.3022 28.8597C34.5153 29.4399 33.2124 30.5874 32.3997 31.4126C31.5741 32.2378 30.5292 33.4111 30.0777 34.03C29.6133 34.636 29.136 35.3065 29.0199 35.5128L28.8006 35.8738C31.9095 37.666 32.877 38.3107 32.9415 38.4525C33.0189 38.5944 33.0705 38.878 33.0705 39.0972C33.0576 39.3164 32.9157 39.613 32.7609 39.7806C32.5674 39.9611 32.3094 40.0643 32.0385 40.0643C31.7547 40.0643 31.0323 39.7161 29.7165 38.9683C28.6716 38.3623 27.7815 37.8723 27.717 37.8723C27.6654 37.8723 27.459 38.2076 27.2526 38.6202C27.0462 39.0199 26.6463 39.9869 26.3625 40.7734C26.0658 41.5599 25.6917 42.7719 25.5111 43.4811C25.3305 44.1902 25.0983 45.3248 24.9951 45.9953C24.8919 46.6658 24.7887 47.5941 24.7629 48.0583L24.7242 48.8964C31.2903 48.9608 31.716 48.9995 31.9353 49.1929C32.0643 49.309 32.2191 49.5411 32.2836 49.7087C32.361 49.8892 32.3481 50.1342 32.232 50.4049C32.1288 50.6628 31.9224 50.8691 31.6515 50.9851C31.3548 51.1141 30.3615 51.1528 27.9492 51.1528H24.6597C24.7758 52.3003 24.8919 53.2415 25.008 53.9894C25.1112 54.7372 25.3692 55.975 25.5756 56.7615C25.782 57.548 26.169 58.76 26.4399 59.4691C26.7108 60.1783 27.1107 61.0937 27.3171 61.4934L27.6912 62.2284C30.8517 60.4104 31.8321 59.9204 32.0385 59.9204C32.2449 59.9204 32.5545 60.0494 32.7351 60.217C32.9931 60.4362 33.0705 60.6167 33.0576 61.0164C33.0576 61.3 32.9802 61.6095 32.8899 61.6997C32.7996 61.8029 31.845 62.3831 30.7614 62.9891C29.6778 63.608 28.8006 64.1366 28.7877 64.1753C28.7877 64.214 29.265 64.8716 29.8326 65.6581C30.426 66.4575 31.6257 67.8113 32.5803 68.7526C33.5091 69.668 34.8249 70.8155 35.4957 71.2926C36.1665 71.7697 36.7728 72.1694 36.8502 72.1694C36.9276 72.1694 37.4436 71.37 38.0112 70.4029C38.5788 69.423 39.1593 68.4947 39.3012 68.3271C39.4818 68.1208 39.714 68.0305 40.0753 68.0176C40.501 68.0047 40.6429 68.0821 40.9009 68.3786C41.1202 68.6494 41.1847 68.8557 41.1331 69.1394C41.0944 69.3457 40.5655 70.4029 39.9592 71.4602C39.3399 72.5304 38.8626 73.4072 38.8755 73.4072C38.9013 73.42 39.2625 73.6006 39.6882 73.8197C40.114 74.026 41.017 74.4 41.6878 74.6578C42.3586 74.9028 43.4422 75.2638 44.0743 75.4443C44.7064 75.612 45.7642 75.8569 46.3963 75.9601C47.0284 76.0761 48.0991 76.2051 48.7441 76.2566L49.9438 76.3598C49.9438 70.5706 49.9954 69.5648 50.1115 69.3328C50.2018 69.1523 50.4469 68.9331 50.6533 68.8299C50.8726 68.7397 51.1693 68.701 51.3241 68.7397C51.4918 68.7783 51.724 68.9331 51.8401 69.0749C52.0465 69.307 52.0852 69.7454 52.1368 72.8398L52.2013 76.3469C53.2978 76.2953 54.2266 76.1922 54.9748 76.089C55.723 75.973 56.9614 75.7151 57.7484 75.5217C58.5224 75.3154 59.6834 74.9544 60.3284 74.7094C60.9605 74.4644 61.8635 74.0776 62.3279 73.8455C62.7923 73.6134 63.1922 73.4071 63.2309 73.3814C63.2696 73.3556 62.7923 72.4659 62.1602 71.3957C61.3346 69.9646 61.0379 69.3457 61.0379 69.0104C61.0379 68.7268 61.1411 68.456 61.2959 68.3013C61.4378 68.1594 61.6829 68.0047 61.8377 67.966C62.0054 67.9274 62.315 67.9789 62.5214 68.0821C62.8052 68.2239 63.2051 68.7912 64.0694 70.274L65.2304 72.2725C66.7268 71.2539 67.7459 70.4545 68.4554 69.8485C69.1649 69.2425 70.2098 68.211 70.7774 67.5406C71.345 66.883 72.1448 65.8773 72.5576 65.2971C72.9704 64.7169 73.3058 64.214 73.3058 64.1753C73.2929 64.1366 72.4415 63.6209 71.4095 63.0149C70.3646 62.4089 69.41 61.7771 69.2681 61.5966C69.1391 61.4161 69.023 61.1324 69.023 60.9519C69.023 60.7714 69.1907 60.462 69.3842 60.2557C69.6938 59.9333 69.8099 59.8817 70.1969 59.9462C70.442 59.9849 71.4998 60.5264 72.5447 61.1324L74.4539 62.2413C75.0861 60.9906 75.4602 60.1009 75.7053 59.4691C75.9504 58.8374 76.2987 57.7801 76.4664 57.1483C76.647 56.5165 76.905 55.4077 77.034 54.6985C77.163 53.9894 77.3049 52.9063 77.3436 52.2874L77.421 51.1528L70.4807 51.0883C69.9131 50.5468 69.8099 50.3147 69.8099 50.031C69.8099 49.7603 69.926 49.4895 70.1324 49.2832L70.442 48.9608H77.421C77.3049 47.2073 77.163 46.0985 77.034 45.3506C76.905 44.6028 76.6599 43.5326 76.5051 42.9653C76.3503 42.398 76.0923 41.5599 75.9117 41.0957C75.744 40.6316 75.357 39.7161 75.0603 39.0585C74.7635 38.401 74.4539 37.8723 74.3894 37.8723C74.312 37.8723 73.4219 38.3752 72.3899 38.9683C71.0999 39.7161 70.3904 40.0643 70.0937 40.0643C69.8228 40.0643 69.5777 39.9611 69.3584 39.7419C69.1778 39.5614 69.0359 39.2648 69.0359 39.0714C69.0359 38.8651 69.1262 38.5815 69.2294 38.4268C69.3326 38.2591 70.2872 37.6403 71.3579 37.0343C72.4157 36.4283 73.28 35.8867 73.2542 35.8094C73.2413 35.7449 72.8672 35.1776 72.4286 34.5587C71.99 33.9269 71.216 32.9599 70.7129 32.3925C70.1969 31.8252 69.281 30.9098 68.6747 30.3554C68.0555 29.8138 67.088 29.0273 66.5204 28.6276C65.9528 28.2279 65.411 27.8927 65.3207 27.8798C65.2175 27.8798 64.6499 28.7179 64.0565 29.7494C63.4502 30.7808 62.831 31.7221 62.6762 31.851C62.5214 31.98 62.2376 32.0831 62.0312 32.0702C61.8377 32.0702 61.541 31.9284 61.3604 31.7479C61.1411 31.5287 61.0379 31.2837 61.0379 30.9743C61.0379 30.639 61.3217 30.033 62.1344 28.6534C62.7407 27.6219 63.2309 26.7451 63.2309 26.6936C63.2438 26.6291 62.7278 26.3454 62.1086 26.0489C61.4894 25.7523 60.2639 25.2753 59.3867 24.9916C58.5224 24.6951 57.1034 24.3211 56.2261 24.1535C55.3618 23.973 54.0847 23.7925 53.3881 23.728L52.1368 23.6249V30.6519C51.5821 31.1677 51.2725 31.3095 51.0661 31.2966C50.8726 31.2966 50.563 31.1548 50.3566 30.9871L50.0083 30.6777L49.9438 23.6894C48.8989 23.7151 48.4087 23.7538 48.2023 23.7796C47.983 23.8054 47.2606 23.9085 46.5898 24.0246ZM63.6824 36.8151C63.9662 36.8537 64.4822 36.9827 64.8434 37.1116C65.1917 37.2405 65.7722 37.6016 66.1334 37.911C66.5634 38.2892 66.9074 38.7534 67.1654 39.3035C67.5008 40.0256 67.5524 40.2577 67.5395 41.2247C67.5395 41.9209 67.4492 42.4883 67.3202 42.7719C67.217 43.0169 66.9332 43.494 66.6881 43.8163C66.4559 44.1386 62.7794 48.6385 58.5095 53.8088C51.7885 61.9705 50.6791 63.2599 50.0599 63.6209C49.66 63.8659 49.0021 64.1109 48.5248 64.2011C47.8669 64.3172 47.5186 64.3172 46.9123 64.1882C46.4866 64.098 45.8803 63.8788 45.5578 63.6983C45.2224 63.5049 43.1842 61.5708 40.7719 59.1597C37.4436 55.8331 36.489 54.8017 36.2052 54.2472C36.0117 53.8604 35.8053 53.2157 35.7408 52.8289C35.6634 52.3519 35.6892 51.8619 35.7924 51.3462C35.8827 50.9207 36.1149 50.3018 36.3084 49.9665C36.5019 49.6184 36.9276 49.1285 37.263 48.8577C37.6113 48.5869 38.2047 48.2646 38.5917 48.1357C39.0174 47.9938 39.6495 47.8907 40.1398 47.9036C40.6816 47.9036 41.2621 48.0067 41.7523 48.2001C42.436 48.458 42.7972 48.7546 47.4928 53.3447L53.7235 45.7761C57.1549 41.5986 60.1607 38.0271 60.4058 37.8208C60.6509 37.6145 61.0766 37.3308 61.3604 37.189C61.6442 37.0471 62.1602 36.8924 62.5214 36.8408C62.8697 36.7893 63.3986 36.7764 63.6824 36.8151ZM55.2715 47.362C51.7111 51.6814 48.6151 55.4077 48.3958 55.6397C48.0862 55.9621 47.9056 56.0523 47.5186 56.0523C47.0671 56.0523 46.8865 55.8847 44.2033 53.2286C42.6424 51.6814 41.1718 50.3147 40.9396 50.1986C40.7203 50.0826 40.3204 49.9923 40.0753 49.9923C39.8302 49.9923 39.4689 50.0568 39.2625 50.1342C39.069 50.1986 38.7207 50.4565 38.5014 50.6757C38.2563 50.9207 38.0241 51.3204 37.9338 51.6685C37.8177 52.1069 37.8177 52.3777 37.9338 52.7645C38.0628 53.19 38.8239 54.028 42.3715 57.5609C44.7322 59.9204 46.8091 61.906 47.0026 61.9834C47.209 62.0479 47.5573 62.1123 47.7766 62.1123C48.0088 62.1123 48.4345 61.9963 48.7183 61.8545C49.015 61.7126 49.531 61.2485 49.9567 60.7327C50.3437 60.2557 53.9299 55.8976 57.916 51.0625C63.5921 44.1773 65.1917 42.1401 65.2949 41.7404C65.3809 41.3966 65.3809 41.0528 65.2949 40.7089C65.2175 40.4253 65.0111 40.0127 64.8047 39.7806C64.6112 39.5614 64.2629 39.3035 64.0307 39.2004C63.8114 39.1101 63.3986 39.0328 63.1277 39.0328C62.8697 39.0328 62.444 39.1359 62.1989 39.2648C61.8893 39.4325 59.7608 41.9209 55.2715 47.362Z" fill="url(#paint1_linear_1879_59)"/>
</g>
<defs>
<linearGradient id="paint0_linear_1879_59" x1="51.2712" y1="0" x2="51.2712" y2="100" gradientUnits="userSpaceOnUse">
<stop stop-color="white"/>
<stop offset="1" stop-opacity="0"/>
</linearGradient>
<linearGradient id="paint1_linear_1879_59" x1="18" y1="45.6721" x2="95.1969" y2="45.8762" gradientUnits="userSpaceOnUse">
<stop offset="0.309726" stop-color="#DFC38E"/>
<stop offset="0.870713" stop-color="#CEA654"/>
</linearGradient>
</defs>
</svg>
