<svg width="103" height="100" viewBox="0 0 103 100" fill="none" xmlns="http://www.w3.org/2000/svg">
<g id="Group 26">
<g id="Rectangle 52">
<rect width="102.542" height="100" rx="21" fill="#3C3C3C"/>
<rect x="0.5" y="0.5" width="101.542" height="99" rx="20.5" stroke="url(#paint0_linear_1879_65)" stroke-opacity="0.5"/>
</g>
<path id="Vector" fill-rule="evenodd" clip-rule="evenodd" d="M66.496 22.0019C67.1651 21.9817 68.5819 22.1233 69.6248 22.3053C70.6873 22.4672 72.0844 22.7503 72.7338 22.9122C73.3832 23.0942 74.6228 23.5999 75.4887 24.0651C76.4332 24.591 77.5154 25.3799 78.2435 26.1283C78.9125 26.7958 79.8767 28.0701 80.3884 28.9601C80.9 29.8501 82.2184 32.4392 83.34 34.7249C84.4419 37.0106 85.6423 39.7817 85.9964 40.8942C86.3506 42.0067 86.7245 43.5642 86.8229 44.3329C86.9016 45.1218 86.9803 50.0774 87 55.3568C87 63.8725 86.9606 65.167 86.6261 66.7852C86.4294 67.7763 85.9964 69.1923 85.6423 69.9204C85.3077 70.6486 84.6584 71.6802 84.1861 72.2264C83.7335 72.7725 82.8284 73.5816 82.179 74.0266C81.5297 74.4918 80.5064 75.0582 79.9161 75.3009C79.3258 75.5436 78.3025 75.8875 77.6532 76.0695C77.0038 76.2314 75.7248 76.5145 74.7999 76.6966C73.8751 76.8584 72.6551 77 72.0844 77C71.5335 77 69.9593 76.818 68.6015 76.5955C67.2438 76.373 65.5909 75.9886 64.9022 75.7257C64.2331 75.483 63.2296 74.9975 62.6983 74.6739C62.1473 74.3502 61.3209 73.7029 60.8289 73.2377C60.337 72.7725 59.4908 71.7207 58.9202 70.9116C58.3692 70.0823 56.9131 67.3111 55.6734 64.7625C54.4534 62.2138 53.1153 59.1191 52.7021 57.8852C52.2102 56.3277 51.915 54.9927 51.7576 53.4352C51.6198 51.9586 51.5805 47.9738 51.6395 41.7033C51.6986 33.6933 51.7773 32.0144 52.0527 31.0435C52.2298 30.3963 52.6431 29.304 52.9776 28.6163C53.3318 27.8881 54.0795 26.8565 54.7092 26.2294C55.3192 25.6226 56.4408 24.7933 57.1886 24.3685C57.956 23.964 59.176 23.4381 59.9434 23.1751C60.7108 22.9324 62.2063 22.5683 63.2886 22.366C64.3709 22.184 65.8073 22.0222 66.4764 22.0019H66.496ZM61.3405 24.0044C60.6912 24.146 59.5499 24.5303 58.7825 24.854C58.015 25.1574 56.9524 25.7844 56.4212 26.2092C55.8702 26.634 55.1028 27.4835 54.6895 28.0701C54.296 28.6769 53.7647 29.749 53.5286 30.4772C53.0957 31.7717 53.076 32.0347 53.0169 43.0181C52.9776 51.9788 53.0169 54.5477 53.2334 55.7613C53.3908 56.5906 53.804 57.9054 54.1779 58.6943C54.5911 59.6247 55.2208 60.4945 55.9292 61.2227C56.5392 61.8295 57.6018 62.6184 58.3102 62.9825C58.9989 63.3466 60.2779 63.8118 61.1438 64.0545C62.0096 64.277 63.4067 64.54 64.2528 64.6209L65.768 64.7625V58.3909C64.4693 58.0875 63.8002 57.8043 63.446 57.5818C63.1115 57.3593 62.6392 56.7929 62.4228 56.3277C62.0489 55.4984 62.0292 54.9927 62.0292 44.3329C62.0292 37.8399 62.108 32.9045 62.226 32.4999C62.3244 32.1156 62.6983 31.5088 63.0525 31.1447C63.4067 30.8008 63.938 30.3963 64.2331 30.2951C64.548 30.1738 65.0005 30.0726 65.276 30.0726H65.768C65.768 24.8944 65.7089 23.4178 65.6106 23.4178C65.5318 23.4381 64.8038 23.519 63.997 23.5999C63.1902 23.6808 61.9899 23.8628 61.3405 24.0044ZM67.3422 29.9715C68.4835 30.1535 69.1525 30.3963 69.5461 30.639C69.979 30.9019 70.4709 31.4481 70.7267 31.9538L71.1793 32.8033C71.1793 54.3656 71.1399 55.7209 70.8644 56.267C70.6873 56.5906 70.2938 57.0963 69.979 57.3795C69.6641 57.6627 68.9361 58.0066 68.3654 58.1481L67.3422 58.3909V64.7625C69.8609 64.54 71.2974 64.277 72.1632 64.0545C73.029 63.832 74.308 63.3668 75.0164 63.0027C75.7641 62.6386 76.7677 61.8902 77.3974 61.2429C78.0074 60.6159 78.7748 59.5641 79.0896 58.8966C79.4242 58.2291 79.8374 57.0154 80.0145 56.2266C80.29 54.9725 80.3293 53.1722 80.3293 43.8879C80.3293 37.9006 80.2506 32.5606 80.1522 31.9942C80.0538 31.4279 79.7587 30.4367 79.5225 29.7692C79.2667 29.1017 78.7158 28.0903 78.2632 27.5442C77.8106 26.9778 76.9645 26.189 76.3741 25.7642C75.7838 25.3394 74.859 24.8338 74.3277 24.6315C73.7767 24.409 72.6354 24.1056 71.7696 23.9437C70.9038 23.7617 69.5461 23.5797 68.759 23.519L67.3225 23.4178L67.3422 29.9715ZM68.9557 43.5845C68.7983 43.8879 68.7196 45.9511 68.7196 50.2595L68.7393 56.4693L69.9002 55.1545C69.9002 45.587 69.8412 42.8158 69.7625 42.8158C69.6641 42.8158 69.5067 42.8967 69.3886 42.9777C69.2706 43.0586 69.0738 43.3215 68.9557 43.5845ZM31.4307 22.2851C33.8511 22.3458 34.953 22.4469 36.1533 22.7908C37.0191 23.0133 38.2588 23.519 38.8885 23.8628C39.5772 24.2472 40.5611 25.0765 41.2498 25.8451C42.0369 26.7149 42.9224 28.0499 43.7882 29.6883C44.5163 31.0638 45.874 33.754 46.7989 35.6351C47.8024 37.7186 48.6289 39.7211 48.8847 40.692C49.1995 41.9461 49.2979 42.917 49.2979 44.9397C49.2979 47.0029 49.1995 47.9131 48.865 49.1874C48.6289 50.0774 48.1763 51.3518 47.8614 52.0193C47.5466 52.6868 46.8579 53.8195 46.3463 54.5477C45.815 55.2759 45.0279 56.1659 43.8275 57.1975L48.6289 66.7852L48.6485 75.9886H20.4113L15 65.2682V57.0761L16.3577 54.2443C17.1252 52.6463 18.2665 50.664 18.9552 49.7134C19.6439 48.7829 20.2932 47.9131 20.3916 47.7918C20.5097 47.6502 19.7029 45.8499 18.1878 42.7754C16.1019 38.6086 15.7871 37.8399 15.7871 37.0106C15.7871 36.4847 15.9248 35.1699 16.0626 34.1181C16.22 33.0663 16.5742 31.5088 16.8694 30.6794C17.1448 29.8501 17.6761 28.6567 18.0303 28.0499C18.4042 27.4431 19.2503 26.4115 19.9391 25.744C20.6278 25.0967 21.7691 24.2674 22.4775 23.9033C23.1858 23.5392 24.2484 23.0942 24.8388 22.9122C25.4291 22.7301 26.4523 22.5076 27.1017 22.4065C27.751 22.3053 29.6991 22.2447 31.4307 22.2851ZM23.1662 24.9956C22.5168 25.299 21.5526 25.926 21.0016 26.371C20.4703 26.7958 19.6439 27.7465 19.1716 28.4747C18.6994 29.1826 18.109 30.4772 17.8336 31.3469C17.5778 32.1965 17.3023 33.7338 17.2236 34.7249L17.0661 36.5454H25.8226C25.8226 34.9879 25.921 34.0574 26.0391 33.4708C26.1571 32.8842 26.472 32.0144 26.7278 31.5492C27.0623 30.9424 27.4559 30.5581 28.0462 30.2749C28.6365 29.9917 29.2859 29.8906 30.3485 29.8906C31.5685 29.8906 31.9817 29.9715 32.6704 30.376C33.2607 30.7401 33.6346 31.1649 33.9494 31.8526C34.3036 32.6415 34.3823 33.1472 34.3823 34.826C34.3823 36.5049 34.3036 36.9904 33.9691 37.6579C33.733 38.1029 33.182 38.9322 32.7491 39.4783C32.3359 40.0447 31.3717 40.9954 30.6239 41.6224C29.8762 42.2495 27.8101 43.7665 26.0194 45.0004C23.6975 46.5781 22.3397 47.6704 21.2771 48.8031C20.4507 49.6931 19.3881 51.0484 18.8961 51.817C18.4042 52.6059 17.8336 53.597 17.6171 54.042C17.4007 54.487 17.1645 55.0534 17.0858 55.3163L16.9678 55.7613H27.0033C27.3772 54.2847 27.8101 53.334 28.1839 52.7272C28.5775 52.1204 29.3843 51.1697 29.9746 50.6034C30.5649 50.0572 32.6901 48.4593 34.6972 47.0636C36.6846 45.6679 38.8098 44.0295 39.4001 43.4227C39.9904 42.7956 40.7579 41.764 41.1121 41.0965C41.4466 40.429 41.9188 39.2558 42.155 38.467C42.4698 37.4758 42.6272 36.3431 42.6863 34.6238C42.765 32.7831 42.7059 31.8526 42.4501 30.7806C42.273 30.0119 41.8992 28.9197 41.604 28.3735C41.3088 27.8476 40.6791 27.0183 40.1872 26.5531C39.6953 26.0676 38.7704 25.4203 38.1211 25.0765C37.4717 24.7326 36.4091 24.3078 35.7598 24.1056C34.9333 23.8831 33.5756 23.7415 31.2339 23.6808C28.4201 23.6201 27.6133 23.6808 26.1178 24.0044C25.1536 24.2269 23.8155 24.6719 23.1662 24.9956ZM16.3774 63.8522H42.155V57.3795H16.3774V63.8522Z" fill="url(#paint1_linear_1879_65)"/>
</g>
<defs>
<linearGradient id="paint0_linear_1879_65" x1="51.2712" y1="0" x2="51.2712" y2="100" gradientUnits="userSpaceOnUse">
<stop stop-color="white"/>
<stop offset="1" stop-opacity="0"/>
</linearGradient>
<linearGradient id="paint1_linear_1879_65" x1="15" y1="45.8934" x2="99.2144" y2="46.1848" gradientUnits="userSpaceOnUse">
<stop offset="0.309726" stop-color="#DFC38E"/>
<stop offset="0.870713" stop-color="#CEA654"/>
</linearGradient>
</defs>
</svg>
