<svg width="103" height="100" viewBox="0 0 103 100" fill="none" xmlns="http://www.w3.org/2000/svg">
<g id="Group 26">
<g id="Rectangle 52">
<rect width="102.542" height="100" rx="21" fill="#3C3C3C"/>
<rect x="0.5" y="0.5" width="101.542" height="99" rx="20.5" stroke="url(#paint0_linear_1879_71)" stroke-opacity="0.5"/>
</g>
<path id="Vector" fill-rule="evenodd" clip-rule="evenodd" d="M55.6129 14C56.228 14 56.4617 14.0625 57.0276 14.4125C57.3967 14.6375 60.4967 16.75 63.9165 19.1125C67.3364 21.4875 71.3468 24.2625 72.8353 25.2875C74.3238 26.325 75.7015 27.3125 75.8861 27.4875C76.0829 27.6625 76.3412 28.0125 76.4642 28.25C76.5873 28.4875 76.7226 28.9375 76.7595 29.25C76.821 29.6 76.7841 30.025 76.6734 30.375C76.5873 30.6875 75.8615 31.9125 73.6349 35.25H74.09C74.3484 35.25 74.8281 35.325 75.1726 35.4375C75.5047 35.5375 75.9845 35.775 76.2182 35.975C76.4519 36.175 76.7964 36.6375 76.9932 37.0125C77.2639 37.5625 77.3254 37.85 77.3254 38.5875C77.3254 39.425 77.35 39.525 77.6575 39.775C77.8297 39.9375 78.125 40.2875 78.3095 40.5625C78.494 40.8375 78.7401 41.375 78.8508 41.75C79.023 42.325 79.0476 43.15 79.0476 51.5H79.7488C80.204 51.5 80.6222 51.5875 80.8928 51.7375C81.1266 51.8625 81.471 52.1875 81.9877 52.9375L82 64L81.471 64.55C81.1512 64.8875 80.7698 65.15 80.4623 65.2375C80.1917 65.3125 79.7611 65.375 79.0476 65.375L79.0107 70.1625C78.9861 74.675 78.9738 74.9625 78.7278 75.5C78.5924 75.8125 78.2357 76.3375 77.9282 76.675C77.5714 77.075 77.1162 77.4125 75.8492 78H24.1821L23.4071 77.6375C22.9766 77.4375 22.423 77.0375 22.1278 76.7375C21.8448 76.4375 21.4881 75.9 21.0452 74.9375L21.0083 58.625C20.9837 44.8 21.0083 42.2125 21.1559 41.6875C21.2543 41.3375 21.525 40.8125 21.7464 40.5C21.9678 40.1875 22.423 39.775 22.7305 39.5625C23.2841 39.2 23.3087 39.1625 23.321 38.5625C23.321 38.2125 23.3825 37.725 23.444 37.4625C23.5179 37.2125 23.7516 36.7625 23.9607 36.475C24.1821 36.1875 24.6373 35.8125 24.9818 35.6375C25.5107 35.3625 25.806 35.3125 28.66 35.1875L29.2996 28.5C29.6564 24.825 30.0008 21.5125 30.0746 21.15C30.1485 20.8 30.3453 20.2875 30.5175 20.025C30.6897 19.775 31.0711 19.4125 31.354 19.2125C31.637 19.025 32.0921 18.8375 32.3628 18.8C32.6334 18.7625 34.0112 18.8375 35.4382 18.9875C36.8652 19.125 40.0636 19.4375 42.5731 19.6875C45.0704 19.9375 47.2478 20.1875 47.3954 20.25C47.5553 20.325 47.7275 20.5125 47.8014 20.6875C47.8752 20.8625 47.8998 21.1375 47.8629 21.3125C47.826 21.4875 47.6537 21.7 47.4569 21.8C47.1617 21.9625 46.399 21.9125 40.4204 21.3C36.7298 20.9375 33.4576 20.625 33.1255 20.625C32.8056 20.625 32.4366 20.6875 32.3012 20.75C32.1659 20.8125 31.9937 20.9875 31.9322 21.125C31.8584 21.2625 31.4524 25.075 31.0096 29.6C30.579 34.1125 30.1854 38.025 30.0869 38.75H31.2556L31.7846 33.225C32.0798 30.175 32.3997 27.45 32.4981 27.1625C32.5965 26.825 32.8179 26.5125 33.064 26.3375C33.2854 26.175 33.7898 25.875 34.1957 25.675C34.6263 25.4625 35.1552 25.0375 35.5243 24.625C35.8687 24.25 36.2993 23.775 36.4838 23.5625C36.6683 23.35 37.0374 23.125 37.2957 23.05C37.6771 22.9375 38.5136 22.9875 41.4045 23.2625C43.3974 23.4625 45.1565 23.675 45.3041 23.75C45.464 23.8125 45.6486 24 45.7224 24.1625C45.8331 24.375 45.8331 24.5375 45.6978 24.85C45.5994 25.0875 45.4025 25.3 45.218 25.3625C45.0335 25.425 43.4958 25.3125 37.7755 24.7375L37.5418 25.0875C37.4064 25.275 36.9882 25.75 36.6068 26.125C36.2255 26.5 35.5243 27.025 35.0322 27.2875C34.1711 27.7375 34.1465 27.7625 34.085 28.275C34.0481 28.575 33.8267 30.8625 33.5929 33.375C33.3592 35.8875 33.1378 38.125 33.0393 38.75L37.5295 38.6875L45.5378 26.75C53.2633 15.225 53.5585 14.8 54.2105 14.4C54.7641 14.0625 54.9978 14 55.6129 14V14ZM47.1986 27.5L39.7069 38.6875C40.7402 38.75 41.0231 38.7 41.1092 38.6C41.1954 38.5125 43.6434 34.8625 46.5712 30.5C49.499 26.1375 52.07 22.325 52.2792 22.025C52.4883 21.7375 52.8573 21.4 53.0911 21.2875C53.3863 21.1625 53.9399 21.0875 54.8133 21.075C55.9574 21.05 56.2157 21 57.0645 20.65C57.5812 20.425 58.2086 20.25 58.4423 20.25C58.676 20.25 59.0082 20.3 59.1804 20.375C59.3526 20.4375 61.7391 22.0625 64.4824 23.9625C67.6316 26.15 69.563 27.575 69.7106 27.8125C69.8952 28.1125 69.9567 28.475 69.9813 29.5625C70.0182 30.725 70.0797 31.0625 70.3626 31.75C70.5471 32.2 70.7563 32.775 70.8178 33.025C70.8916 33.3625 70.8793 33.6375 70.7686 33.9625C70.6825 34.225 69.969 35.4125 69.1694 36.5875L67.7301 38.75L69.1448 38.7375C72.011 34.4375 73.315 32.4625 73.9178 31.5625C74.6313 30.4875 74.988 29.825 74.988 29.5875C74.988 29.4 74.8404 29.1 74.6559 28.875C74.4591 28.675 70.3011 25.7375 65.3927 22.3375C60.4844 18.95 56.351 16.1 56.2034 16.025C56.0435 15.9375 55.7605 15.875 55.5637 15.875C55.3669 15.875 55.0962 15.975 54.9486 16.0875C54.8133 16.2125 51.3196 21.35 47.1986 27.5ZM57.126 22.5625C56.3756 22.8 55.9082 22.875 54.9978 22.875H53.8292C45.7593 34.9375 43.3851 38.5125 43.3358 38.5875C43.262 38.7125 43.7295 38.7375 45.4886 38.7125L47.7398 38.6875C47.8875 37.675 48.0351 37.075 48.1704 36.7125C48.2934 36.3625 48.6256 35.725 48.8839 35.3125C49.1422 34.9 49.5974 34.325 49.868 34.025C50.151 33.7375 50.7292 33.275 51.1597 33C51.578 32.7125 52.3653 32.35 52.9065 32.175C53.6816 31.925 54.1613 31.85 55.1208 31.85C56.1665 31.85 56.5109 31.9 57.3967 32.2125C57.9748 32.4125 58.7498 32.775 59.1189 33.025C59.4879 33.275 60.1153 33.8125 60.509 34.2375C60.9518 34.7125 61.3947 35.3875 61.7022 36.025C61.9852 36.6 62.2681 37.4375 62.3542 37.9125L62.5019 38.75L65.5773 38.7375C68.2467 34.7375 69.0094 33.4875 68.9971 33.375C68.9848 33.275 68.8249 32.7875 68.6404 32.3125C68.3821 31.625 68.2959 31.1375 68.2344 30.075L68.1606 28.7125C60.9149 23.6875 58.7252 22.1875 58.6145 22.125C58.4915 22.0625 58.3439 22.0625 58.2455 22.1375C58.1471 22.2 57.6427 22.3875 57.1137 22.5625H57.126ZM52.5129 34.3C52.1931 34.4625 51.7133 34.8 51.4426 35.025C51.172 35.2625 50.7538 35.7625 50.5077 36.1375C50.2617 36.5125 49.9788 37.0375 49.8803 37.3125C49.7819 37.5875 49.6589 38.025 49.6097 38.275L49.5359 38.75H60.7304C60.4352 37.5375 60.2014 36.9125 60.0169 36.575C59.8324 36.2375 59.4018 35.675 59.0574 35.325C58.7129 34.975 58.1594 34.5375 57.8272 34.35C57.4951 34.1625 56.8923 33.925 56.4863 33.825C56.0804 33.7125 55.4407 33.625 55.0716 33.6375C54.7026 33.6375 54.0998 33.725 53.7431 33.825C53.3986 33.925 52.845 34.1375 52.5129 34.3ZM25.1909 38.3L25.1786 38.75H28.377C28.377 38.125 28.4139 37.75 28.4631 37.525L28.5615 37.125C25.9167 37.125 25.8921 37.1375 25.5476 37.4875C25.3016 37.75 25.1909 37.9875 25.1909 38.3ZM71.3098 38.75C74.5083 38.8 75.4924 38.775 75.5539 38.725C75.64 38.6625 75.6277 38.45 75.5293 38.125C75.4432 37.85 75.2218 37.5125 75.0373 37.375C74.742 37.15 74.5083 37.1125 73.5242 37.125H72.3555L71.3098 38.75ZM23.5425 41.225C23.3456 41.4125 23.1119 41.725 23.0135 41.9125C22.8905 42.15 22.8413 42.7125 22.8413 43.8125V45.375H77.2147C77.2147 42.6375 77.1654 42.225 76.9932 41.8875C76.8825 41.65 76.575 41.2875 76.3166 41.075L75.8369 40.6875C33.31 40.65 24.3913 40.6875 24.1944 40.775C24.0222 40.8375 23.727 41.05 23.5425 41.225ZM22.8413 69.625C27.848 69.625 28.0203 69.65 28.254 69.875C28.3893 70.025 28.5 70.3 28.5 70.5C28.5 70.7125 28.3893 70.9875 28.254 71.125C28.0203 71.3625 27.848 71.375 25.4246 71.375H22.8413C22.9028 74.75 22.9151 74.8625 23.2226 75.2625C23.3948 75.5 23.7393 75.7875 23.9853 75.9125C24.4159 76.1125 25.9167 76.125 50.0649 76.125H75.6769C76.4396 75.6875 76.7718 75.35 76.9317 75.0625C77.1777 74.625 77.2147 74.4 77.2147 72.975V71.375L32.9901 71.3875C32.6088 70.975 32.4981 70.7 32.4981 70.5C32.4981 70.3125 32.6088 70.0375 32.7441 69.8875L32.9901 69.625H77.2147V65.375C68.1975 65.3 67.4717 65.2625 66.8812 65.075C66.5122 64.95 65.8725 64.675 65.4666 64.4625C65.0606 64.25 64.3594 63.7 63.9165 63.25C63.3384 62.675 62.9816 62.175 62.6741 61.5C62.428 60.9875 62.1697 60.2625 62.0836 59.875C61.9852 59.45 61.9483 58.7375 61.9852 58C62.0344 57.2 62.1451 56.575 62.3296 56.0625C62.4896 55.65 62.7848 55.0375 63.0062 54.6875C63.2276 54.35 63.7074 53.775 64.0642 53.4125C64.4332 53.05 65.0852 52.5625 65.5281 52.325C65.9709 52.0875 66.6844 51.8125 67.1273 51.7C67.7793 51.55 68.8126 51.5125 72.5769 51.5125L77.2147 51.5V47.25H22.8413V69.625ZM66.5737 53.825C66.1678 54.025 65.5527 54.4625 65.2082 54.8125C64.8761 55.1625 64.4455 55.75 64.261 56.125C64.0765 56.5125 63.8673 57.1875 63.7935 57.625C63.6828 58.25 63.6828 58.6375 63.7935 59.25C63.8796 59.7 64.1257 60.4 64.3348 60.8C64.5562 61.2125 65.0114 61.8 65.3435 62.1125C65.688 62.4375 66.2293 62.825 66.5491 62.975C66.8689 63.125 67.361 63.3125 67.6563 63.375C67.9515 63.45 70.7194 63.5 74.1761 63.5H80.1671L80.1055 53.3125C71.3345 53.2875 68.4559 53.325 68.0499 53.375C67.644 53.4375 66.9797 53.6375 66.5737 53.825ZM68.9725 54.7625C69.6245 54.75 69.9075 54.8125 70.5102 55.1125C70.9162 55.3125 71.4083 55.675 71.6051 55.9C71.8019 56.125 72.0726 56.5375 72.2079 56.8125C72.3432 57.1 72.4785 57.675 72.5154 58.125C72.5523 58.675 72.5154 59.15 72.3801 59.5625C72.2694 59.925 71.9495 60.4625 71.642 60.8125C71.3098 61.2125 70.8547 61.5625 70.4364 61.75C69.9321 61.9875 69.563 62.0625 68.911 62.0625C68.2344 62.0625 67.9023 61.9875 67.3733 61.7375C67.0043 61.55 66.5122 61.1875 66.2785 60.925C66.0447 60.6625 65.7495 60.1875 65.6142 59.875C65.4789 59.575 65.3435 59.0375 65.3066 58.6875C65.2697 58.275 65.3189 57.825 65.4789 57.325C65.6388 56.825 65.8971 56.375 66.2662 55.9625C66.5737 55.625 66.9797 55.2625 67.1642 55.1625C67.3487 55.05 67.6563 54.925 67.8408 54.875C68.0253 54.825 68.5297 54.775 68.9725 54.7625ZM67.4102 57.3875C67.2257 57.6625 67.1396 58.0125 67.1273 58.375C67.1273 58.725 67.2257 59.1 67.3733 59.35C67.5086 59.575 67.8039 59.875 68.0253 60.0125C68.3205 60.2 68.5666 60.2625 69.034 60.225C69.3908 60.2 69.7844 60.075 69.9813 59.9375C70.1535 59.8 70.3995 59.525 70.5225 59.3125C70.6456 59.1125 70.744 58.6875 70.744 58.375C70.7563 57.925 70.6825 57.7 70.3872 57.3125C70.1904 57.05 69.8336 56.7625 69.6245 56.675C69.4031 56.575 69.0956 56.5125 68.9479 56.5125C68.788 56.5125 68.4436 56.6125 68.1729 56.7375C67.9023 56.8625 67.5578 57.15 67.4102 57.3875Z" fill="url(#paint1_linear_1879_71)"/>
</g>
<defs>
<linearGradient id="paint0_linear_1879_71" x1="51.2712" y1="0" x2="51.2712" y2="100" gradientUnits="userSpaceOnUse">
<stop stop-color="white"/>
<stop offset="1" stop-opacity="0"/>
</linearGradient>
<linearGradient id="paint1_linear_1879_71" x1="21" y1="41.8033" x2="92.3487" y2="41.983" gradientUnits="userSpaceOnUse">
<stop offset="0.309726" stop-color="#DFC38E"/>
<stop offset="0.870713" stop-color="#CEA654"/>
</linearGradient>
</defs>
</svg>
