<svg width="103" height="100" viewBox="0 0 103 100" fill="none" xmlns="http://www.w3.org/2000/svg">
<g id="Group 26">
<g id="Rectangle 52">
<rect width="102.542" height="100" rx="21" fill="#3C3C3C"/>
<rect x="0.5" y="0.5" width="101.542" height="99" rx="20.5" stroke="url(#paint0_linear_1879_77)" stroke-opacity="0.5"/>
</g>
<path id="Vector" fill-rule="evenodd" clip-rule="evenodd" d="M69.6623 14.0061C70.0331 14.0327 70.245 14.139 70.4172 14.3781C70.5762 14.604 70.7086 15.1619 70.8013 16.1052C70.894 16.8757 71.106 17.9917 71.2781 18.6028C71.4503 19.2007 71.7815 20.0642 72.0066 20.5159C72.245 20.9809 72.5894 21.592 72.7881 21.8843C72.9868 22.1766 73.4106 22.6814 73.7285 23.0002C74.0464 23.3191 74.6291 23.7841 75.0132 24.0365C75.3841 24.2756 76.1656 24.6343 76.7351 24.8203C77.3311 25.0196 78.2848 25.2056 79.0132 25.272C80.1921 25.365 80.298 25.4049 80.6424 25.7901C80.8411 26.016 81 26.3083 81 26.4278C81 26.5607 80.8675 26.8397 80.6954 27.039C80.4967 27.3047 80.2185 27.4508 79.8079 27.5305C79.4768 27.5969 78.9735 27.6501 78.6821 27.6634C78.3907 27.6634 77.7947 27.7564 77.3576 27.8626C76.9205 27.9822 76.2053 28.2346 75.7682 28.4472C75.3311 28.6465 74.6556 29.0716 74.2848 29.3639C73.9007 29.6694 73.3046 30.2938 72.9735 30.7455C72.6291 31.2105 72.1523 32.0076 71.9139 32.5125C71.6755 33.0173 71.3576 33.9207 71.2119 34.5053C71.053 35.0898 70.8675 36.1393 70.8013 36.8302C70.7219 37.521 70.6424 38.1986 70.6026 38.3181C70.5629 38.451 70.351 38.6503 70.1391 38.7565C69.9272 38.8628 69.5828 38.9292 69.3841 38.8894C69.1722 38.8628 68.894 38.7034 68.7483 38.544C68.5497 38.3181 68.457 37.986 68.3907 37.0427C68.3245 36.3785 68.1656 35.3289 68.0066 34.7045C67.8477 34.0801 67.5298 33.1502 67.3046 32.6453C67.0662 32.1405 66.6954 31.4497 66.4702 31.1175C66.245 30.7854 65.8212 30.2673 65.5166 29.9484C65.2252 29.6429 64.6026 29.1513 64.1523 28.859C63.6887 28.5535 62.9338 28.1948 62.457 28.0486C61.9801 27.9025 61 27.7165 60.2715 27.6501C59.2252 27.5305 58.8808 27.4508 58.6424 27.2249C58.4437 27.039 58.351 26.7865 58.351 26.4943C58.351 26.2684 58.3907 25.9761 58.457 25.8566C58.5099 25.737 58.7086 25.551 58.9205 25.458C59.1192 25.3517 59.6225 25.272 60.0464 25.272C60.457 25.272 61.2781 25.1524 61.8609 25.0063C62.4437 24.8469 63.3311 24.5015 63.8344 24.2358C64.4437 23.9036 65.053 23.4254 65.649 22.7744C66.3245 22.0703 66.7086 21.499 67.1457 20.5823C67.4768 19.9181 67.8609 18.8552 68.0066 18.2308C68.1656 17.6064 68.351 16.5436 68.4305 15.8661C68.5364 14.9361 68.6424 14.5508 68.8543 14.2984C69.0795 14.0327 69.2384 13.9796 69.6623 14.0061ZM68.6954 22.5485C68.4437 22.987 67.8079 23.7841 67.2914 24.3288C66.7881 24.8602 65.9934 25.551 65.5298 25.8566C65.0795 26.1488 64.7086 26.4278 64.7086 26.4677C64.7219 26.5075 65.053 26.7467 65.4503 26.9991C65.8609 27.2515 66.5629 27.8228 67.0132 28.2612C67.4636 28.6996 68.0861 29.4436 68.4172 29.9218C68.7351 30.4001 69.1325 31.0777 69.2914 31.4497L69.5828 32.1139C70.4172 30.4665 70.947 29.6296 71.3046 29.1912C71.649 28.7527 72.298 28.1018 72.7351 27.7431C73.1589 27.3977 73.7417 26.9725 74.0066 26.8131C74.2848 26.667 74.5099 26.5075 74.5099 26.4677C74.5099 26.4278 74.1391 26.1621 73.6887 25.8698C73.2384 25.5776 72.5099 24.9797 72.0596 24.5413C71.6225 24.1029 71.0132 23.3457 70.6954 22.8807C70.3907 22.4024 70.0596 21.7647 69.9536 21.4459C69.8477 21.1403 69.7152 20.8879 69.6358 20.8879C69.5563 20.8879 69.4238 21.0872 69.3311 21.313C69.2384 21.5521 68.947 22.1101 68.6954 22.5485ZM43.9536 18.5098C58.9868 18.4965 64.1258 18.5364 64.351 18.656C64.5099 18.7357 64.7086 18.8951 64.8013 19.0147C64.894 19.1342 64.9735 19.4265 64.9735 19.6524C64.9735 19.9446 64.8675 20.2103 64.3245 20.755H24.0199L23.2517 21.5521V78.9444L24.0464 79.7415H46.894C66.9338 79.7415 69.7947 79.7149 70.1391 79.5422C70.3642 79.4359 70.5497 79.3297 70.5629 79.3031C70.5894 79.2898 70.6291 70.8537 70.7351 41.852L71.106 41.5331C71.3046 41.3472 71.6358 41.2143 71.8609 41.2143C72.1126 41.2143 72.3775 41.3339 72.9205 41.8786V79.4094L72.6026 80.0736C72.4172 80.4456 72.1391 80.8708 71.9669 81.0302C71.7947 81.1896 71.3841 81.4686 70.404 82H23.5166L22.7616 81.5483C22.3377 81.2959 21.8609 80.9106 21.702 80.6848C21.5298 80.4589 21.3046 80.0205 21.1987 79.7149C21.0132 79.2101 21 75.7426 21 50.2483C21 27.5836 21.0397 21.2466 21.1722 20.8347C21.2517 20.5425 21.5695 20.0509 21.8609 19.7188C22.1523 19.3867 22.5629 19.028 22.7616 18.9217C22.9603 18.8154 23.2914 18.6825 23.4901 18.6161C23.6887 18.563 32.894 18.5098 43.9536 18.5098ZM41.3311 23.0268C52.8543 23.0135 56.2318 23.0534 56.4967 23.1862C56.6689 23.2659 56.9073 23.4918 57.0132 23.6778C57.1192 23.8771 57.1589 24.1561 57.106 24.3819C57.0662 24.5812 56.9073 24.8602 56.7616 25.0063C56.5099 25.2587 56.3245 25.272 48.1523 25.272V49.1854H66.1656V42.0114L66.4967 41.6129C66.7483 41.3073 66.9338 41.2143 67.2914 41.2143C67.6093 41.2143 67.8609 41.3206 68.4172 41.8786V59.3221C68.404 72.8066 68.3775 76.8055 68.245 76.9649C68.1523 77.0845 67.9536 77.2439 67.7947 77.3236C67.5695 77.4432 62.298 77.483 26.298 77.483L25.5033 76.6859V50.2748C25.5033 26.2286 25.5166 23.8505 25.7152 23.5715C25.8344 23.3988 26.0596 23.2128 26.2185 23.1464C26.3642 23.0799 33.1722 23.0268 41.3311 23.0268ZM27.8212 49.119H45.8344V25.3384L27.755 25.272L27.8212 49.119ZM27.755 75.2245L45.8344 75.1581L45.9007 51.4439H27.755V75.2245ZM48.1523 75.2245H66.1656V51.4439H48.1523V75.2245ZM57.3576 29.8687C57.5033 29.9218 57.755 30.0813 57.9272 30.2407C58.1391 30.44 58.245 30.7322 58.298 31.2504C58.3377 31.6489 58.457 32.3929 58.5629 32.911C58.6689 33.4159 58.9603 34.2528 59.1987 34.771C59.4503 35.2758 59.8212 35.8869 60.0331 36.1128C60.2318 36.3386 60.6159 36.684 60.8675 36.87C61.1192 37.0693 61.702 37.3483 62.1656 37.4944C62.6159 37.6406 63.2252 37.7601 63.5166 37.7601C63.8079 37.7601 64.1921 37.8133 64.3775 37.893C64.5629 37.9594 64.8013 38.1986 64.9073 38.4244C65.0132 38.637 65.0662 38.9558 65.0265 39.1152C64.9868 39.2879 64.8146 39.5536 64.6556 39.7264C64.4834 39.9124 64.2318 40.0186 63.9801 40.0186C63.7682 40.0186 63.2517 40.0718 62.8543 40.1515C62.457 40.2312 61.8079 40.4438 61.4106 40.6563C61 40.8556 60.4305 41.3206 60.0464 41.7457C59.6755 42.1708 59.2517 42.8617 59.0265 43.4064C58.8146 43.9112 58.5762 44.7216 58.4967 45.1999C58.4172 45.6781 58.3113 46.3557 58.2715 46.7277C58.2185 47.1661 58.0728 47.4849 57.8742 47.6842C57.6887 47.8702 57.4106 47.9898 57.1589 47.9898C56.9338 47.9898 56.6159 47.8569 56.4172 47.6842C56.1258 47.4318 56.0596 47.2325 55.9536 46.2228C55.8874 45.5851 55.702 44.6286 55.5298 44.0972C55.3709 43.5658 55.0265 42.8085 54.7748 42.4233C54.5232 42.0247 54.0728 41.4933 53.7815 41.2542C53.4901 41.0017 52.9868 40.6696 52.6556 40.5235C52.3245 40.364 51.6093 40.1781 51.0662 40.1116C50.5232 40.0452 49.9404 39.9256 49.7682 39.8326C49.6093 39.7529 49.4106 39.5404 49.3311 39.3544C49.2649 39.1684 49.2252 38.8761 49.2649 38.6901C49.3179 38.5041 49.4503 38.2517 49.5828 38.1188C49.7329 37.9594 50.1611 37.8354 50.8675 37.7469C51.5033 37.6671 52.2318 37.4812 52.7086 37.2553C53.1722 37.0427 53.7417 36.6309 54.1126 36.2323C54.457 35.8604 54.894 35.2359 55.106 34.8374C55.3046 34.4388 55.5828 33.655 55.7152 33.1103C55.8609 32.5656 55.9669 31.8748 55.9669 31.5825C55.9669 31.2902 56.0331 30.8385 56.1258 30.5994C56.245 30.2938 56.4437 30.0813 56.6954 29.9617C56.9205 29.882 57.2119 29.8289 57.3576 29.8687ZM56.1391 37.428C55.8609 37.7867 55.3841 38.265 55.0795 38.4908L54.5364 38.8894C55.9007 40.1515 56.4834 40.8157 56.6954 41.201C56.9205 41.573 57.1192 41.8786 57.1589 41.8786C57.1987 41.8786 57.3179 41.6926 57.4238 41.4534C57.5298 41.2143 58.0993 40.5235 58.6821 39.9389L59.7417 38.8628C58.7616 38.1056 58.2053 37.4812 57.8609 36.9896C57.5298 36.498 57.2119 36.0463 57.1722 35.9932C57.1192 35.9401 57 36.0862 56.8808 36.3253C56.7616 36.5645 56.4305 37.056 56.1391 37.428ZM34.5364 27.6634C34.8675 27.6634 35.1325 27.7564 35.3046 27.9291C35.4503 28.0752 35.6093 28.3276 35.649 28.487C35.6887 28.6598 35.6358 28.9653 35.5298 29.1912C35.4106 29.4037 34.4967 30.4134 33.4901 31.4098C31.9007 32.9907 31.6093 33.2299 31.2384 33.2432C30.9338 33.2432 30.6821 33.1236 30.404 32.8446C30.1921 32.6188 29.9934 32.2866 29.9801 32.0873C29.9536 31.7951 30.2848 31.3965 31.9934 29.696C33.9007 27.7829 34.0728 27.6634 34.5364 27.6634ZM40.1391 27.6634C40.5099 27.6634 40.7616 27.7564 40.9735 27.9689C41.1766 28.1638 41.2737 28.4162 41.2649 28.7262C41.2649 29.1513 40.9338 29.5233 36.404 34.0801C31.5563 38.9558 31.5298 38.9824 31.0662 38.9027C30.8146 38.8628 30.4702 38.6768 30.3113 38.4908C30.1391 38.3048 30.0066 38.0391 30.0066 37.893C30.0066 37.7469 30.0861 37.4546 30.1921 37.2553C30.298 37.056 32.457 34.8108 35 32.2733C39.5298 27.7564 39.6358 27.6634 40.1391 27.6634ZM54.8278 53.7024C55.1589 53.7024 55.4106 53.7954 55.6358 54.0346C55.8742 54.2737 55.9669 54.4995 55.9669 54.8582C55.9669 55.3232 55.8212 55.4959 54.0066 57.316C52.1921 59.1361 52.0066 59.2822 51.5563 59.2822C51.2119 59.2822 50.9735 59.176 50.7351 58.9501C50.4967 58.6977 50.404 58.4851 50.4305 58.1264C50.4437 57.7013 50.6424 57.4489 52.3907 55.6686C54.1921 53.8486 54.3775 53.7024 54.8278 53.7024ZM60.4437 53.7024C60.6689 53.7024 60.9735 53.7556 61.106 53.822C61.2252 53.8751 61.4106 54.101 61.5166 54.3136C61.6093 54.5261 61.649 54.845 61.6093 55.031C61.5695 55.2302 59.702 57.2097 56.7351 60.1723C52.3907 64.5166 51.8874 64.9949 51.5033 64.9949C51.2119 64.9949 50.9603 64.8753 50.7351 64.6628C50.4834 64.4103 50.4172 64.2111 50.4305 63.8391C50.4702 63.3741 50.8013 63.0021 55.2384 58.525C59.5563 54.1674 60.0464 53.7024 60.4437 53.7024Z" fill="url(#paint1_linear_1879_77)"/>
</g>
<defs>
<linearGradient id="paint0_linear_1879_77" x1="51.2712" y1="0" x2="51.2712" y2="100" gradientUnits="userSpaceOnUse">
<stop stop-color="white"/>
<stop offset="1" stop-opacity="0"/>
</linearGradient>
<linearGradient id="paint1_linear_1879_77" x1="21" y1="43.541" x2="91.1791" y2="43.7047" gradientUnits="userSpaceOnUse">
<stop offset="0.309726" stop-color="#DFC38E"/>
<stop offset="0.870713" stop-color="#CEA654"/>
</linearGradient>
</defs>
</svg>
