<svg width="103" height="100" viewBox="0 0 103 100" fill="none" xmlns="http://www.w3.org/2000/svg">
<g id="Group 26">
<g id="Rectangle 52">
<rect width="102.542" height="100" rx="21" fill="#3C3C3C"/>
<rect x="0.5" y="0.5" width="101.542" height="99" rx="20.5" stroke="url(#paint0_linear_1879_83)" stroke-opacity="0.5"/>
</g>
<path id="Vector" fill-rule="evenodd" clip-rule="evenodd" d="M30.8646 16C30.9859 16 31.1207 16.0944 31.1611 16.2157C31.1881 16.3505 31.7137 18.3993 32.3066 20.7716C32.9131 23.144 33.3578 25.1254 33.2904 25.1659C33.2365 25.2063 32.7514 25.3546 32.2393 25.4759C31.4846 25.6511 31.2824 25.6646 31.2016 25.5298C31.1477 25.4354 30.6355 23.4001 30.0561 21.0008C29.4766 18.6015 29.0049 16.6335 29.0049 16.6066C29.0049 16.5796 29.3687 16.4448 29.8135 16.2965C30.2582 16.1483 30.7299 16.0135 30.8646 16V16ZM64.3135 16.2561C64.3943 16.2561 66.0789 16.4987 68.0869 16.7953C71.4965 17.2805 71.7391 17.3344 72.0355 17.6579C72.2107 17.8736 72.332 18.1836 72.332 18.4532C72.332 18.6824 72.1838 19.8281 72.0086 20.9738C71.766 22.6318 71.7391 23.1575 71.8469 23.5349C71.9457 23.8494 72.1299 24.0651 72.3994 24.1819C72.615 24.2897 72.925 24.3436 73.0732 24.2897C73.2215 24.2493 74.2322 23.5483 75.3373 22.7261C77.0219 21.4591 77.3857 21.2434 77.8305 21.2434C78.2078 21.2434 78.4234 21.3243 78.6795 21.6073C78.8816 21.823 79.9598 23.2114 81.0783 24.721C82.426 26.5273 83.1133 27.5517 83.1133 27.7808C83.1133 27.9695 82.9785 28.2661 82.8168 28.4548C82.6416 28.6435 81.6848 29.4253 80.6875 30.1801C79.6902 30.9349 78.8008 31.7033 78.7199 31.892C78.6121 32.1211 78.5986 32.3637 78.6795 32.6333C78.7469 32.8625 78.8816 33.1186 78.976 33.2129C79.0703 33.3073 80.2697 33.5634 81.7656 33.7791C84.1645 34.143 84.4205 34.1969 84.7035 34.5204C84.8652 34.7091 85 34.9922 85 35.1674C85 35.3292 84.7709 37.041 84.4879 38.982C84.1645 41.26 83.9219 42.581 83.7871 42.7292C83.6793 42.864 83.4502 43.0393 83.2885 43.0932C83.0863 43.1741 82.1025 43.0932 80.4584 42.8506C78.0596 42.5136 77.9113 42.5001 77.5609 42.7158C77.3453 42.8371 77.1162 43.1067 77.0488 43.3223C76.968 43.5245 76.9545 43.8076 76.9949 43.9559C77.0488 44.1041 77.7496 45.1016 78.5582 46.1799C79.3668 47.2583 80.0541 48.2557 80.0945 48.404C80.135 48.5523 80.0945 48.8353 80.0272 49.051C79.9193 49.2936 78.9221 50.1293 76.9141 51.639C74.5287 53.4317 73.8684 53.8631 73.518 53.8631C73.2754 53.8765 72.9385 53.7687 72.7902 53.6339C72.6285 53.4991 71.8604 52.5421 71.0922 51.5042C70.324 50.4663 69.5828 49.5767 69.4615 49.5228C69.3402 49.4554 69.0842 49.4149 68.8955 49.4149C68.7068 49.4149 68.4104 49.5497 68.2082 49.7249C67.8982 49.9945 67.8443 50.2372 67.5479 52.313C67.3592 53.58 67.184 54.7392 67.1436 54.9144C67.1031 55.0762 66.9549 55.3323 66.8066 55.4806C66.618 55.6693 66.3619 55.7501 65.9037 55.7501C65.5398 55.7501 63.8283 55.5345 62.0898 55.2784C59.718 54.9279 58.842 54.7527 58.5859 54.564C58.3434 54.3887 58.2355 54.1461 58.2086 53.7822C58.1816 53.4991 58.3029 52.2321 58.4781 50.992C58.7611 48.9566 58.7746 48.7005 58.5859 48.377C58.4781 48.1748 58.1951 47.9592 57.9795 47.8918C57.7639 47.8244 57.4539 47.7974 57.3057 47.8513C57.1574 47.8918 56.1467 48.5927 55.0551 49.4149C53.7613 50.3719 52.9393 50.8976 52.7236 50.8976C52.535 50.8976 52.2654 50.8437 52.1172 50.7628C51.9689 50.682 50.8504 49.2936 49.624 47.6626C48.1281 45.6677 47.4004 44.5894 47.4004 44.3602C47.4004 44.1715 47.4408 43.9154 47.5082 43.7941C47.5621 43.6728 48.4516 42.9314 49.4893 42.1631C50.527 41.3813 51.4838 40.6265 51.6051 40.4647C51.7398 40.303 51.8477 40.0064 51.8477 39.7773C51.8477 39.5482 51.7668 39.2516 51.6725 39.1033C51.5647 38.9551 51.3355 38.7933 51.1604 38.7394C50.9852 38.6855 49.8127 38.4833 48.5459 38.2946C47.2656 38.1059 46.1201 37.8633 45.9584 37.7554C45.7832 37.6476 45.608 37.3915 45.5541 37.1893C45.5002 36.9736 45.6754 35.3426 45.9449 33.3747C46.2145 31.4876 46.5109 29.7757 46.6187 29.5601C46.7131 29.3579 46.9422 29.1287 47.1309 29.0479C47.3869 28.94 48.0742 28.9805 50.0014 29.25C51.9959 29.5331 52.5889 29.5735 52.8314 29.4388C52.9932 29.3579 53.1953 29.1961 53.2896 29.0748C53.384 28.9535 53.4648 28.657 53.4648 28.4278C53.4648 28.0774 53.1818 27.6056 52.0768 26.1364C51.3086 25.1119 50.6078 24.1414 50.527 23.9797C50.4326 23.8045 50.3652 23.5483 50.3652 23.4001C50.3652 23.144 50.2979 23.1305 49.3275 23.2114C48.748 23.2518 47.7643 23.3731 47.1309 23.481C46.4975 23.5888 45.5676 23.8045 45.042 23.9662C44.5299 24.1145 43.6404 24.4245 43.0879 24.6536C42.5354 24.8828 41.592 25.3411 40.999 25.6646C40.4061 26.0016 39.5031 26.5812 38.9775 26.9721C38.4654 27.3495 37.6434 28.0234 37.1717 28.4683C36.7 28.8996 35.9588 29.6949 35.541 30.2071C35.1232 30.7193 34.5168 31.5415 34.2068 32.0268C33.8834 32.512 33.3443 33.5095 32.9805 34.2508C32.6301 34.9922 32.1854 36.084 31.9967 36.6771C31.808 37.2702 31.552 38.2676 31.4172 38.9012C31.2285 39.7638 31.1746 40.6534 31.1611 42.4731C31.1611 43.9828 31.2285 45.2633 31.3498 45.8429C31.4441 46.3551 31.6598 47.2717 31.835 47.8648C32.0102 48.4579 32.2662 49.2532 32.4145 49.6171C32.5627 49.9945 32.8996 50.7494 33.1826 51.302C33.4521 51.8547 34.0047 52.7982 34.3955 53.3913C34.7863 53.9844 35.5275 54.9279 36.0262 55.494C36.5383 56.0602 37.293 56.8015 37.6973 57.152C38.1016 57.5159 39.018 58.2168 39.7188 58.7156C40.4195 59.2278 41.2416 59.8748 41.5246 60.1578C41.8211 60.4409 42.2928 61.034 42.5758 61.4788C42.8588 61.9236 43.2227 62.6515 43.3844 63.0963C43.6404 63.8107 43.6809 64.296 43.7482 67.3423C43.8156 70.2538 43.8695 70.8468 44.0717 71.2243C44.193 71.4534 44.5029 71.7904 44.7455 71.9656C45.1768 72.2622 45.2307 72.2622 50.5404 72.3026C55.0686 72.3296 55.958 72.3026 56.2949 72.1274C56.5105 72.0195 56.8609 71.696 57.4404 70.9412L57.5213 67.5579C57.5887 64.5925 57.6291 64.0668 57.8852 63.2985C58.0469 62.8132 58.3568 62.1258 58.5725 61.7484C58.7881 61.3844 59.2328 60.7779 59.5563 60.4005C59.8932 60.0365 60.7287 59.3221 61.4295 58.8234C62.1303 58.3112 62.9119 57.7316 63.6396 57.125L64.2461 57.8125C64.583 58.1764 64.9064 58.5808 64.9738 58.7021C65.0682 58.8638 64.9738 59.0121 64.6369 59.2952C64.3809 59.4974 63.6396 60.05 62.9658 60.5218C62.3055 60.9936 61.5238 61.6271 61.2543 61.9371C60.9713 62.2336 60.6209 62.7324 60.4727 63.0289C60.3244 63.3255 60.1088 63.9185 60.001 64.3499C59.8527 64.916 59.7988 65.8461 59.7988 67.8814C59.7988 69.9303 59.7449 70.8199 59.5967 71.3186C59.4889 71.696 59.2193 72.2756 58.9902 72.6396C58.7746 72.99 58.3434 73.4349 57.5348 74.0145L57.4809 77.7886C57.4404 81.5359 57.4404 81.5628 57.09 82.3042C56.9014 82.7085 56.4701 83.3016 56.1467 83.6251C55.8232 83.9352 55.2842 84.326 54.9473 84.4878C54.6104 84.6495 54.233 84.8248 54.1117 84.8922C53.977 84.9461 52.4406 85 47.5352 85L46.6322 84.5956C46.1201 84.3665 45.4598 83.9217 45.1363 83.6116C44.8264 83.3016 44.4086 82.6816 43.8291 81.428L43.7482 74.0145L43.2631 73.6775C43.007 73.4888 42.6297 73.1248 42.441 72.8687C42.2523 72.6126 41.9693 72.1274 41.8211 71.7904C41.592 71.2782 41.5381 70.8334 41.4572 66.8705L40.4869 67.8545C39.7592 68.5823 39.3953 68.8519 39.0449 68.9058C38.6137 68.9732 38.4115 68.8654 36.8887 67.8275C35.9588 67.1805 35.1771 66.6683 35.1367 66.6683C35.0963 66.6683 34.8941 67.531 34.6785 68.5823C34.3416 70.2133 34.2203 70.5638 33.5465 71.2512H28.2637L27.8863 70.8873C27.5629 70.5638 27.4551 70.2403 27.1047 68.5823C26.8891 67.531 26.6869 66.6683 26.6465 66.6683C26.6061 66.6683 25.8244 67.1805 24.8945 67.8275C23.3717 68.8654 23.1695 68.9732 22.7383 68.9058C22.3475 68.8384 21.9162 68.4745 20.3395 66.9109C18.7896 65.3473 18.4123 64.889 18.3449 64.5116C18.2775 64.0803 18.3719 63.8781 19.4635 62.328C20.1104 61.3845 20.6225 60.5892 20.582 60.5622C20.5416 60.5353 19.6656 60.3466 18.6279 60.1309C17.0107 59.7939 16.6873 59.6861 16 58.9852V53.7283L16.3773 53.3509C16.6873 53.0274 17.0107 52.9195 18.6684 52.5691C19.7195 52.3534 20.582 52.1512 20.582 52.1108C20.582 52.0703 20.0699 51.2885 19.4365 50.3585C18.601 49.1453 18.291 48.5657 18.291 48.2692C18.291 47.9322 18.6279 47.5278 20.3125 45.8429C22.2127 43.9424 22.3609 43.8211 22.8326 43.8211C23.2504 43.8345 23.6412 44.0367 24.935 44.9398C25.7975 45.5464 26.5521 46.0451 26.6195 46.0451C26.6734 46.0451 26.8891 45.1825 27.1047 44.1311C27.4416 42.5001 27.5629 42.1496 27.8729 41.8396C28.075 41.624 28.385 41.4622 28.5602 41.4622C28.8566 41.4622 28.8836 41.3813 29.0453 40.1547C29.1396 39.4268 29.3687 38.2002 29.5574 37.4184C29.7461 36.6366 30.1369 35.3966 30.4334 34.6552C30.7164 33.9139 31.215 32.8355 31.5385 32.2694C31.8484 31.6898 32.4953 30.6654 32.9805 29.9779C33.4656 29.2905 34.5303 28.0504 35.3389 27.2416C36.1609 26.4194 37.3873 25.3546 38.0746 24.8828C38.7484 24.3975 40.0018 23.6562 40.8373 23.2383C41.6594 22.8205 42.9801 22.2543 43.7617 21.9982C44.5434 21.7421 45.6484 21.4321 46.2279 21.3243C46.7939 21.203 47.9799 21.0547 48.8559 20.9738C49.7184 20.9064 50.9852 20.8795 52.8584 21.0008L54.5834 19.7068C55.5268 18.9924 56.4566 18.3454 56.6723 18.278C56.9418 18.1702 57.1439 18.1836 57.427 18.3049C57.6561 18.4128 58.3838 19.262 59.3406 20.5425C60.6613 22.3083 60.9309 22.6048 61.3217 22.6722C61.6047 22.7126 61.8607 22.6722 62.0629 22.5374C62.2246 22.4161 62.4268 22.2004 62.4941 22.0522C62.575 21.9039 62.7771 20.7582 62.9658 19.4911C63.1545 18.2375 63.3701 17.0783 63.4375 16.9301C63.5184 16.7818 63.707 16.5661 63.8822 16.4583C64.0439 16.3505 64.2461 16.2561 64.3135 16.2561ZM65.1221 20.5694C65.0008 21.4186 64.8121 22.3891 64.7178 22.7261C64.61 23.0631 64.3 23.5618 64.017 23.8449C63.734 24.1414 63.2893 24.4784 63.0332 24.6132C62.7771 24.748 62.292 24.8963 61.9551 24.9502C61.6047 25.0041 61.0926 24.9771 60.7422 24.8828C60.4053 24.8019 59.9066 24.5862 59.6371 24.3975C59.3541 24.2223 58.5994 23.3731 57.9525 22.5239C57.2922 21.6613 56.7531 20.9603 56.7396 20.9738C56.7127 20.9738 55.9311 21.5534 54.9877 22.2678C54.0309 22.9687 53.2492 23.6023 53.2357 23.6831C53.2088 23.7505 53.667 24.4245 54.233 25.1928C54.799 25.9476 55.392 26.8373 55.5268 27.1743C55.7289 27.646 55.7828 27.983 55.7289 28.657C55.6885 29.1422 55.5672 29.7083 55.4594 29.9375C55.3381 30.1666 55.0416 30.5441 54.799 30.8002C54.543 31.0428 54.1252 31.3663 53.8691 31.4876C53.6131 31.6224 53.1549 31.7707 52.8584 31.8111C52.5484 31.865 51.5646 31.7976 50.5 31.6359C49.5027 31.4876 48.6402 31.4067 48.5998 31.4606C48.5594 31.5146 48.3842 32.5255 48.2225 33.7117C48.0607 34.8978 47.9529 35.8683 47.9664 35.8818C47.9934 35.8953 48.8828 36.0301 49.9609 36.1918C51.4299 36.4075 52.0633 36.5693 52.4945 36.8119C52.8045 37.0006 53.2088 37.351 53.384 37.5937C53.5727 37.8228 53.8152 38.2542 53.923 38.5372C54.0443 38.8068 54.1387 39.319 54.1387 39.6829C54.1387 40.0334 54.0713 40.5321 54.0039 40.7882C53.923 41.0443 53.7209 41.4757 53.5322 41.7318C53.357 41.9879 52.535 42.7158 51.7129 43.3493C50.8908 43.9828 50.217 44.522 50.217 44.5624C50.217 44.6029 50.8234 45.4386 51.5377 46.4091L52.8584 48.2018C55.0551 46.5573 55.9041 45.9777 56.1602 45.8429C56.4162 45.7216 56.9418 45.5734 57.3057 45.5464C57.683 45.506 58.2355 45.5464 58.559 45.6273C58.8689 45.7081 59.3811 45.9777 59.691 46.2204C60.0145 46.463 60.4188 46.9617 60.6344 47.393C60.9309 47.9457 61.0252 48.3231 61.0117 48.8758C61.0117 49.2801 60.9174 50.1967 60.8096 50.8976C60.7018 51.5986 60.6074 52.2995 60.6074 52.4477C60.6074 52.6904 60.7961 52.7443 62.7906 53.0274C64.583 53.2835 65.0008 53.3104 65.0816 53.1621C65.1221 53.0678 65.2299 52.3803 65.3242 51.639C65.4051 50.8976 65.5668 49.9945 65.6611 49.6171C65.7689 49.2262 66.0654 48.7005 66.3619 48.3501C66.6449 48.0266 67.1166 47.6357 67.4131 47.4739C67.8174 47.2717 68.2082 47.1909 68.9764 47.1909C69.8793 47.1909 70.068 47.2313 70.6609 47.5952C71.1461 47.8918 71.6447 48.4444 72.5072 49.5902L73.6797 51.1672C76.5098 49.024 77.3318 48.3905 77.3184 48.377C77.3184 48.3501 76.7793 47.6222 76.1324 46.7595C75.1756 45.479 74.9061 45.0207 74.7713 44.4276C74.65 43.875 74.65 43.511 74.7578 43.0123C74.8387 42.6484 75.0004 42.1901 75.1217 42.0014C75.243 41.8127 75.4855 41.4892 75.6877 41.287C75.8764 41.0713 76.2807 40.7748 76.5771 40.6265C76.8736 40.4782 77.4262 40.3299 77.79 40.2895C78.1674 40.2626 79.232 40.3434 80.1754 40.4782C81.1188 40.613 81.9004 40.6939 81.9004 40.6534C81.9004 40.613 82.0486 39.6155 82.2373 38.4294C82.4125 37.2432 82.5473 36.2592 82.5338 36.2458C82.5203 36.2323 81.6848 36.0975 80.6875 35.9492C79.6902 35.8009 78.6525 35.5988 78.3965 35.4909C78.1404 35.3831 77.7227 35.1135 77.4666 34.9113C77.2105 34.6956 76.8602 34.2239 76.6715 33.8465C76.4289 33.3477 76.3346 32.9568 76.3346 32.3637C76.348 31.9189 76.4289 31.3393 76.5367 31.0832C76.6445 30.8271 76.9545 30.3688 77.2105 30.0723C77.4801 29.7757 78.2752 29.1153 78.9895 28.5896C79.7307 28.0504 80.2428 27.5786 80.2158 27.4843C80.1754 27.3899 79.5959 26.5677 78.9086 25.6646C78.2348 24.748 77.6553 23.9797 77.6418 23.9392C77.6148 23.8988 76.941 24.3706 76.1459 24.9637C75.3508 25.5702 74.5018 26.1498 74.2861 26.2711C74.0705 26.379 73.6123 26.5138 73.2754 26.5677C72.8711 26.6351 72.4264 26.5946 71.9277 26.4464C71.5234 26.3385 70.9439 26.042 70.6609 25.7994C70.3779 25.5567 69.9871 25.058 69.7984 24.6806C69.5693 24.2088 69.475 23.791 69.475 23.2653C69.475 22.8609 69.5693 21.823 69.6906 20.9738C69.8119 20.1246 69.8928 19.4102 69.8793 19.3968C69.8523 19.3833 68.8416 19.2215 67.6152 19.0463C66.0924 18.8306 65.3916 18.7767 65.3781 18.8711C65.3646 18.9519 65.2434 19.7203 65.1221 20.5694ZM28.9105 46.5034C28.924 46.6652 28.8027 47.0021 28.641 47.2583C28.4928 47.5144 28.2232 47.8379 28.075 47.9592C27.9133 48.094 27.5494 48.2692 27.2529 48.3501C26.9564 48.4309 26.5117 48.4579 26.2826 48.4175C26.04 48.377 25.2045 47.8918 24.4229 47.3661L22.9943 46.3821C21.4311 47.9457 20.9863 48.4444 20.9863 48.5118C20.9863 48.5657 21.3906 49.1993 21.8893 49.9271C22.3879 50.6415 22.8326 51.4503 22.9 51.7064C22.9539 51.9625 22.9404 52.4073 22.873 52.6904C22.7922 52.96 22.5766 53.3778 22.3744 53.607C22.1588 53.8496 21.8488 54.1057 21.6602 54.2C21.4715 54.2944 20.6359 54.5235 19.8004 54.6853L18.291 55.0088V57.7046C20.016 58.0686 20.8246 58.2573 21.1885 58.3651C21.6377 58.4909 22.0105 58.7156 22.307 59.0391C22.5361 59.3087 22.7922 59.7535 22.873 60.0365C22.9539 60.3466 22.9539 60.7374 22.873 61.0744C22.8057 61.371 22.334 62.2067 21.8354 62.9346L20.9189 64.2555L22.9943 66.3313C25.0428 64.916 25.8648 64.4577 26.1479 64.3768C26.4803 64.287 26.8262 64.287 27.1855 64.3768C27.482 64.4577 27.9402 64.7138 28.2098 64.9564C28.5332 65.244 28.7578 65.6124 28.8836 66.0617C28.9914 66.4391 29.1801 67.2344 29.3148 67.8545L29.5439 68.9598H32.2393C32.7379 66.6144 32.9535 65.7652 33.0613 65.5495C33.1691 65.3473 33.4117 65.0373 33.6273 64.8486C33.8295 64.6599 34.2338 64.4442 34.5303 64.3634C34.8672 64.269 35.2445 64.269 35.541 64.3364C35.7971 64.4038 36.6326 64.8756 37.4008 65.3878L38.7889 66.3313L41.2146 63.9051C40.7969 62.9615 40.4195 62.3954 40.0961 62.0315C39.7727 61.6675 39.1258 61.1014 38.6406 60.7644C38.1555 60.414 37.5895 59.9961 37.3604 59.8343L36.9561 59.5108C36.3092 60.5083 35.824 61.0879 35.4602 61.4249C35.0963 61.7619 34.4359 62.2202 33.9912 62.4493C33.5465 62.6785 32.8457 62.9346 32.4414 63.0424C32.0371 63.1367 31.242 63.2041 30.6895 63.2041C30.0426 63.1907 29.3687 63.0828 28.8027 62.8941C28.3176 62.7324 27.5898 62.3954 27.1855 62.1528C26.7812 61.9101 26.1479 61.3844 25.7975 60.9936C25.4471 60.5892 24.9484 59.8748 24.7059 59.3895C24.4498 58.8773 24.1938 58.0955 24.0859 57.5024C23.9916 56.8824 23.9512 56.1815 24.0186 55.6828C24.0725 55.2379 24.2611 54.4831 24.4498 53.9979C24.625 53.5126 24.9484 52.8791 25.1506 52.5825C25.3662 52.286 25.7975 51.7738 26.1344 51.4368C26.4578 51.0998 27.1451 50.6146 27.6707 50.345C28.1828 50.0754 28.924 49.7789 29.3148 49.698C29.7596 49.6036 30.0021 49.4823 29.9617 49.388C29.9348 49.2936 29.7865 48.6601 29.6248 47.9996C29.4631 47.3391 29.2744 46.6113 29.234 46.4091C29.1801 46.1934 29.0857 46.0721 29.0184 46.126C28.951 46.1799 28.8971 46.3551 28.9105 46.5034ZM28.6949 52.3534C28.385 52.5151 27.8863 52.906 27.5898 53.2295C27.2934 53.5396 26.916 54.0652 26.7543 54.4022C26.5521 54.8201 26.4443 55.3727 26.4039 56.1545C26.3365 57.2194 26.3635 57.3676 26.7408 58.1764C26.9699 58.6617 27.3877 59.2817 27.6707 59.5782C27.9672 59.8613 28.5063 60.2522 28.8701 60.4409C29.3822 60.697 29.8135 60.7914 30.6221 60.8453C31.4711 60.8857 31.8484 60.8453 32.4414 60.6296C32.8457 60.4679 33.4926 60.077 33.8564 59.7535C34.2338 59.43 34.6785 58.8908 34.8672 58.5538L35.2041 57.9338C34.0451 56.6128 33.4926 55.9523 33.2365 55.6154C32.9805 55.2784 32.5223 54.6179 32.2123 54.1326C31.9158 53.6474 31.5115 52.933 31.3094 52.5556C30.9725 51.8816 30.932 51.8412 30.4604 51.8547C30.1773 51.8547 29.8 51.9086 29.6113 51.9625C29.4227 52.0164 29.0049 52.2051 28.6949 52.3534ZM46.0258 75.8611L46.0527 76.9125H55.2168V74.621C48.2494 74.621 46.1875 74.6615 46.1201 74.7154C46.0527 74.7558 46.0123 75.2815 46.0258 75.8611ZM46.0932 80.4845C46.1605 81.091 46.2684 81.4145 46.5648 81.765C46.7805 82.0211 47.1578 82.3446 47.4139 82.4794C47.8182 82.6816 48.209 82.7085 50.783 82.6816C53.6266 82.6411 53.6939 82.6411 54.1791 82.3042C54.4621 82.1155 54.799 81.7246 54.9473 81.428C55.127 81.0686 55.2168 80.6103 55.2168 80.0531V79.2039C46.5244 79.2039 46.174 79.2174 46.0932 79.4466C46.0527 79.5679 46.0527 80.0397 46.0932 80.4845ZM20.4203 22.3217C20.4742 22.3217 22.2801 23.5618 24.4229 25.0985C26.5791 26.6216 28.3445 27.9021 28.3715 27.9291C28.385 27.956 28.1154 28.3739 27.765 28.8592C27.4012 29.3444 27.0643 29.7218 26.9834 29.6949C26.916 29.6679 25.1236 28.4009 23.0078 26.9047C20.892 25.395 19.1535 24.1414 19.14 24.1145C19.1131 24.101 19.3691 23.6831 19.7061 23.1979C20.043 22.7126 20.3664 22.3217 20.4203 22.3217ZM42.1311 29.0613C42.158 29.0613 42.4275 29.4522 42.7105 29.9375C42.9936 30.4227 43.2227 30.8541 43.2227 30.9215C43.2361 30.9754 42.8184 31.3258 42.3197 31.7033C41.8211 32.0942 41.0934 32.7277 40.7295 33.1186C40.3521 33.523 39.7592 34.2374 39.4223 34.7226C39.0719 35.2079 38.5328 36.1514 38.2229 36.8119C37.9129 37.4858 37.5221 38.5777 37.3469 39.2381C37.1852 39.9121 36.9965 40.9635 36.9561 41.597C36.8887 42.2844 36.9156 43.2954 37.0234 44.158C37.1043 44.9398 37.3469 46.0856 37.5625 46.7191C37.7646 47.3526 38.1285 48.2557 38.3711 48.741C38.6137 49.2262 39.1258 50.0619 39.5031 50.6146C39.8805 51.1672 40.6352 52.0299 41.1742 52.5286C41.6998 53.0408 42.5488 53.7283 43.0609 54.0518C43.5596 54.3753 44.6646 54.9684 45.5137 55.3727C46.3627 55.7771 47.3061 56.2624 47.6025 56.4645C47.899 56.6667 48.492 57.1789 48.9232 57.6103C49.368 58.0281 49.934 58.7156 50.2035 59.1199C50.473 59.5243 50.8504 60.2522 51.0525 60.7374C51.2412 61.2227 51.4434 61.8293 51.4973 62.0854C51.5646 62.3415 51.6455 62.9615 51.7803 64.3768H50.6752C49.624 64.3768 49.5566 64.3634 49.5027 64.0803C49.4758 63.9051 49.3949 63.4063 49.3141 62.9615C49.2467 62.5167 48.9906 61.7349 48.7346 61.2092C48.4516 60.6027 47.9664 59.9287 47.4004 59.3356C46.6053 58.4999 46.3357 58.3247 44.5029 57.435C43.3979 56.8959 41.9963 56.1141 41.4033 55.6828C40.8104 55.2649 39.9479 54.5505 39.4762 54.0922C39.0045 53.6339 38.2498 52.7712 37.8051 52.1782C37.3604 51.5851 36.673 50.4393 36.2687 49.6171C35.8779 48.8084 35.3928 47.5548 35.2176 46.8539C35.0289 46.153 34.8133 45.0342 34.7189 44.3602C34.6246 43.6324 34.5977 42.6079 34.6516 41.7992C34.7055 41.0578 34.8402 39.993 34.948 39.4403C35.0693 38.8877 35.3119 37.9711 35.5006 37.4184C35.6893 36.8658 36.0801 35.9492 36.3496 35.3966C36.6326 34.8439 37.2525 33.8465 37.7107 33.186C38.1824 32.5255 38.9775 31.6089 39.4896 31.1371C39.9883 30.6654 40.7699 30.0049 41.2281 29.6679C41.6998 29.3309 42.1041 29.0613 42.1311 29.0613ZM26.1748 33.523C26.2557 33.5095 26.4443 33.9947 26.6195 34.5878C26.8486 35.41 26.8756 35.6796 26.7543 35.7335C26.66 35.7605 24.6115 36.2862 22.1992 36.8793C19.7869 37.4724 17.7789 37.9172 17.7385 37.8633C17.698 37.7959 17.5498 37.3376 17.4285 36.8119C17.3072 36.2997 17.2398 35.8414 17.2938 35.8009C17.3342 35.7605 19.3152 35.2348 21.7006 34.6282C24.0859 34.0352 26.1074 33.523 26.1748 33.523ZM72.4668 58.7156H80.418V61.007H72.4668V58.7156ZM72.1838 64.8216C72.3051 64.9025 73.8414 66.183 75.5934 67.6523C77.3588 69.108 78.8008 70.3481 78.8008 70.4155C78.8008 70.4694 78.4773 70.8738 77.3857 72.1004L74.084 69.3641C72.2646 67.8545 70.7283 66.5739 70.6475 66.52C70.5666 66.4526 70.7957 66.0752 71.2404 65.536C71.8604 64.7812 71.9951 64.6734 72.1838 64.8216ZM49.5566 66.6683H51.8477V70.0381H49.5566V66.6683ZM65.6072 67.7332L67.8174 67.814L67.8848 75.8341H65.5938L65.6072 67.7332ZM65.1895 26.9181C65.742 26.9047 66.6314 26.999 67.1436 27.1069C67.6691 27.2147 68.6395 27.5652 69.2998 27.9021C70.0545 28.2795 70.8361 28.7918 71.3752 29.2905C71.8469 29.7218 72.5072 30.4901 72.8576 31.0158C73.1945 31.528 73.6527 32.4716 73.8684 33.1051C74.1648 33.9678 74.2727 34.5743 74.3266 35.5987C74.3805 36.5558 74.3266 37.2297 74.1783 37.9576C74.057 38.5103 73.7471 39.3864 73.5045 39.9121C73.2484 40.4243 72.7768 41.2196 72.4398 41.6644C72.1029 42.1092 71.5369 42.7158 71.173 43.0123C70.8092 43.3088 70.1758 43.7537 69.7715 43.9963C69.3672 44.2389 68.5451 44.5894 67.9521 44.7916C67.0762 45.0746 66.6045 45.142 65.3916 45.1555C64.5561 45.1555 63.5857 45.0881 63.168 44.9803C62.7637 44.8859 61.8473 44.522 61.1465 44.185C60.0818 43.6728 59.691 43.3897 58.7881 42.4866C57.9525 41.6509 57.5752 41.1252 57.1305 40.2491C56.8205 39.6155 56.4701 38.7124 56.3488 38.2272C56.2275 37.7419 56.1197 36.7984 56.1197 36.1379C56.1197 35.464 56.2006 34.5609 56.2814 34.116C56.3758 33.6712 56.7262 32.7412 57.0496 32.0537C57.4943 31.1371 57.8852 30.571 58.559 29.8566C59.0576 29.3309 59.7988 28.6839 60.2031 28.4143C60.6074 28.1448 61.3082 27.7808 61.7529 27.5921C62.1977 27.4169 62.9254 27.1877 63.3701 27.0934C63.8148 26.999 64.6369 26.9181 65.1895 26.9181ZM62.1572 29.9375C61.7125 30.1666 60.9578 30.7193 60.4592 31.218C59.7988 31.8515 59.4215 32.3637 59.0711 33.1051C58.7746 33.7386 58.5455 34.48 58.4512 35.0865C58.3568 35.7605 58.3568 36.3805 58.4646 37.041C58.5455 37.6476 58.7746 38.4024 59.0711 38.9955C59.3811 39.656 59.8123 40.2491 60.3783 40.8287C60.9443 41.4083 61.5373 41.8396 62.2246 42.1766C62.8715 42.4866 63.5992 42.7292 64.2461 42.8236C65.0277 42.9449 65.4859 42.9449 66.2676 42.8236C66.9145 42.7158 67.6422 42.4731 68.2756 42.1631C68.8686 41.8531 69.5693 41.3678 70.0275 40.9096C70.4453 40.4917 70.9709 39.7908 71.2135 39.3594C71.4426 38.9146 71.7256 38.2272 71.8469 37.8228C71.9682 37.4184 72.0625 36.6232 72.0625 36.0705C72.0625 35.5179 71.9816 34.7496 71.8873 34.3856C71.7795 34.0082 71.51 33.3342 71.2809 32.8625C71.0383 32.3907 70.4992 31.6763 70.041 31.218C69.5963 30.7597 68.882 30.2206 68.4238 30.0049C67.9791 29.7757 67.2648 29.5062 66.8471 29.3983C66.4158 29.277 65.6746 29.1961 65.1895 29.2096C64.7043 29.2096 64.017 29.2905 63.6396 29.3714C63.2758 29.4657 62.602 29.7218 62.1572 29.9375Z" fill="url(#paint1_linear_1879_83)"/>
</g>
<defs>
<linearGradient id="paint0_linear_1879_83" x1="51.2712" y1="0" x2="51.2712" y2="100" gradientUnits="userSpaceOnUse">
<stop stop-color="white"/>
<stop offset="1" stop-opacity="0"/>
</linearGradient>
<linearGradient id="paint1_linear_1879_83" x1="16" y1="45.9754" x2="96.7058" y2="46.1887" gradientUnits="userSpaceOnUse">
<stop offset="0.309726" stop-color="#DFC38E"/>
<stop offset="0.870713" stop-color="#CEA654"/>
</linearGradient>
</defs>
</svg>
