<svg width="119" height="97" viewBox="0 0 119 97" fill="none" xmlns="http://www.w3.org/2000/svg">
<path fill-rule="evenodd" clip-rule="evenodd" d="M23.1172 0L23.7681 0.606104C24.1633 0.95578 24.3958 1.42201 24.3958 1.84162C24.3958 2.1913 24.2563 2.68085 24.0703 2.93727C23.7449 3.3802 23.3962 3.40351 16.7938 3.52007C10.4006 3.63663 9.79618 3.68325 9.0755 4.10286C8.63379 4.35929 8.0526 4.94208 7.79687 5.385C7.30867 6.20091 7.30866 6.34079 7.19243 69.7253H7.72713C8.0061 69.7253 8.61054 69.9584 9.05225 70.2382C9.49396 70.5412 10.0984 71.1473 10.3774 71.5902C10.8888 72.3595 10.9353 72.6393 10.9121 79.2831H22.4197L22.6987 78.4206C22.8615 77.931 23.3962 76.9053 23.8844 76.136C24.3726 75.3667 25.4187 74.1312 26.2091 73.4086C27.139 72.546 28.3479 71.7301 29.5801 71.1473C30.6495 70.6112 32.1838 70.0983 33.1137 69.9351C33.9972 69.7952 35.485 69.7253 36.3684 69.7952C37.2518 69.8652 38.67 70.1449 39.5069 70.4247C40.3438 70.7044 41.5992 71.2872 42.2966 71.7068C42.9941 72.1264 44.2494 73.1288 45.0399 73.9447C46.0628 74.9704 46.8299 76.0428 48.4573 79.3064L68.5667 79.2831V42.8003C68.5667 11.9356 68.5202 6.22422 68.2412 5.66474C68.0552 5.31507 67.66 4.80221 67.3578 4.52247C67.0788 4.26604 66.4046 3.91637 65.8932 3.7765C65.2655 3.61331 59.1978 3.52007 28.8129 3.52007L28.3479 2.89065C28.069 2.51766 27.8597 2.05143 27.883 1.84162C27.883 1.60851 28.1387 1.11896 29.0454 0.0233117H66.2419L67.7065 0.676039C68.4969 1.04903 69.5431 1.74838 70.0313 2.26124C70.5195 2.75078 71.1472 3.63663 71.4261 4.21942C71.8678 5.12857 71.9376 5.71137 72.0538 12.1454H80.1441C84.8866 12.1454 88.6528 12.262 89.2572 12.4018C89.8384 12.5417 90.9775 12.9613 91.8145 13.3576C92.8141 13.8472 93.837 14.6164 94.8599 15.6188C95.7201 16.4814 96.65 17.7169 96.9987 18.4396C97.3474 19.1389 99.2538 25.503 101.23 32.5431C103.229 39.6066 104.903 45.5511 104.949 45.7842C105.019 46.0173 106.344 46.8332 108.274 47.789C110.157 48.7681 111.854 49.7938 112.459 50.3533C112.993 50.8894 113.691 51.752 114.016 52.3115C114.342 52.8476 114.76 53.8733 114.946 54.5727C115.225 55.5751 115.295 57.3701 115.295 69.7253H115.829C116.108 69.7253 116.713 69.9584 117.155 70.2382C117.596 70.5412 118.201 71.1473 118.503 71.5902C119.038 72.3828 119.038 72.5227 118.968 76.4158C118.898 80.0524 118.852 80.472 118.41 81.0781C118.154 81.4278 117.573 81.9639 117.131 82.267C116.364 82.7799 116.178 82.8032 105.531 82.7799V83.5491C105.531 83.9454 105.368 85.0178 105.182 85.9269C104.996 86.8361 104.438 88.398 103.927 89.4237C103.299 90.7291 102.555 91.7549 101.509 92.8039C100.625 93.7131 99.37 94.6688 98.4168 95.1817C97.5334 95.6479 95.9991 96.254 95.0227 96.5105C94.023 96.7902 92.6281 97 91.9307 97C91.2333 97 89.8384 96.7902 88.862 96.5105C87.8623 96.2307 86.328 95.6246 85.4446 95.1584C84.4682 94.6455 83.236 93.7131 82.3526 92.8039C81.3064 91.7549 80.5625 90.7291 79.9348 89.4237C79.4234 88.398 78.8654 86.8361 78.6794 85.9269C78.4935 85.0178 78.3307 83.9454 78.3307 82.7799H48.806V84.0154C48.806 84.6681 48.6433 85.857 48.4573 86.6263C48.2481 87.3956 47.7599 88.701 47.3414 89.5403C46.8532 90.5193 45.993 91.6849 44.8539 92.8272C43.6682 94.0394 42.6453 94.832 41.5992 95.3449C40.7623 95.7412 39.2977 96.2773 38.3445 96.5338C37.3913 96.7902 36.0197 97 35.3223 97C34.6248 97 33.2532 96.7902 32.3001 96.5105C31.3469 96.254 29.8823 95.6945 29.0454 95.2982C28.069 94.8087 26.9531 93.9928 25.8837 92.9204C24.6283 91.6616 24.0238 90.8224 23.3032 89.3071C22.7685 88.2115 22.2338 86.7662 22.0943 86.1134C21.9548 85.4374 21.8385 84.4117 21.8385 82.7799L2.6591 82.8032L1.84543 82.267C1.40372 81.9639 0.799278 81.3578 0.497056 80.9149C-0.0376432 80.1223 -0.0376432 79.9825 0.0321002 76.0894C0.101844 72.4528 0.148339 72.0332 0.590048 71.4271C0.845774 71.0774 1.42697 70.5412 1.86868 70.2382C2.31039 69.9584 2.89158 69.7253 3.70525 69.7253L3.775 37.7416C3.82149 6.73708 3.84474 5.68806 4.2632 4.56909C4.54218 3.86974 5.19311 2.93727 5.89055 2.23792C6.65773 1.46864 7.54114 0.885845 8.35482 0.559481C9.54045 0.116559 10.1449 0.0699351 23.1172 0V0ZM72.0538 79.2831L78.9119 79.2598C80.516 75.8796 81.1205 75.0637 82.3758 73.8049C83.3058 72.8957 84.6541 71.8467 85.4213 71.4504C86.1885 71.0308 87.3974 70.5179 88.0948 70.2848C89.0247 69.9584 90.0476 69.8419 91.9307 69.8419C93.8138 69.8419 94.8367 69.9584 95.7666 70.2848C96.464 70.5179 97.6729 71.0308 98.4401 71.4504C99.2073 71.8467 100.556 72.8957 101.486 73.8049C102.741 75.0637 103.345 75.8796 104.043 77.3482L104.949 79.2598L108.088 79.2831C108.065 72.6393 108.111 72.3595 108.623 71.5902C108.902 71.1473 109.506 70.5412 109.948 70.2382C110.389 69.9584 110.994 69.7253 111.296 69.7253C111.738 69.7253 111.808 69.6087 111.808 68.9094V68.0935C108.809 68.0702 107.553 67.9303 107.042 67.7205C106.53 67.534 105.926 67.2076 105.67 66.9745C105.438 66.7647 105.042 66.1819 104.81 65.6924C104.438 64.9697 104.368 64.317 104.368 61.5662C104.368 58.8154 104.438 58.1627 104.81 57.4167C105.042 56.9505 105.438 56.3677 105.67 56.1579C105.926 55.9481 106.507 55.5984 106.995 55.4119C107.507 55.1788 108.553 55.0389 109.599 55.0389C110.552 55.0389 111.343 54.9923 111.343 54.9224C111.343 54.8524 111.203 54.5261 111.017 54.1531C110.831 53.8034 110.389 53.2439 110.017 52.9176C109.669 52.5679 107.762 51.4956 105.833 50.5165C102.346 48.7914 102.276 48.7215 101.927 47.7424C101.741 47.2062 99.9512 40.9354 97.9751 33.8253C95.7433 25.8527 94.0928 20.4444 93.7208 19.745C93.3721 19.1156 92.6746 18.2298 92.1632 17.7868C91.6517 17.3206 90.6521 16.6912 89.9546 16.3648L88.676 15.7587L72.0771 15.6188L72.0538 79.2831ZM107.809 61.6128C107.832 63.8274 107.925 64.3869 108.204 64.4802C108.39 64.5501 109.274 64.5967 110.18 64.5967H111.808V58.5357C108.971 58.5357 108.065 58.6056 107.972 58.6989C107.855 58.7921 107.786 60.0976 107.809 61.6128ZM3.47278 79.2831H7.4249V73.2221H3.47278V79.2831ZM30.4402 74.5741C29.859 74.9005 28.9756 75.5532 28.4874 76.0195C27.9992 76.4624 27.2785 77.3715 26.8833 78.001C26.4649 78.6537 25.9534 79.7726 25.7442 80.5186C25.5117 81.2413 25.3257 82.5001 25.3257 83.316C25.3025 84.1086 25.5117 85.4607 25.7674 86.2766C26.0464 87.1858 26.6508 88.3747 27.2785 89.2605C27.976 90.193 28.8594 91.0555 29.7893 91.6616C30.603 92.1745 31.8119 92.7573 32.5325 92.9671C33.23 93.1769 34.4854 93.3167 35.3223 93.3167C36.136 93.3167 37.2983 93.2002 37.8795 93.037C38.4375 92.8971 39.4371 92.5008 40.0881 92.1745C40.7158 91.8481 41.7852 91.0089 42.4594 90.3328C43.1568 89.6102 44.017 88.4213 44.4354 87.5121C45.1561 86.0202 45.2026 85.7871 45.2026 83.3626C45.2026 80.9615 45.1561 80.7051 44.4587 79.2831C44.0635 78.4439 43.2498 77.255 42.6918 76.6023C42.1106 75.9728 41.0877 75.1103 40.3903 74.6907C39.7161 74.2944 38.5305 73.7815 37.7633 73.595C36.9961 73.3852 35.8337 73.2221 35.206 73.2454C34.5551 73.2454 33.4625 73.4086 32.765 73.595C32.0443 73.8049 30.9982 74.2245 30.4402 74.5741ZM87.3974 74.3876C86.6302 74.7839 85.4911 75.5999 84.8866 76.206C84.2822 76.8121 83.4453 78.001 83.0268 78.8169C82.6083 79.6561 82.1434 80.9615 82.0039 81.7308C81.7946 82.7799 81.7946 83.5491 82.0039 84.7614C82.1434 85.6705 82.5618 87.0226 82.957 87.7919C83.3755 88.6544 84.1427 89.6801 84.9796 90.4727C85.7235 91.1954 86.9789 92.0812 87.7461 92.4309C88.5133 92.8039 89.7687 93.1769 90.5358 93.2468C91.303 93.3401 92.6049 93.3167 93.4418 93.2235C94.3717 93.1069 95.5109 92.7573 96.4175 92.291C97.3009 91.8481 98.4168 90.9856 99.1375 90.2396C99.8117 89.5403 100.625 88.398 100.951 87.6753C101.276 86.976 101.672 85.6705 101.834 84.7614C102.043 83.5258 102.043 82.8032 101.858 81.7308C101.695 80.9615 101.276 79.7027 100.904 78.9334C100.532 78.1641 99.6722 76.9986 99.0445 76.3225C98.3006 75.5532 97.2312 74.7839 96.1618 74.2711C94.7204 73.5484 94.1857 73.4086 92.5119 73.3386C91.4192 73.292 90.1406 73.3386 89.6524 73.4785C89.1875 73.595 88.1646 74.0147 87.3974 74.3876ZM111.575 79.2831H115.527V73.2221H111.575V79.2831ZM37.9958 9.13819C61.4993 9.11488 61.7085 9.11488 62.9872 10.0473V62.4987L62.3362 62.9882C61.7318 63.4311 61.3831 63.4545 51.3633 63.4311L50.7821 62.8484C50.4566 62.5453 50.2009 62.0091 50.2009 61.6828C50.2009 61.3797 50.4566 60.8435 50.7588 60.5172C51.34 59.9344 51.3633 59.9344 59.5 59.9344V12.6116H16.2591V59.9344L45.6676 59.9577L46.179 60.4706C46.4812 60.7736 46.7137 61.2632 46.7137 61.6361C46.7137 61.9858 46.458 62.522 45.5746 63.4311H13.9343L12.7719 62.2656V36.3896C12.7719 16.6212 12.8416 10.397 13.0509 10.0473C13.1904 9.7676 13.5391 9.46455 13.7948 9.34799C14.0738 9.23143 24.9073 9.13819 37.9958 9.13819ZM42.2734 22.659C42.7383 22.659 44.1797 23.9411 48.806 28.5102C52.0607 31.7272 54.9667 34.6179 55.2457 34.9209C55.5944 35.2706 55.7804 35.7602 55.7804 36.273C55.7804 36.8791 55.5711 37.2987 55.0132 37.8815C54.5947 38.3011 51.6887 41.1918 48.5735 44.2922C43.6915 49.0711 42.7616 49.9104 42.1804 49.9104C41.7619 49.9104 41.2505 49.7006 40.9482 49.3975C40.46 48.908 40.4135 48.6748 40.4368 43.6162H31.6491C22.8847 43.6162 22.8847 43.6162 22.35 43.1033C21.8153 42.5672 21.8153 42.5205 21.8385 36.273C21.8385 30.142 21.8618 29.9788 22.8615 28.9298H40.4368L40.4135 26.2723C40.3903 23.6381 40.3903 23.6148 41.018 23.1252C41.3667 22.8688 41.9247 22.6357 42.2734 22.659ZM43.924 29.8157C43.924 30.8414 43.8077 31.1444 43.2265 31.7272L42.5523 32.4266H25.3257V40.1194H42.5291C43.6682 41.1452 43.831 41.5181 43.924 42.5672L44.0402 43.8726L51.5957 36.273L43.924 28.5801V29.8157ZM76.2849 18.9058L88.2808 19.0457L89.2804 19.745C89.8384 20.1413 90.5126 20.7707 90.7683 21.167C91.024 21.54 92.6281 26.8551 97.5102 44.1057L96.5338 45.3879L76.2384 45.5044L75.7502 44.8517C75.3085 44.2223 75.2853 43.8959 75.262 20.1413L76.2849 18.9058ZM78.7724 42.0077C89.9546 42.0077 93.1861 41.9611 93.1861 41.8911C93.1861 41.8445 92.0469 37.7183 90.6521 32.7529C89.2572 27.7875 88.0251 23.5215 87.9088 23.2884C87.8158 23.032 87.5369 22.7522 87.3276 22.6357C87.0952 22.5191 85.0958 22.4259 82.8408 22.4259H78.7724V42.0077ZM82.7943 48.5583C85.7235 48.535 87.1417 48.6282 87.6764 48.8613C88.0948 49.0245 88.7458 49.5374 89.141 49.957C89.5362 50.3999 89.9779 51.1692 90.1639 51.682C90.3266 52.2415 90.4196 53.0574 90.3266 53.6635C90.2569 54.2696 89.9314 55.1089 89.5362 55.645C89.1875 56.1579 88.4203 56.8339 87.8391 57.1137C86.8859 57.6032 86.4907 57.6498 82.8408 57.6265C79.4001 57.6265 78.7724 57.5566 77.9123 57.1603C77.3311 56.9039 76.6336 56.2978 76.2152 55.715C75.8432 55.1788 75.448 54.293 75.3783 53.7801C75.3085 53.2672 75.355 52.4047 75.4945 51.8685C75.634 51.3324 76.0524 50.5398 76.4244 50.1202C76.7964 49.7006 77.4473 49.1877 77.8658 48.9546C78.54 48.6282 79.3536 48.5583 82.7943 48.5583ZM78.8887 53.4304C78.9584 53.6869 79.2374 53.9666 79.5396 54.0365C79.8186 54.1065 81.5157 54.1298 83.3058 54.0831L86.5605 54.0132C86.9789 52.9176 86.9557 52.6844 86.6767 52.4047C86.3977 52.0783 85.77 52.0317 82.7943 52.0317C79.4931 52.0317 79.2374 52.0783 79.0282 52.498C78.8887 52.7544 78.8422 53.174 78.8887 53.4304ZM36.1127 76.6955C36.6242 76.7421 37.5773 77.0452 38.205 77.3249C38.8559 77.628 39.7161 78.2574 40.1346 78.7236C40.553 79.1665 41.111 80.0058 41.39 80.5419C41.7852 81.2879 41.9014 81.964 41.9247 83.2694C41.9247 84.6215 41.8084 85.2742 41.4365 86.0668C41.1575 86.6496 40.46 87.5821 39.9253 88.1415C39.3209 88.7243 38.4142 89.3304 37.6936 89.5869C37.0194 89.8433 36.0197 90.0298 35.485 90.0531C34.9271 90.0531 33.9739 89.8899 33.323 89.7034C32.6023 89.4936 31.7189 88.9808 30.9982 88.3514C30.2775 87.6986 29.6266 86.8594 29.2778 86.0668C28.8826 85.1577 28.7199 84.3651 28.6967 83.2694C28.6967 82.1038 28.8361 81.4744 29.3243 80.4254C29.7196 79.5862 30.324 78.7702 30.9517 78.2807C31.4864 77.8378 32.2536 77.3715 32.6255 77.2084C33.0207 77.0685 33.7414 76.8587 34.2529 76.7654C34.7643 76.6722 35.6012 76.6489 36.1127 76.6955ZM33.5089 80.7284C33.2067 80.9149 32.7883 81.4977 32.5558 82.0339C32.2768 82.6866 32.1761 83.3083 32.2536 83.8988C32.3233 84.3884 32.6023 85.0411 32.858 85.3675C33.1137 85.6705 33.6717 86.0668 34.0901 86.23C34.5086 86.3932 35.1363 86.533 35.485 86.533C35.8337 86.533 36.4614 86.3232 36.8799 86.0668C37.2983 85.8104 37.7865 85.3675 37.9725 85.0877C38.1585 84.808 38.391 84.2019 38.484 83.7356C38.577 83.1762 38.484 82.64 38.1818 82.0106C37.9493 81.521 37.5308 80.9615 37.2751 80.7984C37.0194 80.6352 36.4847 80.4021 36.0895 80.2855C35.6942 80.1923 35.0666 80.1689 34.6946 80.2622C34.3226 80.3321 33.7879 80.5419 33.5089 80.7284ZM92.9304 76.7654C93.5348 76.8587 94.4182 77.1384 94.9297 77.3949C95.4411 77.6746 96.2548 78.2807 96.7197 78.7702C97.1847 79.2598 97.7427 80.0291 97.9751 80.472C98.2076 80.9382 98.4401 82.0339 98.4866 82.9197C98.6028 84.3184 98.5331 84.7614 98.0216 85.8337C97.7194 86.5564 97.1847 87.4422 96.8592 87.8152C96.5338 88.2115 95.7201 88.8409 95.0227 89.2139C93.93 89.8433 93.558 89.9132 91.9074 89.9132C90.4428 89.9132 89.8384 89.7967 89.0712 89.4004C88.5133 89.0973 87.7461 88.5612 87.3276 88.2115C86.9092 87.8385 86.3047 87.0226 85.9793 86.3932C85.4911 85.4374 85.3981 84.9478 85.4213 83.2694C85.4213 81.8008 85.5375 81.0781 85.8398 80.472C86.0723 80.0291 86.6534 79.2598 87.1184 78.7702C87.5834 78.2807 88.3738 77.6746 88.8852 77.3949C89.3967 77.1384 90.2801 76.8587 90.8381 76.7654C91.396 76.6955 92.3492 76.6955 92.9304 76.7654ZM89.8616 80.8916C89.6292 81.1014 89.2804 81.591 89.0945 81.9406C88.9317 82.2903 88.769 82.9664 88.7922 83.4559C88.7922 83.9454 88.9782 84.6448 89.2339 85.0178C89.4664 85.4141 90.0244 85.9036 90.4893 86.1367C90.9543 86.3699 91.6052 86.533 91.9074 86.533C92.2329 86.533 92.8839 86.3699 93.3488 86.1367C93.7905 85.9036 94.3717 85.4141 94.6042 85.0178C94.8367 84.6448 95.0459 83.9454 95.0459 83.4559C95.0459 82.9664 94.9064 82.2903 94.7204 81.9406C94.5577 81.591 94.209 81.1247 93.9765 80.8916C93.744 80.6585 93.1628 80.4021 92.6979 80.2855C92.2329 80.1923 91.5122 80.1923 91.0705 80.2855C90.6521 80.3788 90.0941 80.6585 89.8616 80.8916Z" fill="#EADA86"/>
</svg>
