<svg width="148" height="71" viewBox="0 0 148 71" fill="none" xmlns="http://www.w3.org/2000/svg">
<g id="Group 5806">
<g id="Group 48402">
<g id="Group 48398">
<path id="&#60;Compound Path&#62;" d="M42.6423 12.3982C41.6457 14.1922 40.2504 15.0892 38.4565 15.0892C36.8619 15.0892 35.3669 14.3915 33.9716 12.9962C32.7757 11.6009 32.1777 9.90666 32.1777 7.9134C32.1777 5.92014 32.7757 4.22587 33.9716 2.83059C35.3669 1.4353 36.8619 0.737671 38.4565 0.737671C40.2504 0.737671 41.6457 1.63462 42.6423 3.42856C42.8416 3.62788 42.9413 3.8272 42.9413 4.02653C42.9413 4.22585 42.8416 4.42522 42.6423 4.62454C42.443 4.82387 42.1439 4.9235 41.7453 4.9235C41.3466 4.9235 41.0477 4.82387 40.8483 4.62454C40.2504 3.42858 39.4531 2.83059 38.4565 2.83059C37.2605 2.83059 36.2639 3.3289 35.4666 4.32553C34.6693 5.32217 34.2705 6.51811 34.2705 7.9134C34.2705 9.30868 34.6693 10.5046 35.4666 11.5013C36.2639 12.4979 37.2605 12.9962 38.4565 12.9962C39.4531 12.9962 40.2504 12.3983 40.8483 11.2023C41.0477 11.003 41.3466 10.9033 41.7453 10.9033C42.1439 10.9033 42.443 11.003 42.6423 11.2023C42.8416 11.4016 42.9413 11.6009 42.9413 11.8003C42.9413 11.9996 42.8416 12.1989 42.6423 12.3982Z" fill="url(#paint0_linear_678_2237)"/>
<path id="&#60;Compound Path&#62;_2" fill-rule="evenodd" clip-rule="evenodd" d="M44.4366 9.40834C44.4366 8.01305 44.8353 6.81711 45.6326 5.82047C46.6292 4.62452 47.8251 4.02652 49.2204 4.02652C50.4164 4.02652 51.5127 4.62452 52.5093 5.82047C53.3066 7.01643 53.7052 8.21238 53.7052 9.40834C53.7052 10.8036 53.3066 12.0993 52.5093 13.2952C51.5127 14.2918 50.3168 14.7902 48.9215 14.7902C47.5262 14.7902 46.4299 14.2918 45.6326 13.2952C44.8353 12.0993 44.4366 10.8036 44.4366 9.40834ZM48.9215 12.9962C49.7188 12.9962 50.4164 12.5976 51.0144 11.8003C51.413 11.2023 51.6124 10.405 51.6124 9.40834C51.6124 8.61103 51.413 7.9134 51.0144 7.31542C50.4164 6.51812 49.7188 6.11948 48.9215 6.11948C48.1242 6.11948 47.4265 6.51812 46.8285 7.31542C46.4299 7.9134 46.2305 8.61103 46.2305 9.40834C46.2305 10.405 46.5296 11.2023 47.1275 11.8003C47.5262 12.5976 48.1242 12.9962 48.9215 12.9962Z" fill="url(#paint1_linear_678_2237)"/>
<path id="&#60;Compound Path&#62;_3" d="M57.5919 4.9235C58.3892 4.32552 59.0868 4.02652 59.6847 4.02652C60.6814 4.02652 61.5784 4.52484 62.3757 5.52147C63.173 4.52484 64.07 4.02652 65.0666 4.02652C65.8639 4.02652 66.5615 4.4252 67.1595 5.2225C67.9568 5.82048 68.3555 6.51812 68.3555 7.31542V13.8932C68.3555 14.4912 68.0565 14.7902 67.4585 14.7902C66.6612 14.7902 66.2625 14.4912 66.2625 13.8932V7.31542C66.2625 6.91677 66.1629 6.61777 65.9635 6.41844C65.7642 6.21912 65.4653 6.11948 65.0666 6.11948C64.2693 6.11948 63.5716 6.6178 62.9736 7.61443V13.8932C62.9736 14.4912 62.6747 14.7902 62.0767 14.7902C61.2794 14.7902 60.8808 14.4912 60.8808 13.8932V7.31542C60.8808 6.91677 60.7811 6.61777 60.5818 6.41844C60.3824 6.21912 60.0834 6.11948 59.6847 6.11948C58.8874 6.11948 58.1898 6.6178 57.5919 7.61443V13.8932C57.5919 14.4912 57.2928 14.7902 56.6948 14.7902C55.8975 14.7902 55.4989 14.4912 55.4989 13.8932V5.2225C55.4989 4.4252 55.8975 4.02652 56.6948 4.02652C57.0935 4.02652 57.3925 4.32552 57.5919 4.9235Z" fill="url(#paint2_linear_678_2237)"/>
<path id="&#60;Compound Path&#62;_4" fill-rule="evenodd" clip-rule="evenodd" d="M72.5409 5.2225C73.5375 4.4252 74.5342 4.02652 75.5308 4.02652C76.7268 4.02652 77.8231 4.62452 78.8197 5.82047C79.617 7.01643 80.0156 8.21238 80.0156 9.40834C80.0156 10.8036 79.617 12.0993 78.8197 13.2952C77.8231 14.4912 76.6271 15.0892 75.2318 15.0892C74.2352 15.0892 73.3382 14.6905 72.5409 13.8932V17.481C72.5409 18.079 72.2419 18.378 71.6439 18.378C71.0459 18.378 70.7469 18.079 70.7469 17.481V5.2225C70.7469 4.4252 71.0459 4.02652 71.6439 4.02652C72.2419 4.02652 72.5409 4.4252 72.5409 5.2225ZM72.5409 9.40834C72.5409 10.2056 72.8399 11.003 73.4378 11.8003C74.0358 12.5976 74.7335 12.9962 75.5308 12.9962C76.3281 12.9962 76.9261 12.5976 77.3248 11.8003C77.9227 11.003 78.2217 10.2056 78.2217 9.40834C78.2217 8.61103 77.9227 7.9134 77.3248 7.31542C76.7268 6.51812 76.0291 6.11948 75.2318 6.11948C74.4345 6.11948 73.8365 6.51812 73.4378 7.31542C72.8399 7.9134 72.5409 8.61103 72.5409 9.40834Z" fill="url(#paint3_linear_678_2237)"/>
<path id="&#60;Compound Path&#62;_5" d="M88.0885 11.2023V5.2225C88.0885 4.4252 88.3875 4.02652 88.9855 4.02652C89.5835 4.02652 89.8824 4.4252 89.8824 5.2225V13.8932C89.8824 14.4912 89.5835 14.7902 88.9855 14.7902C88.3875 14.7902 88.0885 14.4912 88.0885 13.8932C87.2912 14.4912 86.4939 14.7902 85.6966 14.7902C84.7 14.7902 83.803 14.4912 83.0057 13.8932C82.4077 13.2952 82.1087 12.4979 82.1087 11.5013V5.2225C82.1087 4.4252 82.5074 4.02652 83.3047 4.02652C83.9027 4.02652 84.2016 4.4252 84.2016 5.2225V11.5013C84.2016 11.8999 84.3013 12.1989 84.5006 12.3982C84.8993 12.7969 85.2979 12.9962 85.6966 12.9962C86.4939 12.9962 87.2912 12.3983 88.0885 11.2023Z" fill="url(#paint4_linear_678_2237)"/>
<path id="&#60;Compound Path&#62;_6" d="M94.3677 4.9235C95.165 4.32552 95.8627 4.02652 96.4606 4.02652C97.4573 4.02652 98.3542 4.52484 99.1515 5.52147C99.9488 4.52484 100.846 4.02652 101.842 4.02652C102.64 4.02652 103.337 4.4252 103.935 5.2225C104.733 5.82048 105.131 6.51812 105.131 7.31542V13.8932C105.131 14.4912 104.832 14.7902 104.234 14.7902C103.437 14.7902 103.038 14.4912 103.038 13.8932V7.31542C103.038 6.91677 102.939 6.61777 102.739 6.41844C102.54 6.21912 102.241 6.11948 101.842 6.11948C101.045 6.11948 100.348 6.6178 99.7495 7.61443V13.8932C99.7495 14.4912 99.4505 14.7902 98.8525 14.7902C98.0552 14.7902 97.6566 14.4912 97.6566 13.8932V7.31542C97.6566 6.91677 97.5569 6.61777 97.3576 6.41844C97.1582 6.21912 96.8593 6.11948 96.4606 6.11948C95.6633 6.11948 94.9657 6.6178 94.3677 7.61443V13.8932C94.3677 14.4912 94.0687 14.7902 93.4708 14.7902C92.6734 14.7902 92.2748 14.4912 92.2748 13.8932V5.2225C92.2748 4.4252 92.6734 4.02652 93.4708 4.02652C93.8694 4.02652 94.1684 4.32552 94.3677 4.9235Z" fill="url(#paint5_linear_678_2237)"/>
<path id="&#60;Compound Path&#62;_7" fill-rule="evenodd" clip-rule="evenodd" d="M111.709 14.7906C110.513 14.7906 109.417 14.2922 108.42 13.2956C107.423 12.0997 106.925 10.804 106.925 9.40874C106.925 8.01345 107.324 6.81751 108.121 5.82087C109.117 4.82424 110.313 4.32593 111.709 4.32593C113.104 4.32593 114.2 4.82424 114.998 5.82087C115.795 6.81751 116.194 7.91382 116.194 9.10978C116.194 9.50843 116.094 9.80738 115.895 10.0067C115.695 10.206 115.496 10.3057 115.297 10.3057H109.018C109.018 10.9037 109.317 11.5017 109.915 12.0997C110.513 12.6976 111.111 12.9966 111.709 12.9966C112.307 12.9966 112.905 12.6976 113.503 12.0997C113.901 11.701 114.2 11.5017 114.4 11.5017C114.599 11.5017 114.798 11.5017 114.998 11.5017C115.197 11.701 115.297 12 115.297 12.3986C115.297 12.9966 114.898 13.5946 114.101 14.1926C113.303 14.5912 112.506 14.7906 111.709 14.7906ZM109.018 8.2128H114.101C113.901 7.61482 113.602 7.1165 113.204 6.71785C112.805 6.3192 112.307 6.11988 111.709 6.11988C111.111 6.11988 110.513 6.3192 109.915 6.71785C109.516 7.1165 109.217 7.61482 109.018 8.2128Z" fill="url(#paint6_linear_678_2237)"/>
</g>
<g id="Group 48400">
<path id="&#60;Compound Path&#62;_8" d="M6.19231 45.8846C5.39501 46.2832 4.59765 46.4825 3.80034 46.4825C2.80371 46.4825 2.00644 46.0839 1.40846 45.2866C0.611159 44.6886 0.212524 43.8913 0.212524 42.8947V40.2038C0.212524 39.6058 0.511477 39.3068 1.10946 39.3068C1.90676 39.3068 2.3054 39.8051 2.3054 40.8018C2.3054 41.0011 2.3054 41.3001 2.3054 41.6987C2.10607 41.8981 2.00648 42.0974 2.00648 42.2967C2.00648 43.8913 2.60438 44.6886 3.80034 44.6886C4.79697 44.6886 5.59433 44.1903 6.19231 43.1937V40.2038C6.19231 39.4065 6.49127 39.0078 7.08924 39.0078C7.68722 39.0078 7.98627 39.4065 7.98627 40.2038V48.8745C7.98627 49.6718 7.68722 50.0705 7.08924 50.0705C6.49127 50.0705 6.19231 49.6718 6.19231 48.8745V45.8846Z" fill="url(#paint7_linear_678_2237)"/>
<path id="&#60;Compound Path&#62;_9" d="M11.8732 39.9052C12.6705 39.5065 13.3682 39.3072 13.9662 39.3072C15.1622 39.3072 16.0591 39.7059 16.6571 40.5032C17.4544 39.7059 18.3513 39.3072 19.348 39.3072C20.3446 39.3072 21.1419 39.6062 21.7399 40.2042C22.3378 40.8022 22.6369 41.5995 22.6369 42.5961V48.8749C22.6369 49.6722 22.3378 50.0709 21.7399 50.0709C21.1419 50.0709 20.8429 49.6722 20.8429 48.8749V42.5961C20.8429 42.1975 20.6436 41.7988 20.2449 41.4001C20.0456 41.2008 19.7466 41.1012 19.348 41.1012C18.75 41.1012 18.0523 41.6991 17.255 42.8951V48.8749C17.255 49.6722 16.9561 50.0709 16.3581 50.0709C15.7601 50.0709 15.4611 49.6722 15.4611 48.8749V42.5961C15.4611 42.1975 15.2618 41.7988 14.8631 41.4001C14.6638 41.2008 14.3649 41.1012 13.9662 41.1012C13.3682 41.1012 12.6705 41.6991 11.8732 42.8951V48.8749C11.8732 49.6722 11.5743 50.0709 10.9763 50.0709C10.3783 50.0709 10.0793 49.6722 10.0793 48.8749V40.2042C10.0793 39.6062 10.3783 39.3072 10.9763 39.3072C11.5743 39.3072 11.8732 39.5065 11.8732 39.9052Z" fill="url(#paint8_linear_678_2237)"/>
<path id="&#60;Compound Path&#62;_10" fill-rule="evenodd" clip-rule="evenodd" d="M24.7296 44.6886C24.7296 43.2934 25.1283 41.9977 25.9256 40.8018C26.9223 39.6058 28.1182 39.0078 29.5135 39.0078C30.7094 39.0078 31.8057 39.6058 32.8024 40.8018C33.5997 41.9977 33.9983 43.2934 33.9983 44.6886C33.9983 46.0839 33.5997 47.2799 32.8024 48.2765C31.8057 49.4725 30.6097 50.0705 29.2145 50.0705C27.8192 50.0705 26.7229 49.4725 25.9256 48.2765C25.1283 47.2799 24.7296 46.0839 24.7296 44.6886ZM29.2145 47.9775C30.0118 47.9775 30.7094 47.5789 31.3074 46.7816C31.7061 46.1836 31.9054 45.4859 31.9054 44.6886C31.9054 43.692 31.7061 42.8947 31.3074 42.2967C30.7094 41.4994 30.0118 41.1008 29.2145 41.1008C28.4172 41.1008 27.7196 41.4994 27.1216 42.2967C26.7229 42.8947 26.5236 43.692 26.5236 44.6886C26.5236 45.4859 26.8226 46.1836 27.4206 46.7816C27.8192 47.5789 28.4172 47.9775 29.2145 47.9775Z" fill="url(#paint9_linear_678_2237)"/>
<path id="&#60;Compound Path&#62;_11" fill-rule="evenodd" clip-rule="evenodd" d="M38.1841 40.204C38.9814 39.4067 39.8785 39.008 40.8751 39.008C42.0711 39.008 43.1673 39.606 44.1639 40.802C44.9612 41.9979 45.3599 43.2936 45.3599 44.6888C45.3599 45.8848 44.9612 47.0808 44.1639 48.2767C43.3666 49.4727 42.2704 50.0707 40.8751 50.0707C39.6791 50.0707 38.5828 49.4727 37.5862 48.2767C36.5896 47.0808 36.0912 45.8848 36.0912 44.6888V40.503C36.0912 39.307 36.5896 38.2107 37.5862 37.2141C38.3835 36.4168 39.4798 36.0181 40.8751 36.0181H43.566C44.164 36.0181 44.4629 36.3171 44.4629 36.9151C44.4629 37.5131 44.164 37.8121 43.566 37.8121H40.8751C40.0778 37.8121 39.4798 38.0114 39.0811 38.4101C38.4832 39.008 38.1841 39.606 38.1841 40.204ZM38.1841 44.6888C38.1841 45.4862 38.3835 46.1838 38.7821 46.7818C39.3801 47.5791 40.0778 47.9777 40.8751 47.9777C41.6724 47.9777 42.37 47.5791 42.968 46.7818C43.3666 46.1838 43.566 45.4862 43.566 44.6888C43.566 43.6922 43.2669 42.8949 42.669 42.2969C42.2703 41.4996 41.6724 41.101 40.8751 41.101C40.0778 41.101 39.3801 41.4996 38.7821 42.2969C38.3835 43.0942 38.1841 43.8915 38.1841 44.6888Z" fill="url(#paint10_linear_678_2237)"/>
<path id="&#60;Compound Path&#62;_12" fill-rule="evenodd" clip-rule="evenodd" d="M49.8446 42.8951H51.9375C52.9341 42.8951 53.8311 43.1941 54.6284 43.7921C55.2263 44.5894 55.5254 45.4863 55.5254 46.4829C55.5254 47.4796 55.2263 48.2769 54.6284 48.8749C53.8311 49.6722 52.9341 50.0709 51.9375 50.0709H48.6486C48.4493 50.0709 48.25 49.9712 48.0507 49.7718C47.8513 49.5725 47.7516 49.2735 47.7516 48.8749V40.5032C47.7516 39.9052 48.0506 39.6062 48.6486 39.6062C49.4459 39.6062 49.8446 39.9052 49.8446 40.5032V42.8951ZM49.8446 44.689V47.9779H51.9375C52.3361 47.9779 52.7348 47.8783 53.1334 47.6789C53.5321 47.2803 53.7314 46.8816 53.7314 46.4829C53.7314 46.0843 53.5321 45.6857 53.1334 45.287C52.7348 44.8884 52.3361 44.689 51.9375 44.689H49.8446ZM59.1132 40.2042V49.1739C59.1132 49.7719 58.8143 50.0709 58.2163 50.0709C57.6183 50.0709 57.3193 49.7719 57.3193 49.1739V40.2042C57.3193 39.6062 57.6183 39.3072 58.2163 39.3072C58.8143 39.3072 59.1132 39.6062 59.1132 40.2042Z" fill="url(#paint11_linear_678_2237)"/>
<path id="&#60;Compound Path&#62;_13" d="M64.1959 40.2038C64.1959 39.4065 64.5946 39.0078 65.3919 39.0078C65.5912 39.0078 65.7906 39.2072 65.9899 39.6058C66.1892 39.8052 66.2889 40.0045 66.2889 40.2038C67.0862 39.6058 67.8835 39.3068 68.6808 39.3068C69.6774 39.3068 70.4747 39.6058 71.0726 40.2038C71.6706 40.8018 71.9697 41.5991 71.9697 42.5957V48.8745C71.9697 49.6718 71.6706 50.0705 71.0726 50.0705C70.4747 50.0705 70.1757 49.6718 70.1757 48.8745V42.5957C70.1757 42.1971 70.076 41.8981 69.8767 41.6987C69.4781 41.3001 69.0794 41.1008 68.6808 41.1008C67.8835 41.1008 67.0862 41.6987 66.2889 42.8947V48.8745C66.2889 49.6718 65.9898 50.0705 65.3919 50.0705C64.5946 50.0705 64.1959 49.6718 64.1959 48.8745V40.2038Z" fill="url(#paint12_linear_678_2237)"/>
<path id="&#60;Compound Path&#62;_14" fill-rule="evenodd" clip-rule="evenodd" d="M74.0628 44.6886C74.0628 43.2934 74.5611 41.9977 75.5578 40.8018C76.3551 39.6058 77.4514 39.0078 78.8467 39.0078C80.2419 39.0078 81.3383 39.6058 82.1356 40.8018C82.9329 41.9977 83.3315 43.2934 83.3315 44.6886C83.3315 46.0839 82.9329 47.2799 82.1356 48.2765C81.1389 49.4725 80.0426 50.0705 78.8467 50.0705C77.4514 50.0705 76.2555 49.4725 75.2588 48.2765C74.4615 47.2799 74.0628 46.0839 74.0628 44.6886ZM78.8467 47.9775C79.644 47.9775 80.242 47.5789 80.6406 46.7816C81.2386 46.1836 81.5375 45.4859 81.5375 44.6886C81.5375 43.692 81.2386 42.8947 80.6406 42.2967C80.242 41.4994 79.644 41.1008 78.8467 41.1008C78.0493 41.1008 77.3518 41.4994 76.7538 42.2967C76.3551 42.8947 76.1558 43.692 76.1558 44.6886C76.1558 45.4859 76.3551 46.1836 76.7538 46.7816C77.3518 47.5789 78.0493 47.9775 78.8467 47.9775Z" fill="url(#paint13_linear_678_2237)"/>
<path id="&#60;Compound Path&#62;_15" d="M89.3116 42.2971L86.6207 49.1739C86.4214 49.7719 86.1224 50.0709 85.7238 50.0709C85.5244 50.0709 85.3251 49.9712 85.1258 49.7718C84.9264 49.5725 84.8268 49.2735 84.8268 48.8749C84.8268 48.8749 84.8268 48.7752 84.8268 48.5759L88.1157 39.9052C88.1157 39.7059 88.2153 39.5065 88.4147 39.3072C88.614 39.3072 88.8133 39.3072 89.0126 39.3072H89.6106C89.6106 39.3072 89.7103 39.3072 89.9096 39.3072C90.1089 39.5065 90.3082 39.7059 90.5075 39.9052L93.7964 48.5759C93.7964 48.7752 93.7964 48.8749 93.7964 48.8749C93.7964 49.2735 93.6968 49.5725 93.4974 49.7718C93.2981 49.9712 93.0988 50.0709 92.8995 50.0709C92.5008 50.0709 92.2018 49.7719 92.0025 49.1739L89.3116 42.2971Z" fill="url(#paint14_linear_678_2237)"/>
<path id="&#60;Compound Path&#62;_16" d="M99.4769 46.4829L102.168 39.9052C102.367 39.5065 102.666 39.3072 103.065 39.3072C103.264 39.3072 103.463 39.4069 103.663 39.6062C103.862 39.6062 103.962 39.8055 103.962 40.2042C103.962 40.2042 103.962 40.3038 103.962 40.5032L98.879 52.7617C98.6796 53.1604 98.3806 53.3597 97.9819 53.3597C97.7826 53.3597 97.5833 53.2601 97.384 53.0608C97.1847 52.8614 97.085 52.6621 97.085 52.4627C97.085 52.2634 97.085 52.1638 97.085 52.1638L98.2809 48.8749L94.992 40.5032C94.992 40.3038 94.992 40.2042 94.992 40.2042C94.992 39.8055 95.0917 39.6062 95.291 39.6062C95.4904 39.4069 95.6897 39.3072 95.8891 39.3072C96.2877 39.3072 96.5867 39.5065 96.786 39.9052L99.4769 46.4829Z" fill="url(#paint15_linear_678_2237)"/>
<path id="&#60;Compound Path&#62;_17" d="M111.138 45.8846C110.54 46.2832 109.842 46.4825 109.045 46.4825C108.048 46.4825 107.151 46.0839 106.354 45.2866C105.756 44.6886 105.457 43.8913 105.457 42.8947V40.2038C105.457 39.6058 105.756 39.3068 106.354 39.3068C106.952 39.3068 107.251 39.8051 107.251 40.8018C107.251 41.0011 107.251 41.3001 107.251 41.6987C107.251 41.8981 107.251 42.0974 107.251 42.2967C107.251 43.8913 107.849 44.6886 109.045 44.6886C110.041 44.6886 110.739 44.1903 111.138 43.1937V40.2038C111.138 39.4065 111.436 39.0078 112.034 39.0078C112.832 39.0078 113.23 39.4065 113.23 40.2038V48.8745C113.23 49.6718 112.832 50.0705 112.034 50.0705C111.436 50.0705 111.138 49.6718 111.138 48.8745V45.8846Z" fill="url(#paint16_linear_678_2237)"/>
<path id="&#60;Compound Path&#62;_18" d="M121.004 46.184V40.2042C121.004 39.6062 121.403 39.3072 122.2 39.3072C122.798 39.3072 123.097 39.6062 123.097 40.2042V48.8749C123.097 49.6722 122.798 50.0709 122.2 50.0709C121.403 50.0709 121.004 49.6722 121.004 48.8749C120.406 49.4729 119.609 49.7718 118.612 49.7718C117.616 49.7718 116.818 49.4729 116.22 48.8749C115.622 48.2769 115.323 47.4796 115.323 46.4829V40.2042C115.323 39.6062 115.622 39.3072 116.22 39.3072C116.818 39.3072 117.117 39.6062 117.117 40.2042V46.4829C117.117 46.8816 117.317 47.2803 117.715 47.6789C117.915 47.8783 118.214 47.9779 118.612 47.9779C119.41 47.9779 120.207 47.3799 121.004 46.184Z" fill="url(#paint17_linear_678_2237)"/>
<path id="&#60;Compound Path&#62;_19" d="M127.283 39.9052C128.08 39.5065 128.778 39.3072 129.376 39.3072C130.372 39.3072 131.269 39.7059 132.067 40.5032C132.864 39.7059 133.761 39.3072 134.757 39.3072C135.555 39.3072 136.352 39.6062 137.149 40.2042C137.747 40.8022 138.046 41.5995 138.046 42.5961V48.8749C138.046 49.6722 137.747 50.0709 137.149 50.0709C136.551 50.0709 136.252 49.6722 136.252 48.8749V42.5961C136.252 42.1975 136.053 41.7988 135.654 41.4001C135.455 41.2008 135.156 41.1012 134.757 41.1012C133.96 41.1012 133.262 41.6991 132.664 42.8951V48.8749C132.664 49.6722 132.366 50.0709 131.768 50.0709C131.17 50.0709 130.871 49.6722 130.871 48.8749V42.5961C130.871 42.1975 130.671 41.7988 130.273 41.4001C130.073 41.2008 129.774 41.1012 129.376 41.1012C128.578 41.1012 127.881 41.6991 127.283 42.8951V48.8749C127.283 49.6722 126.984 50.0709 126.386 50.0709C125.788 50.0709 125.489 49.6722 125.489 48.8749V40.2042C125.489 39.6062 125.788 39.3072 126.386 39.3072C126.784 39.3072 127.083 39.5065 127.283 39.9052Z" fill="url(#paint18_linear_678_2237)"/>
<path id="&#60;Compound Path&#62;_20" fill-rule="evenodd" clip-rule="evenodd" d="M142.233 42.5961H144.326C145.322 42.5961 146.12 42.9948 146.718 43.7921C147.515 44.39 147.914 45.1874 147.914 46.184C147.914 47.1806 147.515 47.9779 146.718 48.5759C146.12 49.3732 145.322 49.7718 144.326 49.7718H141.037C140.837 49.7718 140.638 49.6722 140.439 49.4728C140.239 49.2735 140.14 49.0742 140.14 48.8749V40.2042C140.14 39.6062 140.439 39.3072 141.037 39.3072C141.834 39.3072 142.233 39.6062 142.233 40.2042V42.5961ZM142.233 44.689V47.9779H144.326C144.724 47.9779 145.123 47.7786 145.522 47.3799C145.92 47.1806 146.12 46.782 146.12 46.184C146.12 45.7853 145.92 45.3867 145.522 44.988C145.123 44.7887 144.724 44.689 144.326 44.689H142.233Z" fill="url(#paint19_linear_678_2237)"/>
</g>
<g id="Group 48401">
<path id="&#60;Compound Path&#62;_21" d="M37.6889 57.8449C37.6889 57.2469 37.9879 56.9479 38.5858 56.9479C38.9845 56.9479 39.2834 57.0476 39.4828 57.2469C39.4828 57.4463 39.4828 57.6456 39.4828 57.8449C40.2801 57.2469 41.1771 56.9479 42.1737 56.9479C43.1704 56.9479 43.9676 57.2469 44.5656 57.8449C45.1636 58.4429 45.4626 59.2402 45.4626 60.2368V66.5156C45.4626 67.3129 45.1636 67.7116 44.5656 67.7116C43.9676 67.7116 43.6687 67.3129 43.6687 66.5156V60.2368C43.6687 59.8382 43.4693 59.5392 43.0707 59.3399C42.8714 58.9412 42.5724 58.7419 42.1737 58.7419C41.1771 58.7419 40.2801 59.3398 39.4828 60.5358V66.5156C39.4828 67.3129 39.1838 67.7116 38.5858 67.7116C37.9879 67.7116 37.6889 67.3129 37.6889 66.5156V57.8449Z" fill="url(#paint20_linear_678_2237)"/>
<path id="&#60;Compound Path&#62;_22" fill-rule="evenodd" clip-rule="evenodd" d="M47.5551 62.3298C47.5551 60.9345 47.9537 59.6388 48.7511 58.4429C49.7477 57.4463 50.9437 56.9479 52.339 56.9479C53.5349 56.9479 54.6312 57.5459 55.6279 58.7419C56.4252 59.7385 56.8238 60.9345 56.8238 62.3298C56.8238 63.725 56.4252 64.921 55.6279 65.9176C54.6312 67.1136 53.4352 67.7116 52.04 67.7116C50.844 67.7116 49.7477 67.1136 48.7511 65.9176C47.9537 64.921 47.5551 63.725 47.5551 62.3298ZM52.04 65.6186C52.8373 65.6186 53.5349 65.22 54.1329 64.4227C54.5316 63.8247 54.7308 63.1271 54.7308 62.3298C54.7308 61.3331 54.5316 60.5358 54.1329 59.9378C53.5349 59.1405 52.8373 58.7419 52.04 58.7419C51.2427 58.7419 50.6447 59.1405 50.246 59.9378C49.648 60.5358 49.3491 61.3331 49.3491 62.3298C49.3491 63.1271 49.648 63.8247 50.246 64.4227C50.6447 65.22 51.2427 65.6186 52.04 65.6186Z" fill="url(#paint21_linear_678_2237)"/>
<path id="&#60;Compound Path&#62;_23" fill-rule="evenodd" clip-rule="evenodd" d="M64.5978 69.2065C64.9965 69.2065 65.3951 69.0072 65.7938 68.6085C65.9931 68.4092 66.0928 68.1102 66.0928 67.7116V66.5156C65.2955 67.3129 64.2988 67.7116 63.1029 67.7116C61.9069 67.7116 60.9103 67.1136 60.113 65.9176C59.1164 64.7217 58.618 63.5257 58.618 62.3298C58.618 60.9345 59.1164 59.6388 60.113 58.4429C61.1096 57.4463 62.2058 56.9479 63.4018 56.9479C64.3984 56.9479 65.2955 57.2469 66.0928 57.8449C66.0928 57.2469 66.3917 56.9479 66.9897 56.9479C67.5877 56.9479 67.8866 57.2469 67.8866 57.8449V67.7116C67.8866 68.5089 67.5877 69.3061 66.9897 70.1035C66.3917 70.7014 65.5945 71.0004 64.5978 71.0004H63.4018C62.0065 71.0004 60.9103 70.7014 60.113 70.1035C59.7143 69.9041 59.515 69.6052 59.515 69.2065C59.515 69.0072 59.6147 68.8078 59.814 68.6085C60.0133 68.4092 60.2126 68.3095 60.4119 68.3095C60.6112 68.3095 60.8106 68.3095 61.0099 68.3095C61.6079 68.7082 62.2059 69.0072 62.8039 69.2065C63.0032 69.2065 63.6012 69.2065 64.5978 69.2065ZM66.0928 62.3298C66.0928 61.5325 65.7937 60.7351 65.1958 59.9378C64.5978 59.1405 63.9998 58.7419 63.4018 58.7419C62.6045 58.7419 61.9069 59.1405 61.3089 59.9378C60.9103 60.7351 60.7109 61.5325 60.7109 62.3298C60.7109 63.1271 60.9103 63.8247 61.3089 64.4227C61.9069 65.22 62.6045 65.6186 63.4018 65.6186C64.1991 65.6186 64.8968 65.22 65.4948 64.4227C65.8934 63.8247 66.0928 63.1271 66.0928 62.3298Z" fill="url(#paint22_linear_678_2237)"/>
<path id="&#60;Compound Path&#62;_24" fill-rule="evenodd" clip-rule="evenodd" d="M77.7528 66.5156C77.7528 67.3129 77.4538 67.7116 76.8558 67.7116C76.2578 67.7116 75.9589 67.4126 75.9589 66.8146C74.7629 67.4126 73.866 67.7116 73.268 67.7116C72.4707 67.7116 71.6733 67.3129 70.876 66.5156C70.278 65.9176 69.9791 65.1203 69.9791 64.1237C69.9791 63.3264 70.278 62.6287 70.876 62.0307C71.2747 61.4328 71.8727 61.0341 72.67 60.8348L75.9589 60.2368V59.9378C75.9589 59.1405 75.4606 58.7419 74.4639 58.7419C73.866 58.7419 73.268 58.9412 72.67 59.3399C72.072 59.9378 71.6734 60.2368 71.474 60.2368C71.2747 60.2368 71.0754 60.1372 70.876 59.9378C70.6767 59.7385 70.5771 59.5392 70.5771 59.3399C70.5771 59.1405 70.5771 58.9412 70.5771 58.7419C71.5737 57.5459 72.969 56.9479 74.7629 56.9479C75.5602 56.9479 76.2578 57.2469 76.8558 57.8449C77.4538 58.4429 77.7528 59.1405 77.7528 59.9378V66.5156ZM75.9589 62.0307C73.1683 62.2301 71.7731 62.9277 71.7731 64.1237C71.7731 64.5223 71.9723 64.8213 72.371 65.0206C72.5703 65.4193 72.8693 65.6186 73.268 65.6186C73.866 65.6186 74.7629 65.3197 75.9589 64.7217V62.0307Z" fill="url(#paint23_linear_678_2237)"/>
<path id="&#60;Compound Path&#62;_25" fill-rule="evenodd" clip-rule="evenodd" d="M81.9392 57.8449C82.7365 57.2469 83.6334 56.9479 84.63 56.9479C85.826 56.9479 86.9223 57.4463 87.9189 58.4429C88.7162 59.6388 89.1149 60.9345 89.1149 62.3298C89.1149 63.5257 88.7162 64.7217 87.9189 65.9176C86.9223 67.1136 85.7263 67.7116 84.331 67.7116C83.3344 67.7116 82.5371 67.3129 81.9392 66.5156V70.1035C81.9392 70.7014 81.5405 71.0004 80.7432 71.0004C80.1452 71.0004 79.8462 70.7014 79.8462 70.1035V57.8449C79.8462 57.2469 80.1452 56.9479 80.7432 56.9479C81.5405 56.9479 81.9392 57.2469 81.9392 57.8449ZM81.9392 62.3298C81.9392 63.1271 82.1385 63.8247 82.5372 64.4227C83.1351 65.4193 83.8327 65.9176 84.63 65.9176C85.4273 65.9176 86.0253 65.4193 86.424 64.4227C87.022 63.8247 87.3209 63.1271 87.3209 62.3298C87.3209 61.5325 87.022 60.7351 86.424 59.9378C85.826 59.1405 85.1283 58.7419 84.331 58.7419C83.7331 58.7419 83.1351 59.1405 82.5372 59.9378C82.1385 60.7351 81.9392 61.5325 81.9392 62.3298Z" fill="url(#paint24_linear_678_2237)"/>
<path id="&#60;Compound Path&#62;_26" fill-rule="evenodd" clip-rule="evenodd" d="M90.9084 62.3298C90.9084 60.9345 91.4067 59.6388 92.4033 58.4429C93.2006 57.4463 94.297 56.9479 95.6922 56.9479C97.0875 56.9479 98.1838 57.5459 98.9811 58.7419C99.7784 59.7385 100.177 60.9345 100.177 62.3298C100.177 63.725 99.7784 64.921 98.9811 65.9176C98.1838 67.1136 97.0875 67.7116 95.6922 67.7116C94.297 67.7116 93.101 67.1136 92.1043 65.9176C91.307 64.921 90.9084 63.725 90.9084 62.3298ZM95.6922 65.6186C96.4895 65.6186 97.0875 65.22 97.4862 64.4227C98.0842 63.8247 98.3831 63.1271 98.3831 62.3298C98.3831 61.3331 98.0842 60.5358 97.4862 59.9378C97.0875 59.1405 96.4895 58.7419 95.6922 58.7419C94.8949 58.7419 94.1973 59.1405 93.5993 59.9378C93.2006 60.5358 93.0013 61.3331 93.0013 62.3298C93.0013 63.1271 93.2006 63.8247 93.5993 64.4227C94.1973 65.22 94.8949 65.6186 95.6922 65.6186Z" fill="url(#paint25_linear_678_2237)"/>
<path id="&#60;Compound Path&#62;_27" d="M103.766 54.2568V66.5154C103.766 67.3127 103.467 67.7114 102.869 67.7114C102.271 67.7114 101.972 67.3127 101.972 66.5154V54.2568C101.972 53.6589 102.271 53.3599 102.869 53.3599C103.467 53.3599 103.766 53.6589 103.766 54.2568ZM104.065 62.0305C104.065 61.4326 105.36 59.838 107.951 57.2467C108.151 57.0474 108.35 56.9477 108.549 56.9477C108.948 56.9477 109.247 57.0474 109.446 57.2467C109.646 57.4461 109.745 57.6454 109.745 57.8447C109.745 58.044 109.646 58.2433 109.446 58.4427L106.158 62.0305L109.446 66.2164C109.646 66.2164 109.745 66.4157 109.745 66.8144C109.745 67.0137 109.646 67.213 109.446 67.4124C109.247 67.6117 108.948 67.7114 108.549 67.7114C108.35 67.7114 108.151 67.512 107.951 67.1133C105.36 64.3228 104.065 62.6285 104.065 62.0305Z" fill="url(#paint26_linear_678_2237)"/>
</g>
<g id="Group 48399">
<path id="&#60;Compound Path&#62;_28" d="M98.5752 24.6568C97.9772 24.0588 97.3792 23.7598 96.7813 23.7598C95.984 23.7598 95.386 24.0588 94.9873 24.6568C94.3893 25.4541 94.0904 26.2514 94.0904 27.0487C94.0904 28.0453 94.3893 28.8426 94.9873 29.4406C95.5853 30.2379 96.1833 30.6366 96.7813 30.6366C97.5786 30.6366 98.2762 30.2379 98.8741 29.4406C99.0735 29.042 99.3725 28.8426 99.7712 28.8426C99.9705 28.8426 100.17 28.9423 100.369 29.1416C100.369 29.3409 100.369 29.6399 100.369 30.0386C100.369 30.4372 100.269 30.7362 100.07 30.9356C99.0735 31.9322 97.9772 32.4305 96.7813 32.4305C95.5853 32.4305 94.489 31.9322 93.4924 30.9356C92.6951 29.9389 92.2964 28.6433 92.2964 27.0487C92.2964 25.6534 92.6951 24.4575 93.4924 23.4608C94.489 22.2649 95.5853 21.6669 96.7813 21.6669C97.9772 21.6669 99.0735 22.1652 100.07 23.1618C100.269 23.3611 100.369 23.5605 100.369 23.7598C100.369 24.1585 100.269 24.4574 100.07 24.6568C99.8708 24.8561 99.6715 24.9558 99.4721 24.9558C99.0735 24.9558 98.7745 24.8561 98.5752 24.6568Z" fill="url(#paint27_linear_678_2237)"/>
<path id="&#60;Compound Path&#62;_29" d="M106.05 24.9562L103.359 31.8329C103.16 32.2316 102.861 32.4309 102.462 32.4309C102.263 32.4309 102.064 32.4309 101.864 32.4309C101.665 32.2316 101.565 31.9326 101.565 31.5339C101.565 31.5339 101.565 31.4343 101.565 31.235L104.854 22.5642C105.054 22.3649 105.253 22.1656 105.452 21.9663C105.652 21.9663 105.751 21.9663 105.751 21.9663H106.349C106.549 21.9663 106.748 21.9663 106.947 21.9663C107.147 22.1656 107.246 22.3649 107.246 22.5642L110.535 31.235C110.535 31.4343 110.535 31.5339 110.535 31.5339C110.535 31.9326 110.435 32.2316 110.236 32.4309C110.037 32.4309 109.837 32.4309 109.638 32.4309C109.239 32.4309 108.941 32.2316 108.741 31.8329L106.05 24.9562Z" fill="url(#paint28_linear_678_2237)"/>
<path id="&#60;Compound Path&#62;_30" fill-rule="evenodd" clip-rule="evenodd" d="M112.03 27.0487C112.03 25.8527 112.429 24.6568 113.226 23.4608C114.223 22.2649 115.419 21.6669 116.814 21.6669C118.01 21.6669 119.106 22.2649 120.103 23.4608C120.9 24.6568 121.299 25.8527 121.299 27.0487C121.299 28.444 120.9 29.7396 120.103 30.9356C119.106 31.9322 117.91 32.4305 116.515 32.4305C115.319 32.4305 114.223 31.9322 113.226 30.9356C112.429 29.7396 112.03 28.444 112.03 27.0487ZM116.515 30.6366C117.312 30.6366 118.01 30.2379 118.608 29.4406C119.007 28.8426 119.206 28.0453 119.206 27.0487C119.206 26.2514 119.007 25.5538 118.608 24.9558C118.01 24.1585 117.312 23.7598 116.515 23.7598C115.718 23.7598 115.12 24.1585 114.721 24.9558C114.123 25.5538 113.824 26.2514 113.824 27.0487C113.824 28.0453 114.123 28.8426 114.721 29.4406C115.12 30.2379 115.718 30.6366 116.515 30.6366Z" fill="url(#paint29_linear_678_2237)"/>
<path id="&#60;Compound Path&#62;_31" d="M129.072 28.8429V22.8631C129.072 22.2651 129.371 21.9661 129.969 21.9661C130.766 21.9661 131.165 22.2651 131.165 22.8631V31.5338C131.165 32.3311 130.766 32.7297 129.969 32.7297C129.371 32.7297 129.072 32.3311 129.072 31.5338C128.474 32.1317 127.677 32.4307 126.68 32.4307C125.683 32.4307 124.886 32.1317 124.288 31.5338C123.69 30.9358 123.391 30.1385 123.391 29.1418V22.8631C123.391 22.2651 123.69 21.9661 124.288 21.9661C124.886 21.9661 125.185 22.2651 125.185 22.8631V29.1418C125.185 29.5405 125.285 29.9392 125.484 30.3378C125.883 30.5371 126.281 30.6368 126.68 30.6368C127.477 30.6368 128.275 30.0388 129.072 28.8429ZM125.185 18.3782H129.072C129.869 18.3782 130.268 18.7769 130.268 19.5742C130.268 20.1722 129.869 20.4712 129.072 20.4712H125.185C124.388 20.4712 123.989 20.1722 123.989 19.5742C123.989 18.7769 124.388 18.3782 125.185 18.3782Z" fill="url(#paint30_linear_678_2237)"/>
<path id="&#60;Compound Path&#62;_32" fill-rule="evenodd" clip-rule="evenodd" d="M22.3333 32.4309H18.7454C18.5461 32.4309 18.3467 32.3312 18.1474 32.1319C17.948 31.9326 17.8484 31.7333 17.8484 31.5339V22.8633C17.8484 22.6639 17.948 22.4646 18.1474 22.2653C18.3467 22.066 18.5461 21.9663 18.7454 21.9663H22.3333C23.1306 21.9663 23.8282 22.2653 24.4262 22.8633C25.0241 23.4612 25.3232 24.1589 25.3232 24.9562C25.3232 25.7535 25.0241 26.4511 24.4262 27.0491C25.2235 27.6471 25.6221 28.3447 25.6221 29.142C25.6221 30.1386 25.2235 30.936 24.4262 31.5339C23.8282 32.1319 23.1306 32.4309 22.3333 32.4309ZM19.6423 26.1521H22.3333C22.5326 26.1521 22.7319 26.0525 22.9312 25.8531C23.3299 25.6538 23.5292 25.3548 23.5292 24.9562C23.5292 24.7568 23.3299 24.5575 22.9312 24.3582C22.7319 23.9595 22.5326 23.7602 22.3333 23.7602H19.6423V26.1521ZM22.3333 28.2451H19.6423V30.637H22.3333C22.7319 30.637 23.0309 30.5373 23.2302 30.338C23.4295 30.1387 23.5292 29.8397 23.5292 29.441C23.5292 29.0424 23.4295 28.7434 23.2302 28.544C23.0309 28.3447 22.7319 28.2451 22.3333 28.2451Z" fill="url(#paint31_linear_678_2237)"/>
<path id="&#60;Compound Path&#62;_33" fill-rule="evenodd" clip-rule="evenodd" d="M31.9013 32.4309C30.506 32.4309 29.3101 31.9326 28.3135 30.936C27.5162 29.9393 27.1174 28.7434 27.1174 27.3481C27.1174 25.7535 27.5162 24.4579 28.3135 23.4612C29.1108 22.4646 30.207 21.9663 31.6023 21.9663C32.9976 21.9663 34.0939 22.4646 34.8912 23.4612C35.6885 24.4579 36.0871 25.5542 36.0871 26.7501C36.0871 27.1488 36.0871 27.4477 36.0871 27.6471C35.8878 27.8464 35.5888 27.9461 35.1902 27.9461H28.9114C29.1107 28.544 29.4098 29.142 29.8084 29.74C30.4064 30.338 31.0043 30.637 31.6023 30.637C32.2003 30.637 32.7982 30.338 33.3962 29.74C33.7949 29.3414 34.0939 29.142 34.2933 29.142C34.6919 29.142 34.9909 29.2417 35.1902 29.441C35.3895 29.6403 35.4892 29.8397 35.4892 30.039C35.4892 30.637 34.9909 31.235 33.9942 31.8329C33.1969 32.2316 32.4993 32.4309 31.9013 32.4309ZM29.2104 25.8531H34.2933C34.0939 25.2552 33.6952 24.7569 33.0972 24.3582C32.6986 23.9595 32.2003 23.7602 31.6023 23.7602C31.0043 23.7602 30.506 23.9595 30.1073 24.3582C29.5093 24.7569 29.2104 25.2552 29.2104 25.8531Z" fill="url(#paint32_linear_678_2237)"/>
<path id="&#60;Compound Path&#62;_34" fill-rule="evenodd" clip-rule="evenodd" d="M40.2724 22.8629C41.0697 22.0655 41.9667 21.6669 42.9633 21.6669C44.3586 21.6669 45.4549 22.2649 46.2522 23.4608C47.2488 24.6568 47.7471 25.8527 47.7471 27.0487C47.7471 28.444 47.2488 29.7396 46.2522 30.9356C45.2556 32.1315 44.1593 32.7295 42.9633 32.7295C41.9667 32.7295 41.0697 32.3308 40.2724 31.5335V35.1214C40.2724 35.7194 39.9734 36.0184 39.3754 36.0184C38.7774 36.0184 38.4785 35.7194 38.4785 35.1214V22.8629C38.4785 22.2649 38.7774 21.9659 39.3754 21.9659C39.9734 21.9659 40.2724 22.2649 40.2724 22.8629ZM40.2724 27.0487C40.2724 28.0453 40.5714 28.8426 41.1693 29.4406C41.568 30.2379 42.166 30.6366 42.9633 30.6366C43.7606 30.6366 44.4582 30.2379 45.0562 29.4406C45.4548 28.8426 45.6542 28.145 45.6542 27.3477C45.6542 26.3511 45.4548 25.5538 45.0562 24.9558C44.4582 24.1585 43.7606 23.7598 42.9633 23.7598C42.166 23.7598 41.4683 24.1585 40.8703 24.9558C40.4717 25.5538 40.2724 26.2514 40.2724 27.0487Z" fill="url(#paint33_linear_678_2237)"/>
<path id="&#60;Compound Path&#62;_35" d="M54.9232 27.0487L57.913 30.9356C58.1124 31.1349 58.2121 31.3342 58.2121 31.5335C58.2121 31.9322 58.1124 32.2312 57.913 32.4305C57.7137 32.6298 57.5144 32.7295 57.315 32.7295C56.9164 32.7295 56.6174 32.5302 56.4181 32.1315C55.8201 31.3342 54.9232 30.2379 53.7272 28.8426L51.0362 32.1315C50.6376 32.5302 50.3386 32.7295 50.1393 32.7295C49.94 32.7295 49.7406 32.6298 49.5413 32.4305C49.342 32.2312 49.2424 31.9322 49.2424 31.5335C49.2424 31.3342 49.342 31.1349 49.5413 30.9356L52.5312 27.0487L49.5413 23.4608C49.342 23.2615 49.2424 23.0622 49.2424 22.8629C49.2424 22.4642 49.342 22.1652 49.5413 21.9659C49.7406 21.7666 50.0397 21.6669 50.4383 21.6669C50.6376 21.6669 50.8369 21.8662 51.0362 22.2649L53.7272 25.5537C54.3252 24.5571 55.2221 23.4608 56.4181 22.2649C56.6174 21.8662 56.8167 21.6669 57.016 21.6669C57.2153 21.6669 57.4147 21.7666 57.614 21.9659C57.8134 22.1652 57.913 22.4642 57.913 22.8629C57.913 23.0622 57.913 23.2615 57.913 23.4608L54.9232 27.0487Z" fill="url(#paint34_linear_678_2237)"/>
<path id="&#60;Compound Path&#62;_36" d="M65.9862 25.8531V22.8633C65.9862 22.2653 66.2852 21.9663 66.8832 21.9663C67.4812 21.9663 67.7802 22.2653 67.7802 22.8633V31.5339C67.7802 32.3312 67.4812 32.7299 66.8832 32.7299C66.2852 32.7299 65.9862 32.3312 65.9862 31.5339V27.9461H61.8004V31.5339C61.8004 32.3312 61.5014 32.7299 60.9034 32.7299C60.3055 32.7299 60.0064 32.3312 60.0064 31.5339V22.8633C60.0064 22.2653 60.3055 21.9663 60.9034 21.9663C61.5014 21.9663 61.8004 22.2653 61.8004 22.8633V25.8531H65.9862Z" fill="url(#paint35_linear_678_2237)"/>
<path id="&#60;Compound Path&#62;_37" d="M76.1514 28.843V22.8633C76.1514 22.2653 76.4503 21.9663 77.0483 21.9663C77.6463 21.9663 77.9452 22.2653 77.9452 22.8633V31.5339C77.9452 32.3312 77.6463 32.7299 77.0483 32.7299C76.4503 32.7299 76.1514 32.3312 76.1514 31.5339C75.3541 32.1319 74.457 32.4309 73.4604 32.4309C72.4637 32.4309 71.6665 32.1319 71.0685 31.5339C70.4705 30.936 70.1716 30.1386 70.1716 29.142V22.8633C70.1716 22.2653 70.4705 21.9663 71.0685 21.9663C71.6665 21.9663 71.9654 22.2653 71.9654 22.8633V29.142C71.9654 29.5407 72.1648 29.9393 72.5634 30.338C72.7628 30.5373 73.1614 30.637 73.7594 30.637C74.5567 30.637 75.3541 30.039 76.1514 28.843Z" fill="url(#paint36_linear_678_2237)"/>
<path id="&#60;Compound Path&#62;_38" d="M86.3168 28.8429V22.8631C86.3168 22.2651 86.6157 21.9661 87.2137 21.9661C87.8117 21.9661 88.1107 22.2651 88.1107 22.8631V31.5338C88.1107 32.3311 87.8117 32.7297 87.2137 32.7297C86.6157 32.7297 86.3168 32.3311 86.3168 31.5338C85.5195 32.1317 84.6225 32.4307 83.6259 32.4307C82.6293 32.4307 81.8319 32.1317 81.2339 31.5338C80.636 30.9358 80.337 30.1385 80.337 29.1418V22.8631C80.337 22.2651 80.636 21.9661 81.2339 21.9661C81.8319 21.9661 82.131 22.2651 82.131 22.8631V29.1418C82.131 29.5405 82.3302 29.9392 82.7289 30.3378C82.9282 30.5371 83.3268 30.6368 83.9248 30.6368C84.7221 30.6368 85.5195 30.0388 86.3168 28.8429ZM82.131 18.3782H86.3168C86.9148 18.3782 87.2137 18.7769 87.2137 19.5742C87.2137 20.1722 86.9148 20.4712 86.3168 20.4712H82.131C81.533 20.4712 81.2339 20.1722 81.2339 19.5742C81.2339 18.7769 81.533 18.3782 82.131 18.3782Z" fill="url(#paint37_linear_678_2237)"/>
</g>
</g>
</g>
<defs>
<linearGradient id="paint0_linear_678_2237" x1="32.1777" y1="6.97234" x2="44.7674" y2="6.9973" gradientUnits="userSpaceOnUse">
<stop offset="0.309726" stop-color="#DFC38E"/>
<stop offset="0.870713" stop-color="#CEA654"/>
</linearGradient>
<linearGradient id="paint1_linear_678_2237" x1="44.4366" y1="8.70253" x2="55.2777" y2="8.7272" gradientUnits="userSpaceOnUse">
<stop offset="0.309726" stop-color="#DFC38E"/>
<stop offset="0.870713" stop-color="#CEA654"/>
</linearGradient>
<linearGradient id="paint2_linear_678_2237" x1="55.4989" y1="8.70253" x2="70.5366" y2="8.75" gradientUnits="userSpaceOnUse">
<stop offset="0.309726" stop-color="#DFC38E"/>
<stop offset="0.870713" stop-color="#CEA654"/>
</linearGradient>
<linearGradient id="paint3_linear_678_2237" x1="70.7469" y1="10.2612" x2="81.5881" y2="10.2797" gradientUnits="userSpaceOnUse">
<stop offset="0.309726" stop-color="#DFC38E"/>
<stop offset="0.870713" stop-color="#CEA654"/>
</linearGradient>
<linearGradient id="paint4_linear_678_2237" x1="82.1087" y1="8.70253" x2="91.2013" y2="8.71988" gradientUnits="userSpaceOnUse">
<stop offset="0.309726" stop-color="#DFC38E"/>
<stop offset="0.870713" stop-color="#CEA654"/>
</linearGradient>
<linearGradient id="paint5_linear_678_2237" x1="92.2748" y1="8.70253" x2="107.312" y2="8.75" gradientUnits="userSpaceOnUse">
<stop offset="0.309726" stop-color="#DFC38E"/>
<stop offset="0.870713" stop-color="#CEA654"/>
</linearGradient>
<linearGradient id="paint6_linear_678_2237" x1="106.925" y1="8.87204" x2="117.766" y2="8.89742" gradientUnits="userSpaceOnUse">
<stop offset="0.309726" stop-color="#DFC38E"/>
<stop offset="0.870713" stop-color="#CEA654"/>
</linearGradient>
<linearGradient id="paint7_linear_678_2237" x1="0.212524" y1="43.8137" x2="9.30511" y2="43.8306" gradientUnits="userSpaceOnUse">
<stop offset="0.309726" stop-color="#DFC38E"/>
<stop offset="0.870713" stop-color="#CEA654"/>
</linearGradient>
<linearGradient id="paint8_linear_678_2237" x1="10.0793" y1="43.9832" x2="24.7672" y2="44.0285" gradientUnits="userSpaceOnUse">
<stop offset="0.309726" stop-color="#DFC38E"/>
<stop offset="0.870713" stop-color="#CEA654"/>
</linearGradient>
<linearGradient id="paint9_linear_678_2237" x1="24.7296" y1="43.8137" x2="35.5708" y2="43.8377" gradientUnits="userSpaceOnUse">
<stop offset="0.309726" stop-color="#DFC38E"/>
<stop offset="0.870713" stop-color="#CEA654"/>
</linearGradient>
<linearGradient id="paint10_linear_678_2237" x1="36.0912" y1="42.1229" x2="46.9324" y2="42.1418" gradientUnits="userSpaceOnUse">
<stop offset="0.309726" stop-color="#DFC38E"/>
<stop offset="0.870713" stop-color="#CEA654"/>
</linearGradient>
<linearGradient id="paint11_linear_678_2237" x1="47.7516" y1="43.9832" x2="61.0407" y2="44.0203" gradientUnits="userSpaceOnUse">
<stop offset="0.309726" stop-color="#DFC38E"/>
<stop offset="0.870713" stop-color="#CEA654"/>
</linearGradient>
<linearGradient id="paint12_linear_678_2237" x1="64.1959" y1="43.8137" x2="73.2885" y2="43.8306" gradientUnits="userSpaceOnUse">
<stop offset="0.309726" stop-color="#DFC38E"/>
<stop offset="0.870713" stop-color="#CEA654"/>
</linearGradient>
<linearGradient id="paint13_linear_678_2237" x1="74.0628" y1="43.8137" x2="84.9039" y2="43.8377" gradientUnits="userSpaceOnUse">
<stop offset="0.309726" stop-color="#DFC38E"/>
<stop offset="0.870713" stop-color="#CEA654"/>
</linearGradient>
<linearGradient id="paint14_linear_678_2237" x1="84.8268" y1="43.9832" x2="95.3182" y2="44.0063" gradientUnits="userSpaceOnUse">
<stop offset="0.309726" stop-color="#DFC38E"/>
<stop offset="0.870713" stop-color="#CEA654"/>
</linearGradient>
<linearGradient id="paint15_linear_678_2237" x1="94.992" y1="45.412" x2="105.483" y2="45.4297" gradientUnits="userSpaceOnUse">
<stop offset="0.309726" stop-color="#DFC38E"/>
<stop offset="0.870713" stop-color="#CEA654"/>
</linearGradient>
<linearGradient id="paint16_linear_678_2237" x1="105.457" y1="43.8137" x2="114.549" y2="43.8306" gradientUnits="userSpaceOnUse">
<stop offset="0.309726" stop-color="#DFC38E"/>
<stop offset="0.870713" stop-color="#CEA654"/>
</linearGradient>
<linearGradient id="paint17_linear_678_2237" x1="115.323" y1="43.9832" x2="124.416" y2="44.0006" gradientUnits="userSpaceOnUse">
<stop offset="0.309726" stop-color="#DFC38E"/>
<stop offset="0.870713" stop-color="#CEA654"/>
</linearGradient>
<linearGradient id="paint18_linear_678_2237" x1="125.489" y1="43.9832" x2="140.177" y2="44.0285" gradientUnits="userSpaceOnUse">
<stop offset="0.309726" stop-color="#DFC38E"/>
<stop offset="0.870713" stop-color="#CEA654"/>
</linearGradient>
<linearGradient id="paint19_linear_678_2237" x1="140.14" y1="43.8533" x2="149.232" y2="43.8712" gradientUnits="userSpaceOnUse">
<stop offset="0.309726" stop-color="#DFC38E"/>
<stop offset="0.870713" stop-color="#CEA654"/>
</linearGradient>
<linearGradient id="paint20_linear_678_2237" x1="37.6889" y1="61.6239" x2="46.7814" y2="61.6413" gradientUnits="userSpaceOnUse">
<stop offset="0.309726" stop-color="#DFC38E"/>
<stop offset="0.870713" stop-color="#CEA654"/>
</linearGradient>
<linearGradient id="paint21_linear_678_2237" x1="47.5551" y1="61.6239" x2="58.3963" y2="61.6486" gradientUnits="userSpaceOnUse">
<stop offset="0.309726" stop-color="#DFC38E"/>
<stop offset="0.870713" stop-color="#CEA654"/>
</linearGradient>
<linearGradient id="paint22_linear_678_2237" x1="58.618" y1="63.0527" x2="69.4591" y2="63.0716" gradientUnits="userSpaceOnUse">
<stop offset="0.309726" stop-color="#DFC38E"/>
<stop offset="0.870713" stop-color="#CEA654"/>
</linearGradient>
<linearGradient id="paint23_linear_678_2237" x1="69.9791" y1="61.6239" x2="79.0717" y2="61.6413" gradientUnits="userSpaceOnUse">
<stop offset="0.309726" stop-color="#DFC38E"/>
<stop offset="0.870713" stop-color="#CEA654"/>
</linearGradient>
<linearGradient id="paint24_linear_678_2237" x1="79.8462" y1="63.0527" x2="90.6874" y2="63.0716" gradientUnits="userSpaceOnUse">
<stop offset="0.309726" stop-color="#DFC38E"/>
<stop offset="0.870713" stop-color="#CEA654"/>
</linearGradient>
<linearGradient id="paint25_linear_678_2237" x1="90.9084" y1="61.6239" x2="101.75" y2="61.6486" gradientUnits="userSpaceOnUse">
<stop offset="0.309726" stop-color="#DFC38E"/>
<stop offset="0.870713" stop-color="#CEA654"/>
</linearGradient>
<linearGradient id="paint26_linear_678_2237" x1="101.972" y1="59.5945" x2="111.064" y2="59.6075" gradientUnits="userSpaceOnUse">
<stop offset="0.309726" stop-color="#DFC38E"/>
<stop offset="0.870713" stop-color="#CEA654"/>
</linearGradient>
<linearGradient id="paint27_linear_678_2237" x1="92.2964" y1="26.3429" x2="101.739" y2="26.3616" gradientUnits="userSpaceOnUse">
<stop offset="0.309726" stop-color="#DFC38E"/>
<stop offset="0.870713" stop-color="#CEA654"/>
</linearGradient>
<linearGradient id="paint28_linear_678_2237" x1="101.565" y1="26.5124" x2="112.057" y2="26.5362" gradientUnits="userSpaceOnUse">
<stop offset="0.309726" stop-color="#DFC38E"/>
<stop offset="0.870713" stop-color="#CEA654"/>
</linearGradient>
<linearGradient id="paint29_linear_678_2237" x1="112.03" y1="26.3429" x2="122.871" y2="26.3676" gradientUnits="userSpaceOnUse">
<stop offset="0.309726" stop-color="#DFC38E"/>
<stop offset="0.870713" stop-color="#CEA654"/>
</linearGradient>
<linearGradient id="paint30_linear_678_2237" x1="123.391" y1="24.6129" x2="132.484" y2="24.6259" gradientUnits="userSpaceOnUse">
<stop offset="0.309726" stop-color="#DFC38E"/>
<stop offset="0.870713" stop-color="#CEA654"/>
</linearGradient>
<linearGradient id="paint31_linear_678_2237" x1="17.8484" y1="26.5124" x2="26.9409" y2="26.5302" gradientUnits="userSpaceOnUse">
<stop offset="0.309726" stop-color="#DFC38E"/>
<stop offset="0.870713" stop-color="#CEA654"/>
</linearGradient>
<linearGradient id="paint32_linear_678_2237" x1="27.1174" y1="26.5124" x2="37.6088" y2="26.5362" gradientUnits="userSpaceOnUse">
<stop offset="0.309726" stop-color="#DFC38E"/>
<stop offset="0.870713" stop-color="#CEA654"/>
</linearGradient>
<linearGradient id="paint33_linear_678_2237" x1="38.4785" y1="27.9015" x2="49.3196" y2="27.92" gradientUnits="userSpaceOnUse">
<stop offset="0.309726" stop-color="#DFC38E"/>
<stop offset="0.870713" stop-color="#CEA654"/>
</linearGradient>
<linearGradient id="paint34_linear_678_2237" x1="49.2424" y1="26.4728" x2="59.7338" y2="26.4953" gradientUnits="userSpaceOnUse">
<stop offset="0.309726" stop-color="#DFC38E"/>
<stop offset="0.870713" stop-color="#CEA654"/>
</linearGradient>
<linearGradient id="paint35_linear_678_2237" x1="60.0064" y1="26.6423" x2="69.099" y2="26.6596" gradientUnits="userSpaceOnUse">
<stop offset="0.309726" stop-color="#DFC38E"/>
<stop offset="0.870713" stop-color="#CEA654"/>
</linearGradient>
<linearGradient id="paint36_linear_678_2237" x1="70.1716" y1="26.6423" x2="79.2641" y2="26.6596" gradientUnits="userSpaceOnUse">
<stop offset="0.309726" stop-color="#DFC38E"/>
<stop offset="0.870713" stop-color="#CEA654"/>
</linearGradient>
<linearGradient id="paint37_linear_678_2237" x1="80.337" y1="24.6129" x2="89.4296" y2="24.6259" gradientUnits="userSpaceOnUse">
<stop offset="0.309726" stop-color="#DFC38E"/>
<stop offset="0.870713" stop-color="#CEA654"/>
</linearGradient>
</defs>
</svg>
