<svg width="180" height="72" viewBox="0 0 180 72" fill="none" xmlns="http://www.w3.org/2000/svg">
<g id="&#208;&#165;&#208;&#181;&#208;&#180;&#208;&#181;&#209;&#128;">
<g id="&#60;Group&#62;">
<g id="&#60;Group&#62;_2">
<path id="&#60;Compound Path&#62;" d="M40.3379 31.938C40.3379 31.5217 40.5876 31.3136 41.0872 31.3136C41.67 31.3969 42.3361 31.4801 43.0854 31.5634C43.8347 31.5634 44.7089 31.5634 45.708 31.5634C46.6238 31.5634 47.3731 31.4801 47.9559 31.3136C48.622 31.1471 49.1631 30.8557 49.5794 30.4394C49.9957 30.1064 50.2871 29.5652 50.4536 28.8159C50.7034 28.1498 50.8283 27.3172 50.8283 26.3182H42.461C42.2945 26.3182 42.1695 26.2349 42.0863 26.0684C41.9197 25.9851 41.8365 25.8602 41.8365 25.6937V22.6965C41.8365 22.5299 41.9197 22.4051 42.0863 22.3218C42.1695 22.1553 42.2945 22.072 42.461 22.072H50.8283C50.6618 20.3236 50.1623 19.0748 49.3297 18.3254C48.4971 17.6594 47.2899 17.3263 45.708 17.3263C44.7089 17.3263 43.8347 17.3263 43.0854 17.3263C42.3361 17.4096 41.67 17.4929 41.0872 17.5761C40.8374 17.5761 40.6293 17.5345 40.4627 17.4512C40.3795 17.2847 40.3379 17.1182 40.3379 16.9517V13.8295C40.3379 13.663 40.4212 13.5381 40.5877 13.4549C40.6709 13.3716 40.8374 13.2884 41.0872 13.2051C41.4202 13.1219 42.003 12.997 42.8356 12.8305C43.5849 12.7472 44.5424 12.7056 45.708 12.7056C47.3731 12.7056 48.8717 12.9137 50.2038 13.33C51.4527 13.7463 52.5351 14.3707 53.4509 15.2033C54.3668 16.1191 55.0745 17.2431 55.574 18.5752C55.9903 19.9906 56.1984 21.6974 56.1984 23.6955V25.1942C56.1984 27.1924 55.9903 28.8991 55.574 30.3145C55.0745 31.7299 54.3668 32.8539 53.4509 33.6864C52.5351 34.6023 51.4527 35.2683 50.2038 35.6846C48.8717 36.0176 47.3731 36.1842 45.708 36.1842C44.6256 36.1842 43.6682 36.1425 42.8356 36.0593C42.003 35.8928 41.4202 35.7679 41.0872 35.6846C40.8374 35.6014 40.6709 35.5181 40.5877 35.4348C40.4212 35.3516 40.3379 35.1851 40.3379 34.9353V31.938Z" fill="#404040"/>
<path id="&#60;Compound Path&#62;_2" d="M68.687 17.5761C68.6037 17.4096 68.562 17.2847 68.562 17.2015C68.4788 17.1182 68.3539 17.0766 68.1874 17.0766C68.0209 17.0766 67.896 17.2431 67.8127 17.5761L63.9412 35.4348C63.858 35.6014 63.7748 35.7262 63.6915 35.8095C63.6083 35.8928 63.4833 35.9344 63.3168 35.9344H58.9458C58.6128 35.9344 58.4463 35.7679 58.4463 35.4348C58.4463 35.3516 58.4463 35.31 58.4463 35.31L63.0671 16.0775C63.3169 15.3282 63.6082 14.7454 63.9412 14.3291C64.2743 13.8295 64.6906 13.4549 65.1901 13.2051C65.6064 13.0386 66.1059 12.9137 66.6887 12.8305C67.1883 12.7472 67.6878 12.7056 68.1874 12.7056C68.7702 12.7056 69.3114 12.7472 69.8109 12.8305C70.3937 12.9137 70.8933 13.0386 71.3095 13.2051C71.8091 13.4549 72.2254 13.8295 72.5584 14.3291C72.8914 14.7454 73.1412 15.3282 73.3077 16.0775L77.9285 35.31C77.9285 35.31 77.9285 35.3516 77.9285 35.4348C78.0118 35.4348 78.0534 35.4348 78.0534 35.4348C78.0534 35.7679 77.8453 35.9344 77.429 35.9344H73.1828C73.0163 35.9344 72.8498 35.8928 72.6833 35.8095C72.6 35.7262 72.5584 35.6014 72.5584 35.4348L68.687 17.5761Z" fill="#404040"/>
<path id="&#60;Compound Path&#62;_3" d="M80.8008 13.5795C80.8008 13.413 80.8425 13.2465 80.9257 13.08C81.0922 12.9967 81.2587 12.9551 81.4252 12.9551H85.0469C85.2135 12.9551 85.3383 12.9967 85.4216 13.08C85.5881 13.2465 85.6714 13.413 85.6714 13.5795V26.5677C85.6714 26.8174 85.713 26.9423 85.7962 26.9423C85.8795 26.9423 85.9628 26.8591 86.046 26.6926L93.4143 13.9542C93.5808 13.6211 93.7473 13.3714 93.9138 13.2049C94.1636 13.0383 94.4134 12.9551 94.6632 12.9551H97.7853C98.1184 12.9551 98.4098 13.08 98.6596 13.3297C98.9093 13.4963 99.0342 13.746 99.0342 14.0791V35.3097C99.0342 35.4762 98.9509 35.6427 98.7844 35.8092C98.7012 35.8925 98.5763 35.9341 98.4098 35.9341H94.788C94.6215 35.9341 94.4551 35.8925 94.2885 35.8092C94.2053 35.6427 94.1636 35.4762 94.1636 35.3097V22.8211C94.1636 22.6546 94.0803 22.5713 93.9138 22.5713C93.8306 22.5713 93.7474 22.6546 93.6641 22.8211L86.6704 34.935C86.4207 35.3513 86.1709 35.6427 85.9212 35.8092C85.6714 35.8925 85.38 35.9341 85.0469 35.9341H81.9248C81.5918 35.9341 81.342 35.8092 81.1755 35.5595C80.9257 35.393 80.8008 35.1432 80.8008 34.8102V13.5795Z" fill="#404040"/>
<path id="&#60;Compound Path&#62;_4" d="M118.392 17.0763C118.226 17.2428 118.059 17.3261 117.893 17.3261H112.897V35.3097C112.897 35.4762 112.856 35.6427 112.772 35.8092C112.606 35.8925 112.439 35.9341 112.273 35.9341H108.276C108.11 35.9341 107.943 35.8925 107.777 35.8092C107.694 35.6427 107.652 35.4762 107.652 35.3097V17.3261H102.532C102.365 17.3261 102.24 17.2428 102.157 17.0763C101.99 16.9931 101.907 16.8682 101.907 16.7017V13.5795C101.907 13.413 101.99 13.2465 102.157 13.08C102.24 12.9967 102.365 12.9551 102.532 12.9551H117.893C118.059 12.9551 118.226 12.9967 118.392 13.08C118.559 13.2465 118.642 13.413 118.642 13.5795V16.7017C118.642 16.8682 118.559 16.9931 118.392 17.0763Z" fill="#404040"/>
<path id="&#60;Compound Path&#62;_5" d="M52.0771 41.6792C53.4093 41.6792 54.5333 41.8457 55.4491 42.1787C56.2817 42.5118 56.9061 42.9697 57.3224 43.5525C57.8219 44.1353 58.1549 44.8014 58.3214 45.5507C58.488 46.3 58.5712 47.0909 58.5712 47.9235V64.1587C58.5712 64.3252 58.5296 64.4501 58.4464 64.5334C58.2799 64.6999 58.1133 64.7831 57.9468 64.7831H53.9504C53.7839 64.7831 53.6175 64.6999 53.4509 64.5334C53.3677 64.4501 53.326 64.3252 53.326 64.1587V47.9235C53.326 47.6737 53.326 47.4656 53.326 47.2991C53.326 47.1326 53.2844 46.966 53.2011 46.7995C53.0346 46.633 52.8681 46.5081 52.7016 46.4249C52.5351 46.3416 52.2853 46.3 51.9523 46.3H47.0817C46.6654 46.3 46.3741 46.3416 46.2076 46.4249C46.041 46.5081 45.9161 46.633 45.8328 46.7995C45.7496 46.966 45.708 47.1326 45.708 47.2991C45.708 47.4656 45.708 47.6737 45.708 47.9235V64.1587C45.708 64.3252 45.6247 64.4501 45.4582 64.5334C45.3749 64.6999 45.2501 64.7831 45.0835 64.7831H40.9623C40.7958 64.7831 40.6709 64.6999 40.5877 64.5334C40.4212 64.4501 40.3379 64.3252 40.3379 64.1587V47.9235C40.3379 47.0909 40.4212 46.3 40.5877 45.5507C40.7542 44.8014 41.0872 44.1353 41.5868 43.5525C42.0863 42.9697 42.7523 42.5118 43.5849 42.1787C44.4175 41.8457 45.4999 41.6792 46.832 41.6792H52.0771Z" fill="#404040"/>
<path id="&#60;Compound Path&#62;_6" d="M71.559 46.2998C71.4758 46.1332 71.4341 46.0084 71.4341 45.9251C71.4341 45.8418 71.3509 45.8002 71.1844 45.8002C70.9346 45.8002 70.7681 45.9667 70.6848 46.2998L66.8134 64.1585C66.8134 64.325 66.7717 64.4499 66.6884 64.5331C66.5219 64.6997 66.3555 64.7829 66.1889 64.7829H61.9428C61.5265 64.7829 61.3184 64.6164 61.3184 64.2834C61.3184 64.2834 61.36 64.2417 61.4432 64.1585L66.064 44.926C66.2305 44.1767 66.4804 43.5523 66.8134 43.0527C67.1464 42.6364 67.5627 42.3034 68.0622 42.0536C68.4785 41.8039 68.978 41.6373 69.5608 41.5541C70.0604 41.4708 70.6016 41.4292 71.1844 41.4292C71.6839 41.4292 72.2251 41.4708 72.8079 41.5541C73.3074 41.6373 73.7653 41.8039 74.1816 42.0536C74.6812 42.3034 75.0974 42.6364 75.4305 43.0527C75.7635 43.5523 76.0549 44.1767 76.3047 44.926L80.9255 64.1585C80.9255 64.2417 80.9255 64.2834 80.9255 64.2834C80.9255 64.6164 80.759 64.7829 80.4259 64.7829H76.0549C75.8884 64.7829 75.7635 64.6997 75.6803 64.5331C75.5138 64.4499 75.4305 64.325 75.4305 64.1585L71.559 46.2998Z" fill="#404040"/>
<path id="&#60;Compound Path&#62;_7" fill-rule="evenodd" clip-rule="evenodd" d="M101.657 64.2834C101.657 64.6164 101.49 64.7829 101.157 64.7829H96.7864C96.6199 64.7829 96.495 64.6997 96.4117 64.5331C96.2452 64.4499 96.162 64.325 96.162 64.1585L95.038 59.163H88.6688L87.5448 64.1585C87.5448 64.325 87.4616 64.4499 87.295 64.5331C87.2118 64.6997 87.0869 64.7829 86.9204 64.7829H82.6742C82.2579 64.7829 82.0498 64.6164 82.0498 64.2834C82.0498 64.2834 82.0498 64.2417 82.0498 64.1585C82.1331 64.1585 82.1747 64.1585 82.1747 64.1585L86.7955 44.926C86.9621 44.1767 87.2118 43.5523 87.5448 43.0527C87.8779 42.6364 88.2941 42.3034 88.7937 42.0536C89.21 41.8039 89.7095 41.6373 90.2923 41.5541C90.7919 41.4708 91.333 41.4292 91.9158 41.4292C92.4154 41.4292 92.9149 41.4708 93.4145 41.5541C93.9973 41.6373 94.4969 41.8039 94.9131 42.0536C95.4127 42.3034 95.829 42.6364 96.162 43.0527C96.495 43.5523 96.7864 44.1767 97.0361 44.926L101.657 64.1585C101.657 64.2417 101.657 64.2834 101.657 64.2834ZM92.2905 46.2998C92.2072 46.1332 92.1656 46.0084 92.1656 45.9251C92.0824 45.8418 91.9991 45.8002 91.9158 45.8002C91.6661 45.8002 91.4995 45.9667 91.4163 46.2998L89.543 54.9169H94.1638L92.2905 46.2998Z" fill="#404040"/>
<path id="&#60;Compound Path&#62;_8" d="M118.142 64.2834C118.059 64.3666 117.893 64.4499 117.643 64.5331C117.31 64.6164 116.727 64.6996 115.894 64.7829C115.062 64.9494 114.104 65.0327 113.022 65.0327C111.856 65.0327 110.732 64.8662 109.65 64.5331C108.484 64.2001 107.485 63.6589 106.653 62.9096C105.82 62.077 105.154 61.0363 104.655 59.7875C104.155 58.5386 103.905 56.9983 103.905 55.1667V51.2952C103.905 49.4635 104.155 47.9233 104.655 46.6744C105.154 45.3423 105.82 44.3016 106.653 43.5523C107.485 42.8029 108.484 42.2618 109.65 41.9287C110.732 41.5957 111.856 41.4292 113.022 41.4292C114.104 41.4292 115.062 41.5125 115.894 41.679C116.727 41.7622 117.31 41.8455 117.643 41.9287C117.893 42.012 118.059 42.0953 118.142 42.1785C118.309 42.2618 118.392 42.4283 118.392 42.6781V45.6753C118.392 46.0916 118.184 46.2998 117.768 46.2998H117.643C117.06 46.2998 116.352 46.2581 115.52 46.1749C114.77 46.0916 113.938 46.05 113.022 46.05C112.522 46.05 112.023 46.1332 111.523 46.2998C111.107 46.4663 110.732 46.7577 110.399 47.174C109.983 47.5902 109.692 48.1314 109.525 48.7975C109.359 49.4635 109.275 50.2961 109.275 51.2952V55.1667C109.275 56.249 109.359 57.1232 109.525 57.7893C109.692 58.4553 109.983 58.9549 110.399 59.2879C110.732 59.7042 111.107 59.9956 111.523 60.1621C112.023 60.3286 112.522 60.4119 113.022 60.4119C113.938 60.4119 114.77 60.3703 115.52 60.287C116.352 60.287 117.06 60.2454 117.643 60.1621H117.768C118.184 60.1621 118.392 60.3703 118.392 60.7866V63.7838C118.392 64.0336 118.309 64.2001 118.142 64.2834Z" fill="#404040"/>
<path id="&#60;Compound Path&#62;_9" d="M136.75 45.9253C136.667 46.0086 136.542 46.0502 136.375 46.0502H131.38V64.1587C131.38 64.3252 131.296 64.4501 131.13 64.5334C131.047 64.6999 130.922 64.7831 130.755 64.7831H126.634C126.467 64.7831 126.343 64.6999 126.259 64.5334C126.093 64.4501 126.01 64.3252 126.01 64.1587V46.0502H121.014C120.848 46.0502 120.681 46.0086 120.515 45.9253C120.431 45.8421 120.39 45.7172 120.39 45.5507V42.3036C120.39 42.1371 120.431 42.0122 120.515 41.929C120.681 41.7625 120.848 41.6792 121.014 41.6792H136.375C136.542 41.6792 136.667 41.7625 136.75 41.929C136.916 42.0122 136.999 42.1371 136.999 42.3036V45.5507C136.999 45.7172 136.916 45.8421 136.75 45.9253Z" fill="#404040"/>
</g>

<path id="&#60;Path&#62;" d="M31.4709 65.657C31.2211 65.657 30.9713 65.6154 30.7216 65.5321L14.9859 62.7846L14.861 61.1611L30.9714 64.0335C31.7207 64.1584 32.47 63.9086 33.0944 63.4091C33.7189 63.0344 33.9686 62.2851 33.9686 61.5358V4.21304C33.9686 3.33884 33.7189 2.71441 33.0944 2.21486C32.47 1.71532 31.7206 1.46555 30.8464 1.59043L8.6167 6.21122C7.36784 6.46099 6.49362 7.46008 6.49362 8.70894V37.5577H4.87012V8.70894C4.87012 6.71076 6.36877 5.08725 8.24206 4.5877L30.5967 0.0917993C31.8456 -0.157973 33.0944 0.0918002 34.0935 0.966003C35.0926 1.71532 35.5922 2.96418 35.5922 4.21304V61.5358C35.5922 62.7846 35.0926 63.9086 34.0935 64.6579C33.3442 65.2824 32.3451 65.657 31.4709 65.657Z" fill="#404040"/>
<g id="&#60;Group&#62;_3">
<path id="&#60;Path&#62;_2" d="M2.87237 11.7058L12.2388 9.83252V38.0568H0.124856C0.124856 38.0568 0.0832574 38.0568 0 38.0568V15.2026C0 13.5791 1.24885 12.0805 2.87237 11.7058Z" fill="url(#paint0_linear_690_785)"/>
<path id="&#60;Path&#62;_3" d="M0.124856 40.5547H12.2388V68.9039L2.99722 67.2803C1.24882 66.9057 0 65.5319 0 63.7835V40.5547C0.0832574 40.5547 0.124856 40.5547 0.124856 40.5547Z" fill="#404040"/>
<path id="&#60;Path&#62;_4" d="M29.0982 10.8317V38.0569C29.015 38.0569 28.9733 38.0569 28.9733 38.0569H14.7363V9.45797C14.7363 9.45797 14.7363 9.41633 14.7363 9.33307L24.8521 7.21001C26.9751 6.83535 29.0982 8.45888 29.0982 10.8317Z" fill="#404040"/>
<path id="&#60;Path&#62;_5" d="M28.9733 40.5547C28.9733 40.5547 29.015 40.5547 29.0982 40.5547V67.5301C29.0982 69.7781 27.1 71.5265 24.8521 71.1518L14.7363 69.2785C14.7363 69.2785 14.7363 69.2369 14.7363 69.1536V40.5547H28.9733Z" fill="url(#paint1_linear_690_785)"/>
</g>
</g>
<path id="Vector" d="M204 49H217.6M204 40.5H227.8M214.2 32H227.8" stroke="#404040" stroke-width="3.4" stroke-linecap="round" stroke-linejoin="round"/>
</g>
<defs>
<linearGradient id="paint0_linear_690_785" x1="2.41708e-08" y1="22.0939" x2="14.3152" y2="22.1103" gradientUnits="userSpaceOnUse">
<stop offset="0.309726" stop-color="#DFC38E"/>
<stop offset="0.870713" stop-color="#CEA654"/>
</linearGradient>
<linearGradient id="paint1_linear_690_785" x1="14.7363" y1="53.8689" x2="31.5348" y2="53.8897" gradientUnits="userSpaceOnUse">
<stop offset="0.309726" stop-color="#DFC38E"/>
<stop offset="0.870713" stop-color="#CEA654"/>
</linearGradient>
</defs>
</svg>
