<svg width="16" height="16" viewBox="0 0 16 16" fill="none" xmlns="http://www.w3.org/2000/svg">
<path d="M14.1466 14.7569C14.0343 14.7569 13.922 14.7476 13.8098 14.7288L6.73655 14.1113L6.68039 13.7464L13.922 14.392C14.2589 14.4201 14.5957 14.3639 14.8764 14.2517C15.1571 14.1675 15.2693 13.999 15.2693 13.8306V0.946913C15.2693 0.750429 15.1571 0.610084 14.8764 0.497808C14.5957 0.385531 14.2588 0.329393 13.8659 0.357462L3.87355 1.39602C3.31219 1.45216 2.91922 1.67671 2.91922 1.9574V8.44137H2.18945V1.9574C2.18945 1.50829 2.8631 1.1434 3.70515 1.03112L13.7536 0.0206326C14.315 -0.0355056 14.8764 0.0206328 15.3255 0.217117C15.7746 0.385531 15.9991 0.666222 15.9991 0.946913V13.8306C15.9991 14.1113 15.7746 14.3639 15.3255 14.5324C14.9886 14.6727 14.5395 14.7569 14.1466 14.7569Z" fill="white"/>
<path d="M1.29114 2.631L5.50139 2.20996V8.55358H0.056123C0.056123 8.55358 0.0374245 8.55358 0 8.55358V3.41693C0 3.05204 0.561361 2.7152 1.29114 2.631Z" fill="url(#paint0_linear_49_5573)"/>
<path d="M0.056123 9.11523H5.50139V15.4869L1.34726 15.122C0.561347 15.0378 0 14.7291 0 14.3361V9.11523C0.0374245 9.11523 0.056123 9.11523 0.056123 9.11523Z" fill="white"/>
<path d="M13.0807 2.43497V8.55404C13.0433 8.55404 13.0246 8.55404 13.0246 8.55404H6.625V2.12622C6.625 2.12622 6.625 2.11686 6.625 2.09814L11.1721 1.62097C12.1264 1.53676 13.0807 1.90166 13.0807 2.43497Z" fill="white"/>
<path d="M13.0246 9.11523C13.0246 9.11523 13.0433 9.11523 13.0807 9.11523V15.1782C13.0807 15.6834 12.1825 16.0764 11.1721 15.9922L6.625 15.5711C6.625 15.5711 6.625 15.5618 6.625 15.5431V9.11523H13.0246Z" fill="url(#paint1_linear_49_5573)"/>
<defs>
<linearGradient id="paint0_linear_49_5573" x1="2.7507" y1="2.20996" x2="2.7507" y2="8.55358" gradientUnits="userSpaceOnUse">
<stop offset="0.1" stop-color="#F7EF8A"/>
<stop offset="0.745" stop-color="#E2C283"/>
</linearGradient>
<linearGradient id="paint1_linear_49_5573" x1="9.85286" y1="9.11523" x2="9.85286" y2="16.0036" gradientUnits="userSpaceOnUse">
<stop offset="0.1" stop-color="#F7EF8A"/>
<stop offset="0.745" stop-color="#E2C283"/>
</linearGradient>
</defs>
</svg>
