<svg width="75.000000" height="39.000000" viewBox="0 0 75 39" fill="none" xmlns="http://www.w3.org/2000/svg" xmlns:xlink="http://www.w3.org/1999/xlink">
	<desc>
			Created with Pixso.
	</desc>
	<defs/>
	<path id="Vector" d="M64.8291 0.69043C65.1523 0.514648 65.709 0.294922 66.0762 0.191406C66.4424 0.0888672 66.7949 0.000976562 66.8828 0.000976562C66.9707 -0.0136719 67.4844 0.118164 68.0557 0.294922C69.0684 0.602539 69.127 0.646484 71.6201 3.125C73.3652 4.84082 74.29 5.86816 74.5391 6.36621C74.7734 6.82129 74.9492 7.4375 74.9795 7.97949C75.0381 8.6543 74.9795 9.06543 74.7295 9.74023C74.4219 10.5762 74.0107 11.0156 65.0488 19.9629C56.0879 28.9385 55.6914 29.3203 55.1787 29.3203C54.7529 29.3203 54.5625 29.2324 54.3418 28.9092C54.166 28.6895 54.0488 28.3809 54.0488 28.2197C54.0488 28.0293 57.3486 24.627 63.2012 18.7598C68.2324 13.7148 72.4561 9.37305 72.5879 9.12402C72.7207 8.85938 72.8232 8.47852 72.8232 8.27344C72.8232 8.06738 72.75 7.73047 72.6758 7.51074C72.5879 7.27539 71.5469 6.11719 70.3584 4.92871C69.1709 3.72656 68.0264 2.65625 67.792 2.53809C67.5723 2.4209 67.1904 2.33301 66.9561 2.33301C66.7217 2.33301 66.3398 2.40625 66.1055 2.47949C65.8857 2.56738 59.6514 8.69824 52.2451 16.0908C44.7793 23.5557 38.6924 29.7451 38.5752 30.0098C38.458 30.2734 38.3545 30.6689 38.3545 30.8896C38.3545 31.124 38.5459 31.5938 38.7656 31.96C39 32.3262 40.0713 33.4854 41.1562 34.541C42.5938 35.9492 43.2832 36.5068 43.708 36.6533C44.1777 36.7998 44.4121 36.7998 44.8818 36.6533C45.3516 36.5068 46.1143 35.832 48.5488 33.4121C51.1885 30.7871 51.6875 30.3467 52.0684 30.3467C52.333 30.3467 52.6406 30.4932 52.8457 30.6836C53.0518 30.875 53.1689 31.1826 53.1689 31.4463C53.1689 31.8281 52.6992 32.3564 49.9717 35.0693C47.3164 37.7236 46.6416 38.3105 45.9521 38.6191C45.3662 38.8828 44.8379 39 44.2949 39C43.752 39 43.2246 38.8828 42.6377 38.6191C41.9629 38.3252 41.3467 37.7822 39.3525 35.8027C37.5625 34.0137 36.8145 33.1631 36.5654 32.6201C36.3164 32.0625 36.2285 31.6377 36.2432 30.7871C36.2432 29.9355 36.3164 29.54 36.5801 29.0264C36.8145 28.5576 40.9219 24.3623 50.5723 14.6826C58.9766 6.26367 64.4629 0.880859 64.8291 0.69043ZM36.9023 3.125C38.7656 1.27734 39.4844 0.661133 40.1152 0.368164C40.6865 0.118164 41.1855 0.000976562 41.8018 0.000976562C42.4766 0.000976562 42.8867 0.0888672 43.5615 0.426758C44.251 0.763672 44.9404 1.35059 46.8027 3.24219C48.1523 4.60645 49.3262 5.91211 49.5166 6.29297C49.7949 6.82129 49.8691 7.17285 49.8691 8.12695C49.8691 9.06543 49.7949 9.43164 49.5166 9.95996C49.2822 10.4141 45.1016 14.6973 35.8174 24.0107C28.4541 31.373 22.1475 37.5918 21.7812 37.8262C21.4141 38.0615 20.6367 38.4277 20.0498 38.6338C19.3311 38.8828 18.6719 39 17.9971 39C17.3223 39 16.6768 38.8828 15.9141 38.6338C15.3125 38.4277 14.5205 38.0615 14.1543 37.8262C13.7871 37.5918 10.6191 34.5117 7.09863 30.9775Q0.689453 24.5537 0.351562 23.8936C0.0732422 23.3652 0 22.999 0 22.0596C0 21.1064 0.0732422 20.7549 0.351562 20.2266C0.542969 19.8457 1.71582 18.54 3.06543 17.1758C4.8252 15.4014 5.63184 14.6826 6.2334 14.3896C6.87891 14.0664 7.24609 13.9932 8.06738 13.9932C8.81543 13.9932 9.28418 14.0957 9.82715 14.3301C10.3848 14.5947 11.4258 15.5332 17.9678 22.0596L24.9785 15.0635C31.0801 8.94824 32.0479 8.05273 32.415 8.05273C32.6641 8.05273 33.001 8.2002 33.1924 8.39062C33.4121 8.61035 33.5146 8.87402 33.5146 9.22656C33.5146 9.71094 33.0303 10.2236 26.21 17.0439C22.2061 21.0625 18.7451 24.4502 18.5098 24.5684C18.29 24.6855 17.9971 24.7734 17.8496 24.7734C17.7178 24.7734 15.7529 22.9248 13.4941 20.667Q9.38672 16.5742 8.83008 16.3545C8.53613 16.2227 8.14062 16.1201 7.94922 16.1201C7.77344 16.1201 7.33398 16.3105 6.9668 16.5303C6.60059 16.7656 5.41211 17.8799 4.3125 18.9941C2.77246 20.5635 2.28809 21.1504 2.2002 21.5469C2.1416 21.8252 2.1416 22.2949 2.2002 22.5732C2.27344 22.999 3.3291 24.1133 8.62402 29.4375C14.2129 35.04 15.0781 35.8467 15.9141 36.2568C16.7207 36.6533 17.0137 36.7266 17.9678 36.7266C18.9209 36.7266 19.2139 36.6533 20.0205 36.2568C20.8857 35.832 22.2354 34.5264 34.2773 22.4707C45.5273 11.1914 47.5811 9.08008 47.6689 8.63965C47.7275 8.36133 47.7275 7.8916 47.6689 7.61328C47.5811 7.2168 47.0967 6.63086 45.4102 4.92871Q43.2686 2.75879 42.6084 2.4502C42.124 2.23047 41.8164 2.17188 41.4346 2.25977C41.0391 2.33301 40.4229 2.86133 38.5752 4.67969C36.9766 6.26367 36.0811 7.02637 35.7881 7.09961C35.4658 7.17285 35.2451 7.12891 34.9814 6.92383C34.7324 6.71875 34.5996 6.4541 34.5557 6.07324C34.5117 5.51562 34.5557 5.47168 36.9023 3.125Z" fill="#FFFFFF" fill-opacity="1.000000" fill-rule="evenodd"/>
	<path id="Vector" d="M36.9023 3.125C34.5557 5.47168 34.5117 5.51562 34.5557 6.07324C34.5996 6.4541 34.7324 6.71875 34.9814 6.92383C35.2451 7.12891 35.4658 7.17285 35.7881 7.09961C36.0811 7.02637 36.9766 6.26367 38.5752 4.67969C40.4229 2.86133 41.0391 2.33301 41.4346 2.25977C41.8164 2.17188 42.124 2.23047 42.6084 2.4502C43.0488 2.65625 43.9824 3.48242 45.4102 4.92871C47.0967 6.63086 47.5811 7.2168 47.6689 7.61328C47.7275 7.8916 47.7275 8.36133 47.6689 8.63965C47.5811 9.08008 45.5273 11.1914 34.2773 22.4707C22.2354 34.5264 20.8857 35.832 20.0205 36.2568C19.2139 36.6533 18.9209 36.7266 17.9678 36.7266C17.0137 36.7266 16.7207 36.6533 15.9141 36.2568C15.0781 35.8467 14.2129 35.04 8.62402 29.4375C3.3291 24.1133 2.27344 22.999 2.2002 22.5732C2.1416 22.2949 2.1416 21.8252 2.2002 21.5469C2.28809 21.1504 2.77246 20.5635 4.3125 18.9941C5.41211 17.8799 6.60059 16.7656 6.9668 16.5303C7.33398 16.3105 7.77344 16.1201 7.94922 16.1201C8.14062 16.1201 8.53613 16.2227 8.83008 16.3545C9.20117 16.501 10.7559 17.9385 13.4941 20.667C15.7529 22.9248 17.7178 24.7734 17.8496 24.7734C17.9971 24.7734 18.29 24.6855 18.5098 24.5684C18.7451 24.4502 22.2061 21.0625 26.21 17.0439C33.0303 10.2236 33.5146 9.71094 33.5146 9.22656C33.5146 8.87402 33.4121 8.61035 33.1924 8.39062C33.001 8.2002 32.6641 8.05273 32.415 8.05273C32.0479 8.05273 31.0801 8.94824 24.9785 15.0635L17.9678 22.0596C11.4258 15.5332 10.3848 14.5947 9.82715 14.3301C9.28418 14.0957 8.81543 13.9932 8.06738 13.9932C7.24609 13.9932 6.87891 14.0664 6.2334 14.3896C5.63184 14.6826 4.8252 15.4014 3.06543 17.1758C1.71582 18.54 0.542969 19.8457 0.351562 20.2266C0.0732422 20.7549 0 21.1064 0 22.0596C0 22.999 0.0732422 23.3652 0.351562 23.8936C0.577148 24.333 2.82617 26.6943 7.09863 30.9775C10.6191 34.5117 13.7871 37.5918 14.1543 37.8262C14.5205 38.0615 15.3125 38.4277 15.9141 38.6338C16.6768 38.8828 17.3223 39 17.9971 39C18.6719 39 19.3311 38.8828 20.0498 38.6338C20.6367 38.4277 21.4141 38.0615 21.7812 37.8262C22.1475 37.5918 28.4541 31.373 35.8174 24.0107C45.1016 14.6973 49.2822 10.4141 49.5166 9.95996C49.7949 9.43164 49.8691 9.06543 49.8691 8.12695C49.8691 7.17285 49.7949 6.82129 49.5166 6.29297C49.3262 5.91211 48.1523 4.60645 46.8027 3.24219C44.9404 1.35059 44.251 0.763672 43.5615 0.426758C42.8867 0.0888672 42.4766 0.000976562 41.8018 0.000976562C41.1855 0.000976562 40.6865 0.118164 40.1152 0.368164C39.4844 0.661133 38.7656 1.27734 36.9023 3.125ZM64.8291 0.69043C64.4629 0.880859 58.9766 6.26367 50.5723 14.6826C40.9219 24.3623 36.8145 28.5576 36.5801 29.0264C36.3164 29.54 36.2432 29.9355 36.2432 30.7871C36.2285 31.6377 36.3164 32.0625 36.5654 32.6201C36.8145 33.1631 37.5625 34.0137 39.3525 35.8027C41.3467 37.7822 41.9629 38.3252 42.6377 38.6191C43.2246 38.8828 43.752 39 44.2949 39C44.8379 39 45.3662 38.8828 45.9521 38.6191C46.6416 38.3105 47.3164 37.7236 49.9717 35.0693C52.6992 32.3564 53.1689 31.8281 53.1689 31.4463C53.1689 31.1826 53.0518 30.875 52.8457 30.6836C52.6406 30.4932 52.333 30.3467 52.0684 30.3467C51.6875 30.3467 51.1885 30.7871 48.5488 33.4121C46.1143 35.832 45.3516 36.5068 44.8818 36.6533C44.4121 36.7998 44.1777 36.7998 43.708 36.6533C43.2832 36.5068 42.5938 35.9492 41.1562 34.541C40.0713 33.4854 39 32.3262 38.7656 31.96C38.5459 31.5938 38.3545 31.124 38.3545 30.8896C38.3545 30.6689 38.458 30.2734 38.5752 30.0098C38.6924 29.7451 44.7793 23.5557 52.2451 16.0908C59.6514 8.69824 65.8857 2.56738 66.1055 2.47949C66.3398 2.40625 66.7217 2.33301 66.9561 2.33301C67.1904 2.33301 67.5723 2.4209 67.792 2.53809C68.0264 2.65625 69.1709 3.72656 70.3584 4.92871C71.5469 6.11719 72.5879 7.27539 72.6758 7.51074C72.75 7.73047 72.8232 8.06738 72.8232 8.27344C72.8232 8.47852 72.7207 8.85938 72.5879 9.12402C72.4561 9.37305 68.2324 13.7148 63.2012 18.7598C57.3486 24.627 54.0488 28.0293 54.0488 28.2197C54.0488 28.3809 54.166 28.6895 54.3418 28.9092C54.5625 29.2324 54.7529 29.3203 55.1787 29.3203C55.6914 29.3203 56.0879 28.9385 65.0488 19.9629C74.0107 11.0156 74.4219 10.5762 74.7295 9.74023C74.9795 9.06543 75.0381 8.6543 74.9795 7.97949C74.9492 7.4375 74.7734 6.82129 74.5391 6.36621C74.29 5.86816 73.3652 4.84082 71.6201 3.125C69.127 0.646484 69.0684 0.602539 68.0557 0.294922C67.4844 0.118164 66.9707 -0.0136719 66.8828 0.000976562C66.7949 0.000976562 66.4424 0.0888672 66.0762 0.191406C65.709 0.294922 65.1523 0.514648 64.8291 0.69043Z" stroke="#000000" stroke-opacity="0" stroke-width="1.000000"/>
</svg>
