<svg width="22" height="21" viewBox="0 0 22 21" fill="none" xmlns="http://www.w3.org/2000/svg">
<g id="Vector">
<path d="M1.40625 4.80023V16.2002C1.40625 17.5304 1.40625 18.1951 1.66592 18.7031C1.89433 19.15 2.25854 19.5137 2.70682 19.7414C3.21596 20 3.88279 20 5.21448 20H16.6576C17.9893 20 18.6551 20 19.1643 19.7414C19.6126 19.5137 19.978 19.15 20.2064 18.7031C20.4658 18.1956 20.4658 17.5318 20.4658 16.2042V4.79633C20.4658 3.46881 20.4658 2.80405 20.2064 2.29651C19.978 1.84962 19.6126 1.48656 19.1643 1.25886C18.6546 1 17.9884 1 16.6541 1H5.21839C3.8841 1 3.21646 1 2.70682 1.25886C2.25854 1.48656 1.89433 1.84962 1.66592 2.29651C1.40625 2.80455 1.40625 3.47011 1.40625 4.80023Z" stroke="url(#paint0_linear_748_507)" stroke-width="2" stroke-linecap="round" stroke-linejoin="round"/>
<path d="M14.5097 12.1626V8.83762C14.5097 8.17255 14.5092 7.83977 14.3794 7.58575C14.2652 7.36231 14.0837 7.18078 13.8595 7.06693C13.6047 6.9375 13.2704 6.9375 12.6033 6.9375H9.26785C8.60071 6.9375 8.26747 6.9375 8.01265 7.06693C7.78851 7.18078 7.6064 7.36231 7.4922 7.58575C7.36236 7.83977 7.36236 8.17255 7.36236 8.83762V12.1626C7.36236 12.8277 7.36236 13.1597 7.4922 13.4138C7.6064 13.6372 7.78851 13.8193 8.01265 13.9332C8.26722 14.0625 8.60005 14.0625 9.2659 14.0625H12.605C13.2708 14.0625 13.6049 14.0625 13.8595 13.9332C14.0837 13.8193 14.2652 13.6372 14.3794 13.4138C14.5092 13.1597 14.5097 12.8277 14.5097 12.1626Z" stroke="url(#paint1_linear_748_507)" stroke-width="2" stroke-linecap="round" stroke-linejoin="round"/>
</g>
<defs>
<linearGradient id="paint0_linear_748_507" x1="1.40625" y1="9.2541" x2="23.6993" y2="9.31321" gradientUnits="userSpaceOnUse">
<stop offset="0.309726" stop-color="#DFC38E"/>
<stop offset="0.870713" stop-color="#CEA654"/>
</linearGradient>
<linearGradient id="paint1_linear_748_507" x1="1.40625" y1="9.2541" x2="23.6993" y2="9.31321" gradientUnits="userSpaceOnUse">
<stop offset="0.309726" stop-color="#DFC38E"/>
<stop offset="0.870713" stop-color="#CEA654"/>
</linearGradient>
</defs>
</svg>
