<svg width="161" height="74" viewBox="0 0 161 74" fill="none" xmlns="http://www.w3.org/2000/svg">
<g id="Group 5806">
<path id="&#60;Compound Path&#62;" d="M11.3947 12.8844C10.3095 14.8378 8.79021 15.8145 6.83684 15.8145C5.1005 15.8145 3.47269 15.0548 1.9534 13.5355C0.651145 12.0162 0 10.1714 0 8.00098C0 5.83057 0.651145 3.98572 1.9534 2.46643C3.47269 0.947136 5.1005 0.1875 6.83684 0.1875C8.79021 0.1875 10.3095 1.16417 11.3947 3.11754C11.6117 3.33459 11.7203 3.55162 11.7203 3.76866C11.7203 3.9857 11.6117 4.20278 11.3947 4.41982C11.1777 4.63687 10.852 4.74536 10.4179 4.74536C9.98386 4.74536 9.65834 4.63687 9.4413 4.41982C8.79017 3.11757 7.92204 2.46643 6.83684 2.46643C5.53458 2.46643 4.44938 3.00903 3.58121 4.09424C2.71304 5.17945 2.27888 6.48169 2.27888 8.00098C2.27888 9.52028 2.71304 10.8225 3.58121 11.9077C4.44938 12.9929 5.53458 13.5355 6.83684 13.5355C7.92204 13.5355 8.79017 12.8844 9.4413 11.5822C9.65834 11.3652 9.98386 11.2566 10.4179 11.2566C10.852 11.2566 11.1777 11.3652 11.3947 11.5822C11.6117 11.7992 11.7203 12.0163 11.7203 12.2333C11.7203 12.4503 11.6117 12.6674 11.3947 12.8844Z" fill="url(#paint0_linear_1456_21)"/>
<path id="&#60;Compound Path&#62;_2" fill-rule="evenodd" clip-rule="evenodd" d="M13.3485 9.62875C13.3485 8.10945 13.7826 6.80721 14.6507 5.722C15.736 4.41975 17.0381 3.76861 18.5574 3.76861C19.8597 3.76861 21.0534 4.41975 22.1386 5.722C23.0068 7.02425 23.4409 8.3265 23.4409 9.62875C23.4409 11.148 23.0068 12.5588 22.1386 13.8611C21.0534 14.9463 19.7512 15.4889 18.2319 15.4889C16.7127 15.4889 15.5189 14.9463 14.6507 13.8611C13.7826 12.5588 13.3485 11.148 13.3485 9.62875ZM18.2319 13.5355C19.1001 13.5355 19.8597 13.1014 20.5108 12.2333C20.9449 11.5821 21.162 10.714 21.162 9.62875C21.162 8.76058 20.9449 8.00094 20.5108 7.34982C19.8597 6.48165 19.1001 6.04759 18.2319 6.04759C17.3638 6.04759 16.6041 6.48165 15.953 7.34982C15.5189 8.00094 15.3018 8.76058 15.3018 9.62875C15.3018 10.714 15.6274 11.5821 16.2786 12.2333C16.7126 13.1014 17.3638 13.5355 18.2319 13.5355Z" fill="url(#paint1_linear_1456_21)"/>
<path id="&#60;Compound Path&#62;_3" d="M27.6729 4.74531C28.5411 4.09418 29.3007 3.76861 29.9518 3.76861C31.037 3.76861 32.0138 4.31121 32.8819 5.39642C33.7501 4.31121 34.7268 3.76861 35.812 3.76861C36.6801 3.76861 37.4397 4.20272 38.0908 5.07089C38.959 5.72201 39.3932 6.48165 39.3932 7.34982V14.5122C39.3932 15.1633 39.0676 15.4889 38.4164 15.4889C37.5483 15.4889 37.1142 15.1633 37.1142 14.5122V7.34982C37.1142 6.91573 37.0057 6.59016 36.7886 6.37312C36.5716 6.15608 36.246 6.04759 35.812 6.04759C34.9438 6.04759 34.1841 6.59019 33.533 7.6754V14.5122C33.533 15.1633 33.2075 15.4889 32.5563 15.4889C31.6882 15.4889 31.2541 15.1633 31.2541 14.5122V7.34982C31.2541 6.91573 31.1456 6.59016 30.9285 6.37312C30.7115 6.15608 30.3859 6.04759 29.9518 6.04759C29.0836 6.04759 28.324 6.59019 27.6729 7.6754V14.5122C27.6729 15.1633 27.3473 15.4889 26.6962 15.4889C25.828 15.4889 25.3939 15.1633 25.3939 14.5122V5.07089C25.3939 4.20272 25.828 3.76861 26.6962 3.76861C27.1302 3.76861 27.4559 4.09418 27.6729 4.74531Z" fill="url(#paint2_linear_1456_21)"/>
<path id="&#60;Compound Path&#62;_4" fill-rule="evenodd" clip-rule="evenodd" d="M43.9506 5.07089C45.0358 4.20272 46.121 3.76861 47.2062 3.76861C48.5085 3.76861 49.7022 4.41975 50.7874 5.722C51.6556 7.02425 52.0897 8.3265 52.0897 9.62875C52.0897 11.148 51.6556 12.5588 50.7874 13.8611C49.7022 15.1633 48.3999 15.8145 46.8806 15.8145C45.7954 15.8145 44.8188 15.3804 43.9506 14.5122V18.4189C43.9506 19.0701 43.625 19.3956 42.9738 19.3956C42.3227 19.3956 41.9972 19.0701 41.9972 18.4189V5.07089C41.9972 4.20272 42.3227 3.76861 42.9738 3.76861C43.625 3.76861 43.9506 4.20272 43.9506 5.07089ZM43.9506 9.62875C43.9506 10.4969 44.2761 11.3651 44.9272 12.2333C45.5784 13.1014 46.338 13.5355 47.2062 13.5355C48.0744 13.5355 48.7255 13.1014 49.1596 12.2333C49.8107 11.3651 50.1363 10.4969 50.1363 9.62875C50.1363 8.76058 49.8107 8.00094 49.1596 7.34982C48.5085 6.48165 47.7488 6.04759 46.8806 6.04759C46.0125 6.04759 45.3613 6.48165 44.9272 7.34982C44.2761 8.00094 43.9506 8.76058 43.9506 9.62875Z" fill="url(#paint3_linear_1456_21)"/>
<path id="&#60;Compound Path&#62;_5" d="M60.88 11.5821V5.07089C60.88 4.20272 61.2056 3.76861 61.8568 3.76861C62.5079 3.76861 62.8334 4.20272 62.8334 5.07089V14.5122C62.8334 15.1633 62.5079 15.4889 61.8568 15.4889C61.2056 15.4889 60.88 15.1633 60.88 14.5122C60.0119 15.1633 59.1437 15.4889 58.2756 15.4889C57.1904 15.4889 56.2137 15.1633 55.3455 14.5122C54.6944 13.8611 54.3688 12.9929 54.3688 11.9077V5.07089C54.3688 4.20272 54.8029 3.76861 55.6711 3.76861C56.3222 3.76861 56.6478 4.20272 56.6478 5.07089V11.9077C56.6478 12.3418 56.7563 12.6673 56.9733 12.8844C57.4074 13.3185 57.8415 13.5355 58.2756 13.5355C59.1437 13.5355 60.0119 12.8844 60.88 11.5821Z" fill="url(#paint4_linear_1456_21)"/>
<path id="&#60;Compound Path&#62;_6" d="M67.7172 4.74531C68.5854 4.09418 69.3451 3.76861 69.9962 3.76861C71.0814 3.76861 72.0581 4.31121 72.9263 5.39642C73.7944 4.31121 74.7711 3.76861 75.8563 3.76861C76.7245 3.76861 77.4842 4.20272 78.1353 5.07089C79.0034 5.72201 79.4375 6.48165 79.4375 7.34982V14.5122C79.4375 15.1633 79.112 15.4889 78.4609 15.4889C77.5927 15.4889 77.1585 15.1633 77.1585 14.5122V7.34982C77.1585 6.91573 77.0501 6.59016 76.833 6.37312C76.616 6.15608 76.2904 6.04759 75.8563 6.04759C74.9881 6.04759 74.2285 6.59019 73.5774 7.6754V14.5122C73.5774 15.1633 73.2518 15.4889 72.6007 15.4889C71.7325 15.4889 71.2984 15.1633 71.2984 14.5122V7.34982C71.2984 6.91573 71.1899 6.59016 70.9729 6.37312C70.7558 6.15608 70.4303 6.04759 69.9962 6.04759C69.128 6.04759 68.3684 6.59019 67.7172 7.6754V14.5122C67.7172 15.1633 67.3917 15.4889 66.7406 15.4889C65.8724 15.4889 65.4384 15.1633 65.4384 14.5122V5.07089C65.4384 4.20272 65.8724 3.76861 66.7406 3.76861C67.1747 3.76861 67.5002 4.09418 67.7172 4.74531Z" fill="url(#paint5_linear_1456_21)"/>
<path id="&#60;Compound Path&#62;_7" fill-rule="evenodd" clip-rule="evenodd" d="M86.5995 15.489C85.2973 15.489 84.1035 14.9464 83.0183 13.8612C81.9331 12.5589 81.3905 11.1481 81.3905 9.62885C81.3905 8.10955 81.8246 6.80731 82.6927 5.7221C83.7779 4.6369 85.0802 4.09429 86.5995 4.09429C88.1188 4.09429 89.3125 4.6369 90.1806 5.7221C91.0488 6.80731 91.483 8.00106 91.483 9.30331C91.483 9.7374 91.3744 10.0629 91.1574 10.28C90.9403 10.497 90.7233 10.6055 90.5062 10.6055H83.6694C83.6694 11.2567 83.995 11.9078 84.6461 12.5589C85.2973 13.2101 85.9484 13.5356 86.5995 13.5356C87.2507 13.5356 87.9017 13.2101 88.5528 12.5589C88.9869 12.1249 89.3125 11.9078 89.5296 11.9078C89.7466 11.9078 89.9636 11.9078 90.1806 11.9078C90.3977 12.1248 90.5062 12.4504 90.5062 12.8845C90.5062 13.5356 90.0722 14.1867 89.204 14.8379C88.3358 15.272 87.4677 15.489 86.5995 15.489ZM83.6694 8.32662H89.204C88.9869 7.67549 88.6614 7.13289 88.2273 6.6988C87.7933 6.26472 87.2507 6.04769 86.5995 6.04769C85.9484 6.04769 85.2973 6.26472 84.6461 6.6988C84.212 7.13289 83.8864 7.67549 83.6694 8.32662Z" fill="url(#paint6_linear_1456_21)"/>
<path id="&#60;Compound Path&#62;_8" d="M88.2273 24.9302C87.5762 24.2791 86.9251 23.9535 86.2739 23.9535C85.4058 23.9535 84.7546 24.2791 84.3205 24.9302C83.6694 25.7984 83.3439 26.6665 83.3439 27.5347C83.3439 28.6199 83.6694 29.4881 84.3205 30.1392C84.9717 31.0074 85.6228 31.4414 86.2739 31.4414C87.1421 31.4414 87.9017 31.0074 88.5528 30.1392C88.7699 29.7051 89.0955 29.4881 89.5296 29.4881C89.7466 29.4881 89.9636 29.5966 90.1806 29.8136C90.1806 30.0307 90.1806 30.3562 90.1806 30.7903C90.1806 31.2244 90.0722 31.55 89.8552 31.767C88.7699 32.8522 87.5762 33.3948 86.2739 33.3948C84.9717 33.3948 83.7779 32.8522 82.6927 31.767C81.8246 30.6818 81.3905 29.271 81.3905 27.5347C81.3905 26.0154 81.8246 24.7132 82.6927 23.628C83.7779 22.3257 84.9717 21.6746 86.2739 21.6746C87.5762 21.6746 88.7699 22.2172 89.8552 23.3024C90.0722 23.5194 90.1806 23.7365 90.1806 23.9535C90.1806 24.3876 90.0722 24.7131 89.8552 24.9302C89.6381 25.1472 89.421 25.2558 89.204 25.2558C88.7699 25.2558 88.4444 25.1472 88.2273 24.9302Z" fill="url(#paint7_linear_1456_21)"/>
<path id="&#60;Compound Path&#62;_9" d="M96.3668 25.2559L93.4367 32.7438C93.2197 33.1779 92.8941 33.3949 92.46 33.3949C92.243 33.3949 92.0259 33.3949 91.8089 33.3949C91.5918 33.1779 91.4834 32.8523 91.4834 32.4182C91.4834 32.4182 91.4834 32.3097 91.4834 32.0927L95.0645 22.6513C95.2816 22.4343 95.4986 22.2173 95.7157 22.0002C95.9327 22.0002 96.0413 22.0002 96.0413 22.0002H96.6923C96.9094 22.0002 97.1264 22.0002 97.3435 22.0002C97.5605 22.2173 97.6691 22.4343 97.6691 22.6513L101.25 32.0927C101.25 32.3097 101.25 32.4182 101.25 32.4182C101.25 32.8523 101.142 33.1779 100.925 33.3949C100.708 33.3949 100.491 33.3949 100.274 33.3949C99.8394 33.3949 99.5139 33.1779 99.2969 32.7438L96.3668 25.2559Z" fill="url(#paint8_linear_1456_21)"/>
<path id="&#60;Compound Path&#62;_10" fill-rule="evenodd" clip-rule="evenodd" d="M102.878 27.5347C102.878 26.2324 103.312 24.9302 104.18 23.628C105.265 22.3257 106.568 21.6746 108.087 21.6746C109.389 21.6746 110.583 22.3257 111.668 23.628C112.536 24.9302 112.97 26.2324 112.97 27.5347C112.97 29.054 112.536 30.4648 111.668 31.767C110.583 32.8522 109.281 33.3948 107.761 33.3948C106.459 33.3948 105.265 32.8522 104.18 31.767C103.312 30.4648 102.878 29.054 102.878 27.5347ZM107.761 31.4414C108.63 31.4414 109.389 31.0074 110.04 30.1392C110.474 29.4881 110.692 28.6199 110.692 27.5347C110.692 26.6665 110.474 25.9069 110.04 25.2558C109.389 24.3876 108.63 23.9535 107.761 23.9535C106.893 23.9535 106.242 24.3876 105.808 25.2558C105.157 25.9069 104.831 26.6665 104.831 27.5347C104.831 28.6199 105.157 29.4881 105.808 30.1392C106.242 31.0074 106.893 31.4414 107.761 31.4414Z" fill="url(#paint9_linear_1456_21)"/>
<path id="&#60;Compound Path&#62;_11" d="M121.434 29.4881V22.9769C121.434 22.3258 121.76 22.0002 122.411 22.0002C123.279 22.0002 123.713 22.3258 123.713 22.9769V32.4182C123.713 33.2863 123.279 33.7205 122.411 33.7205C121.76 33.7205 121.434 33.2863 121.434 32.4182C120.783 33.0693 119.915 33.3949 118.83 33.3949C117.745 33.3949 116.877 33.0693 116.225 32.4182C115.574 31.7671 115.249 30.8989 115.249 29.8137V22.9769C115.249 22.3258 115.574 22.0002 116.225 22.0002C116.877 22.0002 117.202 22.3258 117.202 22.9769V29.8137C117.202 30.2478 117.311 30.6819 117.528 31.116C117.962 31.333 118.396 31.4415 118.83 31.4415C119.698 31.4415 120.566 30.7904 121.434 29.4881ZM117.202 18.0934H121.434C122.303 18.0934 122.737 18.5275 122.737 19.3957C122.737 20.0468 122.303 20.3724 121.434 20.3724H117.202C116.334 20.3724 115.9 20.0468 115.9 19.3957C115.9 18.5275 116.334 18.0934 117.202 18.0934Z" fill="url(#paint10_linear_1456_21)"/>
<path id="&#60;Compound Path&#62;_12" d="M6.51125 47.0685C5.64309 47.5025 4.77486 47.7196 3.90669 47.7196C2.82148 47.7196 1.95336 47.2855 1.30223 46.4173C0.434064 45.7662 0 44.898 0 43.8128V40.8828C0 40.2317 0.325523 39.9061 0.976648 39.9061C1.84482 39.9061 2.27888 40.4487 2.27888 41.5339C2.27888 41.7509 2.27888 42.0765 2.27888 42.5106C2.06184 42.7276 1.9534 42.9447 1.9534 43.1617C1.9534 44.898 2.60444 45.7662 3.90669 45.7662C4.9919 45.7662 5.86013 45.2236 6.51125 44.1384V40.8828C6.51125 40.0146 6.83678 39.5805 7.4879 39.5805C8.13903 39.5805 8.46465 40.0146 8.46465 40.8828V50.3241C8.46465 51.1922 8.13903 51.6264 7.4879 51.6264C6.83678 51.6264 6.51125 51.1922 6.51125 50.3241V47.0685Z" fill="url(#paint11_linear_1456_21)"/>
<path id="&#60;Compound Path&#62;_13" d="M12.697 40.5573C13.5652 40.1232 14.3249 39.9062 14.976 39.9062C16.2783 39.9062 17.2549 40.3402 17.9061 41.2084C18.7742 40.3402 19.7509 39.9062 20.8361 39.9062C21.9213 39.9062 22.7895 40.2317 23.4406 40.8829C24.0917 41.534 24.4173 42.4022 24.4173 43.4874V50.3242C24.4173 51.1923 24.0917 51.6264 23.4406 51.6264C22.7895 51.6264 22.4639 51.1923 22.4639 50.3242V43.4874C22.4639 43.0533 22.2468 42.6192 21.8128 42.1851C21.5957 41.9681 21.2702 41.8596 20.8361 41.8596C20.185 41.8596 19.4253 42.5107 18.5571 43.8129V50.3242C18.5571 51.1923 18.2316 51.6264 17.5805 51.6264C16.9294 51.6264 16.6038 51.1923 16.6038 50.3242V43.4874C16.6038 43.0533 16.3868 42.6192 15.9527 42.1851C15.7356 41.9681 15.4101 41.8596 14.976 41.8596C14.3249 41.8596 13.5652 42.5107 12.697 43.8129V50.3242C12.697 51.1923 12.3715 51.6264 11.7204 51.6264C11.0693 51.6264 10.7437 51.1923 10.7437 50.3242V40.8829C10.7437 40.2317 11.0693 39.9062 11.7204 39.9062C12.3715 39.9062 12.697 40.1232 12.697 40.5573Z" fill="url(#paint12_linear_1456_21)"/>
<path id="&#60;Compound Path&#62;_14" fill-rule="evenodd" clip-rule="evenodd" d="M26.696 45.7662C26.696 44.2469 27.1302 42.8362 27.9984 41.5339C29.0836 40.2317 30.3858 39.5805 31.9051 39.5805C33.2073 39.5805 34.4011 40.2317 35.4863 41.5339C36.3544 42.8362 36.7885 44.2469 36.7885 45.7662C36.7885 47.2855 36.3544 48.5878 35.4863 49.673C34.4011 50.9752 33.0988 51.6264 31.5795 51.6264C30.0602 51.6264 28.8665 50.9752 27.9984 49.673C27.1302 48.5878 26.696 47.2855 26.696 45.7662ZM31.5795 49.3474C32.4477 49.3474 33.2073 48.9133 33.8585 48.0452C34.2925 47.394 34.5096 46.6344 34.5096 45.7662C34.5096 44.681 34.2925 43.8128 33.8585 43.1617C33.2073 42.2935 32.4477 41.8595 31.5795 41.8595C30.7113 41.8595 29.9517 42.2935 29.3006 43.1617C28.8665 43.8128 28.6494 44.681 28.6494 45.7662C28.6494 46.6344 28.9751 47.394 29.6262 48.0452C30.0603 48.9133 30.7113 49.3474 31.5795 49.3474Z" fill="url(#paint13_linear_1456_21)"/>
<path id="&#60;Compound Path&#62;_15" fill-rule="evenodd" clip-rule="evenodd" d="M41.3464 40.8828C42.2146 40.0146 43.1913 39.5805 44.2765 39.5805C45.5788 39.5805 46.7724 40.2316 47.8576 41.5339C48.7258 42.8361 49.16 44.2469 49.16 45.7662C49.16 47.0685 48.7258 48.3707 47.8576 49.673C46.9895 50.9752 45.7958 51.6264 44.2765 51.6264C42.9743 51.6264 41.7805 50.9752 40.6953 49.673C39.6101 48.3707 39.0675 47.0685 39.0675 45.7662V41.2083C39.0675 39.9061 39.6101 38.7124 40.6953 37.6272C41.5635 36.759 42.7572 36.3249 44.2765 36.3249H47.2066C47.8577 36.3249 48.1832 36.6504 48.1832 37.3016C48.1832 37.9527 47.8577 38.2783 47.2066 38.2783H44.2765C43.4084 38.2783 42.7572 38.4953 42.3231 38.9294C41.672 39.5805 41.3464 40.2317 41.3464 40.8828ZM41.3464 45.7662C41.3464 46.6344 41.5635 47.394 41.9975 48.0451C42.6487 48.9133 43.4084 49.3474 44.2765 49.3474C45.1447 49.3474 45.9043 48.9133 46.5554 48.0451C46.9895 47.394 47.2066 46.6344 47.2066 45.7662C47.2066 44.681 46.8809 43.8128 46.2298 43.1617C45.7957 42.2935 45.1447 41.8595 44.2765 41.8595C43.4084 41.8595 42.6487 42.2935 41.9975 43.1617C41.5635 44.0299 41.3464 44.8981 41.3464 45.7662Z" fill="url(#paint14_linear_1456_21)"/>
<path id="&#60;Compound Path&#62;_16" fill-rule="evenodd" clip-rule="evenodd" d="M54.0431 43.8129H56.322C57.4072 43.8129 58.3839 44.1385 59.2521 44.7896C59.9032 45.6578 60.2288 46.6344 60.2288 47.7197C60.2288 48.8049 59.9032 49.673 59.2521 50.3242C58.3839 51.1923 57.4072 51.6264 56.322 51.6264H52.7408C52.5238 51.6264 52.3068 51.5179 52.0897 51.3009C51.8727 51.0838 51.7642 50.7583 51.7642 50.3242V41.2084C51.7642 40.5573 52.0897 40.2318 52.7408 40.2318C53.609 40.2318 54.0431 40.5573 54.0431 41.2084V43.8129ZM54.0431 45.7663V49.3475H56.322C56.7561 49.3475 57.1902 49.239 57.6242 49.0219C58.0583 48.5879 58.2754 48.1537 58.2754 47.7197C58.2754 47.2856 58.0583 46.8515 57.6242 46.4174C57.1902 45.9833 56.7561 45.7663 56.322 45.7663H54.0431ZM64.1355 40.8829V50.6498C64.1355 51.3009 63.81 51.6264 63.1589 51.6264C62.5077 51.6264 62.1822 51.3009 62.1822 50.6498V40.8829C62.1822 40.2317 62.5077 39.9062 63.1589 39.9062C63.81 39.9062 64.1355 40.2317 64.1355 40.8829Z" fill="url(#paint15_linear_1456_21)"/>
<path id="&#60;Compound Path&#62;_17" d="M69.67 40.8828C69.67 40.0146 70.1041 39.5805 70.9723 39.5805C71.1893 39.5805 71.4064 39.7976 71.6234 40.2317C71.8405 40.4487 71.949 40.6657 71.949 40.8828C72.8172 40.2317 73.6853 39.9061 74.5535 39.9061C75.6387 39.9061 76.5068 40.2317 77.1579 40.8828C77.8091 41.5339 78.1347 42.4021 78.1347 43.4873V50.3241C78.1347 51.1922 77.8091 51.6264 77.1579 51.6264C76.5068 51.6264 76.1813 51.1922 76.1813 50.3241V43.4873C76.1813 43.0532 76.0728 42.7276 75.8557 42.5106C75.4216 42.0765 74.9876 41.8595 74.5535 41.8595C73.6853 41.8595 72.8172 42.5106 71.949 43.8128V50.3241C71.949 51.1922 71.6234 51.6264 70.9723 51.6264C70.1041 51.6264 69.67 51.1922 69.67 50.3241V40.8828Z" fill="url(#paint16_linear_1456_21)"/>
<path id="&#60;Compound Path&#62;_18" fill-rule="evenodd" clip-rule="evenodd" d="M80.4138 45.7662C80.4138 44.2469 80.9564 42.8362 82.0416 41.5339C82.9098 40.2317 84.1035 39.5805 85.6228 39.5805C87.1421 39.5805 88.3359 40.2317 89.204 41.5339C90.0722 42.8362 90.5063 44.2469 90.5063 45.7662C90.5063 47.2855 90.0722 48.5878 89.204 49.673C88.1188 50.9752 86.9251 51.6264 85.6228 51.6264C84.1035 51.6264 82.8014 50.9752 81.7161 49.673C80.848 48.5878 80.4138 47.2855 80.4138 45.7662ZM85.6228 49.3474C86.491 49.3474 87.1422 48.9133 87.5762 48.0452C88.2274 47.394 88.5529 46.6344 88.5529 45.7662C88.5529 44.681 88.2274 43.8128 87.5762 43.1617C87.1422 42.2935 86.491 41.8595 85.6228 41.8595C84.7547 41.8595 83.9951 42.2935 83.344 43.1617C82.9099 43.8128 82.6928 44.681 82.6928 45.7662C82.6928 46.6344 82.9099 47.394 83.344 48.0452C83.9951 48.9133 84.7547 49.3474 85.6228 49.3474Z" fill="url(#paint17_linear_1456_21)"/>
<path id="&#60;Compound Path&#62;_19" d="M97.0178 43.1618L94.0878 50.6498C93.8708 51.3009 93.5452 51.6264 93.1111 51.6264C92.8941 51.6264 92.677 51.5179 92.46 51.3009C92.2429 51.0838 92.1344 50.7583 92.1344 50.3242C92.1344 50.3242 92.1344 50.2157 92.1344 49.9986L95.7156 40.5573C95.7156 40.3402 95.8241 40.1232 96.0412 39.9062C96.2582 39.9062 96.4752 39.9062 96.6923 39.9062H97.3434C97.3434 39.9062 97.452 39.9062 97.669 39.9062C97.886 40.1232 98.103 40.3402 98.3201 40.5573L101.901 49.9986C101.901 50.2157 101.901 50.3242 101.901 50.3242C101.901 50.7583 101.793 51.0838 101.576 51.3009C101.359 51.5179 101.142 51.6264 100.925 51.6264C100.491 51.6264 100.165 51.3009 99.9479 50.6498L97.0178 43.1618Z" fill="url(#paint18_linear_1456_21)"/>
<path id="&#60;Compound Path&#62;_20" d="M108.087 47.7197L111.017 40.5573C111.234 40.1232 111.559 39.9062 111.993 39.9062C112.21 39.9062 112.427 40.0147 112.645 40.2318C112.862 40.2318 112.97 40.4488 112.97 40.8829C112.97 40.8829 112.97 40.9914 112.97 41.2084L107.435 54.5565C107.218 54.9906 106.893 55.2076 106.459 55.2076C106.242 55.2076 106.025 55.0991 105.808 54.8821C105.591 54.665 105.482 54.448 105.482 54.2309C105.482 54.0139 105.482 53.9054 105.482 53.9054L106.784 50.3242L103.203 41.2084C103.203 40.9914 103.203 40.8829 103.203 40.8829C103.203 40.4488 103.312 40.2318 103.529 40.2318C103.746 40.0147 103.963 39.9062 104.18 39.9062C104.614 39.9062 104.939 40.1232 105.157 40.5573L108.087 47.7197Z" fill="url(#paint19_linear_1456_21)"/>
<path id="&#60;Compound Path&#62;_21" d="M120.784 47.0685C120.133 47.5025 119.373 47.7196 118.505 47.7196C117.419 47.7196 116.443 47.2855 115.575 46.4173C114.924 45.7662 114.598 44.898 114.598 43.8128V40.8828C114.598 40.2317 114.924 39.9061 115.575 39.9061C116.226 39.9061 116.551 40.4487 116.551 41.5339C116.551 41.7509 116.551 42.0765 116.551 42.5106C116.551 42.7276 116.551 42.9447 116.551 43.1617C116.551 44.898 117.202 45.7662 118.505 45.7662C119.59 45.7662 120.35 45.2236 120.784 44.1384V40.8828C120.784 40.0146 121.109 39.5805 121.76 39.5805C122.628 39.5805 123.063 40.0146 123.063 40.8828V50.3241C123.063 51.1922 122.628 51.6264 121.76 51.6264C121.109 51.6264 120.784 51.1922 120.784 50.3241V47.0685Z" fill="url(#paint20_linear_1456_21)"/>
<path id="&#60;Compound Path&#62;_22" d="M131.527 47.3941V40.8829C131.527 40.2317 131.961 39.9062 132.83 39.9062C133.481 39.9062 133.806 40.2317 133.806 40.8829V50.3242C133.806 51.1923 133.481 51.6264 132.83 51.6264C131.961 51.6264 131.527 51.1923 131.527 50.3242C130.876 50.9753 130.008 51.3009 128.923 51.3009C127.838 51.3009 126.969 50.9753 126.318 50.3242C125.667 49.673 125.342 48.8049 125.342 47.7197V40.8829C125.342 40.2317 125.667 39.9062 126.318 39.9062C126.969 39.9062 127.295 40.2317 127.295 40.8829V47.7197C127.295 48.1537 127.512 48.5879 127.946 49.0219C128.163 49.239 128.489 49.3475 128.923 49.3475C129.791 49.3475 130.659 48.6964 131.527 47.3941Z" fill="url(#paint21_linear_1456_21)"/>
<path id="&#60;Compound Path&#62;_23" d="M138.364 40.5573C139.232 40.1232 139.992 39.9062 140.643 39.9062C141.728 39.9062 142.705 40.3402 143.573 41.2084C144.441 40.3402 145.418 39.9062 146.503 39.9062C147.371 39.9062 148.239 40.2317 149.107 40.8829C149.758 41.534 150.084 42.4022 150.084 43.4874V50.3242C150.084 51.1923 149.758 51.6264 149.107 51.6264C148.456 51.6264 148.131 51.1923 148.131 50.3242V43.4874C148.131 43.0533 147.914 42.6192 147.48 42.1851C147.262 41.9681 146.937 41.8596 146.503 41.8596C145.635 41.8596 144.875 42.5107 144.224 43.8129V50.3242C144.224 51.1923 143.898 51.6264 143.247 51.6264C142.596 51.6264 142.27 51.1923 142.27 50.3242V43.4874C142.27 43.0533 142.054 42.6192 141.619 42.1851C141.402 41.9681 141.077 41.8596 140.643 41.8596C139.775 41.8596 139.015 42.5107 138.364 43.8129V50.3242C138.364 51.1923 138.038 51.6264 137.387 51.6264C136.736 51.6264 136.41 51.1923 136.41 50.3242V40.8829C136.41 40.2317 136.736 39.9062 137.387 39.9062C137.821 39.9062 138.147 40.1232 138.364 40.5573Z" fill="url(#paint22_linear_1456_21)"/>
<path id="&#60;Compound Path&#62;_24" fill-rule="evenodd" clip-rule="evenodd" d="M154.643 43.4874H156.921C158.007 43.4874 158.875 43.9214 159.526 44.7896C160.394 45.4407 160.828 46.3089 160.828 47.3941C160.828 48.4793 160.394 49.3475 159.526 49.9986C158.875 50.8668 158.007 51.3009 156.921 51.3009H153.34C153.123 51.3009 152.906 51.1923 152.689 50.9753C152.472 50.7582 152.364 50.5412 152.364 50.3242V40.8829C152.364 40.2317 152.689 39.9062 153.34 39.9062C154.208 39.9062 154.643 40.2317 154.643 40.8829V43.4874ZM154.643 45.7663V49.3475H156.921C157.355 49.3475 157.79 49.1304 158.224 48.6964C158.658 48.4793 158.875 48.0452 158.875 47.3941C158.875 46.96 158.658 46.5259 158.224 46.0918C157.79 45.8748 157.355 45.7663 156.921 45.7663H154.643Z" fill="url(#paint23_linear_1456_21)"/>
<path id="&#60;Compound Path&#62;_25" d="M0.325806 58.7888C0.325806 58.1377 0.651329 57.8121 1.30245 57.8121C1.73654 57.8121 2.06206 57.9207 2.2791 58.1377C2.2791 58.3547 2.2791 58.5718 2.2791 58.7888C3.14727 58.1377 4.12404 57.8121 5.20925 57.8121C6.29445 57.8121 7.16258 58.1377 7.81371 58.7888C8.46483 59.4399 8.79035 60.3081 8.79035 61.3933V68.2301C8.79035 69.0983 8.46483 69.5324 7.81371 69.5324C7.16258 69.5324 6.83706 69.0983 6.83706 68.2301V61.3933C6.83706 60.9592 6.61998 60.6337 6.18589 60.4166C5.96885 59.9825 5.64333 59.7655 5.20925 59.7655C4.12404 59.7655 3.14727 60.4166 2.2791 61.7189V68.2301C2.2791 69.0983 1.95358 69.5324 1.30245 69.5324C0.651329 69.5324 0.325806 69.0983 0.325806 68.2301V58.7888Z" fill="url(#paint24_linear_1456_21)"/>
<path id="&#60;Compound Path&#62;_26" fill-rule="evenodd" clip-rule="evenodd" d="M11.0688 63.6723C11.0688 62.153 11.5029 60.7422 12.3711 59.4399C13.4563 58.3547 14.7586 57.8121 16.2779 57.8121C17.5801 57.8121 18.7739 58.4633 19.8591 59.7655C20.7272 60.8507 21.1613 62.153 21.1613 63.6723C21.1613 65.1915 20.7272 66.4938 19.8591 67.579C18.7739 68.8812 17.4716 69.5324 15.9523 69.5324C14.65 69.5324 13.4563 68.8812 12.3711 67.579C11.5029 66.4938 11.0688 65.1915 11.0688 63.6723ZM15.9523 67.2534C16.8205 67.2534 17.5801 66.8194 18.2313 65.9512C18.6653 65.3001 18.8823 64.5404 18.8823 63.6723C18.8823 62.587 18.6653 61.7189 18.2313 61.0677C17.5801 60.1996 16.8205 59.7655 15.9523 59.7655C15.0841 59.7655 14.433 60.1996 13.9989 61.0677C13.3478 61.7189 13.0222 62.587 13.0222 63.6723C13.0222 64.5404 13.3478 65.3001 13.9989 65.9512C14.433 66.8194 15.0841 67.2534 15.9523 67.2534Z" fill="url(#paint25_linear_1456_21)"/>
<path id="&#60;Compound Path&#62;_27" fill-rule="evenodd" clip-rule="evenodd" d="M29.6265 71.1602C30.0606 71.1602 30.4946 70.9431 30.9287 70.509C31.1458 70.292 31.2543 69.9665 31.2543 69.5324V68.2301C30.3861 69.0983 29.3009 69.5324 27.9987 69.5324C26.6964 69.5324 25.6112 68.8812 24.743 67.579C23.6578 66.2767 23.1152 64.9745 23.1152 63.6723C23.1152 62.153 23.6578 60.7422 24.743 59.4399C25.8283 58.3547 27.0219 57.8121 28.3242 57.8121C29.4094 57.8121 30.3861 58.1377 31.2543 58.7888C31.2543 58.1377 31.5798 57.8121 32.2309 57.8121C32.8821 57.8121 33.2076 58.1377 33.2076 58.7888V69.5324C33.2076 70.4006 32.8821 71.2687 32.2309 72.1369C31.5798 72.788 30.7117 73.1136 29.6265 73.1136H28.3242C26.8049 73.1136 25.6112 72.788 24.743 72.1369C24.309 71.9198 24.0919 71.5943 24.0919 71.1602C24.0919 70.9432 24.2004 70.7261 24.4175 70.509C24.6345 70.292 24.8515 70.1835 25.0685 70.1835C25.2856 70.1835 25.5027 70.1835 25.7197 70.1835C26.3708 70.6176 27.022 70.9432 27.6731 71.1602C27.8901 71.1602 28.5413 71.1602 29.6265 71.1602ZM31.2543 63.6723C31.2543 62.8041 30.9287 61.9359 30.2776 61.0677C29.6264 60.1996 28.9753 59.7655 28.3242 59.7655C27.456 59.7655 26.6964 60.1996 26.0453 61.0677C25.6112 61.9359 25.3941 62.8041 25.3941 63.6723C25.3941 64.5404 25.6112 65.3001 26.0453 65.9512C26.6964 66.8194 27.456 67.2534 28.3242 67.2534C29.1923 67.2534 29.952 66.8194 30.6031 65.9512C31.0372 65.3001 31.2543 64.5404 31.2543 63.6723Z" fill="url(#paint26_linear_1456_21)"/>
<path id="&#60;Compound Path&#62;_28" fill-rule="evenodd" clip-rule="evenodd" d="M43.9506 68.2301C43.9506 69.0983 43.625 69.5324 42.9739 69.5324C42.3227 69.5324 41.9972 69.2068 41.9972 68.5557C40.695 69.2068 39.7183 69.5324 39.0672 69.5324C38.199 69.5324 37.3308 69.0983 36.4626 68.2301C35.8115 67.579 35.486 66.7108 35.486 65.6256C35.486 64.7574 35.8115 63.9978 36.4626 63.3467C36.8967 62.6955 37.5478 62.2615 38.416 62.0444L41.9972 61.3933V61.0677C41.9972 60.1996 41.4546 59.7655 40.3694 59.7655C39.7183 59.7655 39.0671 59.9825 38.416 60.4166C37.7649 61.0678 37.3308 61.3933 37.1138 61.3933C36.8967 61.3933 36.6797 61.2848 36.4626 61.0677C36.2456 60.8507 36.1371 60.6337 36.1371 60.4166C36.1371 60.1996 36.1371 59.9826 36.1371 59.7655C37.2223 58.4633 38.7416 57.8121 40.695 57.8121C41.5632 57.8121 42.3227 58.1377 42.9739 58.7888C43.625 59.4399 43.9506 60.1996 43.9506 61.0677V68.2301ZM41.9972 63.3467C38.9586 63.5637 37.4394 64.3234 37.4394 65.6256C37.4394 66.0597 37.6563 66.3853 38.0904 66.6023C38.3075 67.0364 38.6331 67.2534 39.0672 67.2534C39.7183 67.2534 40.695 66.9279 41.9972 66.2768V63.3467Z" fill="url(#paint27_linear_1456_21)"/>
<path id="&#60;Compound Path&#62;_29" fill-rule="evenodd" clip-rule="evenodd" d="M48.5088 58.7888C49.377 58.1377 50.3537 57.8121 51.4389 57.8121C52.7411 57.8121 53.9349 58.3547 55.0201 59.4399C55.8883 60.7422 56.3223 62.153 56.3223 63.6723C56.3223 64.9745 55.8883 66.2767 55.0201 67.579C53.9349 68.8812 52.6326 69.5324 51.1133 69.5324C50.0281 69.5324 49.16 69.0983 48.5088 68.2301V72.1369C48.5088 72.788 48.0748 73.1136 47.2066 73.1136C46.5555 73.1136 46.2299 72.788 46.2299 72.1369V58.7888C46.2299 58.1377 46.5555 57.8121 47.2066 57.8121C48.0748 57.8121 48.5088 58.1377 48.5088 58.7888ZM48.5088 63.6723C48.5088 64.5404 48.7259 65.3001 49.16 65.9512C49.8111 67.0364 50.5707 67.579 51.4389 67.579C52.307 67.579 52.9582 67.0364 53.3923 65.9512C54.0434 65.3001 54.3689 64.5404 54.3689 63.6723C54.3689 62.8041 54.0434 61.9359 53.3923 61.0677C52.7412 60.1996 51.9815 59.7655 51.1133 59.7655C50.4622 59.7655 49.8111 60.1996 49.16 61.0677C48.7259 61.9359 48.5088 62.8041 48.5088 63.6723Z" fill="url(#paint28_linear_1456_21)"/>
<path id="&#60;Compound Path&#62;_30" fill-rule="evenodd" clip-rule="evenodd" d="M58.2754 63.6723C58.2754 62.153 58.818 60.7422 59.9032 59.4399C60.7714 58.3547 61.9651 57.8121 63.4844 57.8121C65.0037 57.8121 66.1975 58.4633 67.0656 59.7655C67.9338 60.8507 68.3679 62.153 68.3679 63.6723C68.3679 65.1915 67.9338 66.4938 67.0656 67.579C66.1975 68.8812 65.0037 69.5324 63.4844 69.5324C61.9651 69.5324 60.6628 68.8812 59.5776 67.579C58.7095 66.4938 58.2754 65.1915 58.2754 63.6723ZM63.4844 67.2534C64.3526 67.2534 65.0037 66.8194 65.4378 65.9512C66.0889 65.3001 66.4145 64.5404 66.4145 63.6723C66.4145 62.587 66.0889 61.7189 65.4378 61.0677C65.0037 60.1996 64.3526 59.7655 63.4844 59.7655C62.6162 59.7655 61.8566 60.1996 61.2054 61.0677C60.7714 61.7189 60.5544 62.587 60.5544 63.6723C60.5544 64.5404 60.7714 65.3001 61.2054 65.9512C61.8566 66.8194 62.6162 67.2534 63.4844 67.2534Z" fill="url(#paint29_linear_1456_21)"/>
<path id="&#60;Compound Path&#62;_31" d="M72.2752 54.882V68.2301C72.2752 69.0982 71.9497 69.5324 71.2985 69.5324C70.6474 69.5324 70.3219 69.0982 70.3219 68.2301V54.882C70.3219 54.2309 70.6474 53.9053 71.2985 53.9053C71.9497 53.9053 72.2752 54.2309 72.2752 54.882ZM72.6008 63.3466C72.6008 62.6955 74.0116 60.9592 76.8332 58.1377C77.0502 57.9206 77.2672 57.8121 77.4842 57.8121C77.9183 57.8121 78.2439 57.9206 78.461 58.1377C78.678 58.3547 78.7864 58.5717 78.7864 58.7888C78.7864 59.0058 78.678 59.2229 78.461 59.4399L74.8798 63.3466L78.461 67.9045C78.678 67.9045 78.7864 68.1216 78.7864 68.5557C78.7864 68.7727 78.678 68.9897 78.461 69.2068C78.2439 69.4238 77.9183 69.5324 77.4842 69.5324C77.2672 69.5324 77.0502 69.3153 76.8332 68.8812C74.0116 65.8426 72.6008 63.9978 72.6008 63.3466Z" fill="url(#paint30_linear_1456_21)"/>
<path id="&#60;Compound Path&#62;_32" fill-rule="evenodd" clip-rule="evenodd" d="M5.20925 33.3949H1.30245C1.08541 33.3949 0.868331 33.2864 0.651289 33.0693C0.434247 32.8523 0.325806 32.6353 0.325806 32.4182V22.9769C0.325806 22.7599 0.434247 22.5429 0.651289 22.3258C0.868331 22.1088 1.08541 22.0002 1.30245 22.0002H5.20925C6.07741 22.0002 6.837 22.3258 7.48812 22.9769C8.13925 23.6281 8.46487 24.3877 8.46487 25.2559C8.46487 26.124 8.13925 26.8837 7.48812 27.5348C8.35629 28.1859 8.79035 28.9455 8.79035 29.8137C8.79035 30.8989 8.35629 31.7671 7.48812 32.4182C6.837 33.0693 6.07741 33.3949 5.20925 33.3949ZM2.2791 26.5581H5.20925C5.42629 26.5581 5.64327 26.4496 5.86031 26.2326C6.29439 26.0155 6.51148 25.6899 6.51148 25.2559C6.51148 25.0388 6.29439 24.8218 5.86031 24.6047C5.64327 24.1707 5.42629 23.9536 5.20925 23.9536H2.2791V26.5581ZM5.20925 28.8371H2.2791V31.4415H5.20925C5.64333 31.4415 5.96885 31.333 6.18589 31.116C6.40294 30.899 6.51148 30.5734 6.51148 30.1393C6.51148 29.7052 6.40294 29.3796 6.18589 29.1626C5.96885 28.9456 5.64333 28.8371 5.20925 28.8371Z" fill="url(#paint31_linear_1456_21)"/>
<path id="&#60;Compound Path&#62;_33" fill-rule="evenodd" clip-rule="evenodd" d="M15.6277 33.3949C14.1084 33.3949 12.8062 32.8523 11.721 31.7671C10.8529 30.6819 10.4187 29.3797 10.4187 27.8604C10.4187 26.124 10.8529 24.7133 11.721 23.628C12.5892 22.5428 13.7828 22.0002 15.3021 22.0002C16.8214 22.0002 18.0152 22.5428 18.8834 23.628C19.7515 24.7133 20.1856 25.907 20.1856 27.2093C20.1856 27.6433 20.1856 27.9689 20.1856 28.1859C19.9685 28.4029 19.643 28.5115 19.2089 28.5115H12.3721C12.5891 29.1626 12.9148 29.8138 13.3488 30.4649C14 31.116 14.651 31.4415 15.3021 31.4415C15.9533 31.4415 16.6044 31.116 17.2555 30.4649C17.6896 30.0308 18.0152 29.8137 18.2323 29.8137C18.6664 29.8137 18.9919 29.9223 19.2089 30.1393C19.426 30.3563 19.5345 30.5734 19.5345 30.7904C19.5345 31.4415 18.9919 32.0927 17.9067 32.7438C17.0385 33.1779 16.2788 33.3949 15.6277 33.3949ZM12.6977 26.2326H18.2323C18.0152 25.5814 17.5811 25.0388 16.93 24.6047C16.4959 24.1707 15.9533 23.9536 15.3021 23.9536C14.651 23.9536 14.1084 24.1707 13.6743 24.6047C13.0232 25.0388 12.6977 25.5814 12.6977 26.2326Z" fill="url(#paint32_linear_1456_21)"/>
<path id="&#60;Compound Path&#62;_34" fill-rule="evenodd" clip-rule="evenodd" d="M24.7428 22.9768C25.611 22.1087 26.5877 21.6746 27.6729 21.6746C29.1922 21.6746 30.3859 22.3257 31.2541 23.628C32.3393 24.9302 32.8819 26.2324 32.8819 27.5347C32.8819 29.054 32.3393 30.4648 31.2541 31.767C30.1689 33.0693 28.9751 33.7204 27.6729 33.7204C26.5877 33.7204 25.611 33.2863 24.7428 32.4181V36.3249C24.7428 36.976 24.4172 37.3016 23.7661 37.3016C23.115 37.3016 22.7894 36.976 22.7894 36.3249V22.9768C22.7894 22.3257 23.115 22.0001 23.7661 22.0001C24.4172 22.0001 24.7428 22.3257 24.7428 22.9768ZM24.7428 27.5347C24.7428 28.6199 25.0683 29.4881 25.7195 30.1392C26.1536 31.0074 26.8047 31.4414 27.6729 31.4414C28.541 31.4414 29.3006 31.0074 29.9517 30.1392C30.3858 29.4881 30.6029 28.7284 30.6029 27.8603C30.6029 26.7751 30.3858 25.9069 29.9517 25.2558C29.3006 24.3876 28.541 23.9535 27.6729 23.9535C26.8047 23.9535 26.045 24.3876 25.3939 25.2558C24.9598 25.9069 24.7428 26.6665 24.7428 27.5347Z" fill="url(#paint33_linear_1456_21)"/>
<path id="&#60;Compound Path&#62;_35" d="M40.6956 27.5347L43.9512 31.767C44.1682 31.9841 44.2768 32.2011 44.2768 32.4181C44.2768 32.8522 44.1682 33.1778 43.9512 33.3948C43.7341 33.6119 43.5171 33.7204 43.3 33.7204C42.8659 33.7204 42.5404 33.5033 42.3234 33.0693C41.6722 32.2011 40.6956 31.0074 39.3933 29.4881L36.4632 33.0693C36.0291 33.5033 35.7036 33.7204 35.4865 33.7204C35.2695 33.7204 35.0524 33.6119 34.8354 33.3948C34.6183 33.1778 34.5099 32.8522 34.5099 32.4181C34.5099 32.2011 34.6183 31.9841 34.8354 31.767L38.091 27.5347L34.8354 23.628C34.6183 23.4109 34.5099 23.1939 34.5099 22.9768C34.5099 22.5428 34.6183 22.2172 34.8354 22.0001C35.0524 21.7831 35.378 21.6746 35.8121 21.6746C36.0292 21.6746 36.2461 21.8916 36.4632 22.3257L39.3933 25.9069C40.0445 24.8217 41.0211 23.628 42.3234 22.3257C42.5404 21.8916 42.7574 21.6746 42.9744 21.6746C43.1915 21.6746 43.4086 21.7831 43.6256 22.0001C43.8426 22.2172 43.9512 22.5428 43.9512 22.9768C43.9512 23.1939 43.9512 23.4109 43.9512 23.628L40.6956 27.5347Z" fill="url(#paint34_linear_1456_21)"/>
<path id="&#60;Compound Path&#62;_36" d="M52.742 26.2326V22.9769C52.742 22.3258 53.0676 22.0002 53.7187 22.0002C54.3698 22.0002 54.6954 22.3258 54.6954 22.9769V32.4182C54.6954 33.2864 54.3698 33.7205 53.7187 33.7205C53.0676 33.7205 52.742 33.2864 52.742 32.4182V28.5115H48.1841V32.4182C48.1841 33.2864 47.8586 33.7205 47.2075 33.7205C46.5563 33.7205 46.2307 33.2864 46.2307 32.4182V22.9769C46.2307 22.3258 46.5563 22.0002 47.2075 22.0002C47.8586 22.0002 48.1841 22.3258 48.1841 22.9769V26.2326H52.742Z" fill="url(#paint35_linear_1456_21)"/>
<path id="&#60;Compound Path&#62;_37" d="M63.8106 29.4882V22.9769C63.8106 22.3258 64.1361 22.0002 64.7872 22.0002C65.4383 22.0002 65.7639 22.3258 65.7639 22.9769V32.4182C65.7639 33.2864 65.4383 33.7205 64.7872 33.7205C64.1361 33.7205 63.8106 33.2864 63.8106 32.4182C62.9424 33.0693 61.9656 33.3949 60.8804 33.3949C59.7952 33.3949 58.9271 33.0693 58.276 32.4182C57.6248 31.7671 57.2993 30.8989 57.2993 29.8137V22.9769C57.2993 22.3258 57.6248 22.0002 58.276 22.0002C58.9271 22.0002 59.2526 22.3258 59.2526 22.9769V29.8137C59.2526 30.2478 59.4697 30.6819 59.9038 31.116C60.1208 31.333 60.5549 31.4415 61.206 31.4415C62.0742 31.4415 62.9424 30.7904 63.8106 29.4882Z" fill="url(#paint36_linear_1456_21)"/>
<path id="&#60;Compound Path&#62;_38" d="M74.8794 29.4881V22.9769C74.8794 22.3258 75.2049 22.0002 75.8561 22.0002C76.5072 22.0002 76.8328 22.3258 76.8328 22.9769V32.4182C76.8328 33.2863 76.5072 33.7205 75.8561 33.7205C75.2049 33.7205 74.8794 33.2863 74.8794 32.4182C74.0113 33.0693 73.0346 33.3949 71.9494 33.3949C70.8642 33.3949 69.9959 33.0693 69.3448 32.4182C68.6937 31.7671 68.3682 30.8989 68.3682 29.8137V22.9769C68.3682 22.3258 68.6937 22.0002 69.3448 22.0002C69.9959 22.0002 70.3216 22.3258 70.3216 22.9769V29.8137C70.3216 30.2478 70.5385 30.6819 70.9726 31.116C71.1897 31.333 71.6237 31.4415 72.2749 31.4415C73.143 31.4415 74.0113 30.7904 74.8794 29.4881ZM70.3216 18.0934H74.8794C75.5305 18.0934 75.8561 18.5275 75.8561 19.3957C75.8561 20.0468 75.5305 20.3724 74.8794 20.3724H70.3216C69.6704 20.3724 69.3448 20.0468 69.3448 19.3957C69.3448 18.5275 69.6704 18.0934 70.3216 18.0934Z" fill="url(#paint37_linear_1456_21)"/>
</g>
<defs>
<linearGradient id="paint0_linear_1456_21" x1="2.31467e-08" y1="6.97629" x2="13.7087" y2="7.00346" gradientUnits="userSpaceOnUse">
<stop offset="0.309726" stop-color="#DFC38E"/>
<stop offset="0.870713" stop-color="#CEA654"/>
</linearGradient>
<linearGradient id="paint1_linear_1456_21" x1="13.3485" y1="8.8602" x2="25.1531" y2="8.88707" gradientUnits="userSpaceOnUse">
<stop offset="0.309726" stop-color="#DFC38E"/>
<stop offset="0.870713" stop-color="#CEA654"/>
</linearGradient>
<linearGradient id="paint2_linear_1456_21" x1="25.3939" y1="8.8602" x2="41.7681" y2="8.9119" gradientUnits="userSpaceOnUse">
<stop offset="0.309726" stop-color="#DFC38E"/>
<stop offset="0.870713" stop-color="#CEA654"/>
</linearGradient>
<linearGradient id="paint3_linear_1456_21" x1="41.9972" y1="10.5574" x2="53.8019" y2="10.5775" gradientUnits="userSpaceOnUse">
<stop offset="0.309726" stop-color="#DFC38E"/>
<stop offset="0.870713" stop-color="#CEA654"/>
</linearGradient>
<linearGradient id="paint4_linear_1456_21" x1="54.3688" y1="8.8602" x2="64.2695" y2="8.8791" gradientUnits="userSpaceOnUse">
<stop offset="0.309726" stop-color="#DFC38E"/>
<stop offset="0.870713" stop-color="#CEA654"/>
</linearGradient>
<linearGradient id="paint5_linear_1456_21" x1="65.4384" y1="8.8602" x2="81.8124" y2="8.9119" gradientUnits="userSpaceOnUse">
<stop offset="0.309726" stop-color="#DFC38E"/>
<stop offset="0.870713" stop-color="#CEA654"/>
</linearGradient>
<linearGradient id="paint6_linear_1456_21" x1="81.3905" y1="9.04444" x2="93.1952" y2="9.07208" gradientUnits="userSpaceOnUse">
<stop offset="0.309726" stop-color="#DFC38E"/>
<stop offset="0.870713" stop-color="#CEA654"/>
</linearGradient>
<linearGradient id="paint7_linear_1456_21" x1="81.3905" y1="26.7662" x2="91.6719" y2="26.7865" gradientUnits="userSpaceOnUse">
<stop offset="0.309726" stop-color="#DFC38E"/>
<stop offset="0.870713" stop-color="#CEA654"/>
</linearGradient>
<linearGradient id="paint8_linear_1456_21" x1="91.4834" y1="26.9504" x2="102.907" y2="26.9763" gradientUnits="userSpaceOnUse">
<stop offset="0.309726" stop-color="#DFC38E"/>
<stop offset="0.870713" stop-color="#CEA654"/>
</linearGradient>
<linearGradient id="paint9_linear_1456_21" x1="102.878" y1="26.7662" x2="114.683" y2="26.793" gradientUnits="userSpaceOnUse">
<stop offset="0.309726" stop-color="#DFC38E"/>
<stop offset="0.870713" stop-color="#CEA654"/>
</linearGradient>
<linearGradient id="paint10_linear_1456_21" x1="115.249" y1="24.8822" x2="125.15" y2="24.8964" gradientUnits="userSpaceOnUse">
<stop offset="0.309726" stop-color="#DFC38E"/>
<stop offset="0.870713" stop-color="#CEA654"/>
</linearGradient>
<linearGradient id="paint11_linear_1456_21" x1="1.67171e-08" y1="44.8135" x2="9.90071" y2="44.8319" gradientUnits="userSpaceOnUse">
<stop offset="0.309726" stop-color="#DFC38E"/>
<stop offset="0.870713" stop-color="#CEA654"/>
</linearGradient>
<linearGradient id="paint12_linear_1456_21" x1="10.7437" y1="44.9978" x2="26.737" y2="45.0471" gradientUnits="userSpaceOnUse">
<stop offset="0.309726" stop-color="#DFC38E"/>
<stop offset="0.870713" stop-color="#CEA654"/>
</linearGradient>
<linearGradient id="paint13_linear_1456_21" x1="26.696" y1="44.8135" x2="38.5007" y2="44.8397" gradientUnits="userSpaceOnUse">
<stop offset="0.309726" stop-color="#DFC38E"/>
<stop offset="0.870713" stop-color="#CEA654"/>
</linearGradient>
<linearGradient id="paint14_linear_1456_21" x1="39.0675" y1="42.9722" x2="50.8722" y2="42.9928" gradientUnits="userSpaceOnUse">
<stop offset="0.309726" stop-color="#DFC38E"/>
<stop offset="0.870713" stop-color="#CEA654"/>
</linearGradient>
<linearGradient id="paint15_linear_1456_21" x1="51.7642" y1="44.9978" x2="66.2343" y2="45.0381" gradientUnits="userSpaceOnUse">
<stop offset="0.309726" stop-color="#DFC38E"/>
<stop offset="0.870713" stop-color="#CEA654"/>
</linearGradient>
<linearGradient id="paint16_linear_1456_21" x1="69.67" y1="44.8135" x2="79.5708" y2="44.8319" gradientUnits="userSpaceOnUse">
<stop offset="0.309726" stop-color="#DFC38E"/>
<stop offset="0.870713" stop-color="#CEA654"/>
</linearGradient>
<linearGradient id="paint17_linear_1456_21" x1="80.4138" y1="44.8135" x2="92.2185" y2="44.8397" gradientUnits="userSpaceOnUse">
<stop offset="0.309726" stop-color="#DFC38E"/>
<stop offset="0.870713" stop-color="#CEA654"/>
</linearGradient>
<linearGradient id="paint18_linear_1456_21" x1="92.1344" y1="44.9978" x2="103.558" y2="45.0229" gradientUnits="userSpaceOnUse">
<stop offset="0.309726" stop-color="#DFC38E"/>
<stop offset="0.870713" stop-color="#CEA654"/>
</linearGradient>
<linearGradient id="paint19_linear_1456_21" x1="103.203" y1="46.5535" x2="114.627" y2="46.5728" gradientUnits="userSpaceOnUse">
<stop offset="0.309726" stop-color="#DFC38E"/>
<stop offset="0.870713" stop-color="#CEA654"/>
</linearGradient>
<linearGradient id="paint20_linear_1456_21" x1="114.598" y1="44.8135" x2="124.499" y2="44.8319" gradientUnits="userSpaceOnUse">
<stop offset="0.309726" stop-color="#DFC38E"/>
<stop offset="0.870713" stop-color="#CEA654"/>
</linearGradient>
<linearGradient id="paint21_linear_1456_21" x1="125.342" y1="44.9978" x2="135.242" y2="45.0167" gradientUnits="userSpaceOnUse">
<stop offset="0.309726" stop-color="#DFC38E"/>
<stop offset="0.870713" stop-color="#CEA654"/>
</linearGradient>
<linearGradient id="paint22_linear_1456_21" x1="136.41" y1="44.9978" x2="152.404" y2="45.0471" gradientUnits="userSpaceOnUse">
<stop offset="0.309726" stop-color="#DFC38E"/>
<stop offset="0.870713" stop-color="#CEA654"/>
</linearGradient>
<linearGradient id="paint23_linear_1456_21" x1="152.364" y1="44.8563" x2="162.264" y2="44.8758" gradientUnits="userSpaceOnUse">
<stop offset="0.309726" stop-color="#DFC38E"/>
<stop offset="0.870713" stop-color="#CEA654"/>
</linearGradient>
<linearGradient id="paint24_linear_1456_21" x1="0.325806" y1="62.9037" x2="10.2264" y2="62.9226" gradientUnits="userSpaceOnUse">
<stop offset="0.309726" stop-color="#DFC38E"/>
<stop offset="0.870713" stop-color="#CEA654"/>
</linearGradient>
<linearGradient id="paint25_linear_1456_21" x1="11.0688" y1="62.9037" x2="22.8735" y2="62.9306" gradientUnits="userSpaceOnUse">
<stop offset="0.309726" stop-color="#DFC38E"/>
<stop offset="0.870713" stop-color="#CEA654"/>
</linearGradient>
<linearGradient id="paint26_linear_1456_21" x1="23.1152" y1="64.4595" x2="34.9198" y2="64.48" gradientUnits="userSpaceOnUse">
<stop offset="0.309726" stop-color="#DFC38E"/>
<stop offset="0.870713" stop-color="#CEA654"/>
</linearGradient>
<linearGradient id="paint27_linear_1456_21" x1="35.486" y1="62.9037" x2="45.3867" y2="62.9226" gradientUnits="userSpaceOnUse">
<stop offset="0.309726" stop-color="#DFC38E"/>
<stop offset="0.870713" stop-color="#CEA654"/>
</linearGradient>
<linearGradient id="paint28_linear_1456_21" x1="46.2299" y1="64.4595" x2="58.0346" y2="64.48" gradientUnits="userSpaceOnUse">
<stop offset="0.309726" stop-color="#DFC38E"/>
<stop offset="0.870713" stop-color="#CEA654"/>
</linearGradient>
<linearGradient id="paint29_linear_1456_21" x1="58.2754" y1="62.9037" x2="70.0801" y2="62.9306" gradientUnits="userSpaceOnUse">
<stop offset="0.309726" stop-color="#DFC38E"/>
<stop offset="0.870713" stop-color="#CEA654"/>
</linearGradient>
<linearGradient id="paint30_linear_1456_21" x1="70.3219" y1="60.6941" x2="80.2225" y2="60.7083" gradientUnits="userSpaceOnUse">
<stop offset="0.309726" stop-color="#DFC38E"/>
<stop offset="0.870713" stop-color="#CEA654"/>
</linearGradient>
<linearGradient id="paint31_linear_1456_21" x1="0.325806" y1="26.9504" x2="10.2264" y2="26.9698" gradientUnits="userSpaceOnUse">
<stop offset="0.309726" stop-color="#DFC38E"/>
<stop offset="0.870713" stop-color="#CEA654"/>
</linearGradient>
<linearGradient id="paint32_linear_1456_21" x1="10.4187" y1="26.9504" x2="21.8426" y2="26.9763" gradientUnits="userSpaceOnUse">
<stop offset="0.309726" stop-color="#DFC38E"/>
<stop offset="0.870713" stop-color="#CEA654"/>
</linearGradient>
<linearGradient id="paint33_linear_1456_21" x1="22.7894" y1="28.4633" x2="34.5941" y2="28.4835" gradientUnits="userSpaceOnUse">
<stop offset="0.309726" stop-color="#DFC38E"/>
<stop offset="0.870713" stop-color="#CEA654"/>
</linearGradient>
<linearGradient id="paint34_linear_1456_21" x1="34.5099" y1="26.9076" x2="45.9337" y2="26.9321" gradientUnits="userSpaceOnUse">
<stop offset="0.309726" stop-color="#DFC38E"/>
<stop offset="0.870713" stop-color="#CEA654"/>
</linearGradient>
<linearGradient id="paint35_linear_1456_21" x1="46.2307" y1="27.0918" x2="56.1314" y2="27.1107" gradientUnits="userSpaceOnUse">
<stop offset="0.309726" stop-color="#DFC38E"/>
<stop offset="0.870713" stop-color="#CEA654"/>
</linearGradient>
<linearGradient id="paint36_linear_1456_21" x1="57.2993" y1="27.0918" x2="67.1999" y2="27.1107" gradientUnits="userSpaceOnUse">
<stop offset="0.309726" stop-color="#DFC38E"/>
<stop offset="0.870713" stop-color="#CEA654"/>
</linearGradient>
<linearGradient id="paint37_linear_1456_21" x1="68.3682" y1="24.8822" x2="78.2689" y2="24.8964" gradientUnits="userSpaceOnUse">
<stop offset="0.309726" stop-color="#DFC38E"/>
<stop offset="0.870713" stop-color="#CEA654"/>
</linearGradient>
</defs>
</svg>
