<svg width="170" height="88" viewBox="0 0 170 88" fill="none" xmlns="http://www.w3.org/2000/svg">
<g id="&#60;Group&#62;">
<g id="&#60;Group&#62;_2">
<path id="&#60;Compound Path&#62;" d="M49.8535 39.4727C49.8535 38.9582 50.1622 38.701 50.7796 38.701C51.4999 38.8039 52.3231 38.9068 53.2492 39.0097C54.1753 39.0097 55.2557 39.0097 56.4905 39.0097C57.6223 39.0097 58.5484 38.9068 59.2687 38.701C60.0919 38.4952 60.7607 38.135 61.2752 37.6205C61.7897 37.2089 62.1499 36.5401 62.3557 35.614C62.6644 34.7908 62.8187 33.7618 62.8187 32.5271H52.4774C52.2717 32.5271 52.1172 32.4241 52.0143 32.2183C51.8085 32.1154 51.7057 31.9611 51.7057 31.7553V28.051C51.7057 27.8452 51.8085 27.6908 52.0143 27.5879C52.1172 27.3821 52.2717 27.2792 52.4774 27.2792H62.8187C62.6129 25.1183 61.9956 23.5749 60.9666 22.6488C59.9376 21.8256 58.4455 21.414 56.4905 21.414C55.2557 21.414 54.1753 21.414 53.2492 21.414C52.3231 21.5169 51.4999 21.6198 50.7796 21.7227C50.4709 21.7227 50.2136 21.6712 50.0078 21.5683C49.9049 21.3625 49.8535 21.1568 49.8535 20.951V17.0923C49.8535 16.8865 49.9564 16.7321 50.1622 16.6292C50.2651 16.5263 50.4709 16.4234 50.7796 16.3205C51.1912 16.2176 51.9115 16.0633 52.9405 15.8575C53.8666 15.7546 55.0499 15.7031 56.4905 15.7031C58.5484 15.7031 60.4006 15.9604 62.0469 16.4749C63.5904 16.9894 64.9282 17.7611 66.06 18.7901C67.1919 19.922 68.0666 21.3111 68.684 22.9575C69.1985 24.7067 69.4557 26.8162 69.4557 29.2857V31.1379C69.4557 33.6075 69.1985 35.7169 68.684 37.4662C68.0666 39.2155 67.1919 40.6046 66.06 41.6336C64.9282 42.7655 63.5904 43.5886 62.0469 44.1031C60.4006 44.5147 58.5484 44.7205 56.4905 44.7205C55.1528 44.7205 53.9695 44.6691 52.9405 44.5662C51.9115 44.3604 51.1912 44.206 50.7796 44.1031C50.4709 44.0002 50.2651 43.8973 50.1622 43.7944C49.9564 43.6915 49.8535 43.4857 49.8535 43.177V39.4727Z" fill="#EADA86"/>
<path id="&#60;Compound Path&#62;_2" d="M84.8909 21.7227C84.788 21.5169 84.7365 21.3625 84.7365 21.2596C84.6336 21.1567 84.4793 21.1053 84.2735 21.1053C84.0677 21.1053 83.9134 21.3111 83.8105 21.7227L79.0256 43.7944C78.9227 44.0002 78.8199 44.1546 78.717 44.2575C78.6141 44.3604 78.4597 44.4118 78.2539 44.4118H72.8517C72.4401 44.4118 72.2344 44.206 72.2344 43.7944C72.2344 43.6915 72.2344 43.6401 72.2344 43.6401L77.9453 19.8705C78.254 18.9444 78.614 18.2241 79.0256 17.7096C79.4372 17.0922 79.9517 16.6292 80.5691 16.3205C81.0836 16.1147 81.701 15.9604 82.4213 15.8575C83.0387 15.7546 83.6561 15.7031 84.2735 15.7031C84.9938 15.7031 85.6626 15.7546 86.28 15.8575C87.0003 15.9604 87.6177 16.1147 88.1322 16.3205C88.7496 16.6292 89.2641 17.0922 89.6757 17.7096C90.0873 18.2241 90.3959 18.9444 90.6017 19.8705L96.3126 43.6401C96.3126 43.6401 96.3126 43.6915 96.3126 43.7944C96.4155 43.7944 96.467 43.7944 96.467 43.7944C96.467 44.206 96.2098 44.4118 95.6953 44.4118H90.4474C90.2416 44.4118 90.0358 44.3604 89.83 44.2575C89.7271 44.1546 89.6757 44.0002 89.6757 43.7944L84.8909 21.7227Z" fill="#EADA86"/>
<path id="&#60;Compound Path&#62;_3" d="M99.8613 16.7835C99.8613 16.5777 99.9128 16.3719 100.016 16.1661C100.222 16.0632 100.427 16.0117 100.633 16.0117H105.109C105.315 16.0117 105.469 16.0632 105.572 16.1661C105.778 16.3719 105.881 16.5777 105.881 16.7835V32.8356C105.881 33.1443 105.932 33.2987 106.035 33.2987C106.138 33.2987 106.241 33.1958 106.344 32.99L115.451 17.2465C115.656 16.8349 115.862 16.5262 116.068 16.3204C116.377 16.1146 116.685 16.0117 116.994 16.0117H120.853C121.264 16.0117 121.624 16.1661 121.933 16.4748C122.242 16.6806 122.396 16.9893 122.396 17.4009V43.64C122.396 43.8458 122.293 44.0516 122.087 44.2574C121.985 44.3603 121.83 44.4117 121.624 44.4117H117.148C116.943 44.4117 116.737 44.3603 116.531 44.2574C116.428 44.0516 116.377 43.8458 116.377 43.64V28.2052C116.377 27.9994 116.274 27.8965 116.068 27.8965C115.965 27.8965 115.862 27.9994 115.759 28.2052L107.116 43.177C106.807 43.6914 106.498 44.0516 106.19 44.2574C105.881 44.3603 105.521 44.4117 105.109 44.4117H101.25C100.839 44.4117 100.53 44.2574 100.324 43.9487C100.016 43.7429 99.8613 43.4342 99.8613 43.0226V16.7835Z" fill="#EADA86"/>
<path id="&#60;Compound Path&#62;_4" d="M146.321 21.1052C146.115 21.311 145.91 21.4139 145.704 21.4139H139.53V43.64C139.53 43.8458 139.478 44.0516 139.376 44.2574C139.17 44.3603 138.964 44.4117 138.758 44.4117H133.819C133.613 44.4117 133.407 44.3603 133.202 44.2574C133.099 44.0516 133.047 43.8458 133.047 43.64V21.4139H126.719C126.513 21.4139 126.359 21.311 126.256 21.1052C126.05 21.0023 125.947 20.848 125.947 20.6422V16.7835C125.947 16.5777 126.05 16.3719 126.256 16.1661C126.359 16.0632 126.513 16.0117 126.719 16.0117H145.704C145.91 16.0117 146.115 16.0632 146.321 16.1661C146.527 16.3719 146.63 16.5777 146.63 16.7835V20.6422C146.63 20.848 146.527 21.0023 146.321 21.1052Z" fill="#EADA86"/>
<path id="&#60;Compound Path&#62;_5" d="M64.3622 51.5117C66.0085 51.5117 67.3977 51.7175 68.5296 52.1291C69.5586 52.5407 70.3303 53.1066 70.8448 53.8269C71.4622 54.5472 71.8738 55.3704 72.0796 56.2965C72.2854 57.2226 72.3883 58.2001 72.3883 59.2291V79.2943C72.3883 79.5001 72.3369 79.6545 72.234 79.7574C72.0282 79.9632 71.8223 80.0661 71.6165 80.0661H66.6774C66.4716 80.0661 66.2658 79.9632 66.06 79.7574C65.9571 79.6545 65.9056 79.5001 65.9056 79.2943V59.2291C65.9056 58.9204 65.9056 58.6632 65.9056 58.4574C65.9056 58.2516 65.8542 58.0458 65.7513 57.84C65.5455 57.6342 65.3397 57.4798 65.1339 57.3769C64.9281 57.274 64.6194 57.2226 64.2079 57.2226H58.1882C57.6738 57.2226 57.3137 57.274 57.1079 57.3769C56.9021 57.4798 56.7477 57.6342 56.6448 57.84C56.5419 58.0458 56.4905 58.2516 56.4905 58.4574C56.4905 58.6632 56.4905 58.9204 56.4905 59.2291V79.2943C56.4905 79.5001 56.3875 79.6545 56.1817 79.7574C56.0788 79.9632 55.9245 80.0661 55.7187 80.0661H50.6253C50.4195 80.0661 50.2651 79.9632 50.1622 79.7574C49.9564 79.6545 49.8535 79.5001 49.8535 79.2943V59.2291C49.8535 58.2001 49.9564 57.2226 50.1622 56.2965C50.368 55.3704 50.7796 54.5472 51.397 53.8269C52.0144 53.1066 52.8375 52.5407 53.8665 52.1291C54.8955 51.7175 56.2332 51.5117 57.8796 51.5117H64.3622Z" fill="#EADA86"/>
<path id="&#60;Compound Path&#62;_6" d="M88.4397 57.2227C88.3369 57.0169 88.2853 56.8625 88.2853 56.7596C88.2853 56.6567 88.1825 56.6053 87.9767 56.6053C87.668 56.6053 87.4622 56.8111 87.3593 57.2227L82.5745 79.2944C82.5745 79.5002 82.523 79.6546 82.4201 79.7575C82.2143 79.9633 82.0086 80.0662 81.8028 80.0662H76.5549C76.0404 80.0662 75.7832 79.8604 75.7832 79.4488C75.7832 79.4488 75.8346 79.3973 75.9375 79.2944L81.6484 55.5249C81.8542 54.5988 82.163 53.827 82.5745 53.2096C82.9861 52.6951 83.5006 52.2836 84.118 51.9749C84.6325 51.6662 85.2498 51.4604 85.9701 51.3575C86.5875 51.2546 87.2564 51.2031 87.9767 51.2031C88.5941 51.2031 89.2629 51.2546 89.9832 51.3575C90.6006 51.4604 91.1665 51.6662 91.681 51.9749C92.2984 52.2836 92.8129 52.6951 93.2245 53.2096C93.6361 53.827 93.9963 54.5988 94.3049 55.5249L100.016 79.2944C100.016 79.3973 100.016 79.4488 100.016 79.4488C100.016 79.8604 99.81 80.0662 99.3984 80.0662H93.9962C93.7904 80.0662 93.6361 79.9633 93.5332 79.7575C93.3274 79.6546 93.2245 79.5002 93.2245 79.2944L88.4397 57.2227Z" fill="#EADA86"/>
<path id="&#60;Compound Path&#62;_7" fill-rule="evenodd" clip-rule="evenodd" d="M125.639 79.4488C125.639 79.8604 125.433 80.0662 125.022 80.0662H119.619C119.414 80.0662 119.259 79.9633 119.156 79.7575C118.95 79.6546 118.848 79.5002 118.848 79.2944L117.458 73.1205H109.587L108.198 79.2944C108.198 79.5002 108.095 79.6546 107.889 79.7575C107.786 79.9633 107.632 80.0662 107.426 80.0662H102.178C101.663 80.0662 101.406 79.8604 101.406 79.4488C101.406 79.4488 101.406 79.3973 101.406 79.2944C101.509 79.2944 101.561 79.2944 101.561 79.2944L107.272 55.5249C107.477 54.5988 107.786 53.827 108.198 53.2096C108.609 52.6951 109.124 52.2836 109.741 51.9749C110.256 51.6662 110.873 51.4604 111.593 51.3575C112.211 51.2546 112.879 51.2031 113.6 51.2031C114.217 51.2031 114.835 51.2546 115.452 51.3575C116.172 51.4604 116.79 51.6662 117.304 51.9749C117.922 52.2836 118.436 52.6951 118.848 53.2096C119.259 53.827 119.619 54.5988 119.928 55.5249L125.639 79.2944C125.639 79.3973 125.639 79.4488 125.639 79.4488ZM114.063 57.2227C113.96 57.0169 113.908 56.8625 113.908 56.7596C113.806 56.6567 113.703 56.6053 113.6 56.6053C113.291 56.6053 113.085 56.8111 112.982 57.2227L110.667 67.8727H116.378L114.063 57.2227Z" fill="#EADA86"/>
<path id="&#60;Compound Path&#62;_8" d="M146.014 79.4488C145.911 79.5517 145.705 79.6546 145.396 79.7575C144.985 79.8604 144.264 79.9633 143.235 80.0662C142.206 80.272 141.023 80.3749 139.685 80.3749C138.245 80.3749 136.856 80.1691 135.518 79.7575C134.077 79.3459 132.843 78.677 131.814 77.751C130.785 76.722 129.962 75.4357 129.344 73.8923C128.727 72.3488 128.418 70.4452 128.418 68.1814V63.3966C128.418 61.1328 128.727 59.2292 129.344 57.6857C129.962 56.0394 130.785 54.7531 131.814 53.827C132.843 52.9009 134.077 52.2321 135.518 51.8205C136.856 51.4089 138.245 51.2031 139.685 51.2031C141.023 51.2031 142.206 51.306 143.235 51.5118C144.264 51.6147 144.985 51.7176 145.396 51.8205C145.705 51.9234 145.911 52.0263 146.014 52.1292C146.219 52.2321 146.322 52.4379 146.322 52.7466V56.451C146.322 56.9654 146.065 57.2227 145.551 57.2227H145.396C144.676 57.2227 143.801 57.1712 142.772 57.0683C141.846 56.9654 140.817 56.914 139.685 56.914C139.068 56.914 138.451 57.0169 137.833 57.2227C137.319 57.4285 136.856 57.7886 136.444 58.3031C135.93 58.8176 135.569 59.4865 135.364 60.3097C135.158 61.1328 135.055 62.1618 135.055 63.3966V68.1814C135.055 69.5191 135.158 70.5995 135.364 71.4227C135.569 72.2459 135.93 72.8633 136.444 73.2749C136.856 73.7894 137.319 74.1495 137.833 74.3553C138.451 74.5611 139.068 74.664 139.685 74.664C140.817 74.664 141.846 74.6126 142.772 74.5097C143.801 74.5097 144.676 74.4582 145.396 74.3553H145.551C146.065 74.3553 146.322 74.6126 146.322 75.1271V78.8314C146.322 79.1401 146.219 79.3459 146.014 79.4488Z" fill="#EADA86"/>
<path id="&#60;Compound Path&#62;_9" d="M169.009 56.7595C168.906 56.8624 168.751 56.9139 168.546 56.9139H162.372V79.2943C162.372 79.5001 162.269 79.6545 162.063 79.7574C161.96 79.9632 161.806 80.0661 161.6 80.0661H156.506C156.301 80.0661 156.146 79.9632 156.043 79.7574C155.838 79.6545 155.735 79.5001 155.735 79.2943V56.9139H149.561C149.355 56.9139 149.149 56.8624 148.943 56.7595C148.841 56.6567 148.789 56.5023 148.789 56.2965V52.2835C148.789 52.0777 148.841 51.9233 148.943 51.8204C149.149 51.6146 149.355 51.5117 149.561 51.5117H168.546C168.751 51.5117 168.906 51.6146 169.009 51.8204C169.214 51.9233 169.317 52.0777 169.317 52.2835V56.2965C169.317 56.5023 169.214 56.6567 169.009 56.7595Z" fill="#EADA86"/>
</g>
<path id="&#60;Path&#62;" d="M38.8956 81.1461C38.5869 81.1461 38.2783 81.0947 37.9696 80.9918L18.5218 77.5961L18.3674 75.5896L38.2783 79.1396C39.2044 79.2939 40.1305 78.9852 40.9022 78.3678C41.674 77.9048 41.9826 76.9787 41.9826 76.0526V5.20694C41.9826 4.1265 41.674 3.35476 40.9022 2.73737C40.1305 2.11998 39.2043 1.81128 38.1239 1.96563L10.65 7.6765C9.10649 7.9852 8.02604 9.21998 8.02604 10.7635V46.4178H6.01953V10.7635C6.01953 8.29389 7.87172 6.28738 10.1869 5.66998L37.8153 0.113456C39.3587 -0.19524 40.9022 0.113457 42.137 1.19389C43.3718 2.11998 43.9892 3.66346 43.9892 5.20694V76.0526C43.9892 77.5961 43.3718 78.9852 42.137 79.9113C41.2109 80.6831 39.9761 81.1461 38.8956 81.1461Z" fill="#EADA86"/>
<g id="&#60;Group&#62;_3">
<path id="&#60;Path&#62;_2" d="M3.54998 14.4676L15.1261 12.1523V47.035H0.15431C0.15431 47.035 0.102899 47.035 0 47.035V18.7893C0 16.7828 1.54346 14.9306 3.54998 14.4676Z" fill="#EADA86"/>
<path id="&#60;Path&#62;_3" d="M0.15431 50.1211H15.1261V85.1581L3.70429 83.1516C1.54342 82.6885 0 80.9907 0 78.8298V50.1211C0.102899 50.1211 0.15431 50.1211 0.15431 50.1211Z" fill="#EADA86"/>
<path id="&#60;Path&#62;_4" d="M35.9629 13.3863V47.0341C35.86 47.0341 35.8085 47.0341 35.8085 47.0341H18.2129V11.6885C18.2129 11.6885 18.2129 11.637 18.2129 11.5341L30.715 8.9102C33.3389 8.44715 35.9629 10.4537 35.9629 13.3863Z" fill="#EADA86"/>
<path id="&#60;Path&#62;_5" d="M35.8085 50.1211C35.8085 50.1211 35.86 50.1211 35.9629 50.1211V83.4603C35.9629 86.2385 33.4933 88.3994 30.715 87.9363L18.2129 85.6211C18.2129 85.6211 18.2129 85.5697 18.2129 85.4668V50.1211H35.8085Z" fill="#EADA86"/>
</g>
</g>
</svg>
