<svg width="348" height="181" viewBox="0 0 348 181" fill="none" xmlns="http://www.w3.org/2000/svg">
<path fill-rule="evenodd" clip-rule="evenodd" d="M81.6935 0.0554212C83.2148 0.296681 85.3767 1.10088 86.4176 1.82466C87.4586 2.54844 88.8198 4.07642 89.3803 5.36314C90.3411 7.13239 90.5013 20.9646 90.5813 160.735L88.7397 163.067C87.6988 164.354 85.697 165.882 84.2557 166.525C82.8945 167.088 80.092 167.57 74.4871 167.57V172.235C74.4871 175.934 74.1668 177.14 72.7255 178.588C71.6846 179.633 69.4426 180.679 67.6811 180.92C65.7594 181.242 59.0334 180.679 37.6545 177.623V140.871C37.6545 108.864 37.8147 103.958 38.8556 103.636C39.4961 103.395 47.8235 103.234 74.4871 103.234V161.941L76.2487 162.343C77.2896 162.584 78.8109 162.745 79.6917 162.745C80.5725 162.745 82.254 162.102 85.697 159.528V8.33869L83.2949 6.32818C81.5333 4.88062 80.3323 4.47852 78.6508 4.8002C77.4497 5.04146 74.8875 5.76524 72.8857 6.32818C70.8839 6.97155 67.8412 7.69533 66.0797 7.93659C64.3181 8.17785 62.3163 8.57995 61.6758 8.82121C61.0352 8.98205 59.5939 9.30373 58.4729 9.54499C57.3519 9.70583 53.2683 10.4296 49.2648 11.073C45.2612 11.7163 37.6545 13.1639 32.2097 14.2898C26.845 15.4157 21.5603 16.8632 20.4393 17.4262C19.3183 17.9087 18.1172 19.1954 17.6368 20.2409C17.2365 21.2059 16.8361 23.2968 16.8361 24.8248C16.8361 26.3528 17.0763 27.6395 17.3966 27.6395C17.7969 27.5591 20.3592 27.0766 23.2418 26.4332C26.1243 25.7898 29.0869 25.3073 29.8076 25.2269C31.1688 25.2269 31.2488 27.4787 31.2488 97.6049H0.0212235V66.6432C0.0212235 47.5837 0.341507 35.0381 0.821932 34.0731C1.22229 33.1885 2.8237 31.8213 4.18491 30.9367C5.62618 30.1325 8.10838 29.2479 12.4322 28.4437V23.136C12.4322 18.0695 12.5123 17.8283 15.635 14.9331C18.0372 12.6814 20.0389 11.7163 23.6421 10.9925C26.2845 10.4296 35.8129 8.49953 44.8609 6.64986C53.9089 4.8002 65.2789 2.46802 70.0832 1.42256C75.2878 0.377101 80.012 -0.185839 81.6935 0.0554212ZM64.6384 18.2304C67.3608 18.3108 69.4426 18.9541 71.0441 20.08C72.2451 21.0451 73.5262 22.8143 73.7665 24.101C74.0867 25.3877 74.327 42.4368 74.4871 97.6049L38.0549 97.2028L37.6545 23.2164L49.0246 20.643C55.3502 19.2758 62.3163 18.1499 64.6384 18.2304ZM175.617 31.9018C177.458 32.3039 179.86 33.0276 180.981 33.4297C182.102 33.7514 183.784 35.2794 184.745 36.727C185.705 38.0941 186.907 41.4717 187.467 44.1256C187.947 46.7795 188.508 49.5138 188.828 50.1571C189.068 50.8005 189.949 54.2585 190.75 57.797C191.631 61.3355 192.431 65.4369 192.672 66.8845C192.832 68.2516 193.312 69.6188 193.793 69.86C194.273 70.1013 194.593 71.2272 194.593 72.5139C194.593 73.7202 195.314 77.2587 196.195 80.3146C197.076 83.451 197.796 87.3112 197.796 91.9755L190.99 92.2168C185.305 92.3776 184.024 92.1364 182.983 91.0105C182.342 90.2063 181.782 89.0804 181.782 88.5979C181.782 88.035 180.821 83.6118 179.7 78.7062C178.579 73.881 177.538 68.4125 177.458 66.6432C177.378 64.874 177.058 63.1047 176.818 62.6222C176.577 62.2201 176.097 59.6467 175.777 56.9928C175.536 54.339 174.656 50.1571 172.734 43.3214L171.693 48.5487C171.133 51.4438 170.652 55.304 170.572 57.2341C170.572 59.0837 170.012 62.8635 169.291 65.6782C168.65 68.4125 167.369 72.5139 166.569 74.6852C165.768 76.937 164.807 80.5559 164.487 82.7272C164.166 84.979 163.926 87.3112 164.006 87.9545C164.166 88.5979 163.686 89.965 162.965 91.0105C161.844 92.6189 161.204 92.7797 155.279 92.6189C151.275 92.4581 148.553 91.9755 148.072 91.4126C147.592 90.7692 148.072 87.3916 149.353 82.1643C150.474 77.5803 151.755 72.5943 152.156 71.0663C152.636 69.5383 153.677 65.1957 154.558 61.4159C155.439 57.6362 156.159 53.776 156.159 52.811C156.159 51.7655 156.48 50.8005 156.96 50.5592C157.44 50.318 157.921 48.9508 158.081 47.5837C158.241 46.1361 158.802 43.3214 159.282 41.3109C159.763 39.3004 161.124 36.727 162.325 35.4402C163.606 34.2339 166.248 32.7864 168.41 32.2234C171.053 31.4997 173.134 31.4192 175.617 31.9018ZM115.323 32.7864C123.01 33.0276 126.373 33.5102 129.976 34.7969C133.259 36.0032 135.341 37.4507 137.343 39.9438C138.944 41.8738 140.706 45.3319 141.506 48.1466C142.387 51.3634 142.868 56.0278 142.868 62.2201C142.948 67.6083 142.467 73.6398 141.747 76.6957C140.866 80.7971 139.985 82.486 137.663 84.7377C136.062 86.2657 133.019 88.437 130.857 89.4825C128.695 90.528 124.291 91.7343 120.928 92.1364C117.645 92.6189 112.601 92.6993 109.718 92.4581C106.836 92.1364 104.033 91.493 103.473 90.9301C102.912 90.4476 102.432 88.437 102.512 86.5874C102.512 84.6573 102.672 82.5664 102.912 81.923C103.233 80.958 104.994 80.7167 120.928 80.7167L124.932 76.937C128.455 73.4789 128.935 72.6747 128.935 66.2411H107.316V56.5907H117.725C125.492 56.5907 128.135 56.3495 128.135 55.6257C128.135 55.0627 127.654 53.2131 127.094 51.5243C126.613 49.755 125.252 47.5837 124.291 46.6991C122.61 45.1711 121.649 44.9298 116.284 45.1711C112.841 45.3319 108.437 45.2515 102.512 44.5277L102.352 38.9787C102.112 33.9927 102.272 33.3493 103.713 32.9472C104.594 32.706 109.798 32.706 115.323 32.7864ZM217.414 32.8668L217.814 46.7795C218.054 54.4998 218.054 60.9334 217.814 61.1747C217.574 61.4159 217.414 62.6222 217.414 63.9089C217.414 65.1957 217.654 66.2411 218.054 66.2411C218.374 66.2411 218.855 65.4369 219.095 64.4719C219.415 63.4264 221.817 58.8425 224.46 54.1781C227.102 49.5137 230.465 44.1256 231.906 42.1151C233.428 40.1046 234.949 38.0137 235.429 37.5312C235.83 36.9682 236.23 36.0032 236.23 35.5207C236.23 34.9577 236.631 33.9927 237.191 33.5102C237.752 32.8668 240.394 32.4647 243.837 32.4647C247.44 32.3843 249.762 32.7864 250.403 33.4297C251.203 34.2339 251.444 41.3913 251.444 63.0243C251.444 85.1398 251.203 91.7343 250.483 92.1364C249.922 92.4581 247.04 92.7797 244.077 92.7797C239.433 92.7797 238.552 92.5385 237.832 91.1713C237.351 90.2063 237.111 83.3706 237.271 74.1223C237.431 65.5978 237.351 59.5663 237.111 60.6921C236.871 61.818 233.187 68.895 229.024 76.2936C224.86 83.6923 220.696 90.2063 219.816 90.7692C218.935 91.3322 215.892 91.9755 213.01 92.2168C209.326 92.5385 207.325 92.2972 204.202 90.3671L204.042 61.9789C203.962 46.297 204.282 33.2689 204.602 32.9472C205.003 32.6255 208.045 32.5451 217.414 32.8668ZM300.287 32.4647L300.767 34.3144C301.007 35.2794 301.088 37.9333 300.687 44.1256L287.075 44.9298L286.675 92.3776L280.269 92.2168C276.746 92.056 273.543 91.8147 273.063 91.5734C272.582 91.3322 272.262 82.7272 272.262 45.3319L269.219 44.8494C267.618 44.5277 264.976 44.5277 263.454 44.769C261.933 45.0102 260.011 44.8494 259.21 44.4473C258.17 43.8843 257.849 42.5976 257.689 38.5766C257.529 34.636 257.849 33.2689 258.73 33.0276C259.291 32.7864 268.979 32.5451 300.287 32.4647ZM182.823 104.28C184.665 104.682 187.067 105.406 188.188 105.808C189.309 106.129 190.99 107.657 191.951 109.105C192.912 110.472 194.113 113.85 194.673 116.504C195.154 119.158 195.714 121.892 196.035 122.535C196.275 123.179 197.156 126.637 197.956 130.175C198.837 133.714 199.638 137.815 199.878 139.263C200.038 140.63 200.519 141.997 200.999 142.238C201.479 142.479 201.8 143.605 201.8 144.892C201.8 146.098 202.52 149.556 203.401 152.693C204.282 155.829 205.003 159.689 205.003 164.354L198.197 164.595C192.511 164.756 191.23 164.514 190.189 163.389C189.549 162.584 188.988 161.458 188.988 160.976C188.988 160.413 188.028 155.99 186.907 151.084C185.786 146.259 184.745 140.79 184.665 139.021C184.584 137.252 184.264 135.483 184.024 135C183.784 134.598 183.303 132.025 182.983 129.371C182.743 126.717 181.862 122.535 179.94 115.699L178.899 120.927C178.339 123.822 177.859 127.602 177.778 129.371C177.778 131.14 176.818 136.046 175.697 140.228C174.496 144.409 173.054 149.717 172.494 151.888C171.853 154.14 171.293 157.196 171.293 158.724C171.213 160.252 170.652 162.343 170.092 163.389C169.051 164.997 168.49 165.158 162.485 164.997C158.481 164.836 155.759 164.354 155.279 163.791C154.798 163.147 155.279 159.77 156.56 154.542C157.681 149.958 158.962 144.972 159.362 143.444C159.843 141.916 160.884 137.574 161.764 133.794C162.645 130.014 163.366 126.154 163.366 125.189C163.366 124.144 163.686 123.179 164.166 122.937C164.647 122.696 165.127 121.329 165.287 119.962C165.448 118.514 166.008 115.699 166.488 113.689C166.969 111.678 168.33 109.105 169.531 107.818C170.812 106.612 173.455 105.164 175.617 104.601C178.259 103.878 180.341 103.797 182.823 104.28ZM0.0212235 104.039H31.2488V139.825C31.2488 167.892 31.0086 175.612 30.288 175.612C29.7275 175.612 24.3628 174.728 18.4375 173.602C12.5123 172.476 6.58703 171.109 5.3059 170.546C4.02477 169.983 2.26321 168.696 1.4625 167.57C0.0212235 165.721 -0.0588474 163.63 0.0212235 134.839V104.039ZM239.433 106.21C240.954 106.853 242.716 107.738 243.356 108.301C243.917 108.783 245.038 110.713 245.839 112.483C246.559 114.252 247.44 117.147 247.76 118.916C248.081 120.685 249.922 128.969 251.924 137.413C253.926 145.777 256.088 154.462 256.728 156.714C257.369 158.885 257.849 161.7 257.849 165.158H243.437L242.235 159.528C241.515 156.392 241.034 153.336 241.034 152.693C241.034 151.835 239.887 151.272 237.591 151.004C235.75 150.682 232.147 150.682 229.584 151.004C226.141 151.326 224.94 151.808 224.62 152.854C224.46 153.658 223.899 156.472 223.339 159.126C222.858 161.78 221.978 164.273 221.417 164.756C220.857 165.158 217.654 165.399 214.291 165.319C208.205 165.158 208.205 165.077 208.205 162.906C208.205 161.7 208.686 158.724 209.326 156.312C209.887 153.819 210.848 149.717 211.328 147.063C211.889 144.409 212.609 141.514 212.93 140.63C213.33 139.745 214.051 137.252 214.531 135.161C215.011 133.07 215.412 130.416 215.412 129.371C215.412 128.245 215.652 127.2 215.972 127.119C216.373 127.039 217.253 123.661 218.054 119.72C218.855 115.699 220.056 111.518 220.696 110.472C221.337 109.346 222.618 107.899 223.659 107.255C224.62 106.532 227.903 105.808 231.026 105.567C234.789 105.325 237.511 105.486 239.433 106.21ZM228.223 137.574C228.223 138.7 228.944 139.021 231.986 139.182C234.068 139.263 236.23 139.102 236.711 138.78C237.431 138.297 237.351 136.77 236.55 132.588C235.99 129.451 235.109 125.269 234.709 123.339C234.228 121.329 233.828 119.399 233.828 119.077C233.828 118.755 233.508 118.514 233.107 118.514C232.707 118.514 231.426 122.455 230.305 127.36C229.104 132.186 228.223 136.77 228.223 137.574ZM291.079 105.325C294.602 105.567 298.125 106.129 298.846 106.532C299.967 107.095 300.287 108.301 300.287 118.916L293.641 118.273C290.038 117.951 285.794 117.871 284.273 118.112C282.031 118.434 281.07 119.238 279.468 121.892C277.627 125.028 277.467 126.074 277.467 135C277.467 140.308 277.787 145.616 278.027 146.822C278.347 148.028 279.548 149.958 280.669 151.084C281.71 152.13 283.472 153.095 284.433 153.095C285.474 153.175 289.397 153.175 300.287 153.095V158.724C300.287 164.112 300.207 164.354 298.045 164.917C296.844 165.238 292.04 165.56 287.476 165.56C282.671 165.56 277.787 165.077 276.266 164.514C274.664 163.951 271.942 162.102 270.02 160.493C268.178 158.805 265.856 155.668 264.896 153.497C263.374 150.119 263.054 147.626 262.734 138.619C262.573 132.105 262.814 125.913 263.374 123.339C263.855 120.846 265.536 116.986 267.057 114.654C268.579 112.322 271.301 109.507 273.063 108.462C274.824 107.336 278.107 106.049 280.429 105.647C282.751 105.245 287.556 105.084 291.079 105.325ZM140.786 106.049L143.828 108.462C145.51 109.829 147.352 111.839 147.912 112.885C148.553 114.332 148.873 122.053 148.873 139.825C148.953 153.497 148.873 164.836 148.713 164.917C148.633 164.997 145.75 165.319 142.307 165.479C137.503 165.801 135.821 165.64 134.941 164.756C133.9 163.71 133.74 160.011 133.74 120.123H125.732C118.046 120.123 117.645 120.123 117.325 121.892C117.085 122.857 116.925 132.829 116.925 144.007C116.925 159.448 116.684 164.434 115.884 164.836C115.323 165.077 112.281 165.399 108.998 165.399C105.795 165.479 102.832 165.158 102.432 164.756C101.951 164.193 101.711 153.979 101.871 139.021C102.031 115.458 102.192 113.93 103.713 111.518C104.674 110.07 106.676 108.462 108.517 107.738C110.279 107.014 112.441 106.29 113.321 106.129C114.202 105.888 120.688 105.808 140.786 106.049ZM325.749 105.647C336.559 105.647 345.927 105.888 346.488 106.21C347.208 106.612 347.449 108.462 347.128 117.308L333.516 118.112L333.276 140.63C333.196 153.014 333.116 163.63 333.116 164.354C333.116 165.319 331.915 165.479 319.904 164.997L319.184 160.011C318.863 157.277 318.623 146.742 318.863 118.112L304.771 117.308V112.322C304.771 109.588 305.011 106.934 305.331 106.451C305.758 105.861 312.564 105.593 325.749 105.647Z" fill="url(#paint0_linear_3_1092)"/>
<defs>
<linearGradient id="paint0_linear_3_1092" x1="173.634" y1="0" x2="173.634" y2="181" gradientUnits="userSpaceOnUse">
<stop offset="0.1" stop-color="#F7EF8A"/>
<stop offset="0.745" stop-color="#E2C283"/>
</linearGradient>
</defs>
</svg>
