<svg width="157" height="82" viewBox="0 0 157 82" fill="none" xmlns="http://www.w3.org/2000/svg">
<path d="M46.2266 36.5994C46.2266 36.1223 46.5128 35.8838 47.0852 35.8838C47.7531 35.9792 48.5164 36.0746 49.3751 36.17C50.2338 36.17 51.2356 36.17 52.3805 36.17C53.43 36.17 54.2887 36.0746 54.9566 35.8838C55.7199 35.693 56.34 35.359 56.8171 34.882C57.2941 34.5003 57.6281 33.8802 57.8189 33.0215C58.1051 32.2582 58.2482 31.3041 58.2482 30.1592H48.6595C48.4687 30.1592 48.3255 30.0638 48.2301 29.8729C48.0393 29.7775 47.944 29.6344 47.944 29.4436V26.0088C47.944 25.818 48.0393 25.6749 48.2301 25.5795C48.3255 25.3886 48.4687 25.2932 48.6595 25.2932H58.2482C58.0574 23.2896 57.485 21.8585 56.5309 20.9998C55.5768 20.2365 54.1933 19.8548 52.3805 19.8548C51.2356 19.8548 50.2338 19.8548 49.3751 19.8548C48.5164 19.9503 47.7531 20.0457 47.0852 20.1411C46.799 20.1411 46.5605 20.0934 46.3696 19.998C46.2742 19.8071 46.2266 19.6163 46.2266 19.4255V15.8476C46.2266 15.6568 46.322 15.5137 46.5128 15.4183C46.6082 15.3229 46.799 15.2274 47.0852 15.132C47.4669 15.0366 48.1348 14.8935 49.0889 14.7027C49.9476 14.6073 51.0448 14.5596 52.3805 14.5596C54.2887 14.5596 56.0061 14.7981 57.5326 15.2751C58.9638 15.7522 60.2042 16.4678 61.2537 17.4219C62.3032 18.4714 63.1142 19.7594 63.6867 21.286C64.1637 22.908 64.4023 24.8639 64.4023 27.1537V28.8711C64.4023 31.161 64.1637 33.1169 63.6867 34.7389C63.1142 36.3608 62.3032 37.6489 61.2537 38.603C60.2042 39.6525 58.9638 40.4158 57.5326 40.8928C56.0061 41.2745 54.2887 41.4653 52.3805 41.4653C51.1402 41.4653 50.043 41.4176 49.0889 41.3222C48.1348 41.1314 47.4669 40.9882 47.0852 40.8928C46.799 40.7974 46.6082 40.702 46.5128 40.6066C46.322 40.5112 46.2266 40.3204 46.2266 40.0341V36.5994Z" fill="url(#paint0_linear_2491_14534)"/>
<path d="M78.7121 20.1411C78.6166 19.9503 78.5689 19.8071 78.5689 19.7117C78.4735 19.6163 78.3304 19.5686 78.1396 19.5686C77.9487 19.5686 77.8056 19.7594 77.7102 20.1411L73.2736 40.6066C73.1782 40.7974 73.0828 40.9405 72.9874 41.0359C72.892 41.1314 72.7488 41.1791 72.558 41.1791H67.549C67.1673 41.1791 66.9766 40.9882 66.9766 40.6066C66.9766 40.5112 66.9766 40.4635 66.9766 40.4635L72.2719 18.4237C72.5581 17.565 72.892 16.8971 73.2736 16.4201C73.6552 15.8476 74.1323 15.4183 74.7048 15.132C75.1818 14.9412 75.7543 14.7981 76.4222 14.7027C76.9946 14.6073 77.5671 14.5596 78.1396 14.5596C78.8074 14.5596 79.4276 14.6073 80 14.7027C80.6679 14.7981 81.2404 14.9412 81.7174 15.132C82.2899 15.4183 82.767 15.8476 83.1486 16.4201C83.5302 16.8971 83.8164 17.565 84.0073 18.4237L89.3026 40.4635C89.3026 40.4635 89.3026 40.5112 89.3026 40.6066C89.398 40.6066 89.4457 40.6066 89.4457 40.6066C89.4457 40.9882 89.2072 41.1791 88.7301 41.1791H83.8642C83.6734 41.1791 83.4825 41.1314 83.2917 41.0359C83.1963 40.9405 83.1486 40.7974 83.1486 40.6066L78.7121 20.1411Z" fill="url(#paint1_linear_2491_14534)"/>
<path d="M92.5977 15.5613C92.5977 15.3705 92.6454 15.1796 92.7408 14.9888C92.9316 14.8934 93.1224 14.8457 93.3132 14.8457H97.4636C97.6544 14.8457 97.7975 14.8934 97.8929 14.9888C98.0838 15.1796 98.1792 15.3705 98.1792 15.5613V30.4453C98.1792 30.7315 98.2269 30.8747 98.3223 30.8747C98.4177 30.8747 98.5131 30.7792 98.6085 30.5884L107.052 15.9906C107.243 15.609 107.434 15.3228 107.625 15.1319C107.911 14.9411 108.197 14.8457 108.484 14.8457H112.061C112.443 14.8457 112.777 14.9888 113.063 15.2751C113.349 15.4659 113.493 15.7521 113.493 16.1337V40.4634C113.493 40.6542 113.397 40.845 113.206 41.0359C113.111 41.1313 112.968 41.179 112.777 41.179H108.627C108.436 41.179 108.245 41.1313 108.054 41.0359C107.959 40.845 107.911 40.6542 107.911 40.4634V26.1518C107.911 25.961 107.816 25.8656 107.625 25.8656C107.529 25.8656 107.434 25.961 107.339 26.1518L99.3241 40.034C99.0379 40.5111 98.7517 40.845 98.4654 41.0359C98.1792 41.1313 97.8453 41.179 97.4636 41.179H93.8857C93.5041 41.179 93.2179 41.0358 93.0271 40.7496C92.7408 40.5588 92.5977 40.2726 92.5977 39.8909V15.5613Z" fill="url(#paint2_linear_2491_14534)"/>
<path d="M135.673 19.5685C135.482 19.7593 135.291 19.8547 135.1 19.8547H129.375V40.4634C129.375 40.6542 129.328 40.845 129.232 41.0359C129.041 41.1313 128.851 41.179 128.66 41.179H124.08C123.889 41.179 123.699 41.1313 123.508 41.0359C123.412 40.845 123.365 40.6542 123.365 40.4634V19.8547H117.497C117.306 19.8547 117.163 19.7593 117.067 19.5685C116.877 19.4731 116.781 19.33 116.781 19.1392V15.5613C116.781 15.3705 116.877 15.1796 117.067 14.9888C117.163 14.8934 117.306 14.8457 117.497 14.8457H135.1C135.291 14.8457 135.482 14.8934 135.673 14.9888C135.863 15.1796 135.959 15.3705 135.959 15.5613V19.1392C135.959 19.33 135.863 19.4731 135.673 19.5685Z" fill="url(#paint3_linear_2491_14534)"/>
<path d="M59.6794 47.7622C61.2059 47.7622 62.494 47.953 63.5435 48.3347C64.4976 48.7163 65.2132 49.2411 65.6902 49.9089C66.2627 50.5768 66.6443 51.3401 66.8351 52.1988C67.026 53.0575 67.1214 53.9639 67.1214 54.918V73.523C67.1214 73.7138 67.0737 73.857 66.9783 73.9524C66.7875 74.1432 66.5966 74.2386 66.4058 74.2386H61.8261C61.6353 74.2386 61.4445 74.1432 61.2537 73.9524C61.1583 73.857 61.1105 73.7138 61.1105 73.523V54.918C61.1105 54.6318 61.1105 54.3932 61.1105 54.2024C61.1105 54.0116 61.0629 53.8208 60.9674 53.6299C60.7766 53.4391 60.5858 53.296 60.3949 53.2006C60.2041 53.1052 59.9179 53.0575 59.5363 53.0575H53.9547C53.4777 53.0575 53.1438 53.1052 52.953 53.2006C52.7622 53.296 52.619 53.4391 52.5236 53.6299C52.4282 53.8208 52.3805 54.0116 52.3805 54.2024C52.3805 54.3932 52.3805 54.6318 52.3805 54.918V73.523C52.3805 73.7138 52.2851 73.857 52.0943 73.9524C51.9989 74.1432 51.8558 74.2386 51.6649 74.2386H46.9421C46.7513 74.2386 46.6082 74.1432 46.5128 73.9524C46.322 73.857 46.2266 73.7138 46.2266 73.523V54.918C46.2266 53.9639 46.322 53.0575 46.5128 52.1988C46.7036 51.3401 47.0853 50.5768 47.6577 49.9089C48.2302 49.2411 48.9934 48.7163 49.9475 48.3347C50.9016 47.953 52.142 47.7622 53.6686 47.7622H59.6794Z" fill="url(#paint4_linear_2491_14534)"/>
<path d="M82.007 53.0576C81.9116 52.8668 81.8638 52.7236 81.8638 52.6282C81.8638 52.5328 81.7685 52.4851 81.5776 52.4851C81.2914 52.4851 81.1006 52.6759 81.0052 53.0576L76.5686 73.5231C76.5686 73.7139 76.5208 73.857 76.4254 73.9525C76.2346 74.1433 76.0438 74.2387 75.853 74.2387H70.9871C70.51 74.2387 70.2715 74.0479 70.2715 73.6662C70.2715 73.6662 70.3192 73.6185 70.4146 73.5231L75.7099 51.4833C75.9007 50.6246 76.187 49.909 76.5686 49.3366C76.9502 48.8595 77.4273 48.4779 77.9998 48.1917C78.4768 47.9054 79.0492 47.7146 79.7171 47.6192C80.2895 47.5238 80.9098 47.4761 81.5776 47.4761C82.1501 47.4761 82.7703 47.5238 83.4381 47.6192C84.0106 47.7146 84.5353 47.9054 85.0124 48.1917C85.5848 48.4779 86.0619 48.8595 86.4435 49.3366C86.8252 49.909 87.1591 50.6246 87.4454 51.4833L92.7406 73.5231C92.7406 73.6185 92.7406 73.6662 92.7406 73.6662C92.7406 74.0479 92.5498 74.2387 92.1681 74.2387H87.1591C86.9683 74.2387 86.8252 74.1433 86.7298 73.9525C86.539 73.857 86.4435 73.7139 86.4435 73.5231L82.007 53.0576Z" fill="url(#paint5_linear_2491_14534)"/>
<path fill-rule="evenodd" clip-rule="evenodd" d="M116.495 73.6662C116.495 74.0479 116.304 74.2387 115.922 74.2387H110.913C110.722 74.2387 110.579 74.1433 110.484 73.9525C110.293 73.857 110.198 73.7139 110.198 73.5231L108.909 67.7985H101.611L100.323 73.5231C100.323 73.7139 100.227 73.857 100.036 73.9525C99.9409 74.1433 99.7978 74.2387 99.6069 74.2387H94.741C94.2639 74.2387 94.0254 74.0479 94.0254 73.6662C94.0254 73.6662 94.0254 73.6185 94.0254 73.5231C94.1208 73.5231 94.1686 73.5231 94.1686 73.5231L99.4639 51.4833C99.6547 50.6246 99.9409 49.909 100.323 49.3366C100.704 48.8595 101.181 48.4779 101.754 48.1917C102.231 47.9054 102.803 47.7146 103.471 47.6192C104.044 47.5238 104.664 47.4761 105.332 47.4761C105.904 47.4761 106.476 47.5238 107.049 47.6192C107.717 47.7146 108.289 47.9054 108.766 48.1917C109.339 48.4779 109.816 48.8595 110.198 49.3366C110.579 49.909 110.913 50.6246 111.199 51.4833L116.495 73.5231C116.495 73.6185 116.495 73.6662 116.495 73.6662ZM105.761 53.0576C105.665 52.8668 105.618 52.7236 105.618 52.6282C105.522 52.5328 105.427 52.4851 105.332 52.4851C105.045 52.4851 104.854 52.6759 104.759 53.0576L102.612 62.9325H107.908L105.761 53.0576Z" fill="url(#paint6_linear_2491_14534)"/>
<path d="M135.389 73.6662C135.294 73.7616 135.103 73.857 134.817 73.9525C134.435 74.0479 133.767 74.1433 132.813 74.2387C131.859 74.4295 130.762 74.5249 129.522 74.5249C128.186 74.5249 126.898 74.3341 125.658 73.9525C124.322 73.5708 123.177 72.9506 122.223 72.0919C121.269 71.1378 120.505 69.9452 119.933 68.5141C119.361 67.0829 119.074 65.3178 119.074 63.2188V58.7822C119.074 56.6832 119.361 54.9181 119.933 53.4869C120.505 51.9604 121.269 50.7677 122.223 49.909C123.177 49.0503 124.322 48.4302 125.658 48.0485C126.898 47.6669 128.186 47.4761 129.522 47.4761C130.762 47.4761 131.859 47.5715 132.813 47.7623C133.767 47.8577 134.435 47.9531 134.817 48.0485C135.103 48.1439 135.294 48.2394 135.389 48.3348C135.58 48.4302 135.676 48.621 135.676 48.9072V52.342C135.676 52.8191 135.437 53.0576 134.96 53.0576H134.817C134.149 53.0576 133.338 53.0099 132.384 52.9145C131.525 52.819 130.571 52.7713 129.522 52.7713C128.949 52.7713 128.377 52.8668 127.804 53.0576C127.327 53.2484 126.898 53.5823 126.516 54.0594C126.039 54.5364 125.705 55.1566 125.514 55.9199C125.324 56.6832 125.228 57.6373 125.228 58.7822V63.2188C125.228 64.4591 125.324 65.4609 125.514 66.2242C125.705 66.9875 126.039 67.5599 126.516 67.9416C126.898 68.4186 127.327 68.7526 127.804 68.9434C128.377 69.1342 128.949 69.2296 129.522 69.2296C130.571 69.2296 131.525 69.1819 132.384 69.0865C133.338 69.0865 134.149 69.0388 134.817 68.9434H134.96C135.437 68.9434 135.676 69.1819 135.676 69.659V73.0938C135.676 73.38 135.58 73.5708 135.389 73.6662Z" fill="url(#paint7_linear_2491_14534)"/>
<path d="M156.713 52.6281C156.618 52.7235 156.474 52.7713 156.284 52.7713H150.559V73.523C150.559 73.7138 150.464 73.857 150.273 73.9524C150.177 74.1432 150.034 74.2386 149.843 74.2386H145.121C144.93 74.2386 144.787 74.1432 144.691 73.9524C144.5 73.857 144.405 73.7138 144.405 73.523V52.7713H138.68C138.49 52.7713 138.299 52.7235 138.108 52.6281C138.013 52.5327 137.965 52.3896 137.965 52.1988V48.4778C137.965 48.287 138.013 48.1439 138.108 48.0484C138.299 47.8576 138.49 47.7622 138.68 47.7622H156.284C156.474 47.7622 156.618 47.8576 156.713 48.0484C156.904 48.1439 156.999 48.287 156.999 48.4778V52.1988C156.999 52.3896 156.904 52.5327 156.713 52.6281Z" fill="url(#paint8_linear_2491_14534)"/>
<path d="M36.0676 75.2409C35.7813 75.2409 35.4952 75.1932 35.2089 75.0978L17.1764 71.9492L17.0332 70.0887L35.4952 73.3804C36.3539 73.5235 37.2126 73.2373 37.9282 72.6648C38.6437 72.2354 38.9299 71.3768 38.9299 70.5181V4.82801C38.9299 3.8262 38.6437 3.11063 37.9282 2.53816C37.2126 1.9657 36.3538 1.67947 35.352 1.82259L9.87745 7.11786C8.4463 7.40409 7.44447 8.54901 7.44447 9.98017V43.0399H5.58398V9.98017C5.58398 7.69032 7.30139 5.82982 9.44812 5.25736L35.0658 0.105199C36.497 -0.181032 37.9281 0.1052 39.0731 1.10701C40.218 1.9657 40.7905 3.39686 40.7905 4.82801V70.5181C40.7905 71.9492 40.218 73.2373 39.0731 74.0959C38.2144 74.8115 37.0694 75.2409 36.0676 75.2409Z" fill="url(#paint9_linear_2491_14534)"/>
<path d="M3.29164 13.4148L14.0253 11.2681V43.6122H0.143081C0.143081 43.6122 0.0954104 43.6122 0 43.6122V17.422C0 15.5615 1.43114 13.8441 3.29164 13.4148Z" fill="#EADA86"/>
<path d="M0.143081 46.4746H14.0253V78.9618L3.43472 77.1013C1.4311 76.672 0 75.0977 0 73.0941V46.4746C0.0954104 46.4746 0.143081 46.4746 0.143081 46.4746Z" fill="url(#paint10_linear_2491_14534)"/>
<path d="M33.347 12.4131V43.6123C33.2516 43.6123 33.2038 43.6123 33.2038 43.6123H16.8887V10.8389C16.8887 10.8389 16.8887 10.7912 16.8887 10.6957L28.481 8.26278C30.914 7.83344 33.347 9.69394 33.347 12.4131Z" fill="url(#paint11_linear_2491_14534)"/>
<path d="M33.2038 46.4751C33.2038 46.4751 33.2516 46.4751 33.347 46.4751V77.3881C33.347 79.9641 31.0571 81.9678 28.481 81.5384L16.8887 79.3917C16.8887 79.3917 16.8887 79.344 16.8887 79.2486V46.4751H33.2038Z" fill="#EADA86"/>
<defs>
<linearGradient id="paint0_linear_2491_14534" x1="55.3144" y1="14.5596" x2="55.3144" y2="41.4653" gradientUnits="userSpaceOnUse">
<stop offset="0.1" stop-color="#F7EF8A"/>
<stop offset="0.745" stop-color="#E2C283"/>
</linearGradient>
<linearGradient id="paint1_linear_2491_14534" x1="78.2111" y1="14.5596" x2="78.2111" y2="41.1791" gradientUnits="userSpaceOnUse">
<stop offset="0.1" stop-color="#F7EF8A"/>
<stop offset="0.745" stop-color="#E2C283"/>
</linearGradient>
<linearGradient id="paint2_linear_2491_14534" x1="103.045" y1="14.8457" x2="103.045" y2="41.179" gradientUnits="userSpaceOnUse">
<stop offset="0.1" stop-color="#F7EF8A"/>
<stop offset="0.745" stop-color="#E2C283"/>
</linearGradient>
<linearGradient id="paint3_linear_2491_14534" x1="126.37" y1="14.8457" x2="126.37" y2="41.179" gradientUnits="userSpaceOnUse">
<stop offset="0.1" stop-color="#F7EF8A"/>
<stop offset="0.745" stop-color="#E2C283"/>
</linearGradient>
<linearGradient id="paint4_linear_2491_14534" x1="56.674" y1="47.7622" x2="56.674" y2="74.2386" gradientUnits="userSpaceOnUse">
<stop offset="0.1" stop-color="#F7EF8A"/>
<stop offset="0.745" stop-color="#E2C283"/>
</linearGradient>
<linearGradient id="paint5_linear_2491_14534" x1="81.5061" y1="47.4761" x2="81.5061" y2="74.2387" gradientUnits="userSpaceOnUse">
<stop offset="0.1" stop-color="#F7EF8A"/>
<stop offset="0.745" stop-color="#E2C283"/>
</linearGradient>
<linearGradient id="paint6_linear_2491_14534" x1="105.26" y1="47.4761" x2="105.26" y2="74.2387" gradientUnits="userSpaceOnUse">
<stop offset="0.1" stop-color="#F7EF8A"/>
<stop offset="0.745" stop-color="#E2C283"/>
</linearGradient>
<linearGradient id="paint7_linear_2491_14534" x1="127.375" y1="47.4761" x2="127.375" y2="74.5249" gradientUnits="userSpaceOnUse">
<stop offset="0.1" stop-color="#F7EF8A"/>
<stop offset="0.745" stop-color="#E2C283"/>
</linearGradient>
<linearGradient id="paint8_linear_2491_14534" x1="147.482" y1="47.7622" x2="147.482" y2="74.2386" gradientUnits="userSpaceOnUse">
<stop offset="0.1" stop-color="#F7EF8A"/>
<stop offset="0.745" stop-color="#E2C283"/>
</linearGradient>
<linearGradient id="paint9_linear_2491_14534" x1="23.1872" y1="0" x2="23.1872" y2="75.2409" gradientUnits="userSpaceOnUse">
<stop offset="0.1" stop-color="#F7EF8A"/>
<stop offset="0.745" stop-color="#E2C283"/>
</linearGradient>
<linearGradient id="paint10_linear_2491_14534" x1="7.01265" y1="46.4746" x2="7.01265" y2="78.9618" gradientUnits="userSpaceOnUse">
<stop offset="0.1" stop-color="#F7EF8A"/>
<stop offset="0.745" stop-color="#E2C283"/>
</linearGradient>
<linearGradient id="paint11_linear_2491_14534" x1="25.1178" y1="8.20117" x2="25.1178" y2="43.6123" gradientUnits="userSpaceOnUse">
<stop offset="0.1" stop-color="#F7EF8A"/>
<stop offset="0.745" stop-color="#E2C283"/>
</linearGradient>
</defs>
</svg>
