<svg width="32" height="26" viewBox="0 0 32 26" fill="none" xmlns="http://www.w3.org/2000/svg">
<path id="Vector" d="M3.66981 3.57143L13.2004 10.8193L13.2035 10.8219C14.2618 11.6034 14.7912 11.9944 15.3711 12.1455C15.8837 12.279 16.4224 12.279 16.935 12.1455C17.5154 11.9943 18.0464 11.6022 19.1065 10.8193C19.1065 10.8193 25.2195 6.09505 28.6367 3.57143M2.10938 18.9717V7.02888C2.10938 5.26871 2.10938 4.38797 2.44953 3.71568C2.74874 3.12431 3.22582 2.64387 3.81305 2.34255C4.48064 2 5.35521 2 7.10306 2H25.2041C26.9519 2 27.8246 2 28.4922 2.34255C29.0794 2.64387 29.5581 3.12431 29.8573 3.71568C30.1972 4.38732 30.1972 5.26699 30.1972 7.02372V18.9771C30.1972 20.7338 30.1972 21.6122 29.8573 22.2838C29.5581 22.8752 29.0794 23.3565 28.4922 23.6578C27.8253 24 26.953 24 25.2086 24H7.09794C5.3535 24 4.47999 24 3.81305 23.6578C3.22582 23.3565 2.74874 22.8752 2.44953 22.2838C2.10938 21.6115 2.10938 20.7319 2.10938 18.9717Z" stroke="url(#paint0_linear_805_5749)" stroke-width="3" stroke-linecap="round" stroke-linejoin="round"/>
<defs>
<linearGradient id="paint0_linear_805_5749" x1="2.10938" y1="11.5574" x2="34.9621" y2="11.6682" gradientUnits="userSpaceOnUse">
<stop offset="0.309726" stop-color="#DFC38E"/>
<stop offset="0.870713" stop-color="#CEA654"/>
</linearGradient>
</defs>
</svg>
