<svg width="30" height="30" viewBox="0 0 30 30" fill="none" xmlns="http://www.w3.org/2000/svg">
<path id="Vector" d="M11.531 3.81598C11.0909 2.71919 10.0254 2 8.84041 2H4.85473C3.33851 2 2.10938 3.22503 2.10938 4.73655C2.10938 17.5844 12.5573 28 25.4452 28C26.9614 28 28.1902 26.7746 28.1902 25.2631L28.1909 21.2891C28.1909 20.1078 27.4696 19.0457 26.3694 18.607L22.5494 17.0843C21.5611 16.6902 20.4359 16.8675 19.6182 17.5468L18.6323 18.3665C17.4809 19.3231 15.7868 19.247 14.727 18.1905L11.9509 15.4204C10.8911 14.3639 10.8127 12.6764 11.7722 11.5286L12.5943 10.5458C13.2758 9.73061 13.4552 8.60857 13.0599 7.62336L11.531 3.81598Z" stroke="url(#paint0_linear_805_5743)" stroke-width="3" stroke-linecap="round" stroke-linejoin="round"/>
<defs>
<linearGradient id="paint0_linear_805_5743" x1="2.10938" y1="13.2951" x2="32.6156" y2="13.376" gradientUnits="userSpaceOnUse">
<stop offset="0.309726" stop-color="#DFC38E"/>
<stop offset="0.870713" stop-color="#CEA654"/>
</linearGradient>
</defs>
</svg>
