<svg width="54" height="59" viewBox="0 0 54 59" fill="none" xmlns="http://www.w3.org/2000/svg">
<g id="Group 48374">
<rect id="Rectangle 121" width="54" height="59" rx="5" fill="#404040"/>
<path id="Vector" d="M14.7281 15.2363C14.8245 15.182 14.9865 15.1046 15.0945 15.0697C15.2102 15.0271 15.4069 15 15.5959 15C15.7656 15 15.9931 15.0232 16.0972 15.0581C16.2052 15.0891 17.0807 15.5113 18.0448 15.9993C19.009 16.4873 21.5697 17.7809 23.7333 18.8731C25.8968 19.9654 29.5336 21.8012 31.8128 22.9516C34.0921 24.1019 37.5013 25.8254 39.3911 26.7782C41.2808 27.731 42.9006 28.5715 42.997 28.6412C43.0934 28.7109 43.2361 28.8658 43.3132 28.982C43.3903 29.0982 43.4829 29.2919 43.5176 29.4081C43.5639 29.5553 43.5793 29.7063 43.5677 29.8922C43.5562 30.0743 43.5176 30.2331 43.452 30.3764C43.3942 30.5003 43.2708 30.663 43.1628 30.7598C43.0201 30.8915 42.4262 31.2091 40.5866 32.1386C39.2715 32.801 36.2017 34.3541 33.7604 35.5857C31.4742 36.741 28.4008 38.2916 26.6789 39.1603L26.3558 39.3233C24.7206 40.1483 21.7163 41.6666 15.9661 44.5714H15.5496C15.1755 44.5714 15.1099 44.5598 14.9133 44.4669C14.7898 44.4049 14.6086 44.2809 14.5083 44.188C14.3849 44.077 14.2795 43.9259 14.1921 43.7348C14.0725 43.4792 14.0571 43.4134 14.0609 43.1384C14.0609 42.8672 14.0879 42.7627 14.2576 42.2863C14.361 42.0008 14.5598 41.4633 14.7085 41.0611L14.7281 41.0081C14.8785 40.6015 15.1099 39.9779 15.2488 39.6138C15.3838 39.2497 15.5843 38.7114 15.6923 38.4131C15.8003 38.1149 15.9352 37.7586 15.9892 37.6191C16.0432 37.4797 16.1281 37.2551 16.1782 37.1156C16.2207 36.9878 16.341 36.6644 16.4528 36.3637L16.4829 36.2829C16.6024 35.9653 16.7528 35.5625 16.8184 35.3921C16.8811 35.229 16.9898 34.9277 17.07 34.7052L17.0807 34.6756C17.1616 34.4509 17.3313 33.9978 17.4586 33.6685C17.582 33.3393 17.7131 32.9752 17.7478 32.8668C17.7864 32.7545 17.825 32.6615 17.8404 32.6615C17.8597 32.6615 18.1682 32.6073 18.5269 32.5453C18.8855 32.4795 19.3985 32.3943 19.6646 32.3517C19.9307 32.3129 20.5092 32.2161 20.9565 32.1386C21.4039 32.0612 21.8705 31.9837 21.9978 31.9644C22.1251 31.945 22.6959 31.8482 23.2705 31.7513C23.8451 31.6506 24.52 31.5383 24.7746 31.4996C25.0291 31.4608 25.542 31.3756 25.9123 31.3098C26.2825 31.244 27.2814 31.0774 28.1298 30.938C28.9783 30.7985 29.7264 30.6746 29.7881 30.663C29.8498 30.6514 30.2586 30.5816 30.6944 30.5081C31.1302 30.4306 31.6933 30.3376 31.9478 30.2989C32.2024 30.2563 32.8773 30.144 33.4519 30.0472C34.0265 29.9503 34.5009 29.8612 34.5125 29.8535C34.524 29.8419 34.524 29.8264 34.5125 29.8148C34.5009 29.807 33.9648 29.7102 33.3169 29.6017C32.669 29.4933 31.9864 29.381 31.7936 29.3461C31.6007 29.3151 31.0917 29.226 30.6559 29.1525C30.2201 29.075 29.7534 28.9975 29.6146 28.9782C29.4758 28.9588 29.2752 28.9278 29.1711 28.9084C29.067 28.893 28.4422 28.7845 27.7827 28.6761C27.1232 28.5676 26.3365 28.4321 26.028 28.3817C25.7194 28.3275 25.1988 28.2423 24.871 28.188C24.5432 28.1299 23.9184 28.0254 23.4826 27.9518C23.0468 27.8782 22.6226 27.8085 22.5377 27.7969C22.4529 27.7852 22.2524 27.7504 22.0942 27.7233C21.9361 27.6923 21.4309 27.6032 20.9758 27.5296C20.5207 27.4521 19.9384 27.3592 19.6839 27.3166C19.4293 27.2779 18.9974 27.2081 18.7197 27.1617C18.442 27.1152 18.1335 27.061 17.8327 27.0067L17.744 26.7666L17.7388 26.7527C17.688 26.6151 17.6031 26.3856 17.5434 26.2321C17.4856 26.0733 17.3583 25.7325 17.2619 25.4768C17.1655 25.2212 16.9727 24.6983 16.83 24.3149C16.6911 23.9315 16.5562 23.5751 16.5369 23.5209C16.5137 23.4667 16.4366 23.2653 16.3672 23.0755C16.2939 22.8857 16.1744 22.5526 16.1011 22.3396C16.024 22.1266 15.9468 21.9174 15.9275 21.8748C15.9083 21.8322 15.8118 21.5882 15.7193 21.3326C15.6229 21.077 15.4493 20.5967 15.3298 20.2675C15.2102 19.9383 15.0945 19.6323 15.0752 19.5897C15.0521 19.5471 14.9441 19.2527 14.8284 18.9312C14.7166 18.6136 14.5276 18.0985 14.408 17.7887C14.2885 17.4788 14.1458 17.0876 14.0879 16.9172C14.0108 16.6732 13.9915 16.557 14.0031 16.375C14.0147 16.2472 14.0648 16.0457 14.1149 15.9296C14.1689 15.8134 14.2885 15.6313 14.381 15.5267C14.4775 15.426 14.6317 15.2944 14.7281 15.2363Z" fill="white"/>
</g>
</svg>
