<svg width="106" height="117" viewBox="0 0 106 117" fill="none" xmlns="http://www.w3.org/2000/svg">
<path id="Vector" fill-rule="evenodd" clip-rule="evenodd" d="M52.7921 0.0070919C65.3354 -0.0157627 65.3584 -0.0157628 67.4719 0.532749C68.6436 0.829859 70.3206 1.37837 71.2166 1.74404C72.1125 2.13257 73.2841 2.70394 73.8585 3.06961C74.4328 3.41243 75.6044 4.28091 76.5004 4.9894C77.3733 5.6979 78.7517 7.09203 79.5328 8.09764C80.3369 9.10324 81.4396 10.8402 82.0139 11.9829C82.5653 13.1257 83.2545 14.8169 83.5301 15.7539C83.8977 17.0338 84.0355 18.3137 84.1045 20.8962C84.1964 23.7302 84.0585 25.81 82.4734 41.374L83.4382 41.9225C83.9896 42.2425 84.6788 42.8367 85.0004 43.2481C85.322 43.6366 85.7355 44.5051 85.9193 45.1222C86.172 45.9678 86.2639 47.3619 86.2639 50.6073C86.2639 53.9212 86.172 55.2468 85.8964 56.2067C85.6207 57.1437 85.2531 57.7379 84.472 58.515C83.8747 59.0863 83.0247 59.6577 82.5882 59.7948C82.1517 59.932 81.4166 60.1148 80.9801 60.1834C80.3139 60.2976 80.0152 60.5719 79.2342 61.7603C78.7058 62.5374 78.1544 63.6344 77.9936 64.2058C77.8328 64.7771 77.3963 65.8513 77.0287 66.6055C76.5693 67.474 75.6274 68.6853 72.4571 71.8621L72.4801 73.5305C72.4801 74.9017 72.549 75.1989 72.8706 75.3131C73.1003 75.3817 73.6287 75.6102 74.0652 75.8159C74.5477 76.0673 75.3517 76.9358 76.2706 78.2614C77.0747 79.3813 77.8787 80.684 78.4301 81.9181L88.9518 84.3864C94.741 85.7348 99.9329 87.0604 100.507 87.3575C101.082 87.6318 102.161 88.4774 102.919 89.2316C103.7 89.9858 104.55 91.1285 104.849 91.7456C105.148 92.3856 105.538 93.5968 105.722 94.4882C105.975 95.7452 106.044 97.8021 105.975 104.201C105.906 112.109 105.883 112.338 105.378 113.458C105.079 114.097 104.573 114.897 104.229 115.24C103.884 115.606 103.08 116.154 101.311 117H4.59462L3.44596 116.451C2.80272 116.154 2.02163 115.606 1.67704 115.24C1.33244 114.897 0.827031 114.097 0.528381 113.458C0 112.338 0 112.223 0 103.401C0 94.6024 0 94.4653 0.551354 93.0026C0.850004 92.1799 1.35541 91.1057 1.72298 90.6029C2.06758 90.1001 2.80272 89.2773 3.37704 88.7745C3.95137 88.2717 4.87029 87.6318 5.42165 87.3575C5.973 87.0833 11.0271 85.7577 16.6555 84.4321C22.2839 83.1066 27.0623 81.9638 27.269 81.9181C27.4988 81.8496 27.7285 81.5753 27.7974 81.301C27.8434 81.0039 28.6015 79.7469 29.4745 78.4899C30.5542 76.9587 31.3353 76.0673 31.8407 75.8159C32.2772 75.6102 32.8056 75.3817 33.0123 75.3131C33.3569 75.1989 33.4258 74.9017 33.4258 71.7478L31.8866 70.3308C31.0596 69.5309 29.9569 68.2739 29.4745 67.5197C28.992 66.7655 28.3718 65.5771 28.1191 64.8914C27.8664 64.2058 27.5447 62.8574 27.1542 60.2062L25.5231 60.1605C24.4663 60.1148 23.5704 59.9548 22.9731 59.6577C22.4677 59.4063 21.6636 58.7892 21.1812 58.2864C20.6528 57.7151 20.1933 56.8923 19.9866 56.1609C19.7339 55.2696 19.642 53.7841 19.642 50.6073C19.642 47.3619 19.7339 45.9678 19.9866 45.1222C20.1704 44.5051 20.5839 43.6366 20.9055 43.2481C21.2271 42.8367 21.9163 42.2425 23.4325 41.374L22.5596 32.8492C21.8474 25.81 21.7096 23.7302 21.8015 20.8962C21.8704 18.3137 22.0082 17.0338 22.3758 15.7539C22.6515 14.8169 23.3407 13.1257 23.892 11.9829C24.4663 10.863 25.569 9.10324 26.3731 8.09764C27.1542 7.09203 28.5326 5.6979 29.4055 4.9894C30.3015 4.28091 31.4731 3.41243 32.0475 3.06961C32.6218 2.70394 33.7934 2.10972 34.6894 1.74404C35.5623 1.37837 37.1704 0.829859 38.2502 0.555603C40.1569 0.0528012 40.4556 0.0299465 52.7692 0.0070919H52.7921ZM37.2853 4.66944C36.3894 4.9894 34.8961 5.67504 34.0231 6.2007C33.1042 6.74921 31.6339 7.93765 30.5772 8.98897C29.5664 10.0174 28.3947 11.4116 28.0042 12.0972C27.5907 12.7828 26.9704 14.017 26.6488 14.8398C26.3042 15.6625 25.8907 16.9881 25.7299 17.8109C25.5461 18.6336 25.4312 20.4391 25.4312 21.8104C25.4312 23.2046 25.8217 28.0726 26.2812 32.6664C27.0853 40.4827 27.1542 41.0083 27.5907 41.0769C27.9812 41.1454 28.3028 40.5512 29.842 36.7345C30.8299 34.3119 31.8637 32.095 32.1393 31.8208C32.5988 31.3637 32.9434 31.2951 35.861 31.1808C37.6299 31.1123 40.8921 30.8837 43.0975 30.7009C45.3029 30.518 48.7719 30.1067 50.7935 29.8095C52.8151 29.5124 55.7557 28.9868 57.3408 28.6668C58.926 28.324 61.3841 27.7069 62.7854 27.2727C64.2098 26.8384 66.1625 26.1985 67.1044 25.81C68.0463 25.4443 69.5395 24.7587 70.4355 24.3244C71.3314 23.8902 72.3193 23.5245 72.6639 23.5245C73.0314 23.5245 73.5368 23.7302 73.8125 23.9816C74.1112 24.233 74.3409 24.4616 74.3409 24.5073C74.3409 24.5301 75.1679 28.2554 76.1787 32.7806C77.2125 37.3059 78.0855 41.054 78.1315 41.1226C78.2004 41.1912 78.3612 41.1683 78.522 41.0997C78.7288 40.9855 79.0963 38.2886 79.6936 32.1864C80.1761 27.3641 80.5436 22.4961 80.5436 21.3533C80.5436 20.2334 80.4058 18.6336 80.222 17.8109C80.0612 16.9881 79.6477 15.6625 79.3031 14.8398C78.9815 14.017 78.3612 12.7828 77.9477 12.0972C77.5571 11.4116 76.3855 10.0174 75.3747 8.98897C74.3179 7.93765 72.8476 6.74921 71.9287 6.2007C71.0328 5.67504 69.6084 5.01226 68.7125 4.69229C67.8165 4.37233 66.4382 4.02951 65.6111 3.89238C64.6922 3.7324 59.8219 3.66383 52.7462 3.66383C46.4975 3.68669 40.8232 3.77811 40.1569 3.89238C39.5137 4.00665 38.2042 4.34947 37.2853 4.66944ZM65.4963 30.2666C63.8652 30.8151 60.8557 31.6151 58.8341 32.0722C56.8124 32.5292 53.803 33.1006 52.1719 33.352C50.5178 33.6034 47.784 33.9462 46.084 34.1519C44.384 34.3348 41.1218 34.5862 38.8475 34.7233C36.5732 34.8376 34.6434 35.0204 34.5515 35.1118C34.4826 35.2032 33.7015 37.0545 32.8285 39.1799C31.9785 41.3054 31.0366 43.3395 30.761 43.6823L30.2326 44.3222C30.761 56.6409 31.0366 60.869 31.1515 61.6918C31.2893 62.5145 31.6569 63.7487 31.9785 64.4343C32.3002 65.12 32.8975 66.1027 33.288 66.5827C33.7015 67.0855 36.1367 69.0738 38.7326 70.9936C41.3286 72.9363 44.1083 74.856 44.9354 75.2446L46.4286 75.9759H59.5233C61.8435 74.856 64.2557 73.2105 66.4152 71.6107C68.5747 70.0109 70.7111 68.3653 71.1706 67.9311C71.653 67.5197 71.9976 67.154 71.9287 67.1083C71.8828 67.0855 71.1247 67.2912 70.2747 67.5654C69.4247 67.8397 67.8855 68.2282 66.8746 68.4339C65.8638 68.6396 63.9571 68.9138 62.6246 69.0281C61.1314 69.1652 60.1665 69.3481 60.0976 69.5309C60.0516 69.6909 59.73 70.1023 59.4084 70.4679C59.0868 70.8336 58.4206 71.3364 57.9151 71.5421C57.2489 71.8392 56.4219 71.9764 54.9746 71.9764C53.6881 71.9764 52.6773 71.8621 52.103 71.6107C51.6435 71.4278 51.0002 71.0393 50.7246 70.7651C50.4259 70.4908 49.9665 69.8509 49.7137 69.3481C49.4381 68.7996 49.2543 67.9768 49.2543 67.2912C49.2543 66.6055 49.4381 65.7827 49.7137 65.2342C49.9665 64.7314 50.4259 64.0915 50.7246 63.8172C51.0002 63.543 51.6435 63.1545 52.103 62.9716C52.6773 62.7202 53.6881 62.606 55.0435 62.606C56.4908 62.606 57.3408 62.7202 57.8462 62.9716C58.2597 63.1773 58.857 63.5658 59.1327 63.8401C59.4314 64.0915 59.8219 64.5943 60.0057 64.9371C60.3273 65.5542 60.3733 65.5771 61.7516 65.4399C62.5557 65.3714 64.1408 65.1657 65.2665 64.9828C66.3922 64.8 68.1611 64.3886 69.172 64.0686C70.1828 63.7487 71.5841 63.1773 72.2733 62.8116C72.9625 62.446 73.8585 61.8746 74.272 61.5318L74.9841 60.8919C75.6963 44.2765 75.6963 43.9566 75.3058 43.5223C75.0531 43.2709 74.7544 42.7681 74.6166 42.3796C74.4787 41.9911 73.7436 38.8143 72.9625 35.2947C72.1814 31.775 71.5152 28.7125 71.4463 28.484C71.4003 28.2783 71.2855 28.0954 71.1706 28.1183C71.0787 28.1183 70.4355 28.3697 69.7463 28.6897C69.0571 29.0096 67.1273 29.7181 65.4963 30.2666ZM23.4555 50.6073V55.2468C24.3515 56.1609 24.9717 56.4809 25.4082 56.5495C25.8447 56.618 26.419 56.618 26.6717 56.5266C27.1082 56.3666 27.1312 56.2524 26.9474 52.3442C26.8555 50.1273 26.6947 47.5219 26.6028 46.5391L26.442 44.7793C24.788 44.7793 24.4204 44.9165 24.0069 45.3736C23.4555 45.9449 23.4555 46.0135 23.4555 50.6073ZM79.3031 46.5391C79.2342 47.5219 79.0963 50.1273 79.0044 52.3442C78.8206 56.2524 78.8436 56.3666 79.2801 56.5266C79.5328 56.618 80.1071 56.618 80.5436 56.5495C80.9801 56.4809 81.6004 56.1609 81.922 55.841L82.4963 55.2468C82.4963 45.9678 82.4963 45.9678 81.922 45.3736C81.4855 44.9165 81.118 44.7793 80.4058 44.7793H79.4409L79.3031 46.5391ZM52.93 67.2683C52.93 67.5197 53.0908 67.8625 53.2516 68.0225C53.4354 68.2053 54.0786 68.2968 55.0205 68.2511C56.1922 68.2053 56.5368 68.0911 56.7895 67.7482C57.0651 67.3597 57.0422 67.1997 56.7665 66.7655C56.4678 66.3313 56.2151 66.2627 54.9746 66.2627C54.1705 66.2627 53.3894 66.377 53.2057 66.5141C53.0219 66.6741 52.907 67.0169 52.93 67.2683ZM37.1245 77.0044L52.9759 91.1743L68.8274 77.0044C68.8274 75.0389 68.8044 74.4675 68.7814 74.4675C68.7355 74.4675 67.7246 75.1989 66.5301 76.0902C65.3354 76.9587 63.6354 78.0328 62.7395 78.4442C61.8665 78.8785 60.557 79.3584 59.8679 79.5412C58.9719 79.7698 56.9962 79.8383 52.9759 79.8383C48.9556 79.8383 46.98 79.7698 46.084 79.5412C45.3948 79.3584 44.1083 78.8785 43.2124 78.4442C42.3394 78.0328 40.6624 76.9587 39.4907 76.0902C38.3421 75.1989 37.3313 74.4675 37.2623 74.4675C37.1934 74.4675 37.1245 75.0389 37.1245 75.7245V77.0044ZM31.565 82.1695C31.588 82.2838 33.3339 86.1462 35.4245 90.7172C37.515 95.3109 39.3759 99.3105 39.5596 99.5848C39.7434 99.859 39.9502 100.11 40.0651 100.11C40.1569 100.11 41.4664 99.1734 42.9826 98.0306C44.4989 96.8879 46.6583 95.3567 47.761 94.6482C48.8637 93.9397 49.7827 93.3226 49.7597 93.2997C49.7597 93.2769 46.1989 90.0544 41.834 86.1691C37.4691 82.2609 33.8164 79.0842 33.7015 79.0842C33.5866 79.0842 33.0583 79.7241 32.5069 80.524C31.9556 81.301 31.542 82.0553 31.565 82.1695ZM56.6976 92.8426L56.1692 93.3454C59.2935 95.3567 61.453 96.8879 62.9692 98.0306C64.4854 99.1734 65.7949 100.11 65.9098 100.11C66.0017 100.11 66.2084 99.859 66.3922 99.5848C66.576 99.3105 68.4368 95.3109 70.5274 90.7172C72.6179 86.1462 74.3409 82.2838 74.3409 82.1467C74.3409 82.0324 73.9044 81.2782 73.3531 80.5011C72.8247 79.7012 72.2963 79.0613 72.1585 79.0842C72.0436 79.0842 68.6206 82.0781 64.5773 85.712C60.5341 89.3687 56.9962 92.5684 56.6976 92.8426ZM8.52301 90.1687C7.7649 90.3743 6.96084 90.6943 6.75409 90.8543C6.38652 91.1514 6.89192 91.6771 12.4514 96.6137C16.8622 100.522 18.815 102.419 19.4812 103.401C19.9636 104.179 20.5839 105.458 20.8366 106.258C21.1352 107.218 21.365 108.772 21.4569 110.555L21.6177 113.366L51.1381 113.343C51.1381 98.6249 51.0692 96.9336 50.8624 97.0479C50.7016 97.1393 49.6908 97.8021 48.611 98.5106C47.5313 99.2191 45.6245 100.613 44.361 101.573C43.0056 102.602 41.6961 103.424 41.1448 103.561C40.6394 103.676 39.8124 103.721 39.3069 103.607C38.8015 103.516 37.9745 103.127 37.4691 102.739C36.6421 102.076 36.1826 101.23 32.7596 93.734C29.1988 85.9863 28.9231 85.4606 28.3947 85.4835C28.0731 85.5063 23.8001 86.4891 18.8609 87.6546C13.9447 88.8202 9.28113 89.9401 8.52301 90.1687ZM68.4828 102.739C67.9774 103.127 67.1503 103.516 66.6449 103.607C66.1395 103.721 65.3125 103.676 64.8071 103.561C64.2557 103.424 62.9462 102.602 61.5908 101.573C60.3273 100.613 58.4206 99.2191 57.3408 98.5106C56.2611 97.8021 55.2503 97.1393 55.1124 97.0479C54.8827 96.9336 54.8138 98.6249 54.8138 105.116V113.343L84.3342 113.366C84.5869 108.772 84.8166 107.218 85.1153 106.258C85.368 105.458 85.9883 104.179 86.4707 103.401C87.1369 102.419 89.0896 100.522 93.5005 96.6137C99.0599 91.6771 99.5653 91.1514 99.2207 90.8771C98.991 90.6943 98.2329 90.3972 97.5437 90.1915C96.8545 89.9858 92.0991 88.8431 86.9761 87.6546C81.8531 86.4433 77.5112 85.4606 77.3044 85.4606C77.0517 85.4606 75.8341 87.906 73.1693 93.734C69.7463 101.253 69.3098 102.076 68.4828 102.739ZM3.81353 103.401V111.972L5.19192 113.343L17.942 113.366C17.6893 109.367 17.4825 107.79 17.2987 107.287C17.1149 106.807 16.7014 105.938 16.3798 105.413C16.0352 104.864 13.3703 102.327 10.3149 99.6076C7.30544 96.9336 4.68651 94.6253 4.50272 94.4425C4.1811 94.1911 4.11218 94.1911 3.97434 94.4882C3.88245 94.6939 3.81353 98.6934 3.81353 103.401ZM89.618 105.298C89.3194 105.778 88.9058 106.624 88.6991 107.173C88.4923 107.744 88.2626 109.367 88.1707 110.784L88.0099 113.366L100.806 113.343L102.138 111.972C102.138 98.602 102.046 94.6024 101.955 94.4425C101.817 94.2368 100.025 95.6995 95.9815 99.2877C92.7883 102.122 89.9396 104.818 89.618 105.298Z" fill="url(#paint0_linear_189_40)"/>
<defs>
<linearGradient id="paint0_linear_189_40" x1="2.09342e-07" y1="50.8279" x2="123.983" y2="51.1248" gradientUnits="userSpaceOnUse">
<stop offset="0.309726" stop-color="#DFC38E"/>
<stop offset="0.870713" stop-color="#CEA654"/>
</linearGradient>
</defs>
</svg>
