<svg xmlns="http://www.w3.org/2000/svg" width="79" height="89" viewBox="0 0 79 89" fill="none">
  <path fill-rule="evenodd" clip-rule="evenodd" d="M5.3255 0.0347656L47.0657 0L48.0723 0.469336C48.9228 0.851758 50.0682 1.92949 55.865 7.71797C61.1411 13.0023 62.7552 14.7232 63.6403 16.4268L63.6924 28.4209C63.7271 37.9119 63.6924 40.502 63.5188 40.8148C63.3973 41.0234 63.1023 41.2668 62.8593 41.3537C62.5816 41.458 62.2345 41.4232 61.9047 41.3016C61.627 41.1799 61.332 40.9539 61.2626 40.7975C61.1758 40.641 61.1237 35.3393 61.1237 17.5566H57.0105C54.7195 17.5566 52.4112 17.4697 51.8385 17.3654C51.2658 17.2611 50.4327 16.983 49.9814 16.757C49.5128 16.5311 48.8186 16.0443 48.4194 15.6619C48.0029 15.2969 47.4302 14.532 47.1178 13.9758C46.8227 13.4021 46.493 12.4809 46.3888 11.9072C46.2847 11.3336 46.1979 9.0043 46.1979 2.60742L5.49905 2.69434L4.80483 3.07676C4.42301 3.26797 3.93705 3.63301 3.72878 3.85898C3.52051 4.06758 3.19076 4.60645 2.99985 5.04102C2.65273 5.82324 2.63538 5.9623 2.63538 76.7451L3.05191 77.6143C3.27754 78.0836 3.78085 78.7094 4.14532 79.0049C4.50978 79.283 5.20401 79.6133 5.67261 79.735C6.31476 79.9088 8.4495 79.9609 20.772 79.9609L21.1712 80.3607C21.3794 80.5693 21.5703 80.9344 21.5703 81.1777C21.5703 81.4211 21.4141 81.8035 20.8935 82.4814L13.7082 82.5336C8.83133 82.5684 6.21063 82.5162 5.49905 82.3945C4.92632 82.2729 3.98911 81.9426 3.43374 81.6471C2.861 81.3342 2.09735 80.7432 1.73289 80.3086C1.35106 79.874 0.847752 79.0918 0.118817 77.6143L0.0320391 71.7041C-0.0200277 68.4535 -0.0200277 52.0963 0.118817 4.9541L0.674196 3.82422C1.00395 3.11152 1.55933 2.36406 2.14942 1.8252C2.72216 1.26895 3.4858 0.782227 4.19738 0.486719L5.3255 0.0347656ZM49.0095 11.6986C49.1137 12.2027 49.4434 12.9154 49.7385 13.2979C50.0335 13.6629 50.6583 14.1844 51.1443 14.4277C51.9773 14.8449 52.1335 14.8623 55.5179 14.9145C57.4617 14.9318 59.0411 14.8971 59.0411 14.8275C59.0411 14.758 56.8022 12.4461 54.06 9.69961C51.3005 6.95312 49.0095 4.69336 48.9401 4.69336C48.8533 4.69336 48.8013 6.0666 48.8013 7.73535C48.8013 9.45625 48.888 11.1771 49.0095 11.6986ZM24.2431 44.0307C24.9373 44.0828 25.4753 44.3088 27.02 45.2301C28.0787 45.8559 29.1547 46.6381 29.4324 46.9684C29.7101 47.2813 30.0919 47.8549 30.2828 48.2373C30.4738 48.6371 30.682 49.4715 30.8382 51.3488L31.706 51.7486C32.2267 51.992 32.9035 52.1484 33.4068 52.1484C33.9622 52.1484 34.8647 51.9051 36.3399 51.3314C38.3532 50.5492 38.5788 50.4971 40.1235 50.4971C41.6681 50.4971 41.859 50.5492 44.4624 51.8008L47.2046 51.1055C49.4261 50.5145 50.1376 50.3928 51.0575 50.4623C51.8385 50.5145 52.7757 50.7752 54.0947 51.2967C55.1534 51.6965 56.3509 52.0789 56.7848 52.1137C57.2187 52.1658 57.7567 52.1484 57.9997 52.0963C58.4163 51.992 58.4336 51.9572 58.3816 50.6361C58.3295 49.6453 58.3989 49.0717 58.6245 48.498C58.7981 48.0809 59.2493 47.3855 59.6312 46.9684C60.0303 46.5512 61.1237 45.7516 62.0783 45.1779C63.0502 44.6043 64.1263 44.1002 64.5081 44.048C64.8899 43.9959 65.48 44.0307 65.8097 44.135C66.1395 44.2393 66.6255 44.5348 66.8858 44.8129C67.1461 45.0736 69.8189 49.4715 72.8388 54.582C75.876 59.71 78.4967 64.1773 78.6702 64.5424C78.8438 64.89 79 65.342 79 65.5332C79 65.7244 78.8264 66.2459 78.6182 66.6979C78.3752 67.202 77.9587 67.6887 77.5248 67.9668C77.143 68.2275 76.2057 68.8012 75.4421 69.2357C74.6264 69.7225 73.6545 70.1223 73.0991 70.2266C72.4222 70.3656 71.8669 70.3482 71.19 70.2092C70.3396 70.0353 70.166 70.0527 69.5065 70.383C69.09 70.5916 68.7255 70.8176 68.6908 70.8871C68.6387 70.9566 68.7949 71.4086 69.0379 71.8779C69.3503 72.5211 69.4544 73.0426 69.4544 73.79C69.4718 74.607 69.3503 75.059 68.9685 75.7891C68.7081 76.3279 68.1701 76.9885 67.7883 77.284C67.3891 77.6143 66.6949 77.9098 66.0701 78.0488C65.3411 78.2227 64.8031 78.24 64.2825 78.1184C63.5882 77.9793 63.5362 77.9967 63.432 78.3965C63.38 78.6398 63.1891 79.1092 63.0329 79.4395C62.8593 79.7871 62.4254 80.326 62.0609 80.6736C61.6791 81.0213 61.0717 81.4037 60.6898 81.5254C60.308 81.6645 59.5444 81.7861 59.0064 81.7861C58.0518 81.7861 57.9997 81.8209 57.9997 82.2207C57.9997 82.4641 57.7741 83.0377 57.5138 83.507C57.2534 83.959 56.7675 84.55 56.4377 84.7934C56.108 85.0541 55.5699 85.3496 55.2749 85.4713C54.9625 85.593 54.2683 85.6973 53.7476 85.6973C53.2269 85.6973 52.498 85.593 52.1509 85.4365C51.7864 85.2975 51.4914 85.1932 51.474 85.2279C51.474 85.2453 51.3699 85.593 51.2658 86.0102C51.1443 86.41 50.7624 87.0705 50.4153 87.4703C50.0509 87.8527 49.3914 88.3742 48.9401 88.6002C48.3327 88.8957 47.812 89 47.0657 89C46.2153 89 45.8335 88.8957 45.0351 88.4611C44.4797 88.1482 43.5425 87.6094 41.859 86.5664L41.3036 86.9836C40.9912 87.2096 40.4532 87.5398 40.1235 87.7137C39.7416 87.9049 39.1168 88.0266 38.3879 88.0439C37.4333 88.0439 37.1036 87.9744 36.3052 87.5225C35.6631 87.1574 35.1771 86.7055 34.83 86.184C34.3267 85.4191 34.2746 85.3844 33.7019 85.4887C33.3721 85.5582 32.7126 85.593 32.2267 85.5756C31.7407 85.5582 31.0118 85.367 30.5952 85.141C30.1614 84.9324 29.5539 84.4283 29.2415 84.0459C28.9118 83.6635 28.5646 83.0725 28.4431 82.7248C28.2349 82.099 28.2002 82.0816 27.2803 81.9947C26.7597 81.96 26.0134 81.7687 25.6315 81.5775C25.2497 81.3863 24.6423 80.8822 24.2778 80.465C23.9133 80.0479 23.5315 79.4047 23.41 79.057C23.2191 78.4313 23.1497 78.3965 22.5075 78.3965C22.1257 78.3965 21.5009 78.2922 21.1364 78.1879C20.7546 78.0662 20.1298 77.6838 19.748 77.3535C19.3488 77.0059 18.8629 76.3801 18.6546 75.9629C18.3943 75.4414 18.2554 74.8678 18.2554 74.2246C18.2554 73.7031 18.3422 73.0078 18.4463 72.6602C18.5678 72.3299 18.9844 71.565 19.4009 70.974C19.8174 70.3656 20.1645 69.8441 20.1645 69.792C20.1645 69.7572 20.043 69.6703 19.9042 69.6182C19.7654 69.5834 19.3141 69.6877 18.9149 69.8789C18.4984 70.0527 17.8215 70.2613 17.3876 70.3135C16.9364 70.383 16.2422 70.3309 15.7389 70.1918C15.2703 70.0701 14.1769 69.5834 13.3264 69.0967C12.476 68.6273 11.4867 67.9668 11.1396 67.6191C10.7231 67.2367 10.4107 66.75 10.2892 66.2807C10.1504 65.7592 10.1504 65.342 10.2718 64.89C10.376 64.525 13.0834 59.8664 16.2942 54.5125C21.0323 46.5859 22.2472 44.7086 22.7505 44.3783C23.2365 44.0654 23.5662 43.9785 24.2431 44.0307ZM18.3943 55.9727C15.4785 60.9094 13.014 65.0986 12.9099 65.3246C12.719 65.6896 12.7884 65.7592 14.1421 66.5588C14.9231 67.0281 15.843 67.4801 16.1727 67.5844C16.5719 67.7061 17.0058 67.7234 17.4397 67.6191C17.7868 67.5148 18.2728 67.2715 18.4984 67.0629C18.7414 66.8369 20.9629 63.2213 23.4621 59.0146C26.5861 53.7303 28.0093 51.1576 28.0787 50.6709C28.1655 50.1668 28.096 49.8018 27.8531 49.2803C27.558 48.724 27.1762 48.3937 25.8225 47.5941C24.9026 47.0379 24.1216 46.5859 24.0869 46.5859C24.0522 46.5859 23.948 46.6902 23.8439 46.8119C23.7571 46.9336 21.2926 51.0533 18.3943 55.9727ZM61.332 49.0369C61.0717 49.4367 60.9502 49.8887 60.9502 50.4102C60.9502 51.0533 61.1411 51.5053 61.9394 52.8438C62.4775 53.765 62.9287 54.7037 62.9287 54.9471C62.9461 55.2078 62.8246 55.5381 62.6857 55.7119C62.5469 55.8857 62.2519 56.0943 62.0262 56.1813C61.8006 56.2682 61.4708 56.2508 61.2105 56.1465C60.9675 56.0596 60.5336 55.5902 60.256 55.1035L59.7353 54.2344C58.451 54.6516 57.6179 54.7559 57.0452 54.7559C56.3509 54.7559 55.5352 54.582 54.6154 54.2691C53.8517 53.991 52.7757 53.6086 52.2203 53.4C51.6823 53.1914 51.0228 53.0176 50.7451 53.0176C50.4848 53.0176 49.0616 53.3305 47.5864 53.7129C45.8682 54.1648 44.7053 54.5646 44.3756 54.8254C44.0979 55.034 43.6987 55.5381 43.5078 55.9031C43.1954 56.5115 43.1607 56.9809 43.1086 59.9359L43.0739 63.2734C43.8723 63.2734 44.4277 63.117 44.8095 62.9432C45.1913 62.752 45.6599 62.3695 45.8335 62.1088C46.007 61.848 46.25 61.3092 46.3541 60.9268C46.4583 60.5443 46.545 60.0229 46.545 59.7621C46.545 59.4376 46.7012 59.1595 47.0136 58.9277C47.2913 58.7365 47.6211 58.5801 47.7599 58.5801C47.8988 58.5801 50.1203 59.8143 52.7063 61.3439C55.2923 62.8563 59.3882 65.2725 61.818 66.7152L66.2436 69.3227C67.6494 68.4014 67.8751 68.158 67.8056 67.9668C67.7362 67.8277 66.7643 66.1242 65.6188 64.1947C64.213 61.8133 63.5535 60.5096 63.5535 60.1445C63.5535 59.8664 63.7097 59.4666 63.9006 59.2754C64.0915 59.0842 64.456 58.9277 64.7163 58.9277C64.994 58.9277 65.3411 59.032 65.4973 59.1537C65.6709 59.2754 66.7469 60.9789 67.9098 62.9258C69.0552 64.89 70.2181 66.7152 70.4611 66.976C70.7214 67.2541 71.2073 67.5322 71.5371 67.6365C71.9189 67.7234 72.3702 67.7234 72.752 67.6191C73.0817 67.5322 73.9842 67.0803 74.7479 66.6109C75.5115 66.1416 76.1363 65.6549 76.119 65.5158C76.119 65.3941 73.6371 61.0658 70.6172 55.9379C67.5974 50.7926 65.0635 46.5859 64.9767 46.6033C64.9073 46.6033 64.1436 47.0205 63.2932 47.5246C62.3213 48.0982 61.575 48.6719 61.332 49.0369ZM33.4416 54.6689C31.8969 54.6689 31.5845 54.6168 30.6647 54.1996C30.0919 53.9389 29.606 53.7303 29.5886 53.765C29.5713 53.7824 27.7663 56.8592 25.5448 60.5791C23.3406 64.3164 21.5877 67.4627 21.6398 67.5844C21.6918 67.7061 21.8307 67.793 21.9348 67.8104C22.0563 67.8104 22.4728 67.6713 22.8546 67.5148C23.3406 67.3236 23.8613 67.2541 24.5902 67.3236C25.1629 67.3584 25.9439 67.567 26.3258 67.7582C26.7076 67.9494 27.2803 68.384 27.5754 68.7316L28.1481 69.3574C29.8316 68.2971 30.0746 68.2275 31.168 68.2449C32.0358 68.2449 32.6085 68.3492 33.0944 68.5752C33.4763 68.7664 34.0837 69.2357 34.4482 69.6182C34.8127 70.0006 35.2118 70.6264 35.3333 71.0088C35.5589 71.7041 35.5589 71.7041 36.5829 71.8084C37.2424 71.8605 37.9019 72.0691 38.4226 72.3646C38.8912 72.6254 39.4987 73.1643 39.7764 73.5814C40.0714 73.9812 40.4012 74.7461 40.5053 75.2676C40.6268 75.9107 40.6441 76.467 40.54 76.9363L40.3838 77.649C41.6681 78.101 42.2235 78.5008 42.7268 79.057C43.1607 79.509 43.6119 80.2043 43.7161 80.5867C43.8376 80.9691 43.9417 81.6471 43.9417 82.099C43.9417 82.551 43.8202 83.2115 43.6814 83.5766C43.5252 83.9242 43.421 84.2893 43.421 84.3588C43.421 84.4283 44.0632 84.8803 44.8442 85.3496C45.6425 85.8189 46.5277 86.2535 46.8054 86.3231C47.1351 86.3926 47.5343 86.3404 47.8814 86.1492C48.2112 85.9928 48.5583 85.6277 48.6971 85.3148C48.836 85.002 48.9054 84.55 48.8707 84.3066C48.8186 84.0807 48.6624 83.7156 48.4889 83.5244C48.3153 83.3332 47.5517 82.8117 46.8054 82.3771C46.0417 81.9252 45.3301 81.4559 45.2087 81.3342C45.1045 81.1951 44.9657 80.8822 44.9136 80.6215C44.8268 80.2391 44.9136 80.0305 45.3301 79.6133C45.712 79.2309 45.9549 79.1266 46.2847 79.1787C46.5277 79.2309 48.1765 80.1348 49.9641 81.1951C52.1683 82.4814 53.4005 83.1072 53.7476 83.1072C54.0253 83.1072 54.4592 82.9682 54.6848 82.7943C54.9278 82.6205 55.2228 82.2381 55.3443 81.9252C55.5352 81.4385 55.5352 81.2646 55.2575 80.7084C54.9972 80.1348 54.5113 79.7871 51.4046 77.9271C49.0095 76.5018 47.7946 75.6848 47.6905 75.4066C47.6037 75.198 47.5864 74.7982 47.6558 74.5375C47.7079 74.2768 47.9335 73.9291 48.1418 73.79C48.3847 73.6162 48.7145 73.5467 48.9748 73.5988C49.2178 73.651 51.474 74.9199 54.0079 76.4322C57.1319 78.2922 58.7807 79.1613 59.1278 79.1787C59.4229 79.1787 59.8741 79.0396 60.1345 78.8832C60.3948 78.7094 60.6898 78.3617 60.794 78.101C60.8981 77.8402 60.9328 77.3883 60.8808 77.0928C60.8287 76.8147 60.6031 76.4148 60.3948 76.2062C60.1692 76.015 58.0344 74.6939 55.6567 73.2859C53.2617 71.8779 51.179 70.5568 51.0054 70.3482C50.8319 70.1396 50.693 69.7746 50.693 69.5312C50.693 69.3053 50.8839 68.9229 51.0922 68.7143C51.3178 68.5057 51.6996 68.3318 51.96 68.3318C52.2897 68.3145 54.4939 69.5486 58.4683 71.9127C63.432 74.8678 64.6296 75.5109 65.1676 75.5283C65.7056 75.5283 65.9312 75.424 66.3478 74.9721C66.6949 74.5723 66.8511 74.2246 66.8511 73.79C66.8511 73.3728 66.7122 73.0426 66.3651 72.6775C66.1048 72.3994 62.2345 70.0006 57.7394 67.3584C53.2443 64.6988 49.4087 62.4217 49.1831 62.3C48.8186 62.074 48.7839 62.1088 48.298 62.9779C48.0376 63.482 47.5169 64.1426 47.1698 64.4555C46.8227 64.7684 46.2153 65.1855 45.7987 65.3941C45.3128 65.6549 44.6359 65.7939 43.7681 65.8461C42.6227 65.9156 42.397 65.8809 41.8764 65.5158C41.5466 65.2898 41.1127 64.89 40.9218 64.6119C40.5747 64.1426 40.5574 63.9166 40.5574 60.0924V56.0596C41.4946 54.1822 41.7896 53.5912 41.807 53.5391C41.8417 53.5043 41.6681 53.3652 41.4251 53.2436C41.1822 53.1219 40.5747 53.035 40.0714 53.035C39.4119 53.035 38.6309 53.2609 37.173 53.852C35.2639 54.6168 35.0903 54.6516 33.4416 54.6689ZM22.0042 71.8258C21.067 73.1469 20.8588 73.5641 20.8588 74.1029C20.8588 74.5896 20.9802 74.8852 21.3794 75.2676C21.7612 75.65 22.0563 75.7891 22.5075 75.7891C22.8373 75.7891 23.2538 75.7195 23.41 75.65C23.5836 75.5631 24.2084 74.8156 24.7985 73.9986C25.4059 73.1643 25.9439 72.2777 25.996 72.017C26.0654 71.7389 26.0134 71.2869 25.8745 70.9393C25.7357 70.6264 25.4233 70.2439 25.1456 70.1223C24.8853 69.9832 24.5034 69.8963 24.2778 69.8963C24.0695 69.8963 23.7398 69.9658 23.5315 70.0527C23.3232 70.1396 22.6464 70.9393 22.0042 71.8258ZM27.9745 74.0334C26.2216 76.4844 25.9092 77.0232 25.8919 77.5795C25.8919 77.9271 25.9613 78.3791 26.0654 78.5703C26.1522 78.7615 26.4993 79.057 26.7944 79.1961C27.1415 79.3699 27.5754 79.4395 27.8878 79.3873C28.1655 79.3178 28.6167 79.057 28.8597 78.7963C29.1027 78.5355 30.1093 77.1797 31.0986 75.7891C32.2961 74.1029 32.9209 73.0773 32.973 72.6602C33.0424 72.1734 32.9556 71.9475 32.5564 71.4955C32.2093 71.0957 31.8622 70.8871 31.4457 70.835C31.1159 70.8002 30.6647 70.8523 30.439 70.9566C30.2308 71.0609 29.12 72.4516 27.9745 74.0334ZM33.2333 77.3187C32.2787 78.6225 31.3068 80.0131 31.0986 80.3955C30.7514 81.0213 30.7167 81.1777 30.8903 81.7514C31.0118 82.099 31.2721 82.5162 31.4804 82.6727C31.706 82.8117 32.1052 82.9334 32.4002 82.9508C32.6779 82.9682 33.0944 82.916 33.3027 82.8639C33.563 82.7943 34.4829 81.6471 35.8193 79.7523C37.659 77.1623 37.954 76.6756 37.954 76.0846C37.954 75.5457 37.8499 75.3197 37.3813 74.9199C37.011 74.5723 36.635 74.3984 36.2532 74.3984C35.9581 74.3984 35.5416 74.5201 35.3333 74.6592C35.1424 74.8156 34.2052 75.9977 33.2333 77.3187ZM37.3813 82.0643C36.878 82.8291 36.6523 83.368 36.6523 83.7504C36.6523 84.1154 36.8259 84.4978 37.1557 84.8803C37.5722 85.3322 37.7978 85.4365 38.3532 85.4365C38.8565 85.4365 39.1863 85.3148 39.516 85.002C39.7764 84.776 40.2797 84.098 40.6615 83.5244C41.1127 82.8465 41.3557 82.2902 41.3384 81.9252C41.3384 81.5254 41.1822 81.1951 40.8177 80.8301C40.4185 80.4303 40.1408 80.3086 39.6375 80.3086C39.2383 80.3086 38.7871 80.4477 38.5441 80.6389C38.3185 80.8127 37.7978 81.4559 37.3813 82.0643ZM9.94208 14.9492H32.487L32.8341 15.4359C33.0424 15.6967 33.1986 16.0096 33.1812 16.1313C33.1812 16.2529 33.0771 16.5484 32.9556 16.7918C32.8515 17.0178 32.5564 17.2959 32.3134 17.4002C32.0358 17.5045 27.9745 17.5566 10.0636 17.4697L9.64704 17.0004C9.42142 16.7396 9.2305 16.3746 9.21315 16.2008C9.19579 16.0096 9.36935 15.6619 9.57762 15.4186L9.94208 14.9492ZM10.0636 23.9883H31.8622C53.4179 23.9883 53.6608 23.9883 53.9906 24.3359C54.2162 24.5445 54.3377 24.9096 54.3377 25.292C54.3377 25.7439 54.2336 25.9873 53.8691 26.248C53.3831 26.5957 53.2443 26.5957 31.949 26.5957C20.1645 26.5957 10.3413 26.5262 10.0983 26.4566C9.87266 26.3871 9.57762 26.109 9.45613 25.8482C9.31728 25.5875 9.2305 25.2572 9.2305 25.1008C9.2305 24.9617 9.42142 24.6488 9.64704 24.4055L10.0636 23.9883ZM31.7581 31.9844C53.2443 31.9844 53.3831 31.9844 53.8691 32.332C54.2336 32.5928 54.3377 32.8361 54.3377 33.2881C54.3377 33.6705 54.2162 34.0355 53.9906 34.2441C53.6435 34.5918 53.4179 34.5918 10.0809 34.5918L9.62968 34.1225C9.24786 33.74 9.17844 33.5314 9.28257 33.1143C9.33464 32.8361 9.56026 32.4537 9.75117 32.2973C10.0983 32.0018 11.4173 31.9844 31.7581 31.9844Z" fill="#EADA86"/>
</svg>