<svg width="145" height="111" viewBox="0 0 145 111" fill="none" xmlns="http://www.w3.org/2000/svg">
<path id="Vector" fill-rule="evenodd" clip-rule="evenodd" d="M75.7695 0C77.5823 0 79.6217 0.169941 81.4345 0.538148C82.9923 0.849707 85.0884 1.38785 86.1081 1.69941C87.1278 2.0393 89.1106 2.86068 90.4985 3.56877C91.8864 4.27686 93.8692 5.43812 94.8889 6.14621C95.9086 6.88262 97.6081 8.2988 98.6844 9.31845C99.7324 10.3381 101.347 12.1225 102.197 13.2837C103.075 14.445 104.434 16.6259 105.199 18.0988C105.964 19.5716 106.615 20.8178 106.615 20.8745C106.644 20.9028 107.409 20.7328 108.343 20.5063C109.278 20.2513 111.317 19.9398 112.875 19.7698C114.971 19.5433 116.444 19.5433 118.54 19.7982C120.098 19.9964 122.449 20.4496 123.78 20.8461C125.112 21.2143 127.264 22.064 128.596 22.7155C129.899 23.3669 131.343 24.245 131.768 24.6981C132.221 25.123 132.561 25.7744 132.561 26.171C132.561 26.5675 132.25 27.1906 131.853 27.5871C131.485 27.9837 130.947 28.2952 130.663 28.2952C130.38 28.2952 128.822 27.6155 127.179 26.7941C125.253 25.8028 123.242 25.038 121.514 24.6132C119.503 24.1317 117.974 23.9617 115.566 23.9617C113.555 23.9617 111.487 24.16 110.184 24.4432C109.023 24.6981 108.032 24.953 108.003 24.9814C107.975 25.0097 108.117 26.0577 108.343 27.3039C108.57 28.5501 108.74 31.0709 108.768 32.912C108.768 35.9426 108.796 36.1975 109.278 36.0559C109.533 35.9426 110.496 35.631 111.402 35.3478C112.45 35.0079 113.838 34.8096 115.368 34.8096C116.642 34.8096 118.399 35.0079 119.248 35.2345C120.098 35.4611 121.486 35.9992 122.336 36.4241C123.186 36.8773 124.658 37.9819 125.593 38.9449C126.585 39.9362 127.718 41.409 128.256 42.4853C128.766 43.4767 129.389 45.3177 129.644 46.5639C130.012 48.4616 130.04 49.198 129.785 51.0957C129.559 52.6535 129.134 54.0413 128.397 55.4858C127.718 56.8737 126.783 58.2049 125.65 59.3378C124.687 60.3008 123.157 61.4621 122.223 61.9153C121.288 62.3968 120.013 62.9349 119.39 63.1049C118.767 63.2748 117.322 63.5297 116.189 63.6997C115.085 63.8413 113.413 64.2378 112.535 64.5494C111.629 64.8609 110.326 65.5124 109.618 65.9656C108.91 66.4187 107.72 67.4101 106.927 68.2031C106.162 68.9962 105.058 70.384 104.519 71.2621C103.953 72.1684 103.16 74.1227 102.735 75.6522C102.31 77.1817 101.97 79.0227 101.97 79.7591C101.97 80.7505 102.168 81.4585 102.763 82.3932C103.273 83.2429 103.981 83.8944 104.803 84.2909C105.511 84.6591 106.587 84.9423 107.21 84.9423C107.833 84.9423 108.853 84.6874 109.476 84.4042C110.099 84.1493 110.949 83.4978 111.402 83.0163C111.827 82.4782 112.422 81.2319 112.762 80.0424C113.074 78.9377 113.47 77.6349 113.668 77.1817C113.867 76.7285 114.433 75.9921 114.943 75.5389C115.425 75.1141 116.133 74.6892 116.501 74.6042C116.841 74.5476 118.087 74.3493 119.248 74.1794C120.41 74.0094 122.449 73.4996 123.78 73.0464C125.112 72.5649 127.179 71.6019 128.426 70.8655C129.644 70.1008 131.598 68.628 132.788 67.5233C133.949 66.4187 135.564 64.521 136.385 63.2748C137.206 62.0286 138.226 60.2442 138.651 59.3095C139.048 58.3748 139.671 56.5905 140.011 55.3442C140.52 53.5032 140.605 52.3419 140.605 49.113C140.577 45.9974 140.436 44.6662 139.954 42.8819C139.614 41.6356 138.934 39.7096 138.424 38.6333C137.915 37.557 137.093 36.0842 136.612 35.3761C136.13 34.668 135.677 33.8183 135.564 33.4501C135.479 33.1102 135.592 32.4588 135.819 31.9773C136.073 31.4391 136.527 31.0709 137.037 30.9576C137.461 30.8727 138.085 30.9293 138.453 31.0993C138.793 31.2692 139.727 32.4021 140.492 33.5917C141.285 34.8096 142.305 36.8206 142.786 38.0669C143.268 39.3131 143.919 41.2957 144.231 42.457C144.599 43.8449 144.826 45.9691 144.939 48.5466C145.081 52.2853 145.024 52.7101 144.231 55.7691C143.778 57.5535 142.9 60.1026 142.277 61.4338C141.682 62.765 140.492 64.8326 139.642 66.0788C138.793 67.2968 137.065 69.2794 135.819 70.469C134.572 71.6586 132.844 73.0748 131.995 73.6412C131.145 74.2077 129.559 75.1141 128.454 75.6805C127.349 76.2187 125.452 76.9834 124.205 77.3799C122.959 77.7765 120.976 78.2297 119.815 78.4279C118.654 78.5979 117.606 78.9094 117.492 79.0794C117.379 79.2776 117.096 80.2406 116.841 81.2603C116.586 82.2799 116.076 83.6111 115.736 84.2342C115.368 84.8574 114.433 85.9337 113.697 86.6134C112.932 87.3215 111.742 88.1429 111.034 88.4545C110.071 88.9076 109.165 89.0492 107.352 89.0492C105.228 89.0492 104.718 88.936 103.103 88.1712C101.97 87.6331 100.837 86.7834 100.186 86.047C99.5908 85.3672 98.826 84.2342 98.5145 83.5262C98.1462 82.7331 97.863 81.4869 97.778 80.2689C97.693 78.7395 97.8347 77.6349 98.4012 75.4539C98.826 73.8961 99.6475 71.6019 100.242 70.3557C100.865 69.1095 101.913 67.3817 102.593 66.532C103.273 65.6823 104.661 64.3511 105.681 63.5864C106.672 62.8216 108.372 61.7737 109.476 61.2355C110.581 60.7257 112.535 60.1026 113.867 59.8477C115.198 59.5928 117.039 59.2245 117.974 58.998C118.965 58.7714 120.296 58.1766 121.231 57.5251C122.109 56.9303 123.242 55.7691 123.837 54.9194C124.46 54.013 125.083 52.5968 125.367 51.5205C125.669 50.2932 125.763 49.1602 125.65 48.1217C125.537 47.272 125.112 45.7992 124.658 44.8645C124.234 43.9298 123.299 42.5986 122.619 41.9189C121.939 41.2391 120.665 40.3327 119.815 39.9362C118.625 39.3697 117.691 39.1998 115.849 39.1148C113.952 39.0299 113.102 39.1432 111.884 39.5963C111.034 39.9079 109.703 40.7293 108.91 41.409C107.975 42.2304 107.324 43.1084 106.955 44.0431C106.672 44.8079 105.907 46.4506 105.312 47.6969C104.689 48.9431 103.528 50.8974 102.707 52.0587C101.913 53.22 100.441 55.0043 99.4209 56.024C98.4012 57.072 96.815 58.4881 95.8802 59.1962C94.9455 59.9043 93.3593 60.9806 92.3396 61.5471C91.3199 62.1419 89.7337 62.9349 88.799 63.3315C87.8643 63.728 86.9295 64.1812 86.7596 64.3794C86.533 64.5777 86.3913 65.8239 86.3347 67.9482C86.2497 70.8089 86.1647 71.4037 85.4849 72.7632C85.0884 73.6129 84.1537 74.9158 83.4455 75.6522C82.6808 76.4736 81.3495 77.3799 80.2448 77.9181C78.5453 78.7112 78.0355 78.8244 75.9111 78.8528C73.7584 78.8528 73.3052 78.7395 71.6057 77.9181C70.5293 77.4366 69.1131 76.4453 68.405 75.7372C67.6968 75.0291 66.7904 73.7262 66.3656 72.8199C65.6291 71.2904 65.5724 70.9505 65.4875 66.6736C65.4308 63.2748 65.5158 61.6037 65.8557 60.0176C66.1106 58.8563 66.9321 56.6188 67.6968 55.061C68.7449 52.8801 69.5096 51.7188 71.1242 49.9911C72.2855 48.7732 74.0416 47.2437 75.0613 46.5922C76.081 45.9408 78.1771 44.8362 79.735 44.1281C81.7744 43.2217 82.964 42.4853 84.012 41.4657C84.9751 40.5593 85.8249 39.3414 86.4197 38.0669C86.9295 36.9622 87.411 35.3761 87.5244 34.5264C87.6093 33.6767 87.581 32.2039 87.4677 31.2692C87.3261 30.3345 86.8729 28.8051 86.4197 27.8704C85.9382 26.9357 84.9751 25.5478 84.2103 24.7831C83.4172 23.99 82.0293 23.027 80.868 22.4606C79.65 21.8658 78.2337 21.4409 77.1857 21.3276C76.1943 21.2427 74.7781 21.2993 73.7867 21.4976C72.852 21.6958 71.3791 22.2057 70.5293 22.6305C69.6796 23.0837 68.4616 23.9334 67.8668 24.5282C67.2436 25.123 66.3939 26.171 65.9407 26.8791C65.5158 27.5871 64.9493 28.7201 64.7227 29.4282C64.4961 30.1363 64.2129 31.864 64.0712 33.2519C63.9013 34.9229 63.5897 36.3391 63.1365 37.3588C62.7399 38.2085 61.9185 39.483 61.2954 40.1628C60.7005 40.8426 59.6525 41.6923 59.001 42.0605C58.123 42.542 57.8114 42.8819 57.9247 43.2217C57.9813 43.505 58.2646 44.6379 58.5195 45.7142C58.8877 47.1587 59.001 48.8581 59.001 51.9454C59.001 55.5991 58.8877 56.5905 58.2363 59.0263C57.7264 61.0373 57.3299 62.0003 56.8767 62.3685C56.5084 62.6517 55.9136 62.8783 55.5171 62.8783C55.1205 62.85 54.5257 62.6517 54.1858 62.4251C53.7515 62.1419 53.5343 61.717 53.5343 61.1505C53.5343 60.6974 53.8176 59.1962 54.1575 57.8084C54.6673 55.854 54.7806 54.5795 54.7523 51.6622C54.7523 49.0564 54.5823 47.357 53.6476 43.7316L52.1181 43.505C51.2683 43.3917 49.7954 42.9385 48.8607 42.4853C47.8693 42.0038 46.623 41.0691 45.8866 40.2761C45.2068 39.5397 44.3287 38.2085 43.9321 37.3588C43.3373 36.0842 43.1957 35.2911 43.0541 30.2779L41.1563 29.3149C40.0799 28.8051 38.4087 28.097 37.389 27.7854C36.3693 27.4455 34.7831 27.049 33.8484 26.8791C32.9137 26.7374 30.9026 26.5958 29.4014 26.5958C27.8718 26.5958 25.6342 26.7941 24.4445 27.049C23.2265 27.2756 21.2155 27.927 19.9691 28.4652C18.7228 29.0033 16.995 29.853 16.1453 30.3628C15.2955 30.8443 13.3694 32.4871 11.8682 33.9599C10.3953 35.4328 8.72411 37.4154 8.15761 38.3501C7.59111 39.2848 6.74136 40.9559 6.28816 42.0322C5.83496 43.1084 5.24013 44.9212 4.92856 45.9974C4.53201 47.4986 4.41871 48.9148 4.41871 51.9454C4.44703 55.0043 4.58866 56.3922 5.01353 58.035C5.32511 59.1962 5.91993 60.8956 6.34481 61.7737C6.91131 63.0482 7.39283 63.6147 8.44086 64.2661C9.46056 64.9459 10.0837 65.1158 11.1884 65.1158C12.0665 65.1158 13.0862 64.8609 13.8509 64.4644C14.6157 64.0962 15.4088 63.3881 15.8337 62.7083C16.2586 62.0569 16.5985 61.0373 16.6551 60.3008C16.7307 59.4511 16.5229 58.3182 16.032 56.902C15.6637 55.7407 15.2389 53.9564 15.1539 52.9367C15.0123 51.7188 15.0972 50.4159 15.3805 49.113C15.6071 48.0367 16.2019 46.309 16.7118 45.2894C17.3066 44.1564 18.3546 42.7402 19.5159 41.579C20.564 40.5593 22.0652 39.3981 22.9433 38.9732C23.793 38.5484 25.2093 38.0102 26.059 37.7836C26.9088 37.557 28.41 37.3588 29.4014 37.3588C30.3644 37.3588 31.8373 37.5004 32.6588 37.6703C33.4519 37.8403 34.9248 38.3501 35.9161 38.8033C36.9075 39.2564 38.4371 40.3327 39.4568 41.2674C40.5898 42.3437 41.5812 43.6183 42.2326 44.8928C42.7991 45.9691 43.394 47.4703 43.5639 48.2633C43.7339 49.0281 43.9321 50.1327 44.0454 50.6708C44.1304 51.209 44.0738 52.6252 43.9038 53.7864C43.7339 55.0893 43.2523 56.6754 42.6858 57.8933C42.0627 59.1962 40.9863 60.6974 39.5417 62.2835C38.2105 63.7563 36.9642 65.4557 36.3693 66.6736C35.8028 67.8066 35.1797 69.7043 34.9248 71.0638C34.5282 73.0464 34.4999 73.8395 34.7548 75.5956C34.9531 76.8701 35.5479 78.8811 36.2844 80.6655C37.0775 82.5348 37.8706 83.9227 38.4371 84.4892C38.9469 84.9706 39.7683 85.5088 40.2782 85.7071C40.788 85.877 41.6661 86.047 42.2043 86.047C42.7425 86.047 43.7055 85.8204 44.3287 85.5371C44.9518 85.2539 45.7449 84.7157 46.0848 84.3475C46.4247 83.9793 46.9063 83.1863 47.1329 82.5915C47.3878 82.025 47.5861 81.1187 47.5861 80.6088C47.5861 80.1273 47.1329 78.6262 46.5947 77.295C45.9999 75.8221 45.6033 74.406 45.6033 73.6696C45.6033 73.0181 45.7166 72.1967 45.8582 71.8285C46.0282 71.4886 46.9346 70.3557 47.926 69.3077C49.3705 67.7783 49.8804 67.3817 50.5602 67.3817C51.07 67.3817 51.6649 67.665 52.0614 68.0332C52.458 68.4014 52.6846 68.9678 52.6846 69.506C52.6846 70.1291 52.2597 70.8372 51.1833 72.0268C49.7388 73.6696 49.7104 73.7262 50.0787 74.5759C50.3053 75.0574 50.7868 76.332 51.1833 77.4366C51.7498 79.0227 51.8915 79.7874 51.7782 81.2603C51.6932 82.4499 51.4099 83.6395 50.9284 84.6591C50.5035 85.5371 49.5405 86.8117 48.7474 87.5481C47.9543 88.3128 46.708 89.1909 45.9715 89.5307C44.9235 90.0123 44.0738 90.1539 42.2043 90.1822C40.2782 90.1822 39.5134 90.0406 38.3804 89.5307C37.6156 89.1625 36.426 88.4261 35.7745 87.888C34.8681 87.1799 34.2166 86.2452 33.2819 84.2909C32.6021 82.8747 31.7524 80.9204 31.4408 79.9857C31.1292 79.051 30.7327 77.2666 30.5627 76.0204C30.3078 74.3493 30.3078 73.1314 30.5627 71.4037C30.7327 70.1291 31.1292 68.2881 31.4691 67.2968C31.7807 66.3338 32.5455 64.7193 33.1403 63.6997C33.7351 62.68 35.208 60.7823 36.3977 59.4511C37.8706 57.8084 38.7486 56.5621 39.1452 55.4858C39.5417 54.4095 39.74 53.2766 39.74 51.8038C39.74 50.331 39.5417 49.198 39.1452 48.1217C38.8053 47.2437 37.9555 45.9125 37.1908 45.0344C36.2844 44.0431 35.208 43.2217 33.99 42.6269C32.3472 41.8339 31.894 41.7489 29.5997 41.7489C27.3053 41.7489 26.8521 41.8339 25.2093 42.6269C23.9913 43.2217 22.915 44.0431 22.0086 45.0344C21.2438 45.8842 20.3657 47.2437 20.0541 48.1217C19.6292 49.198 19.4593 50.3593 19.431 51.8038C19.431 53.4182 19.6292 54.4662 20.2241 56.1939C20.8472 58.0066 20.9888 58.828 20.9322 60.3008C20.8472 61.632 20.564 62.6517 19.9408 63.9829C19.3743 65.1158 18.5529 66.2488 17.8164 66.9002C17.1366 67.495 16.0036 68.2598 15.2955 68.5713C14.5024 68.9395 13.2561 69.2228 12.0381 69.3077C10.7163 69.4021 9.53609 69.2983 8.49751 68.9962C7.64776 68.7413 6.31648 68.0332 5.52338 67.4384C4.75861 66.8436 3.68225 65.6823 3.1724 64.8326C2.66255 63.9829 1.86945 62.1135 1.44458 60.7257C0.991376 59.3378 0.481526 57.1853 0.311575 55.9673C0.141625 54.7778 0 52.5685 0 51.0957C0 49.0281 0.198275 47.6402 0.849751 45.0628C1.38793 43.0518 2.23768 40.6443 3.08743 38.9166C3.8522 37.3588 5.15516 35.1779 5.97658 34.1016C6.82633 33.0253 8.27091 31.3825 9.20564 30.4761C10.1404 29.5415 11.9815 28.0686 13.3128 27.1906C14.644 26.3126 16.7401 25.1513 17.9864 24.6415C19.2327 24.1317 21.2155 23.4236 22.3768 23.112C24.1329 22.6305 25.3509 22.5172 29.458 22.5172C33.7068 22.4889 34.7265 22.5739 36.6809 23.112C37.9272 23.4519 40.0233 24.1883 41.3545 24.7265C42.6858 25.2929 43.7622 25.7178 43.7905 25.6611C43.7905 25.6328 44.0171 24.7831 44.3004 23.7635C44.5553 22.7438 45.4617 20.5346 46.2831 18.8068C47.1045 17.0791 48.5491 14.6716 49.4838 13.4254C50.4469 12.1791 52.0048 10.3947 52.9961 9.43174C53.9875 8.49707 55.6304 7.10921 56.6501 6.3728C57.6698 5.60806 59.5959 4.4468 60.9838 3.76703C62.3434 3.08727 64.4395 2.18091 65.6574 1.78438C66.8471 1.38785 68.9998 0.821383 70.3877 0.538148C71.7756 0.254912 74.2116 0.0283236 75.7695 0V0ZM70.9542 4.815C69.8779 4.98495 67.8951 5.52309 66.5638 5.94795C65.2326 6.40112 63.3348 7.22251 62.3151 7.78898C61.2954 8.35545 59.5392 9.51671 58.3779 10.3947C57.2166 11.3011 55.6304 12.7173 54.8373 13.567C54.0442 14.445 52.7979 16.0311 52.0614 17.1074C51.3533 18.212 50.3619 19.9115 49.8804 20.9311C49.4272 21.9508 48.6907 23.9334 48.2942 25.3213C47.756 27.0773 47.4728 28.8334 47.3878 30.986C47.2745 33.1952 47.3311 34.4414 47.5861 35.2345C47.8127 35.8576 48.4925 36.8773 49.1156 37.5004C49.7671 38.1235 50.7868 38.8033 51.4099 39.0015C52.0331 39.1715 53.0528 39.3414 53.6759 39.3414C54.3557 39.3414 55.4321 39.0299 56.3668 38.5767C57.3299 38.0669 58.2079 37.3588 58.7178 36.6507C59.3409 35.7443 59.5675 35.0362 59.7941 33.1102C59.9358 31.779 60.1907 30.0513 60.3606 29.2866C60.5306 28.4935 61.0404 27.1056 61.4936 26.171C61.9185 25.2363 62.8532 23.7635 63.5331 22.9138C64.2129 22.064 65.6291 20.7612 66.7338 19.9964C67.8101 19.26 69.5946 18.3537 70.671 17.9571C71.7756 17.5889 73.6168 17.1924 74.7781 17.0791C76.251 16.9658 77.5539 17.0508 79.0268 17.3623C80.1882 17.6172 82.0859 18.297 83.2473 18.8635C84.4086 19.4583 85.9948 20.5629 86.8162 21.356C87.6093 22.1207 88.7423 23.4802 89.3088 24.3299C89.9036 25.1796 90.6968 26.8791 91.065 28.0686C91.6032 29.7681 91.7731 30.8727 91.7731 32.8836C91.7731 34.3281 91.6315 36.0842 91.4615 36.7923C91.3199 37.5004 90.7251 39.0299 90.1586 40.1911C89.4221 41.7489 88.6007 42.8535 87.1278 44.298C85.7116 45.7142 84.5219 46.5922 83.134 47.2437C82.0293 47.7535 80.1882 48.6315 79.0268 49.198C77.4406 49.9627 76.3643 50.7275 74.7781 52.3419C73.2485 53.8714 72.3421 55.1176 71.5774 56.6188C71.0109 57.78 70.3311 59.5078 70.1045 60.4425C69.8212 61.5754 69.6796 63.4731 69.6796 66.1072C69.7079 69.8742 69.7362 70.1291 70.4727 71.432C70.8976 72.1967 71.6907 73.1031 72.2288 73.4713C72.767 73.8395 73.7867 74.2927 74.4948 74.4626C75.4862 74.7458 76.1094 74.7175 77.3273 74.4343C78.3754 74.1794 79.2251 73.7545 79.9899 73.0748C80.613 72.5083 81.3212 71.5453 81.6044 70.9222C81.9726 70.1008 82.1426 69.0811 82.1426 67.2968C82.1426 65.9372 82.2842 64.2378 82.4825 63.4731C82.7091 62.68 83.1906 61.802 83.7005 61.2922C84.182 60.839 85.6549 60.0176 86.9862 59.4795C88.2891 58.9413 90.4418 57.7517 91.7731 56.8737C93.1044 55.9957 95.1438 54.2679 96.3334 53.0217C97.4948 51.8038 99.0243 49.9911 99.7041 48.9714C100.384 47.9518 101.347 46.224 101.857 45.1477C102.367 44.0714 103.131 42.0038 103.556 40.616C104.123 38.6333 104.321 37.2171 104.434 34.2432C104.548 31.3258 104.463 29.8247 104.094 27.8704C103.84 26.4825 103.245 24.3016 102.792 23.0554C102.338 21.8091 101.404 19.8265 100.724 18.6652C100.044 17.504 98.7694 15.6912 97.8913 14.615C97.0132 13.567 95.4554 12.0092 94.4073 11.1312C93.331 10.2531 91.5182 8.97857 90.3569 8.2988C89.1955 7.61904 87.2694 6.68436 86.1081 6.23118C84.9468 5.778 83.0207 5.21153 81.8593 4.98495C80.698 4.73003 78.5736 4.47512 77.1857 4.41847C75.7978 4.3335 74.2399 4.3335 73.7867 4.39015C73.3335 4.4468 72.0589 4.64506 70.9542 4.815ZM51.8348 91.5984C52.9395 91.6833 54.2991 92.0232 55.2338 92.4764C56.1685 92.9013 57.3299 93.7793 58.1513 94.6573C58.9161 95.4787 59.7375 96.7533 60.0491 97.5463C60.3323 98.3394 60.6439 99.529 60.7572 100.237C60.8894 101.087 60.8044 102.125 60.5023 103.353C60.2473 104.372 59.5959 105.873 59.0577 106.695C58.5195 107.488 57.5281 108.536 56.8767 108.989C56.1969 109.442 54.9506 110.065 54.1008 110.405C53.2511 110.745 51.9198 111 51.1267 111C50.3619 111 49.0023 110.745 48.1526 110.405C47.3028 110.065 46.0565 109.442 45.405 108.989C44.7252 108.536 43.7339 107.488 43.1957 106.695C42.6575 105.873 42.006 104.372 41.7511 103.353C41.4678 102.106 41.3545 101.058 41.4962 100.095C41.6095 99.3307 41.9777 98.0561 42.3176 97.2631C42.6575 96.4983 43.394 95.3654 43.9321 94.7423C44.4703 94.1475 45.4617 93.3261 46.1698 92.9013C46.8779 92.5047 48.0109 92.0232 48.7191 91.825C49.4555 91.5984 50.7585 91.5134 51.8348 91.5984ZM47.3595 97.3481C46.623 98.0561 46.1698 98.8492 45.9149 99.8122C45.66 100.86 45.6316 101.54 45.8582 102.446C46.0282 103.098 46.5947 104.089 47.1045 104.656C47.5861 105.222 48.3792 105.873 48.8607 106.128C49.3422 106.355 50.3619 106.553 51.1267 106.582C52.1747 106.582 52.8828 106.412 53.8176 105.845C54.6107 105.392 55.3471 104.656 55.8003 103.891C56.2818 103.041 56.4801 102.191 56.5084 101.2C56.5084 100.095 56.3102 99.4723 55.6587 98.396C55.1205 97.518 54.3841 96.8099 53.6759 96.47C53.0528 96.1301 52.0331 95.8469 51.4099 95.8186C50.7868 95.7619 49.8521 95.8469 49.3705 95.9885C48.8607 96.1585 47.9543 96.7533 47.3595 97.3481ZM102.112 91.5984C103.528 91.6833 104.576 91.9666 105.794 92.5614C106.785 93.0429 107.947 93.8926 108.57 94.6007C109.165 95.2804 109.929 96.4134 110.269 97.1215C110.779 98.1694 110.893 98.8775 110.893 101.228C110.893 103.749 110.808 104.231 110.128 105.477C109.731 106.27 108.91 107.375 108.287 107.998C107.692 108.592 106.389 109.499 105.369 109.952C104.264 110.49 102.905 110.887 101.97 110.943C100.78 111.057 99.959 110.915 98.4295 110.349C97.2115 109.895 95.9086 109.131 95.0588 108.394C94.2091 107.63 93.3593 106.497 92.7928 105.335C92.028 103.749 91.9147 103.211 91.9147 101.228C91.9431 99.4157 92.0847 98.6509 92.6512 97.4047C93.0477 96.555 93.8125 95.3654 94.3507 94.7423C94.8889 94.1475 95.8802 93.3261 96.5884 92.9296C97.2965 92.5047 98.3728 92.0232 98.996 91.825C99.6758 91.5984 100.894 91.5134 102.112 91.5984ZM98.4295 96.7533C97.9763 97.0648 97.2965 97.7446 96.9566 98.2827C96.6167 98.8209 96.2485 99.7555 96.1352 100.379C96.0219 101.058 96.1068 101.965 96.3051 102.645C96.5034 103.268 96.8999 104.117 97.1832 104.571C97.4948 104.995 98.2595 105.619 98.911 105.958C99.7041 106.355 100.639 106.582 101.545 106.553C102.31 106.553 103.358 106.355 103.811 106.1C104.264 105.873 105.001 105.307 105.426 104.854C105.851 104.429 106.332 103.721 106.474 103.296C106.644 102.843 106.785 101.823 106.785 101.03C106.785 99.9821 106.587 99.2174 106.134 98.481C105.794 97.9145 105.199 97.2064 104.803 96.8949C104.406 96.6116 103.641 96.2151 103.103 96.0168C102.565 95.8469 101.8 95.7053 101.404 95.7336C101.007 95.7336 100.384 95.8469 99.9874 95.9602C99.5908 96.0735 98.8827 96.4134 98.4295 96.7533ZM76.1943 83.0163C78.0355 83.1013 78.9702 83.2712 80.1598 83.8377C81.0096 84.2342 82.3409 85.1123 83.0773 85.792C83.9271 86.5568 84.8051 87.803 85.3433 88.9076C86.1647 90.5787 86.2497 90.9753 86.2497 93.581C86.2497 96.0735 86.1647 96.6116 85.4849 97.9712C85.0884 98.8209 84.1537 100.124 83.4455 100.888C82.7374 101.625 81.5478 102.531 80.783 102.899C80.0465 103.268 78.6303 103.721 77.6106 103.919C76.1377 104.202 75.4296 104.202 74.07 103.919C73.1352 103.721 71.7756 103.268 71.0109 102.899C70.2744 102.531 69.1131 101.653 68.405 100.945C67.6968 100.237 66.7904 98.9342 66.3372 98.0561C65.6574 96.5833 65.5724 96.1018 65.5724 93.4394C65.5724 90.7487 65.6574 90.3238 66.3656 88.9076C66.8188 88.0579 67.5835 86.925 68.0651 86.4152C68.5749 85.877 69.3397 85.1972 69.8212 84.8574C70.2744 84.5175 71.3791 83.951 72.2288 83.5828C73.5318 83.0447 74.2116 82.9597 76.1943 83.0163ZM71.6907 88.7943C71.1525 89.2475 70.4727 90.1255 70.2178 90.7487C69.8779 91.4284 69.6796 92.533 69.7079 93.581C69.7079 94.9122 69.8779 95.592 70.4727 96.64C70.8976 97.4047 71.6907 98.3111 72.2288 98.6793C72.767 99.0475 73.7867 99.5006 74.4948 99.6706C75.4862 99.9538 76.1094 99.9255 77.3273 99.6423C78.4603 99.3873 79.1968 98.9908 80.1032 98.1411C80.783 97.4897 81.5194 96.47 81.746 95.8469C82.0293 95.1388 82.1709 94.0908 82.0859 92.9862C82.0293 91.7117 81.8027 90.9753 81.2079 90.0972C80.783 89.4458 79.9049 88.5677 79.2534 88.1429C78.3187 87.5198 77.6956 87.3215 76.2227 87.2649C75.0897 87.2365 74.0133 87.3498 73.5035 87.5764C73.0503 87.803 72.2288 88.3412 71.6907 88.7943Z" fill="url(#paint0_linear_1779_216)"/>
<defs>
<linearGradient id="paint0_linear_1779_216" x1="2.86364e-07" y1="48.2213" x2="169.598" y2="48.8069" gradientUnits="userSpaceOnUse">
<stop offset="0.309726" stop-color="#DFC38E"/>
<stop offset="0.870713" stop-color="#CEA654"/>
</linearGradient>
</defs>
</svg>
