<svg width="103" height="116" viewBox="0 0 103 116" fill="none" xmlns="http://www.w3.org/2000/svg">
<path id="Vector" fill-rule="evenodd" clip-rule="evenodd" d="M6.94337 0.0453125L61.3641 0L62.6766 0.611719C63.7854 1.11016 65.2788 2.51484 72.8366 10.0594C79.7156 16.9469 81.82 19.1898 82.9741 21.4102L83.0419 37.043C83.0872 49.4133 83.0419 52.7891 82.8157 53.1969C82.6573 53.4688 82.2726 53.7859 81.9558 53.8992C81.5937 54.0352 81.1412 53.9898 80.7112 53.8313C80.3492 53.6727 79.9645 53.3781 79.874 53.1742C79.7609 52.9703 79.693 46.0602 79.693 22.8828H74.3301C71.3432 22.8828 68.3336 22.7695 67.5869 22.6336C66.8402 22.4977 65.754 22.1352 65.1657 21.8406C64.5547 21.5461 63.6496 20.9117 63.1291 20.4133C62.5861 19.9375 61.8393 18.9406 61.432 18.2156C61.0474 17.468 60.6174 16.2672 60.4816 15.5195C60.3459 14.7719 60.2327 11.7359 60.2327 3.39844L7.16965 3.51172L6.26452 4.01016C5.7667 4.25938 5.13311 4.73516 4.86158 5.02969C4.59004 5.30156 4.1601 6.00391 3.91119 6.57031C3.45863 7.58984 3.436 7.77109 3.436 100.027L3.97908 101.16C4.27324 101.772 4.92946 102.588 5.40465 102.973C5.87984 103.335 6.78497 103.766 7.39593 103.924C8.23317 104.151 11.0164 104.219 27.0824 104.219L27.6029 104.74C27.8744 105.012 28.1233 105.488 28.1233 105.805C28.1233 106.122 27.9197 106.62 27.2408 107.504L17.8728 107.572C11.5143 107.617 8.09741 107.549 7.16965 107.391C6.42292 107.232 5.201 106.802 4.4769 106.416C3.73017 106.009 2.73453 105.238 2.25933 104.672C1.76151 104.105 1.1053 103.086 0.154913 101.16L0.0417725 93.457C-0.026112 89.2203 -0.026112 67.9008 0.154913 6.45703L0.879015 4.98438C1.30895 4.05547 2.03305 3.08125 2.80241 2.37891C3.54914 1.65391 4.54478 1.01953 5.47254 0.634375L6.94337 0.0453125ZM63.8985 15.2477C64.0343 15.9047 64.4642 16.8336 64.8489 17.332C65.2336 17.8078 66.0482 18.4875 66.6818 18.8047C67.7679 19.3484 67.9716 19.3711 72.3841 19.4391C74.9184 19.4617 76.9776 19.4164 76.9776 19.3258C76.9776 19.2352 74.0586 16.2219 70.4833 12.6422C66.8854 9.0625 63.8985 6.11719 63.808 6.11719C63.6949 6.11719 63.627 7.90703 63.627 10.082C63.627 12.325 63.7401 14.568 63.8985 15.2477ZM31.6081 57.3883C32.5132 57.4562 33.2147 57.7508 35.2286 58.9516C36.6089 59.7672 38.0119 60.7867 38.3739 61.2172C38.736 61.625 39.2338 62.3727 39.4827 62.8711C39.7316 63.3922 40.0031 64.4797 40.2068 66.9266L41.3382 67.4477C42.017 67.7648 42.8996 67.9688 43.5558 67.9688C44.2799 67.9688 45.4565 67.6516 47.3799 66.9039C50.0048 65.8844 50.299 65.8164 52.3129 65.8164C54.3268 65.8164 54.5757 65.8844 57.9699 67.5156L61.5452 66.6094C64.4416 65.8391 65.3693 65.6805 66.5686 65.7711C67.5869 65.8391 68.8088 66.1789 70.5286 66.8586C71.9089 67.3797 73.4702 67.8781 74.0359 67.9234C74.6016 67.9914 75.3031 67.9688 75.6199 67.9008C76.163 67.7648 76.1856 67.7195 76.1177 65.9977C76.0498 64.7062 76.1404 63.9586 76.4345 63.2109C76.6608 62.6672 77.2491 61.7609 77.7469 61.2172C78.2674 60.6734 79.693 59.6312 80.9375 58.8836C82.2047 58.1359 83.6077 57.4789 84.1055 57.4109C84.6033 57.343 85.3727 57.3883 85.8026 57.5242C86.2325 57.6602 86.8661 58.0453 87.2055 58.4078C87.545 58.7477 91.0297 64.4797 94.967 71.1406C98.9269 77.8242 102.344 83.6469 102.57 84.1227C102.796 84.5758 103 85.1648 103 85.4141C103 85.6633 102.774 86.343 102.502 86.932C102.185 87.5891 101.642 88.2234 101.077 88.5859C100.579 88.9258 99.3569 89.6734 98.3612 90.2398C97.2977 90.8742 96.0305 91.3953 95.3064 91.5312C94.4239 91.7125 93.6998 91.6898 92.8173 91.5086C91.7085 91.282 91.4823 91.3047 90.6224 91.7352C90.0793 92.007 89.6041 92.3016 89.5589 92.3922C89.491 92.4828 89.6946 93.0719 90.0114 93.6836C90.4187 94.5219 90.5545 95.2016 90.5545 96.1758C90.5771 97.2406 90.4187 97.8297 89.9209 98.7812C89.5815 99.4836 88.88 100.345 88.3822 100.73C87.8617 101.16 86.9566 101.545 86.142 101.727C85.1916 101.953 84.4902 101.976 83.8113 101.817C82.9062 101.636 82.8383 101.659 82.7025 102.18C82.6346 102.497 82.3857 103.109 82.1821 103.539C81.9558 103.992 81.3901 104.695 80.9149 105.148C80.4171 105.601 79.6251 106.099 79.1273 106.258C78.6294 106.439 77.6338 106.598 76.9323 106.598C75.6878 106.598 75.6199 106.643 75.6199 107.164C75.6199 107.481 75.3257 108.229 74.9863 108.841C74.6469 109.43 74.0133 110.2 73.5834 110.517C73.1534 110.857 72.452 111.242 72.0673 111.401C71.66 111.559 70.7548 111.695 70.076 111.695C69.3971 111.695 68.4468 111.559 67.9942 111.355C67.519 111.174 67.1343 111.038 67.1117 111.084C67.1117 111.106 66.9759 111.559 66.8402 112.103C66.6818 112.624 66.184 113.485 65.7314 114.006C65.2562 114.505 64.3963 115.184 63.808 115.479C63.016 115.864 62.3372 116 61.3641 116C60.2554 116 59.7575 115.864 58.7167 115.298C57.9925 114.89 56.7706 114.188 54.5757 112.828L53.8516 113.372C53.4443 113.666 52.7428 114.097 52.3129 114.323C51.8151 114.573 51.0004 114.731 50.0501 114.754C48.8055 114.754 48.3756 114.663 47.3347 114.074C46.4974 113.598 45.8638 113.009 45.4113 112.33C44.7551 111.333 44.6872 111.287 43.9404 111.423C43.5105 111.514 42.6506 111.559 42.017 111.537C41.3835 111.514 40.4331 111.265 39.89 110.97C39.3243 110.698 38.5323 110.041 38.125 109.543C37.6951 109.045 37.2425 108.274 37.0841 107.821C36.8126 107.005 36.7673 106.983 35.568 106.87C34.8892 106.824 33.9162 106.575 33.4183 106.326C32.9205 106.077 32.1285 105.42 31.6533 104.876C31.1782 104.332 30.6803 103.494 30.5219 103.041C30.273 102.225 30.1825 102.18 29.3453 102.18C28.8474 102.18 28.0328 102.044 27.5576 101.908C27.0598 101.749 26.2452 101.251 25.7474 100.82C25.2269 100.367 24.5933 99.5516 24.3218 99.0078C23.9824 98.3281 23.8014 97.5805 23.8014 96.7422C23.8014 96.0625 23.9145 95.1562 24.0503 94.7031C24.2087 94.2727 24.7517 93.2758 25.2948 92.5055C25.8379 91.7125 26.2905 91.0328 26.2905 90.9648C26.2905 90.9195 26.1321 90.8063 25.951 90.7383C25.77 90.693 25.1817 90.8289 24.6612 91.0781C24.1182 91.3047 23.2357 91.5766 22.67 91.6445C22.0816 91.7352 21.1765 91.6672 20.5203 91.4859C19.9093 91.3273 18.4837 90.693 17.375 90.0586C16.2662 89.4469 14.9764 88.5859 14.5238 88.1328C13.9807 87.6344 13.5734 87 13.415 86.3883C13.234 85.7086 13.234 85.1648 13.3924 84.5758C13.5282 84.1 17.0582 78.0281 21.2444 71.05C27.4219 60.7188 29.0058 58.2719 29.6621 57.8414C30.2957 57.4336 30.7256 57.3203 31.6081 57.3883ZM23.9824 72.9531C20.1809 79.3875 16.9677 84.8477 16.8319 85.1422C16.583 85.618 16.6735 85.7086 18.4385 86.7508C19.4568 87.3625 20.656 87.9516 21.086 88.0875C21.6064 88.2461 22.1721 88.2688 22.7378 88.1328C23.1904 87.9969 23.824 87.6797 24.1182 87.4078C24.435 87.1133 27.3314 82.4008 30.5898 76.918C34.6629 70.0305 36.5184 66.6773 36.6089 66.043C36.7221 65.3859 36.6315 64.9102 36.3147 64.2305C35.9301 63.5055 35.4323 63.075 33.6673 62.0328C32.468 61.3078 31.4497 60.7188 31.4044 60.7188C31.3592 60.7188 31.2234 60.8547 31.0876 61.0133C30.9745 61.1719 27.7613 66.5414 23.9824 72.9531ZM79.9645 63.9133C79.6251 64.4344 79.4667 65.0234 79.4667 65.7031C79.4667 66.5414 79.7156 67.1305 80.7565 68.875C81.458 70.0758 82.0463 71.2992 82.0463 71.6164C82.0689 71.9563 81.9105 72.3867 81.7295 72.6133C81.5485 72.8398 81.1638 73.1117 80.8696 73.225C80.5755 73.3383 80.1455 73.3156 79.8061 73.1797C79.4893 73.0664 78.9236 72.4547 78.5616 71.8203L77.8827 70.6875C76.2082 71.2312 75.1221 71.3672 74.3754 71.3672C73.4702 71.3672 72.4067 71.1406 71.2074 70.7328C70.2118 70.3703 68.8088 69.8719 68.0847 69.6C67.3832 69.3281 66.5234 69.1016 66.1613 69.1016C65.8219 69.1016 63.9664 69.5094 62.043 70.0078C59.8028 70.5969 58.2867 71.118 57.8568 71.4578C57.4947 71.7297 56.9743 72.3867 56.7254 72.8625C56.3181 73.6555 56.2728 74.2672 56.2049 78.1187L56.1597 82.4688C57.2006 82.4688 57.9247 82.2648 58.4225 82.0383C58.9203 81.7891 59.5313 81.2906 59.7575 80.9508C59.9838 80.6109 60.3006 79.9086 60.4364 79.4102C60.5722 78.9117 60.6853 78.232 60.6853 77.8922C60.6853 77.4693 60.889 77.1068 61.2963 76.8047C61.6583 76.5555 62.0882 76.3516 62.2693 76.3516C62.4503 76.3516 65.3467 77.9602 68.7183 79.9539C72.0899 81.925 77.4302 85.0742 80.5981 86.9547L86.3683 90.3531C88.2012 89.1523 88.4953 88.8352 88.4048 88.5859C88.3143 88.4047 87.0471 86.1844 85.5537 83.6695C83.7208 80.5656 82.8609 78.8664 82.8609 78.3906C82.8609 78.0281 83.0646 77.507 83.3135 77.2578C83.5624 77.0086 84.0376 76.8047 84.377 76.8047C84.7391 76.8047 85.1916 76.9406 85.3953 77.0992C85.6216 77.2578 87.0245 79.4781 88.5406 82.0156C90.034 84.5758 91.5501 86.9547 91.8669 87.2945C92.2064 87.657 92.84 88.0195 93.2699 88.1555C93.7677 88.2688 94.356 88.2688 94.8539 88.1328C95.2838 88.0195 96.4605 87.4305 97.4561 86.8188C98.4517 86.207 99.2663 85.5727 99.2437 85.3914C99.2437 85.2328 96.0079 79.5914 92.0706 72.9078C88.1333 66.2016 84.8296 60.7188 84.7164 60.7414C84.6259 60.7414 83.6303 61.2852 82.5215 61.9422C81.2543 62.6898 80.2813 63.4375 79.9645 63.9133ZM43.601 71.2539C41.5871 71.2539 41.1798 71.1859 39.9805 70.6422C39.2338 70.3023 38.6002 70.0305 38.5776 70.0758C38.5549 70.0984 36.2016 74.1086 33.3052 78.957C30.4314 83.8281 28.146 87.9289 28.2139 88.0875C28.2817 88.2461 28.4628 88.3594 28.5985 88.382C28.7569 88.382 29.3 88.2008 29.7978 87.9969C30.4314 87.7477 31.1103 87.657 32.0606 87.7477C32.8074 87.793 33.8256 88.0648 34.3235 88.3141C34.8213 88.5633 35.568 89.1297 35.9527 89.5828L36.6994 90.3984C38.8944 89.0164 39.2112 88.9258 40.6367 88.9484C41.7681 88.9484 42.5149 89.0844 43.1485 89.3789C43.6463 89.6281 44.4383 90.2398 44.9135 90.7383C45.3886 91.2367 45.9091 92.0523 46.0675 92.5508C46.3617 93.457 46.3617 93.457 47.6967 93.593C48.5566 93.6609 49.4165 93.9328 50.0953 94.318C50.7063 94.6578 51.4983 95.3602 51.8603 95.9039C52.245 96.425 52.6749 97.4219 52.8107 98.1016C52.9691 98.9398 52.9917 99.6648 52.8559 100.277L52.6523 101.205C54.3268 101.795 55.0509 102.316 55.7071 103.041C56.2728 103.63 56.8611 104.536 56.9969 105.034C57.1553 105.533 57.2911 106.416 57.2911 107.005C57.2911 107.595 57.1327 108.455 56.9516 108.931C56.748 109.384 56.6122 109.86 56.6122 109.951C56.6122 110.041 57.4495 110.63 58.4677 111.242C59.5086 111.854 60.6627 112.42 61.0247 112.511C61.4547 112.602 61.9751 112.534 62.4277 112.284C62.8576 112.08 63.3102 111.605 63.4912 111.197C63.6722 110.789 63.7627 110.2 63.7175 109.883C63.6496 109.588 63.4459 109.113 63.2197 108.863C62.9934 108.614 61.9977 107.934 61.0247 107.368C60.0291 106.779 59.1013 106.167 58.9429 106.009C58.8072 105.827 58.6261 105.42 58.5583 105.08C58.4451 104.581 58.5583 104.309 59.1013 103.766C59.5991 103.267 59.9159 103.131 60.3459 103.199C60.6627 103.267 62.8124 104.445 65.1431 105.827C68.0168 107.504 69.6234 108.32 70.076 108.32C70.438 108.32 71.0037 108.138 71.2979 107.912C71.6147 107.685 71.9994 107.187 72.1578 106.779C72.4067 106.145 72.4067 105.918 72.0446 105.193C71.7052 104.445 71.0716 103.992 67.0212 101.568C63.8985 99.7102 62.3145 98.6453 62.1788 98.2828C62.0656 98.0109 62.043 97.4898 62.1335 97.15C62.2014 96.8102 62.4956 96.357 62.7671 96.1758C63.0839 95.9492 63.5138 95.8586 63.8532 95.9266C64.17 95.9945 67.1117 97.6484 70.4154 99.6195C74.4885 102.044 76.6382 103.177 77.0907 103.199C77.4754 103.199 78.0638 103.018 78.4032 102.814C78.7426 102.587 79.1273 102.134 79.263 101.795C79.3988 101.455 79.4441 100.866 79.3762 100.48C79.3083 100.118 79.0141 99.5969 78.7426 99.325C78.4484 99.0758 75.6652 97.3539 72.5651 95.5188C69.4424 93.6836 66.727 91.9617 66.5007 91.6898C66.2745 91.418 66.0934 90.9422 66.0934 90.625C66.0934 90.3305 66.3423 89.832 66.6139 89.5602C66.9081 89.2883 67.4059 89.0617 67.7453 89.0617C68.1752 89.0391 71.049 90.6477 76.2309 93.7289C82.7025 97.5805 84.2639 98.4187 84.9653 98.4414C85.6668 98.4414 85.961 98.3055 86.5041 97.7164C86.9566 97.1953 87.1603 96.7422 87.1603 96.1758C87.1603 95.632 86.9792 95.2016 86.5267 94.7258C86.1873 94.3633 81.1412 91.2367 75.2805 87.793C69.4198 84.3266 64.419 81.3586 64.1248 81.2C63.6496 80.9055 63.6043 80.9508 62.9707 82.0836C62.6313 82.7406 61.9525 83.6016 61.4999 84.0094C61.0474 84.4172 60.2554 84.9609 59.7123 85.2328C59.0787 85.5727 58.1962 85.7539 57.0648 85.8219C55.5713 85.9125 55.2772 85.8672 54.5983 85.3914C54.1684 85.0969 53.6027 84.5758 53.3538 84.2133C52.9012 83.6016 52.8786 83.307 52.8786 78.3227V73.0664C54.1005 70.6195 54.4852 69.8492 54.5078 69.7812C54.5531 69.7359 54.3268 69.5547 54.01 69.3961C53.6932 69.2375 52.9012 69.1242 52.245 69.1242C51.3851 69.1242 50.3668 69.4187 48.4661 70.1891C45.977 71.1859 45.7507 71.2312 43.601 71.2539ZM28.6891 93.6156C27.4671 95.3375 27.1956 95.8812 27.1956 96.5836C27.1956 97.218 27.354 97.6031 27.8744 98.1016C28.3723 98.6 28.7569 98.7812 29.3453 98.7812C29.7752 98.7812 30.3183 98.6906 30.5219 98.6C30.7482 98.4867 31.5628 97.5125 32.3322 96.4477C33.1242 95.3602 33.8256 94.2047 33.8935 93.8648C33.984 93.5023 33.9162 92.9133 33.7351 92.4602C33.5541 92.0523 33.1468 91.5539 32.7848 91.3953C32.4453 91.2141 31.9475 91.1008 31.6533 91.1008C31.3818 91.1008 30.9519 91.1914 30.6803 91.3047C30.4088 91.418 29.5263 92.4602 28.6891 93.6156ZM36.4731 96.493C34.1877 99.6875 33.7804 100.39 33.7578 101.115C33.7578 101.568 33.8483 102.157 33.984 102.406C34.0972 102.655 34.5497 103.041 34.9344 103.222C35.387 103.448 35.9527 103.539 36.36 103.471C36.7221 103.38 37.3104 103.041 37.6272 102.701C37.944 102.361 39.2564 100.594 40.5462 98.7812C42.1076 96.5836 42.9222 95.2469 42.9901 94.7031C43.0806 94.0687 42.9674 93.7742 42.447 93.1852C41.9944 92.6641 41.5419 92.3922 40.9988 92.3242C40.5688 92.2789 39.9805 92.3469 39.6863 92.4828C39.4148 92.6188 37.9666 94.4313 36.4731 96.493ZM43.3295 100.775C42.0849 102.474 40.8178 104.287 40.5462 104.785C40.0937 105.601 40.0484 105.805 40.2747 106.552C40.4331 107.005 40.7725 107.549 41.044 107.753C41.3382 107.934 41.8587 108.093 42.2433 108.116C42.6054 108.138 43.1485 108.07 43.42 108.002C43.7594 107.912 44.9587 106.416 46.7011 103.947C49.0997 100.571 49.4843 99.9367 49.4843 99.1664C49.4843 98.4641 49.3486 98.1695 48.7376 97.6484C48.2549 97.1953 47.7646 96.9688 47.2668 96.9688C46.8821 96.9688 46.339 97.1273 46.0675 97.3086C45.8186 97.5125 44.5967 99.0531 43.3295 100.775ZM48.7376 106.96C48.0814 107.957 47.7872 108.659 47.7872 109.158C47.7872 109.634 48.0135 110.132 48.4435 110.63C48.9865 111.22 49.2807 111.355 50.0048 111.355C50.661 111.355 51.091 111.197 51.5209 110.789C51.8603 110.495 52.5165 109.611 53.0143 108.863C53.6027 107.98 53.9195 107.255 53.8968 106.779C53.8968 106.258 53.6932 105.827 53.218 105.352C52.6976 104.83 52.3355 104.672 51.6793 104.672C51.1588 104.672 50.5705 104.853 50.2537 105.102C49.9595 105.329 49.2807 106.167 48.7376 106.96ZM12.9625 19.4844H42.3565L42.809 20.1188C43.0806 20.4586 43.2842 20.8664 43.2616 21.025C43.2616 21.1836 43.1258 21.5688 42.9674 21.8859C42.8317 22.1805 42.447 22.543 42.1302 22.6789C41.7681 22.8148 36.4731 22.8828 13.1209 22.7695L12.5778 22.1578C12.2836 21.818 12.0347 21.3422 12.0121 21.1156C11.9895 20.8664 12.2157 20.4133 12.4873 20.0961L12.9625 19.4844ZM13.1209 31.2656H41.5419C69.6461 31.2656 69.9629 31.2656 70.3928 31.7188C70.687 31.9906 70.8454 32.4664 70.8454 32.9648C70.8454 33.5539 70.7096 33.8711 70.2344 34.2109C69.6008 34.6641 69.4198 34.6641 41.655 34.6641C26.2905 34.6641 13.4829 34.5734 13.1661 34.4828C12.872 34.3922 12.4873 34.0297 12.3289 33.6898C12.1479 33.35 12.0347 32.9195 12.0347 32.7156C12.0347 32.5344 12.2836 32.1266 12.5778 31.8094L13.1209 31.2656ZM41.4061 41.6875C69.4198 41.6875 69.6008 41.6875 70.2344 42.1406C70.7096 42.4805 70.8454 42.7977 70.8454 43.3867C70.8454 43.8852 70.687 44.3609 70.3928 44.6328C69.9402 45.0859 69.6461 45.0859 13.1435 45.0859L12.5552 44.4742C12.0573 43.9758 11.9668 43.7039 12.1026 43.1602C12.1705 42.7977 12.4646 42.2992 12.7136 42.0953C13.1661 41.7102 14.8859 41.6875 41.4061 41.6875Z" fill="url(#paint0_linear_191_61)"/>
<defs>
<linearGradient id="paint0_linear_191_61" x1="2.03417e-07" y1="50.3934" x2="120.474" y2="50.6762" gradientUnits="userSpaceOnUse">
<stop offset="0.309726" stop-color="#DFC38E"/>
<stop offset="0.870713" stop-color="#CEA654"/>
</linearGradient>
</defs>
</svg>
