<svg xmlns="http://www.w3.org/2000/svg" width="84" height="89" viewBox="0 0 84 89" fill="none">
  <path fill-rule="evenodd" clip-rule="evenodd" d="M41.8353 0.00539469C51.7753 -0.0119905 51.7935 -0.0119905 53.4683 0.405253C54.3968 0.63126 55.7258 1.0485 56.4358 1.32667C57.1458 1.62221 58.0742 2.05684 58.5294 2.33501C58.9845 2.59578 59.9129 3.25642 60.6229 3.79536C61.3147 4.3343 62.407 5.39479 63.026 6.15974C63.6632 6.92469 64.537 8.24596 64.9922 9.11522C65.4291 9.98447 65.9752 11.271 66.1937 11.9838C66.485 12.9573 66.5942 13.9309 66.6488 15.8954C66.7216 18.0512 66.6124 19.6332 65.3563 31.4725L66.1209 31.8898C66.5578 32.1332 67.1039 32.5852 67.3588 32.8981C67.6137 33.1937 67.9414 33.8543 68.087 34.3237C68.2873 34.9669 68.3601 36.0274 68.3601 38.4961C68.3601 41.017 68.2873 42.0253 68.0688 42.7555C67.8503 43.4683 67.5591 43.9203 66.9401 44.5114C66.4668 44.946 65.7932 45.3806 65.4473 45.485C65.1014 45.5893 64.5188 45.7284 64.1729 45.7805C63.645 45.8674 63.4083 46.0761 62.7893 46.9801C62.3706 47.5712 61.9337 48.4057 61.8063 48.8403C61.6788 49.2749 61.3329 50.092 61.0416 50.6657C60.6775 51.3264 59.9311 52.2478 57.4188 54.6643L57.437 55.9334C57.437 56.9765 57.4917 57.2026 57.7465 57.2895C57.9286 57.3416 58.3473 57.5155 58.6932 57.672C59.0755 57.8632 59.7127 58.5238 60.4409 59.5322C61.0781 60.384 61.7152 61.375 62.1522 62.3138L70.4901 64.1914C75.0778 65.2171 79.1921 66.2254 79.6472 66.4515C80.1024 66.6601 80.958 67.3033 81.5588 67.877C82.1778 68.4508 82.8513 69.32 83.088 69.7894C83.3247 70.2762 83.6342 71.1976 83.7798 71.8756C83.9801 72.8318 84.0347 74.3965 83.9801 79.2643C83.9254 85.2796 83.9072 85.4534 83.5067 86.3053C83.2701 86.7921 82.8696 87.4006 82.5965 87.6613C82.3234 87.9395 81.6862 88.3568 80.2844 89H3.64102L2.73076 88.5828C2.22102 88.3568 1.60205 87.9395 1.32897 87.6613C1.05589 87.4006 0.655383 86.7921 0.418717 86.3053C0 85.4534 0 85.3665 0 78.6558C0 71.9625 0 71.8582 0.436922 70.7456C0.673588 70.1197 1.0741 69.3026 1.36538 68.9202C1.63846 68.5377 2.22102 67.9118 2.67615 67.5293C3.13127 67.1469 3.85948 66.6601 4.2964 66.4515C4.73332 66.2428 8.73844 65.2345 13.1987 64.2262C17.6589 63.2178 21.4456 62.3486 21.6094 62.3138C21.7915 62.2616 21.9735 62.053 22.0282 61.8444C22.0646 61.6184 22.6653 60.6622 23.3571 59.706C24.2128 58.5412 24.8317 57.8632 25.2323 57.672C25.5781 57.5155 25.9969 57.3416 26.1607 57.2895C26.4338 57.2026 26.4884 56.9765 26.4884 54.5774L25.2687 53.4995C24.6133 52.891 23.7394 51.9349 23.3571 51.3611C22.9748 50.7874 22.4833 49.8834 22.283 49.3619C22.0828 48.8403 21.8279 47.8146 21.5184 45.7979L20.2258 45.7631C19.3884 45.7284 18.6784 45.6067 18.2051 45.3806C17.8046 45.1894 17.1674 44.72 16.7851 44.3375C16.3664 43.9029 16.0023 43.277 15.8384 42.7207C15.6382 42.0427 15.5653 40.9127 15.5653 38.4961C15.5653 36.0274 15.6382 34.9669 15.8384 34.3237C15.9841 33.8543 16.3118 33.1937 16.5666 32.8981C16.8215 32.5852 17.3677 32.1332 18.5692 31.4725L17.8774 24.9879C17.313 19.6332 17.2038 18.0512 17.2766 15.8954C17.3312 13.9309 17.4405 12.9573 17.7318 11.9838C17.9502 11.271 18.4964 9.98447 18.9333 9.11522C19.3884 8.26334 20.2623 6.92469 20.8994 6.15974C21.5184 5.39479 22.6107 4.3343 23.3025 3.79536C24.0125 3.25642 24.941 2.59578 25.3961 2.33501C25.8512 2.05684 26.7797 1.60483 27.4897 1.32667C28.1815 1.0485 29.4558 0.63126 30.3115 0.422638C31.8225 0.040165 32.0592 0.0227798 41.8171 0.00539469H41.8353ZM29.5469 3.55197C28.8369 3.79536 27.6535 4.31691 26.9617 4.71677C26.2335 5.13402 25.0684 6.03804 24.231 6.83776C23.4299 7.62009 22.5015 8.68059 22.192 9.20214C21.8643 9.7237 21.3728 10.6625 21.1179 11.2884C20.8448 11.9142 20.5171 12.9226 20.3897 13.5484C20.2441 14.1743 20.153 15.5477 20.153 16.5908C20.153 17.6513 20.4625 21.3544 20.8266 24.8488C21.4638 30.7945 21.5184 31.1944 21.8643 31.2465C22.1738 31.2987 22.4287 30.8467 23.6484 27.9433C24.4312 26.1005 25.2505 24.4142 25.4689 24.2055C25.833 23.8578 26.1061 23.8057 28.4181 23.7187C29.8199 23.6666 32.4051 23.4927 34.1527 23.3537C35.9004 23.2146 38.6494 22.9016 40.2514 22.6756C41.8535 22.4496 44.1837 22.0498 45.4399 21.8064C46.696 21.5456 48.644 21.0762 49.7545 20.7459C50.8832 20.4156 52.4306 19.9288 53.1771 19.6332C53.9235 19.3551 55.1068 18.8335 55.8168 18.5032C56.5268 18.1729 57.3096 17.8947 57.5827 17.8947C57.874 17.8947 58.2745 18.0512 58.4929 18.2424C58.7296 18.4337 58.9117 18.6075 58.9117 18.6423C58.9117 18.6597 59.567 21.4934 60.3681 24.9357C61.1873 28.378 61.8791 31.2291 61.9155 31.2813C61.9701 31.3334 62.0975 31.3161 62.225 31.2639C62.3888 31.177 62.6801 29.1255 63.1534 24.4837C63.5357 20.8154 63.827 17.1124 63.827 16.2431C63.827 15.3913 63.7178 14.1743 63.5722 13.5484C63.4447 12.9226 63.117 11.9142 62.844 11.2884C62.5891 10.6625 62.0975 9.7237 61.7699 9.20214C61.4604 8.68059 60.5319 7.62009 59.7309 6.83776C58.8935 6.03804 57.7283 5.13402 57.0001 4.71677C56.2901 4.31691 55.1614 3.81274 54.4514 3.56935C53.7414 3.32596 52.6491 3.06518 51.9937 2.96087C51.2655 2.83917 47.406 2.78702 41.7989 2.78702C36.8471 2.8044 32.3504 2.87395 31.8225 2.96087C31.3127 3.0478 30.2751 3.30857 29.5469 3.55197ZM51.9027 23.0233C50.6101 23.4406 48.2253 24.0491 46.6232 24.3968C45.0212 24.7445 42.6363 25.1791 41.3438 25.3703C40.033 25.5616 37.8666 25.8223 36.5194 25.9788C35.1722 26.1179 32.5871 26.3091 30.7848 26.4134C28.9825 26.5004 27.4533 26.6395 27.3804 26.709C27.3258 26.7785 26.7069 28.1867 26.0151 29.8036C25.3415 31.4204 24.5951 32.9676 24.3766 33.2284L23.9579 33.7152C24.3766 43.0858 24.5951 46.3021 24.6861 46.9279C24.7953 47.5538 25.0866 48.4926 25.3415 49.0141C25.5963 49.5357 26.0697 50.2833 26.3792 50.6483C26.7069 51.0308 28.6366 52.5433 30.6938 54.0037C32.7509 55.4814 34.9538 56.9418 35.6091 57.2373L36.7925 57.7937H47.1694C49.0081 56.9418 50.9196 55.69 52.6309 54.4731C54.3422 53.2561 56.0353 52.0044 56.3994 51.6741C56.7817 51.3611 57.0547 51.083 57.0001 51.0482C56.9637 51.0308 56.3629 51.1873 55.6894 51.3959C55.0158 51.6045 53.796 51.9001 52.995 52.0565C52.194 52.213 50.683 52.4216 49.6271 52.5086C48.4437 52.6129 47.6791 52.752 47.6245 52.891C47.5881 53.0127 47.3332 53.3257 47.0784 53.6038C46.8235 53.882 46.2955 54.2645 45.895 54.4209C45.3671 54.6469 44.7117 54.7512 43.5648 54.7512C42.5453 54.7512 41.7443 54.6643 41.2891 54.4731C40.925 54.334 40.4153 54.0385 40.1968 53.8298C39.9602 53.6212 39.5961 53.1344 39.3958 52.752C39.1773 52.3347 39.0317 51.7088 39.0317 51.1873C39.0317 50.6657 39.1773 50.0399 39.3958 49.6226C39.5961 49.2402 39.9602 48.7534 40.1968 48.5447C40.4153 48.3361 40.925 48.0406 41.2891 47.9015C41.7443 47.7103 42.5453 47.6233 43.6194 47.6233C44.7663 47.6233 45.4399 47.7103 45.8404 47.9015C46.1681 48.058 46.6414 48.3535 46.8599 48.5621C47.0966 48.7534 47.406 49.1358 47.5517 49.3966C47.8066 49.866 47.843 49.8834 48.9353 49.7791C49.5724 49.7269 50.8286 49.5705 51.7206 49.4314C52.6127 49.2923 54.0145 48.9794 54.8155 48.736C55.6165 48.4926 56.727 48.058 57.2732 47.7798C57.8194 47.5016 58.5293 47.067 58.857 46.8062L59.4214 46.3194C59.9858 33.6804 59.9858 33.437 59.6763 33.1067C59.476 32.9155 59.2393 32.533 59.1301 32.2375C59.0209 31.9419 58.4383 29.5254 57.8194 26.8481C57.2004 24.1708 56.6724 21.8411 56.6178 21.6673C56.5814 21.5108 56.4904 21.3717 56.3994 21.3891C56.3265 21.3891 55.8168 21.5804 55.2706 21.8238C54.7245 22.0672 53.1953 22.6061 51.9027 23.0233ZM18.5874 38.4961V42.0253C19.2974 42.7207 19.7889 42.9641 20.1348 43.0163C20.4807 43.0684 20.9358 43.0684 21.1361 42.9989C21.482 42.8772 21.5002 42.7903 21.3546 39.8174C21.2817 38.131 21.1543 36.1491 21.0815 35.4016L20.9541 34.0629C19.6433 34.0629 19.352 34.1672 19.0243 34.5149C18.5874 34.9496 18.5874 35.0017 18.5874 38.4961ZM62.844 35.4016C62.7893 36.1491 62.6801 38.131 62.6073 39.8174C62.4616 42.7903 62.4799 42.8772 62.8258 42.9989C63.026 43.0684 63.4811 43.0684 63.827 43.0163C64.1729 42.9641 64.6645 42.7207 64.9193 42.4773L65.3745 42.0253C65.3745 34.9669 65.3745 34.9669 64.9193 34.5149C64.5734 34.1672 64.2822 34.0629 63.7178 34.0629H62.9532L62.844 35.4016ZM41.9445 51.1699C41.9445 51.3611 42.072 51.6219 42.1994 51.7436C42.345 51.8827 42.8548 51.9522 43.6012 51.9175C44.5296 51.8827 44.8027 51.7958 45.003 51.535C45.2214 51.2394 45.2032 51.1178 44.9848 50.7874C44.7481 50.4571 44.5478 50.405 43.5648 50.405C42.9276 50.405 42.3086 50.4919 42.163 50.5962C42.0173 50.7179 41.9263 50.9787 41.9445 51.1699ZM29.4194 58.576L41.9809 69.3548L54.5424 58.576C54.5424 57.0809 54.5242 56.6462 54.506 56.6462C54.4696 56.6462 53.6686 57.2026 52.7219 57.8806C51.7753 58.5412 50.4281 59.3583 49.7181 59.6712C49.0263 60.0016 47.9886 60.3667 47.4425 60.5057C46.7325 60.6796 45.1668 60.7317 41.9809 60.7317C38.795 60.7317 37.2294 60.6796 36.5194 60.5057C35.9733 60.3667 34.9538 60.0016 34.2438 59.6712C33.552 59.3583 32.223 58.5412 31.2945 57.8806C30.3843 57.2026 29.5833 56.6462 29.5286 56.6462C29.474 56.6462 29.4194 57.0809 29.4194 57.6024V58.576ZM25.0138 62.505C25.032 62.592 26.4156 65.53 28.0722 69.0071C29.7289 72.5015 31.2035 75.5439 31.3492 75.7525C31.4948 75.9611 31.6586 76.1524 31.7497 76.1524C31.8225 76.1524 32.8602 75.4396 34.0617 74.5703C35.2633 73.7011 36.9745 72.5363 37.8484 71.9973C38.7222 71.4584 39.4504 70.989 39.4322 70.9716C39.4322 70.9542 36.6104 68.5029 33.1515 65.5474C29.6925 62.5746 26.7979 60.158 26.7069 60.158C26.6158 60.158 26.1971 60.6448 25.7602 61.2533C25.3233 61.8444 24.9956 62.4181 25.0138 62.505ZM44.9302 70.6239L44.5114 71.0064C46.9873 72.5363 48.6986 73.7011 49.9001 74.5703C51.1017 75.4396 52.1394 76.1524 52.2304 76.1524C52.3032 76.1524 52.4671 75.9611 52.6127 75.7525C52.7583 75.5439 54.2329 72.5015 55.8896 69.0071C57.5463 65.53 58.9117 62.592 58.9117 62.4876C58.9117 62.4007 58.5658 61.827 58.1288 61.2359C57.7101 60.6274 57.2914 60.1406 57.1822 60.158C57.0911 60.158 54.3786 62.4355 51.1745 65.1997C47.9704 67.9814 45.1668 70.4153 44.9302 70.6239ZM6.75409 68.5898C6.15332 68.7463 5.51614 68.9897 5.35229 69.1114C5.06101 69.3374 5.46153 69.7373 9.86716 73.4924C13.3625 76.4653 14.91 77.9083 15.4379 78.6558C15.8202 79.2469 16.3118 80.2205 16.512 80.829C16.7487 81.5592 16.9307 82.7413 17.0035 84.0974L17.131 86.2358L40.5245 86.2184C40.5245 75.0223 40.4699 73.7358 40.3061 73.8228C40.1786 73.8923 39.3776 74.3965 38.522 74.9354C37.6663 75.4743 36.1553 76.5348 35.154 77.265C34.0799 78.0474 33.0422 78.6732 32.6053 78.7775C32.2048 78.8645 31.5494 78.8992 31.1489 78.8123C30.7484 78.7428 30.093 78.4472 29.6925 78.1517C29.0371 77.6475 28.673 77.0042 25.9605 71.3019C23.1387 65.4083 22.9202 65.0085 22.5015 65.0259C22.2466 65.0433 18.8605 65.7908 14.9464 66.6775C11.0505 67.5641 7.35485 68.416 6.75409 68.5898ZM54.2694 78.1517C53.8688 78.4472 53.2135 78.7428 52.813 78.8123C52.4124 78.8992 51.7571 78.8645 51.3565 78.7775C50.9196 78.6732 49.8819 78.0474 48.8078 77.265C47.8066 76.5348 46.2955 75.4743 45.4399 74.9354C44.5843 74.3965 43.7832 73.8923 43.674 73.8228C43.4919 73.7358 43.4373 75.0223 43.4373 79.9597V86.2184L66.8309 86.2358C67.0311 82.7413 67.2132 81.5592 67.4498 80.829C67.6501 80.2205 68.1416 79.2469 68.5239 78.6558C69.0519 77.9083 70.5993 76.4653 74.0947 73.4924C78.5003 69.7373 78.9008 69.3374 78.6278 69.1288C78.4457 68.9897 77.8449 68.7637 77.2988 68.6072C76.7526 68.4508 72.9842 67.5815 68.9245 66.6775C64.8647 65.7561 61.424 65.0085 61.2601 65.0085C61.0599 65.0085 60.095 66.8687 57.9832 71.3019C55.2706 77.0216 54.9247 77.6475 54.2694 78.1517ZM3.02204 78.6558V85.1753L4.11435 86.2184L14.2182 86.2358C14.0179 83.1934 13.8541 81.9938 13.7084 81.6113C13.5628 81.2462 13.2351 80.5856 12.9802 80.1857C12.7072 79.7685 10.5954 77.8387 8.17408 75.7699C5.78922 73.7358 3.71384 71.9799 3.5682 71.8409C3.31333 71.6496 3.25871 71.6496 3.14948 71.8756C3.07666 72.0321 3.02204 75.0745 3.02204 78.6558ZM71.018 80.0988C70.7814 80.4639 70.4537 81.1071 70.2898 81.5244C70.126 81.959 69.9439 83.1934 69.8711 84.2712L69.7437 86.2358L79.8839 86.2184L80.9398 85.1753C80.9398 75.005 80.867 71.9625 80.7942 71.8409C80.6849 71.6844 79.2649 72.797 76.0608 75.5265C73.5303 77.6823 71.2729 79.7337 71.018 80.0988Z" fill="#EADA86"/>
</svg>