<svg xmlns="http://www.w3.org/2000/svg" width="95" height="76" viewBox="0 0 95 76" fill="none">
  <path fill-rule="evenodd" clip-rule="evenodd" d="M18.4549 0L18.9745 0.474886C19.2901 0.748858 19.4756 1.11416 19.4756 1.44292C19.4756 1.71689 19.3643 2.10046 19.2158 2.30137C18.956 2.6484 18.6776 2.66667 13.4068 2.75799C8.30302 2.84932 7.82048 2.88584 7.24515 3.21461C6.89252 3.41553 6.42854 3.87215 6.22439 4.21918C5.83465 4.85845 5.83465 4.96804 5.74185 54.6301H6.16871C6.39142 54.6301 6.87396 54.8128 7.22659 55.032C7.57921 55.2694 8.06175 55.7443 8.28446 56.0913C8.69276 56.6941 8.72988 56.9132 8.71132 62.1187H17.8981L18.1208 61.4429C18.2507 61.0594 18.6776 60.2557 19.0673 59.653C19.4571 59.0502 20.2922 58.0822 20.9233 57.516C21.6656 56.8402 22.6307 56.2009 23.6143 55.7443C24.4681 55.3242 25.693 54.9224 26.4353 54.7945C27.1406 54.6849 28.3284 54.6301 29.0336 54.6849C29.7389 54.7397 30.871 54.9589 31.5391 55.1781C32.2072 55.3973 33.2094 55.8539 33.7662 56.1826C34.323 56.5114 35.3252 57.2968 35.9562 57.9361C36.7728 58.7397 37.3852 59.5799 38.6844 62.137L54.7381 62.1187V33.5342C54.7381 9.3516 54.701 4.87671 54.4783 4.43836C54.3298 4.16438 54.0143 3.76256 53.773 3.54338C53.5503 3.34247 53.0121 3.06849 52.6038 2.9589C52.1027 2.83105 47.2587 2.75799 23.0019 2.75799L22.6307 2.26484C22.408 1.9726 22.241 1.60731 22.2595 1.44292C22.2595 1.26027 22.4637 0.876712 23.1875 0.0182648H52.8822L54.0514 0.52968C54.6824 0.821918 55.5176 1.36986 55.9073 1.77169C56.297 2.15525 56.7981 2.84931 57.0209 3.30594C57.3735 4.01826 57.4292 4.47488 57.522 9.51598H63.9805C67.7666 9.51598 70.7732 9.60731 71.2558 9.7169C71.7197 9.82648 72.6291 10.1553 73.2973 10.4658C74.0953 10.8493 74.9119 11.4521 75.7285 12.2374C76.4152 12.9132 77.1576 13.8813 77.436 14.4475C77.7143 14.9954 79.2362 19.9817 80.8137 25.4977C82.4098 31.032 83.7461 35.6895 83.7832 35.8721C83.8389 36.0548 84.8967 36.6941 86.4371 37.4429C87.9404 38.21 89.2953 39.0137 89.7778 39.4521C90.2047 39.8721 90.7614 40.5479 91.0213 40.9863C91.2811 41.4064 91.6152 42.21 91.7636 42.758C91.9863 43.5434 92.042 44.9498 92.042 54.6301H92.4689C92.6916 54.6301 93.1741 54.8128 93.5268 55.032C93.8794 55.2694 94.3619 55.7443 94.6032 56.0913C95.03 56.7123 95.0301 56.8219 94.9744 59.8721C94.9187 62.7215 94.8816 63.0502 94.529 63.5251C94.3248 63.7991 93.8608 64.2192 93.5082 64.4566C92.8958 64.8584 92.7473 64.8767 84.2472 64.8584V65.4612C84.2472 65.7717 84.1173 66.6119 83.9688 67.3242C83.8203 68.0365 83.3749 69.2603 82.9666 70.0639C82.4655 71.0868 81.8716 71.8904 81.0364 72.7123C80.3312 73.4247 79.329 74.1735 78.5681 74.5753C77.8628 74.9406 76.6379 75.4155 75.8584 75.6164C75.0604 75.8356 73.9468 76 73.3901 76C72.8333 76 71.7197 75.8356 70.9402 75.6164C70.1422 75.3973 68.9173 74.9224 68.212 74.5571C67.4326 74.1553 66.4489 73.4247 65.7437 72.7123C64.9085 71.8904 64.3146 71.0868 63.8135 70.0639C63.4052 69.2603 62.9598 68.0365 62.8113 67.3242C62.6628 66.6119 62.5329 65.7717 62.5329 64.8584H38.9628V65.8265C38.9628 66.3379 38.8329 67.2694 38.6844 67.8721C38.5174 68.4749 38.1276 69.4977 37.7936 70.1553C37.4038 70.9224 36.7171 71.8356 35.8077 72.7306C34.8612 73.6804 34.0446 74.3014 33.2094 74.7032C32.5413 75.0137 31.3721 75.4338 30.6112 75.6347C29.8502 75.8356 28.7552 76 28.1985 76C27.6417 76 26.5467 75.8356 25.7858 75.6164C25.0248 75.4155 23.8556 74.9772 23.1875 74.6667C22.408 74.2831 21.5172 73.6438 20.6634 72.8036C19.6612 71.8174 19.1787 71.1598 18.6034 69.9726C18.1765 69.1142 17.7496 67.9817 17.6383 67.4703C17.5269 66.9406 17.4341 66.137 17.4341 64.8584L2.12281 64.8767L1.47324 64.4566C1.12062 64.2192 0.638079 63.7443 0.39681 63.3973C-0.0300513 62.7763 -0.0300513 62.6667 0.0256262 59.6164C0.0813038 56.7671 0.118422 56.4384 0.471046 55.9635C0.675197 55.6895 1.13918 55.2694 1.4918 55.032C1.84443 54.8128 2.30841 54.6301 2.95798 54.6301L3.01365 29.5708C3.05077 5.27854 3.06933 4.45662 3.4034 3.57991C3.62611 3.03196 4.14576 2.30137 4.70254 1.75342C5.31499 1.15069 6.02024 0.694064 6.66981 0.438356C7.61633 0.0913242 8.09887 0.0547945 18.4549 0V0ZM57.522 62.1187L62.9969 62.1005C64.2775 59.4521 64.76 58.8128 65.7622 57.8265C66.5046 57.1142 67.581 56.2922 68.1935 55.9817C68.8059 55.653 69.771 55.2511 70.3278 55.0685C71.0702 54.8128 71.8868 54.7215 73.3901 54.7215C74.8933 54.7215 75.71 54.8128 76.4523 55.0685C77.0091 55.2511 77.9742 55.653 78.5866 55.9817C79.1991 56.2922 80.2755 57.1142 81.0179 57.8265C82.0201 58.8128 82.5026 59.4521 83.0594 60.6027L83.7832 62.1005L86.2887 62.1187C86.2701 56.9132 86.3072 56.6941 86.7155 56.0913C86.9383 55.7443 87.4208 55.2694 87.7734 55.032C88.126 54.8128 88.6086 54.6301 88.8498 54.6301C89.2025 54.6301 89.2581 54.5388 89.2581 53.9909V53.3516C86.864 53.3333 85.8618 53.2237 85.4535 53.0594C85.0452 52.9132 84.5627 52.6575 84.3585 52.4749C84.1729 52.3105 83.8574 51.8539 83.6718 51.4703C83.3749 50.9041 83.3192 50.3927 83.3192 48.2374C83.3192 46.0822 83.3749 45.5708 83.6718 44.9863C83.8574 44.621 84.1729 44.1644 84.3585 44C84.5627 43.8356 85.0267 43.5616 85.4164 43.4155C85.8247 43.2329 86.6599 43.1233 87.495 43.1233C88.256 43.1233 88.887 43.0868 88.887 43.032C88.887 42.9772 88.7756 42.7215 88.6271 42.4292C88.4787 42.1553 88.126 41.7169 87.8291 41.4612C87.5507 41.1872 86.0289 40.347 84.4884 39.5799C81.7046 38.2283 81.6489 38.1735 81.3705 37.4064C81.222 36.9863 79.793 32.0731 78.2154 26.5023C76.4338 20.2557 75.1161 16.0183 74.8191 15.4703C74.5407 14.9772 73.9839 14.2831 73.5756 13.9361C73.1673 13.5708 72.3693 13.0776 71.8125 12.8219L70.7918 12.347L57.5405 12.2374L57.522 62.1187ZM86.066 48.274C86.0845 50.0091 86.1588 50.4475 86.3815 50.5205C86.53 50.5753 87.2352 50.6119 87.959 50.6119H89.2581V45.863C86.9939 45.863 86.2701 45.9178 86.1959 45.9909C86.1031 46.0639 86.0474 47.0868 86.066 48.274ZM2.77238 62.1187H5.92744V57.3699H2.77238V62.1187ZM24.301 58.4292C23.8371 58.6849 23.1318 59.1963 22.7421 59.5616C22.3523 59.9087 21.777 60.621 21.4615 61.1142C21.1274 61.6256 20.7191 62.5023 20.5521 63.0868C20.3665 63.653 20.218 64.6393 20.218 65.2785C20.1995 65.8995 20.3665 66.9589 20.5706 67.5982C20.7933 68.3105 21.2759 69.242 21.777 69.9361C22.3338 70.6667 23.039 71.3425 23.7814 71.8174C24.4309 72.2192 25.396 72.6758 25.9714 72.8402C26.5281 73.0046 27.5303 73.1142 28.1985 73.1142C28.848 73.1142 29.776 73.0228 30.24 72.895C30.6854 72.7854 31.4834 72.4749 32.0031 72.2192C32.5042 71.9635 33.3579 71.3059 33.8961 70.7763C34.4529 70.21 35.1396 69.2785 35.4737 68.5662C36.049 67.3973 36.0861 67.2146 36.0861 65.3151C36.0861 63.4338 36.049 63.2329 35.4922 62.1187C35.1767 61.4612 34.5271 60.5297 34.0817 60.0183C33.6177 59.5251 32.8011 58.8493 32.2444 58.5205C31.7061 58.21 30.7596 57.8082 30.1472 57.6621C29.5347 57.4977 28.6068 57.3699 28.1057 57.3881C27.586 57.3881 26.7137 57.516 26.1569 57.6621C25.5816 57.8265 24.7465 58.1552 24.301 58.4292ZM69.771 58.2831C69.1586 58.5936 68.2492 59.2329 67.7666 59.7078C67.2841 60.1826 66.616 61.1142 66.2819 61.7534C65.9478 62.411 65.5766 63.4338 65.4653 64.0365C65.2982 64.8584 65.2982 65.4612 65.4653 66.411C65.5766 67.1233 65.9107 68.1826 66.2262 68.7854C66.5603 69.4612 67.1727 70.2648 67.8409 70.8858C68.4348 71.4521 69.4369 72.1461 70.0494 72.4201C70.6618 72.7123 71.664 73.0046 72.2765 73.0594C72.889 73.1324 73.9283 73.1142 74.5964 73.0411C75.3388 72.9498 76.2482 72.6758 76.972 72.3105C77.6772 71.9635 78.5681 71.2877 79.1434 70.7032C79.6816 70.1553 80.3312 69.2603 80.591 68.6941C80.8508 68.1461 81.1664 67.1233 81.2963 66.411C81.4633 65.4429 81.4633 64.8767 81.3148 64.0365C81.1849 63.4338 80.8508 62.4475 80.5539 61.8447C80.257 61.242 79.5703 60.3288 79.0692 59.7991C78.4753 59.1963 77.6215 58.5936 76.7678 58.1918C75.6172 57.6256 75.1903 57.516 73.854 57.4612C72.9818 57.4247 71.961 57.4612 71.5713 57.5708C71.2001 57.6621 70.3835 57.9909 69.771 58.2831ZM89.0726 62.1187H92.2276V57.3699H89.0726V62.1187ZM30.3328 7.15982C49.0961 7.14155 49.2631 7.14155 50.2839 7.87215V48.968L49.7642 49.3516C49.2817 49.6986 49.0033 49.7169 41.0043 49.6986L40.5403 49.242C40.2805 49.0046 40.0763 48.5845 40.0763 48.3288C40.0763 48.0913 40.2805 47.6712 40.5218 47.4155C40.9857 46.9589 41.0043 46.9589 47.5 46.9589V9.88128H12.9799V46.9589L36.4573 46.9772L36.8656 47.379C37.1069 47.6164 37.2925 48 37.2925 48.2922C37.2925 48.5662 37.0883 48.9863 36.3831 49.6986H11.124L10.1961 48.7854V28.5114C10.1961 13.0228 10.2517 8.14612 10.4188 7.87215C10.5301 7.65297 10.8085 7.41552 11.0127 7.3242C11.2354 7.23288 19.8839 7.15982 30.3328 7.15982ZM33.7477 17.7534C34.1188 17.7534 35.2695 18.758 38.9628 22.3379C41.5611 24.8584 43.881 27.1233 44.1037 27.3607C44.3821 27.6347 44.5305 28.0183 44.5305 28.4201C44.5305 28.895 44.3635 29.2237 43.9181 29.6804C43.584 30.0091 41.2641 32.274 38.7772 34.7032C34.8798 38.4475 34.1374 39.105 33.6734 39.105C33.3393 39.105 32.931 38.9406 32.6898 38.7032C32.3 38.3196 32.2629 38.137 32.2815 34.1735H25.2661C18.2693 34.1735 18.2693 34.1735 17.8424 33.7717C17.4156 33.3516 17.4156 33.3151 17.4341 28.4201C17.4341 23.6164 17.4527 23.4886 18.2507 22.6667H32.2815L32.2629 20.5845C32.2444 18.5205 32.2444 18.5023 32.7455 18.1187C33.0238 17.9178 33.4693 17.7352 33.7477 17.7534ZM35.0654 23.3607C35.0654 24.1644 34.9726 24.4018 34.5086 24.8584L33.9704 25.4064H20.218V31.4338H33.9518C34.8612 32.2374 34.9911 32.5297 35.0654 33.3516L35.1581 34.3744L41.1899 28.4201L35.0654 22.3927V23.3607ZM60.8997 14.8128L70.4763 14.9224L71.2743 15.4703C71.7197 15.7808 72.2579 16.274 72.4621 16.5845C72.6662 16.8767 73.9468 21.0411 77.8443 34.5571L77.0648 35.5616L60.8626 35.653L60.4729 35.1416C60.1202 34.6484 60.1017 34.3927 60.0831 15.7808L60.8997 14.8128ZM62.8856 32.9132C71.8125 32.9132 74.3923 32.8767 74.3923 32.8219C74.3923 32.7854 73.4828 29.5525 72.3693 25.6621C71.2557 21.7717 70.2721 18.4292 70.1793 18.2466C70.1051 18.0457 69.8824 17.8265 69.7153 17.7352C69.5297 17.6438 67.9337 17.5708 66.1334 17.5708H62.8856V32.9132ZM66.0963 38.0457C68.4348 38.0274 69.5669 38.1005 69.9937 38.2831C70.3278 38.411 70.8475 38.8128 71.163 39.1416C71.4785 39.4886 71.8311 40.0913 71.9796 40.4931C72.1095 40.9315 72.1837 41.5708 72.1095 42.0457C72.0538 42.5205 71.794 43.1781 71.4785 43.5982C71.2001 44 70.5876 44.5297 70.1236 44.7489C69.3627 45.1324 69.0472 45.1689 66.1334 45.1507C63.3867 45.1507 62.8856 45.0959 62.1989 44.7854C61.7349 44.5845 61.1781 44.1096 60.844 43.653C60.5471 43.2329 60.2316 42.5388 60.1759 42.137C60.1202 41.7352 60.1574 41.0594 60.2687 40.6393C60.3801 40.2192 60.7141 39.5982 61.0111 39.2694C61.308 38.9406 61.8277 38.5388 62.1618 38.3562C62.7 38.1005 63.3495 38.0457 66.0963 38.0457ZM62.9784 41.863C63.034 42.0639 63.2567 42.2831 63.498 42.3379C63.7207 42.3927 65.0755 42.411 66.5046 42.3744L69.1029 42.3196C69.437 41.4612 69.4184 41.2785 69.1957 41.0594C68.973 40.8037 68.4719 40.7671 66.0963 40.7671C63.4609 40.7671 63.2567 40.8036 63.0897 41.1324C62.9784 41.3333 62.9412 41.6621 62.9784 41.863ZM28.8295 60.0913C29.2378 60.1279 29.9987 60.3653 30.4998 60.5845C31.0195 60.8219 31.7061 61.3151 32.0402 61.6804C32.3743 62.0274 32.8197 62.6849 33.0424 63.105C33.3579 63.6895 33.4507 64.2192 33.4693 65.242C33.4693 66.3014 33.3765 66.8128 33.0795 67.4338C32.8568 67.8904 32.3 68.621 31.8732 69.0594C31.3906 69.516 30.6668 69.9909 30.0915 70.1918C29.5533 70.3927 28.7552 70.5388 28.3284 70.5571C27.883 70.5571 27.122 70.4292 26.6024 70.2831C26.027 70.1187 25.3218 69.7169 24.7464 69.2237C24.1711 68.7123 23.6515 68.0548 23.3731 67.4338C23.0576 66.7215 22.9277 66.1005 22.9091 65.242C22.9091 64.3288 23.0204 63.8356 23.4102 63.0137C23.7257 62.3562 24.2082 61.7169 24.7093 61.3333C25.1362 60.9863 25.7486 60.621 26.0456 60.4932C26.3611 60.3836 26.9364 60.2192 27.3447 60.1461C27.753 60.0731 28.4212 60.0548 28.8295 60.0913ZM26.7508 63.2511C26.5096 63.3973 26.1755 63.8539 25.9899 64.274C25.7672 64.7854 25.6868 65.2724 25.7486 65.7352C25.8043 66.1187 26.027 66.6301 26.2312 66.8858C26.4353 67.1233 26.8808 67.4338 27.2148 67.5616C27.5489 67.6895 28.05 67.7991 28.3284 67.7991C28.6068 67.7991 29.1079 67.6347 29.4419 67.4338C29.776 67.2329 30.1657 66.8858 30.3142 66.6667C30.4627 66.4475 30.6483 65.9726 30.7225 65.6073C30.7967 65.169 30.7225 64.7489 30.4812 64.2557C30.2956 63.8721 29.9616 63.4338 29.7574 63.3059C29.5533 63.1781 29.1264 62.9954 28.8109 62.9041C28.4954 62.831 27.9943 62.8128 27.6974 62.8858C27.4004 62.9406 26.9736 63.105 26.7508 63.2511ZM74.1881 60.1461C74.6706 60.2192 75.3759 60.4384 75.7842 60.6393C76.1925 60.8584 76.8421 61.3333 77.2132 61.7169C77.5844 62.1005 78.0299 62.7032 78.2154 63.0502C78.401 63.4155 78.5866 64.274 78.6237 64.968C78.7165 66.0639 78.6609 66.411 78.2526 67.2511C78.0113 67.8174 77.5844 68.5114 77.3246 68.8037C77.0648 69.1142 76.4152 69.6073 75.8584 69.8995C74.9861 70.3927 74.6892 70.4475 73.3715 70.4475C72.2023 70.4475 71.7197 70.3562 71.1073 70.0457C70.6618 69.8082 70.0494 69.3881 69.7153 69.1142C69.3813 68.8219 68.8987 68.1826 68.6389 67.6895C68.2492 66.9406 68.1749 66.5571 68.1935 65.242C68.1935 64.0913 68.2863 63.5251 68.5275 63.0502C68.7131 62.7032 69.1771 62.1005 69.5483 61.7169C69.9195 61.3333 70.5505 60.8584 70.9588 60.6393C71.3671 60.4384 72.0723 60.2192 72.5178 60.1461C72.9632 60.0913 73.7241 60.0913 74.1881 60.1461ZM71.7383 63.379C71.5527 63.5434 71.2743 63.9269 71.1258 64.2009C70.9959 64.4749 70.866 65.0046 70.8846 65.3881C70.8846 65.7717 71.033 66.3196 71.2372 66.6119C71.4228 66.9224 71.8682 67.3059 72.2394 67.4886C72.6106 67.6712 73.1302 67.7991 73.3715 67.7991C73.6313 67.7991 74.151 67.6712 74.5222 67.4886C74.8748 67.3059 75.3388 66.9224 75.5244 66.6119C75.71 66.3196 75.877 65.7717 75.877 65.3881C75.877 65.0046 75.7656 64.4749 75.6172 64.2009C75.4872 63.9269 75.2088 63.5616 75.0233 63.379C74.8377 63.1963 74.3737 62.9954 74.0025 62.9041C73.6313 62.831 73.056 62.831 72.7034 62.9041C72.3693 62.9772 71.9239 63.1963 71.7383 63.379Z" fill="#EADA86"/>
</svg>