<svg width="164" height="34" viewBox="0 0 164 34" fill="none" xmlns="http://www.w3.org/2000/svg">
<g id="&#208;&#161;&#208;&#190;&#209;&#134; &#209;&#129;&#208;&#181;&#209;&#130;&#208;&#184;">
<g id="TG">
<path id="Path-3" fill-rule="evenodd" clip-rule="evenodd" d="M2.50736 16.3079C12.0383 12.0915 18.4093 9.36618 21.5693 8.02925C30.6415 4.22413 32.5273 3.55566 33.7506 3.55566C34.0054 3.55566 34.617 3.60708 35.0248 3.91561C35.3306 4.17271 35.4325 4.53265 35.4835 4.78975C35.5344 5.04686 35.5854 5.61248 35.5344 6.07527C35.0248 11.2687 32.9351 23.9696 31.8138 29.7801C31.3551 32.2483 30.4377 33.071 29.5712 33.1739C27.6854 33.3281 26.2073 31.8884 24.3725 30.7057C21.5183 28.8031 19.8874 27.6205 17.0841 25.7693C13.8732 23.6097 15.9628 22.427 17.7977 20.5244C18.2564 20.0102 26.6661 12.3486 26.819 11.6287C26.819 11.5258 26.8699 11.2173 26.6661 11.0631C26.4622 10.9088 26.2073 10.9602 26.0035 11.0116C25.6977 11.0631 21.1106 14.1483 12.1912 20.2159C10.8661 21.1415 9.69381 21.5528 8.62349 21.5528C7.45123 21.5528 5.20865 20.8844 3.52671 20.3188C1.488 19.6503 -0.142963 19.2903 0.00994059 18.1591C0.162844 17.542 0.978327 16.925 2.50736 16.3079Z" fill="url(#paint0_linear_805_5717)"/>
</g>
<g id="Whatsaap">
<path id="Vector" fill-rule="evenodd" clip-rule="evenodd" d="M90.8921 4.65007C87.8844 1.65292 83.8841 0.00152062 79.6219 0C70.8392 0 63.6914 7.11272 63.6884 15.8555C63.6869 18.6504 64.421 21.3784 65.8153 23.7826L63.5547 32L72.0012 29.7951C74.3283 31.0588 76.9487 31.724 79.615 31.7248H79.6219C88.403 31.7248 95.5517 24.6113 95.5547 15.8685C95.5562 11.6313 93.9006 7.64798 90.8921 4.65083V4.65007ZM79.6219 29.047H79.6166C77.2406 29.0462 74.9097 28.4106 72.876 27.21L72.3924 26.9242L67.3799 28.2327L68.7177 23.3689L68.4029 22.8702C67.0774 20.7717 66.3768 18.3463 66.3783 15.8563C66.3814 8.59001 72.3221 2.67782 79.6273 2.67782C83.1645 2.67934 86.4894 4.05171 88.9898 6.54325C91.4903 9.03404 92.8662 12.346 92.8647 15.867C92.8616 23.134 86.921 29.0462 79.6219 29.0462V29.047ZM86.8858 19.1766C86.4878 18.9782 84.5305 18.0201 84.1653 17.8879C83.8001 17.7555 83.535 17.6895 83.2699 18.0863C83.0048 18.4832 82.2416 19.3758 82.0094 19.6396C81.7771 19.9042 81.5448 19.9369 81.1468 19.7384C80.7488 19.54 79.4661 19.1218 77.945 17.7723C76.7616 16.7215 75.9624 15.4245 75.7302 15.0275C75.498 14.6307 75.7058 14.4163 75.9044 14.2193C76.0831 14.0414 76.3024 13.7563 76.5018 13.5252C76.7013 13.294 76.767 13.1283 76.8998 12.8645C77.0328 12.5999 76.9663 12.3688 76.867 12.1703C76.7677 11.9719 75.9717 10.0216 75.6393 9.22865C75.3161 8.45619 74.9877 8.56112 74.7439 8.54819C74.5117 8.53678 74.2466 8.53451 73.9807 8.53451C73.7149 8.53451 73.2839 8.63335 72.9188 9.03023C72.5536 9.42707 71.5253 10.3858 71.5253 12.3353C71.5253 14.2847 72.9517 16.1696 73.151 16.4342C73.3504 16.6988 75.9586 20.7003 79.9519 22.4171C80.9016 22.8253 81.6434 23.0694 82.2217 23.2519C83.1752 23.5537 84.043 23.5112 84.7291 23.4092C85.4939 23.2952 87.0845 22.4505 87.416 21.5252C87.7476 20.5999 87.7476 19.8061 87.6483 19.6411C87.549 19.4761 87.2831 19.3765 86.8851 19.1781L86.8858 19.1766Z" fill="url(#paint1_linear_805_5717)"/>
</g>
<path id="Vector_2" fill-rule="evenodd" clip-rule="evenodd" d="M125.611 4H120.688C119.281 4 119 4.64425 119 5.35446C119 6.62313 120.669 12.915 126.771 21.2365C130.839 26.9194 136.571 30 141.787 30C144.916 30 145.303 29.3158 145.303 28.1373V23.8421C145.303 22.4737 145.599 22.2005 146.59 22.2005C147.321 22.2005 148.572 22.5558 151.493 25.2958C154.831 28.5432 155.381 30 157.259 30H162.182C163.589 30 164.292 29.3158 163.886 27.9656C163.442 26.6199 161.848 24.6673 159.734 22.3529C158.586 21.0336 156.865 19.6129 156.344 18.9024C155.613 17.9891 155.822 17.5831 156.344 16.7713C156.344 16.7713 162.341 8.55123 162.967 5.76061C163.28 4.74565 162.967 4 161.479 4H156.556C155.304 4 154.727 4.64425 154.414 5.35446C154.414 5.35446 151.91 11.2912 148.364 15.1476C147.216 16.2638 146.695 16.619 146.069 16.619C145.756 16.619 145.303 16.2638 145.303 15.2491V5.76061C145.303 4.54272 144.94 4 143.896 4H136.16C135.378 4 134.907 4.56516 134.907 5.10089C134.907 6.25529 136.681 6.52159 136.864 9.76899V16.8221C136.864 18.3684 136.576 18.6488 135.951 18.6488C134.282 18.6488 130.222 12.6855 127.814 5.86201C127.342 4.53574 126.869 4 125.611 4Z" fill="url(#paint2_linear_805_5717)"/>
</g>
<defs>
<linearGradient id="paint0_linear_805_5717" x1="7.02196e-08" y1="16.4276" x2="41.5874" y2="16.5595" gradientUnits="userSpaceOnUse">
<stop offset="0.309726" stop-color="#DFC38E"/>
<stop offset="0.870713" stop-color="#CEA654"/>
</linearGradient>
<linearGradient id="paint1_linear_805_5717" x1="63.5547" y1="13.9016" x2="100.983" y2="14.0006" gradientUnits="userSpaceOnUse">
<stop offset="0.309726" stop-color="#DFC38E"/>
<stop offset="0.870713" stop-color="#CEA654"/>
</linearGradient>
<linearGradient id="paint2_linear_805_5717" x1="119" y1="15.2951" x2="171.634" y2="15.5359" gradientUnits="userSpaceOnUse">
<stop offset="0.309726" stop-color="#DFC38E"/>
<stop offset="0.870713" stop-color="#CEA654"/>
</linearGradient>
</defs>
</svg>
