<svg width="31" height="29" viewBox="0 0 31 29" fill="none" xmlns="http://www.w3.org/2000/svg">
<path id="Vector" fill-rule="evenodd" clip-rule="evenodd" d="M25.7936 4.21412C23.0593 1.49796 19.4227 0.00137806 15.548 0C7.56371 0 1.06573 6.44591 1.06295 14.3691C1.06156 16.9019 1.729 19.3742 2.99651 21.5529L0.941406 29L8.62008 27.0018C10.7356 28.147 13.1178 28.7499 15.5417 28.7506H15.548C23.5308 28.7506 30.0296 22.304 30.0323 14.3808C30.0337 10.5409 28.5286 6.93098 25.7936 4.21481V4.21412ZM15.548 26.3238H15.5431C13.3831 26.3232 11.2642 25.7471 9.41535 24.6591L8.97569 24.4001L4.4189 25.5858L5.63501 21.1781L5.34887 20.7261C4.14386 18.8244 3.50698 16.6263 3.50837 14.3698C3.51115 7.78469 8.91178 2.42677 15.5529 2.42677C18.7685 2.42815 21.7911 3.67186 24.0642 5.92982C26.3374 8.18709 27.5883 11.1885 27.5869 14.3794C27.5841 20.9652 22.1835 26.3232 15.548 26.3232V26.3238ZM22.1515 17.3788C21.7896 17.199 20.0103 16.3307 19.6783 16.2109C19.3463 16.091 19.1054 16.0311 18.8643 16.3907C18.6233 16.7504 17.9295 17.5593 17.7184 17.7984C17.5072 18.0382 17.2961 18.0678 16.9342 17.8879C16.5724 17.7081 15.4063 17.3292 14.0235 16.1061C12.9477 15.1539 12.2212 13.9784 12.0101 13.6187C11.7989 13.2591 11.9879 13.0647 12.1684 12.8863C12.3309 12.7251 12.5303 12.4667 12.7115 12.2572C12.8928 12.0477 12.9526 11.8976 13.0734 11.6584C13.1943 11.4186 13.1338 11.2092 13.0435 11.0293C12.9532 10.8495 12.2296 9.0821 11.9274 8.36347C11.6336 7.66342 11.335 7.75851 11.1134 7.7468C10.9023 7.73646 10.6613 7.7344 10.4196 7.7344C10.1779 7.7344 9.78617 7.82397 9.45421 8.18365C9.12225 8.54329 8.18739 9.41216 8.18739 11.1788C8.18739 12.9455 9.48411 14.6537 9.66537 14.8935C9.84662 15.1333 12.2177 18.7596 15.848 20.3155C16.7113 20.6854 17.3857 20.9066 17.9114 21.072C18.7783 21.3455 19.5672 21.307 20.1909 21.2146C20.8861 21.1113 22.3321 20.3458 22.6335 19.5072C22.9349 18.6686 22.9349 17.9493 22.8447 17.7998C22.7544 17.6502 22.5127 17.56 22.1509 17.3801L22.1515 17.3788Z" fill="#25D366"/>
</svg>
