<svg width="34" height="34" viewBox="0 0 34 34" fill="none" xmlns="http://www.w3.org/2000/svg">
<g clip-path="url(#clip0_2491_14558)">
<path d="M34 25.3719C34 25.5582 33.9942 25.9599 33.9825 26.2743C33.9534 27.037 33.8952 28.0209 33.8021 28.4692C33.6623 29.1445 33.4586 29.7791 33.1849 30.3089C32.8647 30.9377 32.4572 31.4966 31.9681 31.9798C31.4849 32.463 30.926 32.8705 30.2973 33.1908C29.7675 33.4644 29.1271 33.6682 28.4459 33.8079C28.0034 33.8952 27.0253 33.9592 26.2685 33.9825C25.9541 33.9942 25.5524 34 25.3661 34H8.62226C8.43596 34 8.03425 33.9942 7.71986 33.9825C6.95719 33.9534 5.97329 33.8952 5.525 33.8021C4.84966 33.6623 4.21507 33.4586 3.68527 33.1849C3.05651 32.8647 2.4976 32.4572 2.01438 31.9681C1.53116 31.4849 1.12363 30.926 0.803425 30.2973C0.529795 29.7675 0.326027 29.1271 0.186301 28.4459C0.0989726 28.0034 0.0349315 27.0253 0.0116438 26.2685C0.00582192 25.9599 0 25.5582 0 25.3719V8.62808C0 8.44178 0.00582192 8.04007 0.0174658 7.72569C0.0465753 6.96301 0.104795 5.97911 0.197945 5.53082C0.337671 4.85548 0.541438 4.22089 0.815068 3.6911C1.13527 3.06233 1.54281 2.50342 2.02603 2.02021C2.50925 1.53699 3.06815 1.12945 3.69692 0.809247C4.22671 0.535616 4.86712 0.331849 5.54829 0.192123C5.99075 0.104795 6.96884 0.0407534 7.72569 0.0174658C8.04007 0.00582192 8.44178 0 8.62808 0H25.3719C25.5582 0 25.9599 0.00582192 26.2743 0.0174658C27.037 0.0465753 28.0209 0.104795 28.4692 0.197945C29.1445 0.337671 29.7791 0.541438 30.3089 0.815068C30.9377 1.13527 31.4966 1.54281 31.9798 2.03185C32.463 2.51507 32.8705 3.07397 33.1908 3.70274C33.4644 4.23253 33.6682 4.87295 33.8079 5.55411C33.8952 5.99658 33.9592 6.97466 33.9825 7.73151C33.9942 8.04589 34 8.4476 34 8.6339V25.3719Z" fill="url(#paint0_linear_2491_14558)"/>
<path fill-rule="evenodd" clip-rule="evenodd" d="M25.9424 8.13926C23.6544 5.85125 20.6095 4.58789 17.3667 4.58789C10.6831 4.58789 5.25128 10.0256 5.24546 16.7033C5.24546 18.8399 5.80436 20.9242 6.86395 22.7581L5.14648 29.0399L11.5739 27.3574C13.3437 28.3238 15.3348 28.8304 17.3667 28.8304H17.3725C24.0503 28.8304 29.4879 23.3927 29.4937 16.7149C29.4937 13.4721 28.2304 10.4273 25.9424 8.13926ZM17.3725 26.781C15.5619 26.781 13.7862 26.292 12.2434 25.378L11.8766 25.1625L8.06327 26.1639L9.0821 22.4495L8.8434 22.0711C7.83621 20.4701 7.30059 18.6129 7.30059 16.7091C7.30059 11.155 11.8242 6.63721 17.3783 6.63721C20.0681 6.63721 22.6006 7.68515 24.4985 9.58892C26.4023 11.4927 27.4503 14.0252 27.4444 16.7149C27.4386 22.2632 22.9208 26.781 17.3725 26.781ZM22.8975 19.2417C22.5948 19.0903 21.1044 18.3567 20.8307 18.2578C20.5513 18.1588 20.3533 18.1064 20.1496 18.4091C19.9458 18.7119 19.3694 19.393 19.189 19.5968C19.0143 19.8006 18.8338 19.8238 18.5311 19.6725C18.2283 19.5211 17.2503 19.2009 16.0975 18.1704C15.1951 17.367 14.5896 16.3773 14.415 16.0745C14.2403 15.7718 14.3975 15.6088 14.5489 15.4574C14.6828 15.3235 14.8516 15.1023 15.003 14.9276C15.1544 14.753 15.2068 14.6249 15.3057 14.4211C15.4047 14.2173 15.3581 14.0427 15.2824 13.8913C15.2068 13.7399 14.6013 12.2495 14.3509 11.6441C14.1064 11.056 13.8561 11.1317 13.6698 11.1259C13.4951 11.1143 13.2913 11.1143 13.0876 11.1143C12.8838 11.1143 12.5578 11.1899 12.2783 11.4927C11.9989 11.7954 11.2187 12.529 11.2187 14.0194C11.2187 15.5098 12.3016 16.9478 12.453 17.1516C12.6044 17.3554 14.5896 20.4119 17.6287 21.7218C18.3506 22.0362 18.9153 22.2225 19.3578 22.3622C20.0855 22.5951 20.7434 22.5602 21.2674 22.4845C21.8496 22.3971 23.0605 21.7509 23.3109 21.0465C23.5612 20.342 23.5612 19.7307 23.4855 19.6084C23.3982 19.4687 23.2003 19.393 22.8975 19.2417Z" fill="white"/>
</g>
<defs>
<linearGradient id="paint0_linear_2491_14558" x1="17.0013" y1="34.0026" x2="17.0013" y2="0" gradientUnits="userSpaceOnUse">
<stop stop-color="#25CF43"/>
<stop offset="1" stop-color="#61FD7D"/>
</linearGradient>
<clipPath id="clip0_2491_14558">
<rect width="34" height="34" fill="white"/>
</clipPath>
</defs>
</svg>
